<svg width="248" height="46" viewBox="0 0 248 46" fill="none" xmlns="http://www.w3.org/2000/svg">
<mask id="mask0_1167_17783" style="mask-type:alpha" maskUnits="userSpaceOnUse" x="0" y="0" width="248" height="46">
<rect x="0.278918" y="0.278918" width="247.442" height="45.3445" rx="22.6722" fill="#161616"/>
<rect x="0.278918" y="0.278918" width="247.442" height="45.3445" rx="22.6722" stroke="#2F2F2F" stroke-width="0.557836"/>
<rect x="0.278918" y="0.278918" width="247.442" height="45.3445" rx="22.6722" stroke="url(#paint0_linear_1167_17783)" stroke-width="0.557836"/>
</mask>
<g mask="url(#mask0_1167_17783)">
<rect x="0.278918" y="0.278918" width="247.442" height="45.3445" rx="22.6722" fill="#161616"/>
<rect x="0.278918" y="0.278918" width="247.442" height="45.3445" rx="22.6722" stroke="#2F2F2F" stroke-width="0.557836"/>
<rect x="0.278918" y="0.278918" width="247.442" height="45.3445" rx="22.6722" stroke="url(#paint1_linear_1167_17783)" stroke-width="0.557836"/>
<g filter="url(#filter0_f_1167_17783)">
<circle cx="137.624" cy="22.6551" r="8.62774" fill="#523DF8"/>
<circle cx="164.737" cy="22.6551" r="8.62774" fill="#006CEF"/>
<circle cx="191.854" cy="22.6551" r="8.62774" fill="#4BCEFD"/>
<circle cx="218.968" cy="22.6551" r="8.62774" fill="#10755B"/>
<circle cx="28.6434" cy="22.4854" r="8.62774" fill="#FB2B47"/>
<circle cx="55.7605" cy="22.4854" r="8.62774" fill="#F36622"/>
<circle cx="82.8777" cy="22.4854" r="8.62774" fill="#F2BD24"/>
<circle cx="109.991" cy="22.4854" r="8.62774" fill="white"/>
</g>
<circle cx="137.624" cy="22.6551" r="8.62774" fill="#523DF8"/>
<circle cx="164.737" cy="22.6551" r="8.62774" fill="#006CEF"/>
<circle cx="191.854" cy="22.6551" r="8.62774" fill="#4BCEFD"/>
<circle cx="218.968" cy="22.6551" r="8.62774" fill="#10755B"/>
<circle cx="28.6434" cy="22.4854" r="8.62774" fill="#FB2B47"/>
<circle cx="55.7605" cy="22.4854" r="8.62774" fill="#F36622"/>
<circle cx="82.8777" cy="22.4854" r="8.62774" fill="#F2BD24"/>
<circle cx="109.991" cy="22.4854" r="8.62774" fill="white"/>
</g>
<defs>
<filter id="filter0_f_1167_17783" x="-11.861" y="-18.0189" width="271.331" height="81.1783" filterUnits="userSpaceOnUse" color-interpolation-filters="sRGB">
<feFlood flood-opacity="0" result="BackgroundImageFix"/>
<feBlend mode="normal" in="SourceGraphic" in2="BackgroundImageFix" result="shape"/>
<feGaussianBlur stdDeviation="15.9383" result="effect1_foregroundBlur_1167_17783"/>
</filter>
<linearGradient id="paint0_linear_1167_17783" x1="28.3574" y1="-9.03276" x2="40.9926" y2="9.74166" gradientUnits="userSpaceOnUse">
<stop stop-color="#E9E9E9" stop-opacity="0.34"/>
<stop offset="1" stop-color="#2F2F2F" stop-opacity="0"/>
</linearGradient>
<linearGradient id="paint1_linear_1167_17783" x1="28.3574" y1="-9.03276" x2="40.9926" y2="9.74166" gradientUnits="userSpaceOnUse">
<stop stop-color="#E9E9E9" stop-opacity="0.34"/>
<stop offset="1" stop-color="#2F2F2F" stop-opacity="0"/>
</linearGradient>
</defs>
</svg>
