<svg width="244" height="234" viewBox="0 0 244 234" fill="none" xmlns="http://www.w3.org/2000/svg">
<rect x="1.39991" y="1.39991" width="241.2" height="231.2" rx="8.60009" fill="#161619" stroke="#323333" stroke-width="1.20019"/>
<path opacity="0.4" d="M26.4037 40.8701V31.1015H32.3681V32.5641H28.1078V35.2277H32.1199V36.697H28.1078V40.8701H26.4037ZM37.1652 41.0244C36.5659 41.0244 36.0314 40.9283 35.5617 40.7359C35.0921 40.5391 34.7119 40.2752 34.4212 39.9442C34.1349 39.6088 33.9157 39.2286 33.7637 38.8037C33.6161 38.3743 33.5423 37.9158 33.5423 37.4283C33.5423 36.9318 33.6183 36.4689 33.7704 36.0395C33.9224 35.6056 34.1438 35.2232 34.4346 34.8922C34.7298 34.5568 35.11 34.2929 35.5751 34.1005C36.0448 33.9082 36.5726 33.812 37.1585 33.812C37.7579 33.812 38.2901 33.9082 38.7553 34.1005C39.2205 34.2884 39.594 34.55 39.8757 34.8855C40.1575 35.2165 40.3678 35.5989 40.5064 36.0328C40.6495 36.4622 40.7211 36.9318 40.7211 37.4417C40.7211 37.9203 40.6473 38.3721 40.4997 38.797C40.3521 39.2174 40.1352 39.5954 39.8489 39.9308C39.5671 40.2663 39.1936 40.5324 38.7285 40.7292C38.2678 40.926 37.7467 41.0244 37.1652 41.0244ZM37.1317 39.6826C37.4582 39.6826 37.7445 39.6222 37.9905 39.5014C38.2365 39.3762 38.4288 39.2062 38.5675 38.9915C38.7106 38.7724 38.8157 38.5308 38.8828 38.2669C38.9543 38.003 38.9901 37.7168 38.9901 37.4082C38.9901 36.7507 38.8336 36.2117 38.5205 35.7912C38.2119 35.3708 37.7512 35.1606 37.1384 35.1606C36.7224 35.1606 36.3713 35.2657 36.085 35.4759C35.7988 35.6817 35.5908 35.95 35.4611 36.281C35.3358 36.612 35.2732 36.9877 35.2732 37.4082C35.2732 37.8241 35.3314 38.1976 35.4477 38.5286C35.5684 38.8596 35.7719 39.1347 36.0582 39.3538C36.3489 39.573 36.7068 39.6826 37.1317 39.6826ZM42.5058 40.8701V36.6098C42.5058 36.1222 42.4946 35.6615 42.4722 35.2277C42.4498 34.7893 42.4275 34.474 42.4051 34.2817L42.3716 33.9865H44.1361V34.9056C44.3732 34.5478 44.6885 34.2772 45.0821 34.0938C45.4802 33.906 45.8648 33.812 46.2361 33.812C46.6342 33.812 46.983 33.8657 47.2827 33.9731C47.5824 34.0759 47.8463 34.2459 48.0744 34.483C48.307 34.7155 48.4837 35.0376 48.6044 35.4491C48.7252 35.8606 48.7856 36.3593 48.7856 36.9452V40.8701H47.1217V36.8312C47.1217 36.2229 47.0255 35.7935 46.8332 35.543C46.6453 35.2881 46.3322 35.1606 45.8939 35.1606C45.7329 35.1606 45.5562 35.1964 45.3639 35.2679C45.1715 35.3395 44.9837 35.4401 44.8003 35.5698C44.6214 35.6951 44.4716 35.8628 44.3508 36.073C44.23 36.2788 44.1696 36.5047 44.1696 36.7507V40.8701H42.5058ZM54.6092 40.8634H53.9382C53.6699 40.8634 53.4373 40.8567 53.2405 40.8433C53.0437 40.8299 52.8402 40.8008 52.63 40.7561C52.4242 40.7113 52.2475 40.6532 52.0999 40.5816C51.9568 40.5056 51.8181 40.4049 51.684 40.2797C51.5498 40.1545 51.4424 40.0046 51.3619 39.8302C51.2814 39.6513 51.2165 39.4388 51.1673 39.1928C51.1226 38.9468 51.1003 38.665 51.1003 38.3475V35.1002H49.6645V33.9865H51.1673V32.3763L52.7574 31.8865V33.9865H54.5555V35.1002H52.7574V38.4481C52.7574 38.6628 52.7731 38.8372 52.8044 38.9714C52.8402 39.1011 52.8916 39.2107 52.9587 39.3002C53.0258 39.3851 53.1376 39.4478 53.2942 39.488C53.4552 39.5283 53.6296 39.5551 53.8175 39.5685C54.0053 39.5819 54.2692 39.5887 54.6092 39.5887V40.8634Z" fill="white"/>
<rect x="66.9805" y="19" width="158.015" height="32.9771" rx="5.49618" fill="#0E0E0E"/>
<path d="M165.289 37.3512C166.616 39.505 167.135 40.3319 168.001 40.7358V40.8704H165.078V40.7358C165.52 40.3896 165.308 39.9089 164.732 38.9281L162.559 35.3898L161.001 36.7551V39.505C161.001 40.1781 161.135 40.5627 161.443 40.7358C161.443 40.7742 161.443 40.8704 161.443 40.8704H159.059C159.059 40.8704 159.059 40.7742 159.059 40.7358C159.347 40.5627 159.482 40.1781 159.482 39.505V28.3707C159.482 27.6977 159.424 27.6207 159.059 27.563C159.059 27.5246 159.059 27.4092 159.059 27.4092L160.866 27.0054H161.001V36.582L163.039 34.7936C165.02 33.0244 165.481 32.2745 164.712 31.7745V31.6206H167.251V31.7745C166.193 32.1975 165.27 32.986 163.52 34.5244L165.289 37.3512Z" fill="white"/>
<path d="M156.383 31.6206C157.421 31.6206 158.018 31.986 158.671 32.7552L157.498 34.409L157.364 34.3321C157.325 33.2359 156.787 31.8129 155.748 31.9668C153.864 32.2552 153.614 37.2166 153.614 38.8512V39.6012C153.614 40.2742 153.748 40.5627 154.037 40.7357C154.037 40.7742 154.037 40.8704 154.037 40.8704H151.652C151.652 40.8704 151.652 40.7742 151.652 40.7357C151.96 40.5627 152.095 40.2742 152.095 39.6012V33.1013C152.095 32.4283 152.037 32.236 151.652 32.1783C151.652 32.1398 151.652 32.0437 151.652 32.0437L153.46 31.6206H153.614V36.7743C153.806 34.4475 154.345 31.6206 156.383 31.6206Z" fill="white"/>
<path d="M145.883 31.6206C148.46 31.6206 150.691 33.2359 150.691 35.8897C150.691 38.9666 148.056 40.9857 145.479 40.9857C142.883 40.9857 140.672 39.4089 140.672 36.7166C140.672 33.5436 143.306 31.6206 145.883 31.6206ZM146.96 40.6396C149.152 40.005 149.749 37.6012 149.075 35.2744C148.402 32.9667 146.595 31.3322 144.403 31.9668C142.21 32.6013 141.614 35.0051 142.287 37.332C142.96 39.6396 144.768 41.2934 146.96 40.6396Z" fill="white"/>
<path d="M139.554 27.4092H141.823V27.563C140.938 28.313 140.515 28.7168 139.534 30.7937L137.073 36.082V39.6012C137.073 40.2742 137.207 40.5627 137.515 40.7357C137.515 40.7742 137.515 40.8704 137.515 40.8704H135.131C135.131 40.8704 135.131 40.7742 135.131 40.7357C135.419 40.5627 135.554 40.2742 135.554 39.6012V36.2936C135.554 36.2936 132.323 30.236 131.919 29.4476C131.496 28.6784 130.842 28.063 130.246 27.563V27.4092H133.611V27.563C133.111 28.063 133.111 28.8707 133.842 30.236L136.919 36.0243L139.534 30.4668C140.342 28.6591 140.246 28.1399 139.554 27.563V27.4092Z" fill="white"/>
<path d="M123.937 31.6206H126.206V31.7744C125.437 32.5052 124.898 33.3321 124.283 34.7936L122.571 39.2742L123.187 40.8704H121.667C121.667 40.8704 119.302 34.6782 119.206 34.4282L117.629 39.505L118.206 40.8704H116.687L114.302 35.2551C113.495 33.3706 113.091 32.5437 112.148 31.7744V31.6206H115.11V31.7744C114.61 32.2937 114.783 32.8129 115.225 33.8898L117.533 39.3127L119.129 34.2359C118.648 33.0436 118.302 32.3898 117.552 31.7744V31.6206H120.514V31.7744C119.937 32.3706 120.187 32.986 120.706 34.3898L122.514 39.0819L123.937 35.3128C124.629 33.5244 124.802 32.4667 123.937 31.7744V31.6206Z" fill="white"/>
<path d="M110.199 34.6589C111.295 34.9474 112.295 36.0627 112.141 37.8127C112.026 39.178 110.814 40.9857 108.084 40.9857C105.43 40.9857 102.872 39.678 102.795 36.505C102.699 33.1782 105.718 31.7359 107.834 31.6205C109.468 31.5436 111.718 32.3321 111.987 34.6589C111.814 34.6589 110.622 34.6589 110.622 34.6589H110.199ZM106.968 31.8513C105.661 32.1013 104.814 33.1974 104.468 34.5051H110.603C110.353 32.8321 108.853 31.4859 106.968 31.8513ZM111.968 37.8512C112.199 35.8512 110.872 34.6589 109.41 34.6589H104.43C104.18 35.6781 104.237 36.8127 104.564 37.7358C105.276 39.7549 106.718 40.6395 108.68 40.5626C110.333 40.4857 111.776 39.3511 111.968 37.8512Z" fill="white"/>
<path d="M99.4186 27.4092H101.995C101.995 27.4092 101.995 27.5246 101.995 27.563C101.361 27.8899 100.784 28.8899 100.784 29.7168V40.8704H100.496L91.3419 29.1591V38.5627C91.3419 39.3896 91.9188 40.4088 92.5726 40.7357C92.5726 40.7742 92.5726 40.8704 92.5726 40.8704H89.9766C89.9766 40.8704 89.9766 40.7742 89.9766 40.7357C90.6304 40.4088 91.2073 39.3896 91.2073 38.5627V28.9861L89.9766 27.4092H91.9188L100.63 38.4473V29.7168C100.63 28.8899 100.053 27.8899 99.4186 27.563C99.4186 27.5246 99.4186 27.4092 99.4186 27.4092Z" fill="white"/>
<path opacity="0.4" d="M52.942 81.0647H56.3637C56.2832 80.5772 56.102 80.2037 55.8203 79.9443C55.5385 79.6849 55.1941 79.5551 54.787 79.5551C54.3084 79.5551 53.9081 79.6893 53.5861 79.9577C53.264 80.2261 53.0494 80.5951 52.942 81.0647ZM54.9078 85.4861C53.7493 85.4861 52.8347 85.1551 52.1637 84.4931C51.4973 83.8311 51.1641 82.9657 51.1641 81.8967C51.1641 81.4136 51.2446 80.9551 51.4056 80.5213C51.5666 80.0874 51.7925 79.7027 52.0832 79.3673C52.3784 79.0318 52.7497 78.7657 53.197 78.5689C53.6487 78.3721 54.1474 78.2737 54.6931 78.2737C55.2388 78.2737 55.7151 78.3676 56.1222 78.5555C56.5292 78.7433 56.8512 79.0072 57.0883 79.3472C57.3254 79.6826 57.4998 80.0606 57.6116 80.481C57.7279 80.9015 57.7861 81.3666 57.7861 81.8765C57.7861 82.0062 57.7749 82.1046 57.7525 82.1717H52.9219C52.9487 82.8427 53.1522 83.3391 53.5324 83.6612C53.9171 83.9832 54.427 84.1442 55.0621 84.1442C55.8046 84.1442 56.5292 83.8982 57.2359 83.4062L57.6854 84.6139C57.2516 84.9136 56.8132 85.135 56.3704 85.2781C55.9321 85.4168 55.4445 85.4861 54.9078 85.4861Z" fill="white"/>
<path opacity="0.4" d="M47.8633 85.332V75.5566H49.507V85.332H47.8633Z" fill="white"/>
<path opacity="0.4" d="M41.1396 88.3175L40.4418 87.1903C41.0635 86.9488 41.5287 86.6983 41.8373 86.4389C42.1504 86.184 42.3607 85.8753 42.468 85.513L42.5619 85.1776L39.6367 78.4482H41.3677L43.3603 83.3862L45.0779 78.4482H46.7753L43.9843 85.7076C43.792 86.1817 43.5392 86.5999 43.2261 86.9622C42.913 87.329 42.5865 87.6153 42.2466 87.821C41.9067 88.0268 41.5377 88.1922 41.1396 88.3175Z" fill="white"/>
<path opacity="0.4" d="M38.9916 85.3251H38.3206C38.0523 85.3251 37.8197 85.3184 37.6229 85.3049C37.4261 85.2915 37.2226 85.2624 37.0123 85.2177C36.8066 85.173 36.6299 85.1148 36.4823 85.0433C36.3392 84.9672 36.2005 84.8666 36.0663 84.7414C35.9322 84.6161 35.8248 84.4663 35.7443 84.2918C35.6638 84.1129 35.5989 83.9005 35.5497 83.6545C35.505 83.4085 35.4826 83.1267 35.4826 82.8091V79.5619H34.0469V78.4481H35.5497V76.8379L37.1398 76.3481V78.4481H38.9379V79.5619H37.1398V82.9098C37.1398 83.1244 37.1555 83.2989 37.1868 83.4331C37.2226 83.5628 37.274 83.6724 37.3411 83.7618C37.4082 83.8468 37.52 83.9094 37.6766 83.9497C37.8376 83.9899 38.012 84.0168 38.1999 84.0302C38.3877 84.0436 38.6516 84.0503 38.9916 84.0503V85.3251Z" fill="white"/>
<path opacity="0.4" d="M29.795 85.4861C29.1241 85.4861 28.4778 85.3877 27.856 85.1909C27.2343 84.9941 26.7445 84.7213 26.3867 84.3724L27.1113 83.1513C27.4289 83.3973 27.8404 83.6053 28.3458 83.7753C28.8557 83.9453 29.303 84.0302 29.6876 84.0302C30.2915 84.0302 30.7365 83.9184 31.0228 83.6948C31.3135 83.4711 31.4589 83.1312 31.4589 82.675C31.4589 82.4961 31.4455 82.3529 31.4186 82.2456C31.3918 82.1338 31.3314 82.0197 31.2375 81.9034C31.1435 81.7827 31.0027 81.6731 30.8148 81.5747C30.6314 81.4718 30.3832 81.3645 30.0701 81.2526C29.9359 81.2079 29.7078 81.1341 29.3857 81.0312C29.0682 80.9284 28.8356 80.8501 28.688 80.7964C27.8829 80.4923 27.2992 80.1344 26.9369 79.7229C26.5746 79.307 26.3934 78.7456 26.3934 78.0389C26.3934 77.4664 26.5433 76.9766 26.8429 76.5696C27.1471 76.1626 27.5496 75.8629 28.0506 75.6706C28.5516 75.4782 29.1241 75.3821 29.7682 75.3821C30.6404 75.3821 31.318 75.4671 31.8011 75.637C32.2841 75.807 32.7403 76.0977 33.1697 76.5092L32.2975 77.6364C31.7474 77.1131 30.9848 76.8514 30.0097 76.8514C29.4774 76.8514 29.0436 76.9431 28.7081 77.1265C28.3771 77.3099 28.2116 77.5894 28.2116 77.9651C28.2116 78.1485 28.2273 78.3006 28.2586 78.4214C28.2899 78.5376 28.3548 78.6539 28.4532 78.7702C28.556 78.8821 28.7014 78.9872 28.8893 79.0856C29.0771 79.1795 29.3276 79.2824 29.6407 79.3942C29.7525 79.4344 29.9851 79.5127 30.3384 79.629C30.6963 79.7408 30.9624 79.8303 31.1368 79.8974C31.933 80.2149 32.4876 80.5795 32.8007 80.991C33.1138 81.4025 33.2704 81.975 33.2704 82.7085C33.2704 83.1961 33.1742 83.6255 32.9819 83.9967C32.7895 84.3635 32.5279 84.652 32.1969 84.8622C31.8659 85.0724 31.4991 85.229 31.0966 85.3318C30.694 85.4347 30.2602 85.4861 29.795 85.4861Z" fill="white"/>
<rect x="66.8398" y="63.4614" width="158.015" height="32.9771" rx="5.49618" fill="#0E0E0E"/>
<path opacity="0.98" d="M115.74 84.1442C116.044 84.1442 116.31 84.0838 116.538 83.963C116.766 83.8378 116.945 83.6678 117.075 83.4531C117.209 83.234 117.308 82.9947 117.37 82.7352C117.437 82.4758 117.471 82.1963 117.471 81.8966C117.471 81.2257 117.326 80.68 117.035 80.2596C116.744 79.8346 116.308 79.6222 115.726 79.6222C115.337 79.6222 115.009 79.7273 114.74 79.9375C114.476 80.1477 114.286 80.4161 114.17 80.7426C114.058 81.0691 114.002 81.4448 114.002 81.8698C114.002 82.1784 114.034 82.4646 114.096 82.7285C114.163 82.9924 114.262 83.234 114.391 83.4531C114.526 83.6678 114.707 83.8378 114.935 83.963C115.167 84.0838 115.436 84.1442 115.74 84.1442ZM115.398 85.486C114.508 85.486 113.761 85.1595 113.157 84.5065C112.557 83.8535 112.258 82.9924 112.258 81.9234C112.258 81.4359 112.327 80.9752 112.466 80.5413C112.604 80.1075 112.803 79.7206 113.063 79.3806C113.327 79.0407 113.671 78.7723 114.096 78.5755C114.521 78.3743 114.997 78.2736 115.525 78.2736C115.999 78.2736 116.4 78.372 116.726 78.5688C117.057 78.7612 117.287 78.9624 117.417 79.1727V75.5564H119.068V83.4934C119.068 83.5202 119.088 84.133 119.128 85.3317H117.424L117.41 84.4528C117.37 84.5557 117.303 84.6608 117.209 84.7681C117.115 84.8755 116.99 84.9873 116.833 85.1036C116.677 85.2154 116.473 85.3071 116.223 85.3787C115.972 85.4502 115.697 85.486 115.398 85.486Z" fill="white"/>
<path opacity="0.98" d="M108.957 85.3317V75.5564H110.601V85.3317H108.957Z" fill="white"/>
<path opacity="0.98" d="M103.725 85.4861C103.125 85.4861 102.591 85.3899 102.121 85.1976C101.651 85.0008 101.271 84.7369 100.98 84.4059C100.694 84.0704 100.475 83.6902 100.323 83.2653C100.175 82.8359 100.102 82.3775 100.102 81.8899C100.102 81.3935 100.178 80.9305 100.33 80.5011C100.482 80.0673 100.703 79.6849 100.994 79.3539C101.289 79.0184 101.669 78.7545 102.134 78.5622C102.604 78.3698 103.132 78.2737 103.718 78.2737C104.317 78.2737 104.849 78.3698 105.315 78.5622C105.78 78.75 106.153 79.0117 106.435 79.3472C106.717 79.6781 106.927 80.0606 107.066 80.4944C107.209 80.9238 107.28 81.3935 107.28 81.9034C107.28 82.382 107.207 82.8337 107.059 83.2586C106.911 83.6791 106.694 84.057 106.408 84.3925C106.126 84.7279 105.753 84.9941 105.288 85.1909C104.827 85.3877 104.306 85.4861 103.725 85.4861ZM103.691 84.1442C104.018 84.1442 104.304 84.0839 104.55 83.9631C104.796 83.8379 104.988 83.6679 105.127 83.4532C105.27 83.234 105.375 82.9925 105.442 82.7286C105.514 82.4647 105.549 82.1784 105.549 81.8698C105.549 81.2123 105.393 80.6733 105.08 80.2529C104.771 79.8325 104.31 79.6222 103.698 79.6222C103.282 79.6222 102.931 79.7273 102.644 79.9376C102.358 80.1433 102.15 80.4117 102.02 80.7427C101.895 81.0737 101.833 81.4494 101.833 81.8698C101.833 82.2858 101.891 82.6593 102.007 82.9903C102.128 83.3212 102.331 83.5963 102.618 83.8155C102.908 84.0347 103.266 84.1442 103.691 84.1442Z" fill="white"/>
<path opacity="0.98" d="M93.1768 79.6153H94.6327C94.8608 79.6153 95.071 79.5952 95.2634 79.555C95.4557 79.5102 95.6368 79.4387 95.8068 79.3403C95.9812 79.2419 96.1177 79.1032 96.2161 78.9243C96.3145 78.7454 96.3637 78.5307 96.3637 78.2802C96.3637 77.7972 96.1959 77.4684 95.8605 77.294C95.525 77.1151 94.9972 77.0256 94.2771 77.0256H93.1768V79.6153ZM93.1969 83.8757H94.7333C96.1065 83.8757 96.7931 83.4172 96.7931 82.5003C96.7931 81.9278 96.6387 81.5342 96.3301 81.3195C96.026 81.1048 95.4803 80.9974 94.6931 80.9974H93.1969V83.8757ZM91.4727 85.3316V75.563H94.1765C94.4583 75.563 94.711 75.5697 94.9346 75.5831C95.1582 75.5921 95.4132 75.6167 95.6995 75.6569C95.9902 75.6927 96.2451 75.7464 96.4643 75.8179C96.6835 75.885 96.9049 75.9812 97.1285 76.1064C97.3522 76.2317 97.5355 76.3815 97.6787 76.556C97.8263 76.7259 97.9448 76.9406 98.0343 77.2C98.1282 77.455 98.1752 77.7435 98.1752 78.0655C98.1752 79.0316 97.7435 79.7272 96.8803 80.1521C97.4617 80.3086 97.8978 80.6038 98.1886 81.0377C98.4793 81.4671 98.6247 81.9792 98.6247 82.5741C98.6247 82.9454 98.5509 83.2942 98.4033 83.6207C98.2557 83.9428 98.0387 84.2335 97.7525 84.4929C97.4662 84.7524 97.0883 84.9581 96.6186 85.1102C96.1534 85.2578 95.6257 85.3316 95.0352 85.3316H91.4727Z" fill="white"/>
<path opacity="0.4" d="M46.7506 172.011H50.1723C50.0918 171.523 49.9106 171.15 49.6288 170.891C49.3471 170.631 49.0027 170.501 48.5956 170.501C48.117 170.501 47.7167 170.636 47.3947 170.904C47.0726 171.172 46.8579 171.541 46.7506 172.011ZM48.7164 176.432C47.5579 176.432 46.6432 176.101 45.9723 175.439C45.3059 174.777 44.9727 173.912 44.9727 172.843C44.9727 172.36 45.0532 171.901 45.2142 171.468C45.3752 171.034 45.6011 170.649 45.8918 170.314C46.187 169.978 46.5583 169.712 47.0055 169.515C47.4573 169.318 47.956 169.22 48.5017 169.22C49.0474 169.22 49.5237 169.314 49.9308 169.502C50.3378 169.69 50.6598 169.954 50.8969 170.293C51.1339 170.629 51.3084 171.007 51.4202 171.427C51.5365 171.848 51.5946 172.313 51.5946 172.823C51.5946 172.953 51.5835 173.051 51.5611 173.118H46.7305C46.7573 173.789 46.9608 174.285 47.341 174.607C47.7257 174.93 48.2356 175.091 48.8707 175.091C49.6132 175.091 50.3378 174.845 51.0445 174.353L51.494 175.56C51.0601 175.86 50.6218 176.081 50.179 176.224C49.7407 176.363 49.2531 176.432 48.7164 176.432Z" fill="white"/>
<path opacity="0.4" d="M38.2031 176.278V175.399L41.4504 170.723H38.3709V169.395H43.6107V170.26L40.3367 174.956H43.7852V176.278H38.2031Z" fill="white"/>
<path opacity="0.4" d="M34.9922 167.972V166.51H36.6024V167.972H34.9922ZM34.9989 176.278V169.394H36.6024V176.278H34.9989Z" fill="white"/>
<path opacity="0.4" d="M29.7911 176.432C29.1202 176.432 28.4738 176.334 27.8521 176.137C27.2304 175.94 26.7406 175.668 26.3828 175.319L27.1074 174.098C27.425 174.344 27.8365 174.552 28.3419 174.722C28.8518 174.892 29.2991 174.977 29.6837 174.977C30.2876 174.977 30.7326 174.865 31.0189 174.641C31.3096 174.417 31.455 174.078 31.455 173.621C31.455 173.442 31.4416 173.299 31.4147 173.192C31.3879 173.08 31.3275 172.966 31.2336 172.85C31.1396 172.729 30.9987 172.619 30.8109 172.521C30.6275 172.418 30.3793 172.311 30.0662 172.199C29.932 172.154 29.7039 172.08 29.3818 171.978C29.0643 171.875 28.8317 171.796 28.6841 171.743C27.879 171.439 27.2953 171.081 26.933 170.669C26.5707 170.253 26.3895 169.692 26.3895 168.985C26.3895 168.413 26.5394 167.923 26.839 167.516C27.1432 167.109 27.5457 166.809 28.0467 166.617C28.5477 166.425 29.1202 166.328 29.7643 166.328C30.6365 166.328 31.3141 166.413 31.7971 166.583C32.2802 166.753 32.7364 167.044 33.1658 167.456L32.2936 168.583C31.7435 168.059 30.9809 167.798 30.0058 167.798C29.4735 167.798 29.0397 167.889 28.7042 168.073C28.3732 168.256 28.2077 168.536 28.2077 168.911C28.2077 169.095 28.2234 169.247 28.2547 169.368C28.286 169.484 28.3508 169.6 28.4492 169.717C28.5521 169.828 28.6975 169.933 28.8853 170.032C29.0732 170.126 29.3237 170.229 29.6368 170.34C29.7486 170.381 29.9812 170.459 30.3345 170.575C30.6924 170.687 30.9585 170.777 31.1329 170.844C31.9291 171.161 32.4837 171.526 32.7968 171.937C33.1099 172.349 33.2665 172.921 33.2665 173.655C33.2665 174.142 33.1703 174.572 32.978 174.943C32.7856 175.31 32.524 175.598 32.193 175.808C31.862 176.019 31.4952 176.175 31.0927 176.278C30.6901 176.381 30.2563 176.432 29.7911 176.432Z" fill="white"/>
<rect x="66.8359" y="154.408" width="75.5725" height="32.9771" rx="5.49618" fill="#0E0E0E"/>
<path opacity="0.98" d="M102.754 166.342C103.653 166.342 104.374 166.615 104.915 167.16C105.46 167.706 105.733 168.491 105.733 169.515C105.733 169.73 105.713 169.94 105.673 170.146C105.637 170.352 105.595 170.533 105.545 170.689C105.496 170.846 105.418 171.016 105.311 171.199C105.208 171.383 105.12 171.53 105.049 171.642C104.982 171.754 104.872 171.897 104.72 172.071C104.573 172.246 104.463 172.373 104.391 172.454C104.32 172.53 104.199 172.657 104.029 172.836L102.083 174.883H105.659V176.278H99.9969V175.05L102.821 171.91C103.05 171.655 103.206 171.481 103.291 171.387C103.376 171.289 103.488 171.148 103.627 170.964C103.77 170.777 103.866 170.627 103.915 170.515C103.964 170.403 104.009 170.267 104.049 170.106C104.094 169.945 104.116 169.777 104.116 169.602C104.116 169.473 104.101 169.294 104.069 169.066C104.029 168.82 103.962 168.612 103.868 168.442C103.779 168.267 103.667 168.135 103.533 168.046C103.403 167.952 103.262 167.885 103.11 167.845C102.962 167.804 102.795 167.784 102.607 167.784C102.482 167.784 102.352 167.795 102.218 167.818C102.083 167.836 101.954 167.863 101.829 167.898C101.703 167.93 101.578 167.968 101.453 168.012C101.328 168.053 101.211 168.097 101.104 168.147C100.997 168.191 100.891 168.238 100.789 168.287C100.69 168.332 100.603 168.377 100.527 168.422C100.451 168.462 100.384 168.5 100.326 168.536C100.268 168.567 100.223 168.594 100.191 168.616L100.145 168.643L99.5742 167.308C99.61 167.281 99.6592 167.248 99.7218 167.207C99.7889 167.163 99.932 167.084 100.151 166.972C100.37 166.861 100.594 166.762 100.822 166.677C101.055 166.592 101.348 166.516 101.701 166.449C102.054 166.378 102.406 166.342 102.754 166.342Z" fill="white"/>
<path opacity="0.98" d="M92.2951 176.278L95.9919 167.905H91.168V166.51H97.9644V167.811L94.12 176.278H92.2951Z" fill="white"/>
<path opacity="0.4" d="M51.8022 126.553V122.293C51.8022 121.805 51.791 121.344 51.7686 120.911C51.7462 120.472 51.7239 120.157 51.7015 119.965L51.668 119.669H53.4325V120.588C53.6695 120.231 53.9849 119.96 54.3785 119.777C54.7766 119.589 55.1612 119.495 55.5325 119.495C55.9306 119.495 56.2794 119.549 56.5791 119.656C56.8788 119.759 57.1427 119.929 57.3708 120.166C57.6034 120.398 57.7801 120.72 57.9008 121.132C58.0216 121.543 58.082 122.042 58.082 122.628V126.553H56.4181V122.514C56.4181 121.906 56.3219 121.476 56.1296 121.226C55.9417 120.971 55.6286 120.843 55.1903 120.843C55.0293 120.843 54.8526 120.879 54.6603 120.951C54.4679 121.022 54.2801 121.123 54.0967 121.253C53.9178 121.378 53.768 121.546 53.6472 121.756C53.5264 121.962 53.466 122.188 53.466 122.434V126.553H51.8022Z" fill="white"/>
<path opacity="0.4" d="M46.6512 125.298C46.915 125.298 47.1476 125.256 47.3489 125.171C47.5502 125.081 47.7134 124.967 47.8387 124.829C47.9639 124.686 48.0646 124.516 48.1406 124.319C48.2211 124.122 48.2748 123.925 48.3016 123.728C48.3329 123.527 48.3486 123.315 48.3486 123.091C48.3486 122.42 48.2077 121.879 47.9259 121.467C47.6486 121.051 47.2304 120.843 46.6713 120.843C46.2866 120.843 45.9579 120.953 45.685 121.172C45.4167 121.387 45.2221 121.66 45.1013 121.991C44.9806 122.322 44.9202 122.691 44.9202 123.098C44.9202 123.787 45.0611 124.326 45.3429 124.715C45.6246 125.104 46.0607 125.298 46.6512 125.298ZM46.3291 129.357C45.4345 129.357 44.5624 129.201 43.7125 128.888L44.001 127.452C44.6719 127.801 45.4077 127.975 46.2083 127.975C46.8524 127.975 47.3556 127.837 47.7179 127.559C48.0802 127.287 48.2614 126.873 48.2614 126.318V125.734C47.8678 126.28 47.293 126.553 46.5371 126.553C45.5218 126.553 44.7077 126.242 44.0949 125.62C43.4822 124.994 43.1758 124.153 43.1758 123.098C43.1758 122.615 43.2406 122.163 43.3703 121.742C43.5001 121.318 43.6924 120.935 43.9473 120.595C44.2023 120.255 44.54 119.987 44.9604 119.79C45.3853 119.593 45.8684 119.495 46.4096 119.495C46.8345 119.495 47.2058 119.58 47.5233 119.75C47.8454 119.92 48.0936 120.139 48.2681 120.407V119.669H50.0326C49.9431 120.349 49.8984 121.119 49.8984 121.977V125.567C49.8984 128.094 48.7086 129.357 46.3291 129.357Z" fill="white"/>
<path opacity="0.4" d="M39.8867 118.247V116.784H41.4969V118.247H39.8867ZM39.8934 126.553V119.669H41.4969V126.553H39.8934Z" fill="white"/>
<path opacity="0.4" d="M36.3555 126.553V116.778H37.9992V126.553H36.3555Z" fill="white"/>
<path opacity="0.4" d="M29.1382 122.581H31.7548C31.2405 121.056 30.8088 119.788 30.46 118.777C30.1692 119.622 29.7287 120.89 29.1382 122.581ZM25.7031 126.553L29.628 116.784H31.359L35.3174 126.553H33.3919L32.4459 124.171H28.5009L27.575 126.553H25.7031Z" fill="white"/>
<rect x="66.8398" y="107.431" width="158.015" height="32.9771" rx="5.49618" fill="#0E0E0E"/>
<rect x="75.0859" y="110.179" width="42.5954" height="27.4809" rx="2.74809" fill="#353535"/>
<path d="M195.316 130.103H200.812M191.193 125.981H200.812M192.567 121.858H200.812M188.445 117.736H200.812" stroke="white" stroke-width="1.03053" stroke-linecap="round" stroke-linejoin="round"/>
<path d="M90.8906 130.102H96.3868M90.8906 125.98H100.509M90.8906 121.858H99.1349M90.8906 117.736H103.257" stroke="white" stroke-width="1.03053" stroke-linecap="round" stroke-linejoin="round"/>
<path d="M143.787 128.728H149.283M142.413 120.484H150.657M140.352 124.606H152.718M140.352 116.362H152.718" stroke="white" stroke-width="1.03053" stroke-linecap="round" stroke-linejoin="round"/>
</svg>
