<svg width="100" height="54" viewBox="0 0 100 54" fill="none" xmlns="http://www.w3.org/2000/svg">
<mask id="mask0_3408_23359" style="mask-type:alpha" maskUnits="userSpaceOnUse" x="0" y="0" width="100" height="54">
<rect width="100" height="54" fill="#D9D9D9"/>
</mask>
<g mask="url(#mask0_3408_23359)">
<path d="M97.8758 17.773C97.9151 18.2009 97.7403 18.4327 97.3513 18.4685C97.2346 18.4792 97.0874 18.478 96.9096 18.465C96.7416 18.451 96.5674 18.4229 96.387 18.3806C96.2066 18.3383 96.0399 18.285 95.8869 18.2206C95.7427 18.1456 95.6365 18.0573 95.5683 17.9557C95.478 17.8267 95.4262 17.6893 95.4128 17.5434C95.3984 17.3878 95.3837 17.2274 95.3685 17.0621C95.1117 14.9085 94.8368 12.7714 94.5438 10.6507C94.2596 8.5193 93.9741 6.37334 93.6872 4.21279C93.6257 3.75752 93.5643 3.30225 93.5028 2.84698C93.4404 2.38199 93.3878 1.9161 93.3449 1.44932C93.3243 1.22565 93.3334 1.0581 93.3722 0.946659C93.4101 0.825494 93.5555 0.75329 93.8083 0.730048C93.9348 0.718426 94.0727 0.72536 94.2221 0.75085C94.3707 0.766615 94.5113 0.802722 94.644 0.859174C94.7855 0.905006 94.9093 0.972076 95.0155 1.06038C95.1305 1.13807 95.2182 1.23789 95.2784 1.35984C95.3147 1.43496 95.3725 1.68953 95.4516 2.12356C95.5404 2.5567 95.6409 3.11626 95.753 3.80224C95.8642 4.47849 95.9839 5.24713 96.1121 6.10815C96.2403 6.96917 96.3711 7.85937 96.5047 8.77874C96.647 9.68749 96.7846 10.5967 96.9172 11.5063C97.049 12.4063 97.1701 13.2434 97.2805 14.0178C97.4006 14.7913 97.5021 15.4685 97.5849 16.0492C97.6774 16.6291 97.7504 17.049 97.8037 17.3089C97.8108 17.3867 97.8228 17.4641 97.8397 17.541C97.8566 17.6179 97.8686 17.6952 97.8758 17.773ZM95.8201 20.3745C95.8112 20.2772 95.8385 20.2012 95.9021 20.1463C95.9648 20.0817 96.0439 20.0352 96.1393 20.0068C96.2436 19.9678 96.3444 19.9438 96.4416 19.9349C96.5486 19.925 96.641 19.9165 96.7188 19.9094C96.816 19.9004 96.9283 19.895 97.0556 19.8931C97.1918 19.8806 97.32 19.8884 97.4403 19.9166C97.5596 19.9351 97.6618 19.9796 97.7468 20.0503C97.8405 20.1103 97.8932 20.2035 97.9049 20.3299C97.9093 20.3785 97.9143 20.486 97.9198 20.6522C97.9341 20.8078 97.9448 20.9784 97.9521 21.1641C97.9691 21.3488 97.975 21.5199 97.9699 21.6773C97.9736 21.824 97.971 21.9027 97.9621 21.9134C97.9136 22.0257 97.8266 22.0925 97.7011 22.1139C97.5765 22.1449 97.4558 22.1658 97.3391 22.1766C97.0474 22.2034 96.8272 22.2089 96.6787 22.1932C96.5301 22.1774 96.4178 22.1289 96.3417 22.0476C96.2753 21.9655 96.2203 21.8479 96.1769 21.695C96.1431 21.5412 96.0952 21.3397 96.033 21.0904C96.0028 20.9755 95.9629 20.8615 95.9133 20.7484C95.8637 20.6352 95.8326 20.5106 95.8201 20.3745Z" fill="#90D0FF"/>
<path d="M93.9964 19.4382C94.0232 19.73 93.9682 20.039 93.8315 20.3654C93.7045 20.6909 93.5267 20.9965 93.298 21.2824C93.0684 21.5584 92.7959 21.7943 92.4804 21.99C92.1747 22.1849 91.8614 22.297 91.5405 22.3265C91.0834 22.3685 90.6815 22.3172 90.3348 22.1726C89.9872 22.0182 89.678 21.8015 89.4071 21.5223C89.1354 21.2335 88.9039 20.9017 88.7125 20.5271C88.5309 20.1515 88.3776 19.7635 88.2525 19.3631C88.1265 18.953 88.0253 18.5455 87.9489 18.1407C87.8813 17.7252 87.8318 17.3473 87.8005 17.0069C87.7737 16.7152 87.7566 16.3686 87.7491 15.9672C87.7513 15.5649 87.7717 15.1463 87.8102 14.7112C87.8583 14.2753 87.9362 13.8415 88.0436 13.41C88.151 12.9784 88.2965 12.5875 88.48 12.2372C88.6733 11.886 88.9113 11.5944 89.194 11.3625C89.4864 11.1297 89.832 10.9949 90.2307 10.9583C90.5419 10.9297 90.8248 10.9674 91.0796 11.0715C91.344 11.1746 91.5688 11.3256 91.7537 11.5243C91.9476 11.7125 92.1007 11.9387 92.2133 12.2029C92.3356 12.4663 92.4101 12.7438 92.4369 13.0355C92.4718 13.4148 92.4223 13.8361 92.2883 14.2996C92.1544 14.763 91.9657 15.2167 91.7221 15.6608C91.4882 16.104 91.2119 16.5119 90.8931 16.8844C90.5832 17.2463 90.266 17.5305 89.9418 17.7368C89.9773 17.9101 90.0399 18.1642 90.1295 18.4992C90.2183 18.8245 90.3265 19.1479 90.4541 19.4696C90.5915 19.7904 90.7394 20.0661 90.8979 20.2967C91.0661 20.5265 91.2475 20.6324 91.442 20.6145C91.5392 20.6055 91.6192 20.5688 91.6819 20.5042C91.7543 20.4387 91.8152 20.3546 91.8647 20.252C91.9141 20.1494 91.9528 20.038 91.981 19.9177C92.0189 19.7965 92.0524 19.6807 92.0815 19.5701L92.1502 19.3579C92.167 19.3269 92.1749 19.3066 92.174 19.2968C92.1829 19.2862 92.1912 19.2707 92.1992 19.2504C92.2556 19.1177 92.3081 18.9952 92.3566 18.8829C92.4149 18.7696 92.4988 18.6688 92.6083 18.5802L92.5937 18.5816C92.629 18.5391 92.6661 18.5161 92.705 18.5125C92.7528 18.4983 92.7961 18.4894 92.835 18.4858C92.942 18.476 93.0618 18.4993 93.1945 18.5558C93.3271 18.6122 93.4519 18.689 93.5687 18.7862C93.6846 18.8736 93.7824 18.9774 93.8621 19.0975C93.9409 19.208 93.9856 19.3215 93.9964 19.4382ZM90.5168 13.2709C90.5079 13.1736 90.4936 13.072 90.4741 12.9659C90.4545 12.8598 90.4217 12.7697 90.3757 12.6955C90.2547 12.8733 90.1515 13.0838 90.066 13.327C89.9893 13.5596 89.9285 13.8055 89.8837 14.0646C89.838 14.314 89.8024 14.5673 89.777 14.8246C89.7614 15.081 89.7537 15.3171 89.7539 15.5328C89.979 15.2081 90.1714 14.8472 90.331 14.4501C90.4897 14.0432 90.5517 13.6501 90.5168 13.2709Z" fill="#90D0FF"/>
<path d="M87.6663 20.0203C87.6931 20.312 87.6382 20.6211 87.5015 20.9474C87.3745 21.2729 87.1966 21.5786 86.9679 21.8644C86.7383 22.1405 86.4658 22.3764 86.1504 22.5721C85.8446 22.7669 85.5313 22.8791 85.2104 22.9086C84.7534 22.9506 84.3515 22.8993 84.0047 22.7546C83.6571 22.6002 83.3479 22.3835 83.0771 22.1044C82.8053 21.8155 82.5738 21.4838 82.3825 21.1091C82.2008 20.7335 82.0475 20.3455 81.9224 19.9451C81.7965 19.535 81.6952 19.1275 81.6188 18.7227C81.5512 18.3072 81.5017 17.9293 81.4705 17.5889C81.4436 17.2972 81.4265 16.9506 81.419 16.5492C81.4213 16.1469 81.4416 15.7283 81.4801 15.2933C81.5283 14.8573 81.6061 14.4236 81.7135 13.992C81.8209 13.5604 81.9664 13.1695 82.15 12.8192C82.3432 12.468 82.5812 12.1764 82.8639 11.9445C83.1563 11.7117 83.5019 11.5769 83.9006 11.5403C84.2118 11.5117 84.4948 11.5494 84.7495 11.6535C85.0139 11.7567 85.2387 11.9076 85.4237 12.1064C85.6175 12.2945 85.7707 12.5207 85.8832 12.7849C86.0055 13.0483 86.08 13.3258 86.1069 13.6176C86.1417 13.9968 86.0922 14.4182 85.9583 14.8816C85.8243 15.345 85.6356 15.7988 85.392 16.2429C85.1582 16.686 84.8818 17.0939 84.563 17.4665C84.2531 17.8284 83.936 18.1125 83.6117 18.3188C83.6472 18.4921 83.7098 18.7462 83.7995 19.0812C83.8882 19.4065 83.9964 19.73 84.124 20.0517C84.2614 20.3725 84.4093 20.6482 84.5678 20.8788C84.736 21.1085 84.9174 21.2144 85.1119 21.1965C85.2091 21.1876 85.2891 21.1508 85.3518 21.0862C85.4242 21.0207 85.4852 20.9366 85.5346 20.834C85.584 20.7314 85.6228 20.62 85.6509 20.4997C85.6888 20.3786 85.7223 20.2627 85.7514 20.1521L85.8201 19.9399C85.8369 19.9089 85.8448 19.8886 85.8439 19.8789C85.8528 19.8682 85.8612 19.8528 85.8691 19.8324C85.9255 19.6997 85.978 19.5772 86.0265 19.4649C86.0848 19.3517 86.1687 19.2508 86.2782 19.1623L86.2636 19.1636C86.299 19.1211 86.3361 19.0981 86.375 19.0945C86.4227 19.0803 86.466 19.0715 86.5049 19.0679C86.6119 19.058 86.7317 19.0814 86.8644 19.1378C86.9971 19.1943 87.1218 19.2711 87.2386 19.3682C87.3545 19.4556 87.4523 19.5594 87.532 19.6796C87.6108 19.79 87.6556 19.9036 87.6663 20.0203ZM84.1867 13.8529C84.1778 13.7557 84.1636 13.654 84.144 13.5479C84.1244 13.4419 84.0916 13.3517 84.0456 13.2775C83.9246 13.4553 83.8214 13.6658 83.7359 13.9091C83.6592 14.1417 83.5984 14.3875 83.5536 14.6466C83.5079 14.896 83.4723 15.1493 83.447 15.4066C83.4313 15.6631 83.4236 15.8991 83.4238 16.1149C83.6489 15.7902 83.8413 15.4292 84.0009 15.0321C84.1597 14.6252 84.2216 14.2322 84.1867 13.8529Z" fill="#90D0FF"/>
<path d="M76.4398 23.9804C76.2939 23.9939 76.1317 23.9892 75.9531 23.9664C75.7842 23.9426 75.6179 23.8942 75.4543 23.821C75.3003 23.7469 75.1641 23.6515 75.0455 23.5349C74.9357 23.4077 74.8724 23.2517 74.8554 23.067C74.8303 22.7947 74.8155 22.5264 74.8108 22.262C74.8149 21.987 74.8195 21.7169 74.8246 21.4517L74.8259 21.4663L74.8236 20.4809C74.8206 20.1281 74.8096 19.7418 74.7906 19.3218C74.7716 18.9019 74.7473 18.4775 74.7177 18.0487C74.6969 17.6093 74.6722 17.1801 74.6435 16.7611C74.6147 16.342 74.5843 15.9574 74.5521 15.6073C74.5333 15.4031 74.5097 15.1994 74.4812 14.996C74.4615 14.7821 74.4419 14.5682 74.4222 14.3542C74.3955 14.1703 74.3719 13.9666 74.3513 13.7429C74.3299 13.5095 74.3102 13.2956 74.2923 13.1011C74.2735 12.8969 74.2826 12.7293 74.3196 12.5984C74.3655 12.4569 74.5148 12.3745 74.7677 12.3513C74.9913 12.3307 75.2301 12.3676 75.4839 12.462C75.7475 12.5554 75.9377 12.7047 76.0546 12.9097L76.0401 12.911C76.0985 13.0135 76.1486 13.1854 76.1904 13.4267C76.2411 13.6574 76.2797 13.8647 76.3064 14.0486C76.4485 13.7806 76.6087 13.4962 76.787 13.1954C76.975 12.8937 77.1799 12.615 77.4015 12.3592C77.6223 12.0938 77.8617 11.8707 78.1196 11.6901C78.3776 11.5095 78.6622 11.4049 78.9734 11.3763C79.3818 11.3387 79.7024 11.4122 79.9351 11.5968C80.1678 11.7813 80.3471 12.0247 80.473 12.327C80.5979 12.6195 80.6814 12.9404 80.7233 13.2895C80.7643 13.629 80.7978 13.9398 80.8237 14.2218L80.8344 14.3385C80.8451 14.4552 80.851 14.5723 80.852 14.6899C80.8618 14.7969 80.8518 14.9008 80.8218 15.0016C80.8007 15.0918 80.749 15.1701 80.6669 15.2365C80.5945 15.302 80.4853 15.3414 80.3394 15.3548C80.1838 15.3691 80.0167 15.3649 79.8381 15.3421C79.6586 15.3096 79.487 15.2567 79.3234 15.1835C79.1695 15.1093 79.0332 15.014 78.9146 14.8974C78.7951 14.7711 78.7225 14.6209 78.6967 14.4467C78.6895 14.3689 78.6824 14.2911 78.6752 14.2133C78.6681 14.1355 78.6658 14.0573 78.6683 13.9786C78.6639 13.93 78.6585 13.8716 78.6523 13.8036C78.6548 13.7249 78.653 13.6515 78.6467 13.5834C78.3642 13.9232 78.1223 14.3328 77.9212 14.8122C77.7298 15.2907 77.5606 15.7966 77.4135 16.3299C77.2761 16.8623 77.1635 17.3973 77.0756 17.935C76.9868 18.4629 76.913 18.9404 76.8542 19.3675L76.8582 19.4112C76.8568 19.7154 76.8646 20.0138 76.8817 20.3064C76.8988 20.599 76.9168 20.9014 76.9357 21.2135C76.9581 21.5645 76.9762 21.9207 76.9898 22.2823C77.0131 22.6431 77.021 22.9954 77.0134 23.3393C77.0109 23.5259 76.9655 23.6722 76.8772 23.7784C76.7995 23.8934 76.6537 23.9608 76.4398 23.9804Z" fill="#90D0FF"/>
<path d="M73.321 5.74628C73.3308 5.85325 73.2907 5.9501 73.2006 6.03684C73.1193 6.11296 73.0177 6.18114 72.8958 6.24138C72.7729 6.2919 72.6492 6.3327 72.5246 6.36377C72.3999 6.39484 72.3036 6.4135 72.2355 6.41976C72.0118 6.44032 71.7996 6.4255 71.5989 6.37531C71.3972 6.31539 71.1841 6.29085 70.9596 6.30169C70.6467 6.41871 70.3777 6.63957 70.1526 6.96428C69.9275 7.28898 69.7683 7.74492 69.6752 8.33208C69.5821 8.91924 69.5656 9.64646 69.6257 10.5137C69.6858 11.381 69.8451 12.4206 70.1036 13.6325C70.7046 13.4498 71.2637 13.2905 71.7808 13.1547C72.3067 13.0083 72.7155 12.9217 73.0073 12.8949C73.2406 12.8734 73.4069 12.9219 73.5061 13.0402C73.6052 13.1586 73.6637 13.315 73.6816 13.5095C73.6995 13.704 73.6966 13.8857 73.6729 14.0546C73.6492 14.2235 73.5596 14.369 73.4041 14.4912L70.3983 15.2382C70.4845 15.6422 70.5614 16.0519 70.629 16.4674C70.7054 16.8723 70.7814 17.2723 70.857 17.6674C71.1288 18.9173 71.3553 19.9409 71.5364 20.7382C71.7273 21.5346 71.8792 22.1728 71.9919 22.6528C72.1135 23.1221 72.2036 23.462 72.2622 23.6724C72.3296 23.8721 72.3766 24.01 72.4032 24.086C72.4289 24.1523 72.4413 24.1806 72.4404 24.1708C72.4492 24.1602 72.455 24.1695 72.4577 24.1987C72.4764 24.4029 72.4262 24.5497 72.3069 24.6391C72.1885 24.7383 72.0418 24.7959 71.8668 24.812C71.7306 24.8245 71.5834 24.8233 71.4252 24.8084C71.2775 24.8024 71.1285 24.7818 70.9782 24.7466C70.8278 24.7114 70.6903 24.6554 70.5655 24.5786C70.4408 24.5018 70.3483 24.4024 70.2881 24.2804C70.1495 23.6263 69.999 23.0027 69.8366 22.4096C69.6742 21.8165 69.5242 21.1978 69.3865 20.5534C69.2381 19.7923 69.0754 18.9835 68.8986 18.1269C68.7315 17.2695 68.5826 16.4496 68.4519 15.6672C68.4139 15.6805 68.3754 15.689 68.3365 15.6926C68.2967 15.6864 68.2525 15.6856 68.2039 15.69C68.0483 15.7043 67.9139 15.6824 67.8007 15.6241C67.6963 15.5553 67.6351 15.4236 67.6172 15.2291C67.5967 15.0054 67.6314 14.7963 67.7214 14.6017C67.8211 14.4062 67.9801 14.269 68.1984 14.1901C68.1201 13.6579 68.0315 13.0679 67.9327 12.4199C67.8339 11.7719 67.7585 11.112 67.7066 10.4401C67.6537 9.75847 67.6469 9.09714 67.686 8.4561C67.734 7.80444 67.8669 7.22342 68.0848 6.71306C68.3017 6.19297 68.6249 5.76118 69.0543 5.4177C69.4836 5.07422 70.0581 4.86941 70.7777 4.80326C70.9236 4.78985 71.13 4.79539 71.3971 4.81987C71.6738 4.84347 71.9533 4.89623 72.2354 4.97817C72.5166 5.05039 72.7612 5.15049 72.9691 5.27848C73.1867 5.40558 73.304 5.56151 73.321 5.74628Z" fill="#90D0FF"/>
<path d="M62.5242 14.2409C62.5349 14.3576 62.5001 14.4589 62.4198 14.5447C62.3491 14.6297 62.2581 14.7067 62.1468 14.7757C62.0346 14.8351 61.9161 14.8803 61.7915 14.9114C61.6766 14.9415 61.5802 14.9602 61.5024 14.9674C61.3858 14.9781 61.273 14.9786 61.1643 14.969C61.0546 14.9497 60.945 14.9303 60.8353 14.911C60.7257 14.8917 60.6213 14.8767 60.5223 14.8662C60.4223 14.846 60.3189 14.8408 60.2119 14.8506C60.0661 14.864 59.9224 14.9018 59.781 14.9638C59.6396 15.0258 59.5146 15.106 59.4059 15.2042C59.2973 15.3025 59.2099 15.4184 59.1437 15.5519C59.0873 15.6846 59.0662 15.8288 59.0805 15.9844C59.1019 16.2177 59.172 16.4467 59.2907 16.6711C59.4085 16.8858 59.556 17.1027 59.733 17.3218C59.9198 17.54 60.1264 17.7613 60.353 17.9856C60.5884 18.1994 60.834 18.4171 61.0897 18.6387C61.4003 18.924 61.7114 19.2141 62.0229 19.5091C62.3442 19.8032 62.6327 20.115 62.8885 20.4445C63.1541 20.7732 63.3777 21.1253 63.5593 21.5008C63.741 21.8764 63.8515 22.2781 63.8908 22.706C63.9248 23.0756 63.8919 23.412 63.7923 23.7154C63.7025 24.0178 63.5551 24.2815 63.3502 24.5062C63.155 24.7301 62.9068 24.9099 62.6054 25.0454C62.3147 25.1898 61.9894 25.2786 61.6296 25.3117C61.5323 25.3206 61.3798 25.315 61.172 25.2949C60.974 25.2739 60.7454 25.2409 60.4863 25.1961C60.2263 25.1415 59.9561 25.083 59.6758 25.0205C59.4052 24.9571 59.1536 24.8871 58.921 24.8104C58.6972 24.7231 58.5079 24.6376 58.3531 24.5537C58.2071 24.4593 58.1301 24.3683 58.122 24.2807C58.1113 24.1641 58.1541 24.0424 58.2503 23.9159C58.3457 23.7797 58.4618 23.6562 58.5987 23.5455C58.7348 23.4252 58.8775 23.3238 59.0268 23.2414C59.1859 23.1581 59.3189 23.1116 59.4258 23.1018C59.5717 23.0884 59.7256 23.1085 59.8874 23.1623C60.059 23.2152 60.2315 23.2778 60.4048 23.3501C60.5985 23.4304 60.7914 23.5009 60.9833 23.5617C61.1849 23.6216 61.3879 23.6422 61.5921 23.6234C61.7477 23.6091 61.8303 23.5476 61.8399 23.4388C61.8592 23.3292 61.8626 23.2063 61.8501 23.0701C61.8188 22.7298 61.731 22.4142 61.5866 22.1235C61.4413 21.823 61.2628 21.5354 61.0512 21.2607C60.8397 20.9859 60.5998 20.7236 60.3316 20.4736C60.0626 20.214 59.794 19.9592 59.5259 19.7092C59.248 19.4602 58.975 19.2107 58.7068 18.9607C58.4484 18.7099 58.2139 18.452 58.0032 18.1869C57.7916 17.9122 57.6136 17.6294 57.4692 17.3387C57.3345 17.0471 57.2515 16.7311 57.2202 16.3907C57.1818 15.9726 57.2398 15.5897 57.3941 15.242C57.5476 14.8847 57.759 14.5711 58.0284 14.3011C58.3076 14.0303 58.6261 13.8147 58.984 13.6543C59.3507 13.4833 59.7237 13.3804 60.103 13.3455C60.2294 13.3339 60.4266 13.3452 60.6945 13.3794C60.9615 13.4039 61.226 13.4531 61.4877 13.5271C61.7495 13.6011 61.9839 13.6973 62.1909 13.8155C62.3979 13.9338 62.509 14.0756 62.5242 14.2409Z" fill="#90D0FF"/>
<path d="M57.2512 24.7145C57.2691 24.909 57.2189 25.0558 57.1005 25.1549C56.9821 25.2541 56.8305 25.3121 56.6458 25.3291C56.5291 25.3399 56.4066 25.3413 56.2784 25.3335C56.1493 25.3159 56.0251 25.2979 55.9057 25.2795C55.6961 25.2399 55.529 25.1817 55.4042 25.1049C55.2892 25.0272 55.1976 24.9376 55.1294 24.836C55.0603 24.7246 55.0098 24.6018 54.9779 24.4674C54.9556 24.3322 54.932 24.1824 54.9071 24.0179C54.9027 23.9693 54.8938 23.926 54.8805 23.888C54.8769 23.8491 54.8733 23.8102 54.8697 23.7713C54.7896 23.2197 54.7081 22.6535 54.6253 22.0727C54.5522 21.491 54.4902 20.923 54.4393 20.3687C54.4133 20.0867 54.3874 19.8047 54.3615 19.5226C54.3453 19.2397 54.3291 18.9568 54.3129 18.6739C54.2967 18.391 54.2761 18.1134 54.2511 17.8411C54.2349 17.5582 54.2138 17.2757 54.1879 16.9937C54.1825 16.9354 54.1727 16.8823 54.1585 16.8346C54.1532 16.7763 54.1429 16.7184 54.1279 16.6609C53.909 17.0537 53.7233 17.4876 53.5708 17.9625C53.4272 18.4268 53.3048 18.9088 53.2036 19.4084C53.1015 19.8983 53.0194 20.3913 52.9571 20.8874C52.9036 21.3728 52.863 21.8375 52.8352 22.2814L52.8196 22.5917C52.8022 22.9365 52.7858 23.2911 52.7702 23.6554C52.7538 24.0099 52.7617 24.3623 52.7938 24.7123C52.8073 24.8582 52.8463 25.0164 52.911 25.187C52.9376 25.263 52.9594 25.3395 52.9762 25.4164C53.002 25.4827 53.0197 25.5693 53.0296 25.6763C53.051 25.9096 53.007 26.0706 52.8974 26.1591C52.7888 26.2574 52.6372 26.3154 52.4427 26.3333C52.326 26.3441 52.1938 26.3464 52.0462 26.3404C51.9082 26.3334 51.769 26.3119 51.6284 26.2758C51.4984 26.2485 51.3719 26.2062 51.2489 26.1489C51.126 26.0915 51.0256 26.0125 50.9476 25.9118C50.8777 25.7907 50.7885 25.4606 50.6801 24.9214C50.5814 24.3813 50.4706 23.7099 50.3478 22.9072C50.2347 22.1036 50.1127 21.2028 49.9817 20.2047C49.8499 19.197 49.7157 18.1649 49.5794 17.1085C49.4528 16.0512 49.3271 15.0036 49.2023 13.9657C49.0872 12.927 48.9796 11.9709 48.8797 11.0975C48.7896 10.2231 48.7101 9.46551 48.6414 8.82458C48.5718 8.17392 48.5249 7.71731 48.5008 7.45475C48.4829 7.26026 48.4911 7.08298 48.5254 6.92291C48.5686 6.75223 48.7166 6.65527 48.9694 6.63203C49.232 6.60789 49.4858 6.64831 49.7308 6.75327C49.9749 6.84851 50.1621 7.01764 50.2923 7.26064C50.3153 7.29775 50.3495 7.45642 50.3949 7.73665C50.4393 8.00715 50.4914 8.36031 50.5511 8.79613C50.6099 9.22223 50.6749 9.71639 50.7462 10.2786C50.8166 10.8311 50.8893 11.408 50.9641 12.0091C51.0381 12.6005 51.1125 13.1968 51.1874 13.7979C51.2623 14.3991 51.3336 14.9613 51.4013 15.4847L51.6727 17.6368C51.7617 17.3246 51.8785 16.9952 52.0231 16.6484C52.1678 16.3017 52.3394 15.9819 52.5381 15.6891C52.7464 15.3953 52.9836 15.148 53.2495 14.947C53.5251 14.7452 53.838 14.6281 54.1881 14.5959C54.616 14.5566 54.9618 14.6376 55.2254 14.8389C55.4891 15.0402 55.6945 15.3009 55.8416 15.6208C55.9984 15.9398 56.1088 16.2876 56.1729 16.6642C56.2369 17.0407 56.2832 17.3846 56.3118 17.6958C56.3297 17.8903 56.3423 18.0804 56.3495 18.266C56.3665 18.4508 56.3786 18.636 56.3859 18.8217C56.3941 19.0171 56.4022 19.2125 56.4104 19.4078C56.4274 19.5926 56.4448 19.7822 56.4627 19.9767C56.5243 20.6477 56.6024 21.3368 56.6968 22.0441C56.7904 22.7415 56.9268 23.4253 57.1061 24.0953L57.154 24.2968C57.1788 24.3534 57.1997 24.4201 57.2165 24.497C57.2334 24.5739 57.245 24.6464 57.2512 24.7145Z" fill="#90D0FF"/>
<path d="M47.7356 26.0154C47.7454 26.1224 47.7296 26.217 47.6881 26.2993C47.6457 26.3718 47.5874 26.4311 47.5132 26.4771C47.4487 26.5223 47.3732 26.5538 47.2865 26.5715C47.2105 26.5981 47.1336 26.615 47.0558 26.6222C46.9489 26.632 46.8211 26.629 46.6725 26.6133C46.5346 26.6063 46.3953 26.5848 46.2547 26.5487C46.1141 26.5126 45.9823 26.4659 45.8594 26.4085C45.7453 26.3406 45.6541 26.2558 45.5859 26.1542C45.5186 26.0623 45.4486 25.8873 45.3758 25.6292C45.3119 25.3605 45.2493 25.0524 45.1879 24.705C45.1257 24.3479 45.0665 23.9709 45.0104 23.5739C44.9534 23.1673 44.8982 22.7801 44.8448 22.4124C44.8011 22.0437 44.761 21.714 44.7244 21.4231C44.6967 21.1217 44.6761 20.898 44.6627 20.7521C44.6002 20.0714 44.5495 19.4141 44.5109 18.7802C44.4811 18.1357 44.4499 17.4766 44.4174 16.8029C44.3688 16.8074 44.3206 16.8167 44.2729 16.8309C44.2251 16.8451 44.177 16.8544 44.1283 16.8589C44.0037 16.89 43.8738 16.9166 43.7385 16.9389C43.613 16.9602 43.4821 16.9772 43.346 16.9897C43.1807 17.0049 43.0321 16.9891 42.9003 16.9424C42.7686 16.8957 42.6933 16.7702 42.6745 16.566C42.6522 16.3229 42.6878 16.1234 42.7813 15.9677C42.8749 15.812 43.0008 15.6877 43.1589 15.5947C43.3162 15.492 43.4907 15.4171 43.6825 15.37C43.8735 15.3133 44.0604 15.2667 44.2434 15.2302C44.2726 15.2275 44.292 15.2257 44.3017 15.2249C44.3106 15.2142 44.3296 15.2076 44.3587 15.2049C44.3577 15.0873 44.3545 14.9454 44.349 14.7792C44.3427 14.6033 44.335 14.4127 44.3259 14.2076C44.3061 13.8858 44.2894 13.5441 44.2758 13.1825C44.2613 12.8112 44.2486 12.4593 44.2376 12.1269C44.2258 11.7847 44.2228 11.4859 44.2288 11.2304C44.2338 10.9651 44.246 10.7777 44.2653 10.668C44.3023 10.5372 44.3464 10.4301 44.3976 10.347C44.4585 10.2629 44.5765 10.2128 44.7516 10.1967C45.1405 10.161 45.4536 10.2597 45.6908 10.4929C45.928 10.726 46.0636 11.0274 46.0975 11.3969C46.1369 11.8248 46.1616 12.254 46.1718 12.6846C46.1917 13.1143 46.212 13.5488 46.2328 13.9882L46.2574 14.7362C46.4978 14.6846 46.7369 14.6185 46.9747 14.5378C47.2036 14.4678 47.433 14.4025 47.6628 14.3422C47.9023 14.2809 48.1339 14.24 48.3576 14.2195C48.5521 14.2016 48.7077 14.2412 48.8245 14.3384C48.9405 14.4258 49.0073 14.5667 49.0252 14.7612C49.0449 14.9752 49.0252 15.1878 48.9662 15.3992C48.9072 15.6106 48.7853 15.7787 48.6007 15.9035L48.6153 15.9022C48.5781 15.9252 48.4641 15.9651 48.2732 16.0219C48.0814 16.0689 47.8604 16.1187 47.6103 16.1711C47.3698 16.2226 47.1294 16.2741 46.889 16.3257C46.6582 16.3763 46.485 16.4118 46.3692 16.4323L46.3546 16.4336C46.3852 16.98 46.4202 17.521 46.4597 18.0568C46.4982 18.5828 46.5425 19.1181 46.5926 19.6627C46.6614 20.4115 46.7542 21.2071 46.8709 22.0496C46.9964 22.8814 47.1475 23.6717 47.3242 24.4204L47.5012 25.0661C47.5553 25.2278 47.6045 25.39 47.6489 25.5526C47.6924 25.7056 47.7213 25.8598 47.7356 26.0154Z" fill="#90D0FF"/>
<path d="M38.9811 27.1141C39.0016 27.3377 38.947 27.4899 38.8171 27.5704C38.6969 27.6501 38.5444 27.6985 38.3597 27.7155C38.1944 27.7307 38.0277 27.7313 37.8597 27.7173C37.7023 27.7121 37.5476 27.6822 37.3954 27.6276C37.253 27.572 37.123 27.4908 37.0053 27.384C36.8973 27.2762 36.8154 27.1317 36.7595 26.9505C36.5697 26.3796 36.4396 25.8178 36.3692 25.2653C36.2979 24.7031 36.235 24.1254 36.1805 23.5321L36.0155 21.738C35.9405 20.9211 35.8967 20.0719 35.8843 19.1904C35.8711 18.2992 35.8658 17.4416 35.8685 16.6176C35.8658 16.5884 35.8675 16.554 35.8737 16.5142C35.8798 16.4744 35.882 16.4448 35.8802 16.4253C35.8801 16.3174 35.884 16.1994 35.8918 16.0712C35.8996 15.943 35.9185 15.8285 35.9485 15.7276C35.9873 15.6162 36.0424 15.5229 36.114 15.4477C36.1952 15.3715 36.3039 15.3272 36.4401 15.3147C36.5957 15.3004 36.7447 15.321 36.8871 15.3766C37.0383 15.4215 37.1723 15.4926 37.2891 15.5897C37.4051 15.6771 37.4989 15.7911 37.5706 15.9316C37.6521 16.0712 37.7 16.2188 37.7143 16.3744C37.7295 16.5397 37.7416 16.7249 37.7507 16.93C37.7588 17.1254 37.7612 17.3115 37.7579 17.4884C37.7624 17.537 37.7624 17.5909 37.758 17.6502C37.7634 17.7085 37.7635 17.7624 37.7582 17.812C37.8693 17.5271 37.999 17.2308 38.1472 16.923C38.2945 16.6054 38.4689 16.3148 38.6702 16.0512C38.8803 15.7769 39.1144 15.5494 39.3724 15.3688C39.6401 15.1873 39.9441 15.0809 40.2845 15.0496C40.5665 15.0236 40.8039 15.0459 40.9967 15.1165C41.1896 15.187 41.347 15.3 41.4692 15.4555C41.6002 15.6004 41.695 15.778 41.7536 15.9884C41.8218 16.1978 41.8672 16.4241 41.8895 16.6672C41.9199 16.9979 41.941 17.3343 41.9529 17.6764C41.9638 18.0089 41.9748 18.3413 41.9857 18.6737C41.9878 19.0167 41.9943 19.3545 42.0053 19.6869C42.0162 20.0193 42.0374 20.3557 42.0686 20.6961C42.1062 21.1045 42.1548 21.5266 42.2145 21.9625C42.2733 22.3886 42.3404 22.7992 42.416 23.1943C42.4906 23.5797 42.567 23.9306 42.6451 24.2471C42.7224 24.5538 42.7933 24.7925 42.8581 24.963C42.9104 25.1053 42.9649 25.2719 43.0217 25.4628C43.0873 25.6431 43.1489 25.8336 43.2066 26.0343C43.2731 26.2243 43.3294 26.4103 43.3756 26.5924C43.4217 26.7745 43.4515 26.9385 43.4649 27.0843C43.4846 27.2983 43.4096 27.4425 43.2399 27.5169C43.08 27.5905 42.9173 27.6348 42.752 27.65C42.5867 27.6652 42.3957 27.6681 42.1791 27.6586C41.9731 27.6579 41.7834 27.6214 41.61 27.5491C41.3924 27.422 41.2375 27.2303 41.1453 26.974C41.0628 26.7168 41.0002 26.4626 40.9575 26.2116L40.8776 25.8218C40.8269 25.591 40.7599 25.2883 40.6764 24.9135C40.5929 24.5387 40.5058 24.125 40.4152 23.6724C40.3343 23.219 40.2569 22.7504 40.183 22.2669C40.1083 21.7736 40.0494 21.2936 40.0065 20.8268C39.9681 20.4086 39.9456 20.0037 39.939 19.6121C39.9421 19.2195 39.9448 18.8221 39.9471 18.4198C39.9477 18.2138 39.9471 18.0471 39.9452 17.9198C39.9433 17.7925 39.9427 17.6258 39.9434 17.4198C39.7775 17.7489 39.6165 18.1315 39.4605 18.5675C39.3044 19.0035 39.1599 19.4581 39.0269 19.9313C38.893 20.3947 38.7727 20.8471 38.6662 21.2884C38.5694 21.7288 38.4968 22.113 38.4485 22.441L38.3905 22.77C38.3562 22.9301 38.3267 23.0897 38.3021 23.2489C38.2873 23.4071 38.2861 23.5543 38.2986 23.6905C38.3147 23.8655 38.3432 24.0689 38.3841 24.3005C38.4241 24.5223 38.4681 24.734 38.516 24.9356C38.5675 25.176 38.6244 25.4209 38.6865 25.6701C38.6883 25.6896 38.7038 25.7519 38.7331 25.8571C38.7624 25.9623 38.7935 26.0869 38.8263 26.231C38.8592 26.375 38.8881 26.5293 38.913 26.6937C38.9468 26.8475 38.9694 26.9876 38.9811 27.1141Z" fill="#90D0FF"/>
<path d="M34.9654 21.526C35.0432 22.372 35.048 23.2248 34.9799 24.0842C34.9206 24.9331 34.7066 25.752 34.3378 26.541C34.2223 26.7772 34.0868 27.0103 33.9314 27.2403C33.7751 27.4606 33.5976 27.6633 33.3989 27.8483C33.2108 28.0421 32.9947 28.1992 32.7508 28.3197C32.5176 28.4491 32.2648 28.5262 31.9925 28.5513C31.5646 28.5906 31.1808 28.5229 30.8411 28.3482C30.5121 28.1823 30.2161 27.9496 29.9532 27.6502C29.6991 27.3401 29.4755 26.988 29.2824 26.5939C29.0981 26.1891 28.9425 25.7768 28.8156 25.357C28.6976 24.9265 28.6004 24.5089 28.5239 24.104C28.4572 23.6982 28.4096 23.3398 28.381 23.0286C28.3488 22.6785 28.3281 22.293 28.3188 21.8722C28.3095 21.4514 28.3188 21.019 28.3467 20.5751C28.3842 20.1304 28.4417 19.6887 28.5191 19.2501C28.6061 18.8106 28.7299 18.3971 28.8905 18.0097C29.0501 17.6126 29.2526 17.2556 29.4981 16.9388C29.7427 16.6123 30.0368 16.345 30.3806 16.1369L30.3819 16.1515C30.6779 15.9576 30.9815 15.8463 31.2927 15.8177C31.4872 15.7998 31.6419 15.8297 31.7569 15.9074C31.8711 15.9754 31.9322 16.1071 31.9404 16.3025C32.4841 16.3505 32.9406 16.5685 33.3097 16.9562C33.6787 17.344 33.9763 17.807 34.2023 18.3452C34.438 18.8825 34.6118 19.4402 34.7238 20.0183C34.8455 20.5956 34.9261 21.0981 34.9654 21.526ZM31.3335 18.1823C31.1682 18.1975 31.0068 18.1486 30.8493 18.0356C30.6905 18.3346 30.5648 18.6747 30.4724 19.0558C30.379 19.4272 30.3113 19.811 30.2693 20.2072C30.2361 20.5927 30.2228 20.9813 30.2293 21.3729C30.2359 21.7646 30.2549 22.1306 30.2862 22.471C30.3121 22.753 30.3602 23.1163 30.4305 23.561C30.4999 23.9959 30.594 24.4335 30.713 24.8736C30.8416 25.3129 30.9967 25.7204 31.1784 26.0959C31.3697 26.4706 31.5954 26.7392 31.8555 26.9016C32.1409 26.6988 32.3634 26.3989 32.523 26.0017C32.6915 25.594 32.8131 25.1562 32.8878 24.6884C32.9624 24.2207 32.9978 23.7516 32.9938 23.2812C32.9995 22.81 32.9871 22.409 32.9567 22.0784C32.9344 21.8353 32.8908 21.5206 32.8258 21.1343C32.7609 20.748 32.6761 20.3586 32.5713 19.9661C32.4657 19.564 32.3336 19.1936 32.175 18.8552C32.0261 18.5158 31.8513 18.2671 31.6504 18.109C31.5656 18.1463 31.4599 18.1707 31.3335 18.1823Z" fill="#90D0FF"/>
<path d="M18.8209 28.9676C18.8415 29.1912 18.7868 29.3434 18.6569 29.424C18.5368 29.5037 18.3843 29.552 18.1995 29.569C18.0342 29.5842 17.8675 29.5848 17.6995 29.5708C17.5422 29.5657 17.3874 29.5358 17.2353 29.4811C17.0929 29.4255 16.9628 29.3443 16.8451 29.2375C16.7372 29.1297 16.6552 28.9852 16.5993 28.804C16.4096 28.2331 16.2795 27.6713 16.2091 27.1188C16.1378 26.5566 16.0749 25.9789 16.0203 25.3857L15.8554 23.5915C15.7803 22.7746 15.7366 21.9254 15.7242 21.044C15.7109 20.1528 15.7056 19.2952 15.7083 18.4711C15.7056 18.442 15.7074 18.4075 15.7135 18.3677C15.7197 18.3279 15.7219 18.2983 15.7201 18.2788C15.72 18.171 15.7238 18.0529 15.7316 17.9247C15.7395 17.7965 15.7584 17.682 15.7883 17.5812C15.8271 17.4697 15.8823 17.3764 15.9538 17.3012C16.0351 17.2251 16.1438 17.1807 16.2799 17.1682C16.4355 17.1539 16.5845 17.1745 16.7269 17.2301C16.8782 17.275 17.0122 17.3461 17.129 17.4432C17.2449 17.5306 17.3387 17.6446 17.4105 17.7851C17.492 17.9247 17.5399 18.0723 17.5542 18.2279C17.572 18.4224 17.5811 18.6275 17.5813 18.8432C17.5904 19.0483 17.5941 19.249 17.5925 19.4453C17.5856 19.5833 17.5804 19.6867 17.5769 19.7557C17.5832 19.8237 17.5886 19.936 17.5932 20.0925C17.6911 19.8776 17.8036 19.6613 17.9307 19.4437C18.0666 19.2154 18.2198 19.015 18.3903 18.8424C18.5599 18.6601 18.7472 18.5105 18.9522 18.3936C19.166 18.2661 19.3993 18.1907 19.6522 18.1674C19.905 18.1442 20.1181 18.1687 20.2915 18.2411C20.4639 18.3037 20.6055 18.4034 20.7162 18.5404C20.8259 18.6676 20.9092 18.8266 20.966 19.0175C21.0227 19.2085 21.061 19.4109 21.0806 19.6248C21.0931 19.761 21.1004 19.8927 21.1023 20.02C21.1139 20.1464 21.1206 20.2733 21.1225 20.4006C21.1244 20.5279 21.1263 20.6552 21.1282 20.7826C21.1389 20.8992 21.1506 21.0257 21.1631 21.1618C21.1863 21.4147 21.2135 21.6573 21.2447 21.8898C21.2847 22.1117 21.3261 22.3482 21.3688 22.5992C21.4365 22.2694 21.5197 21.894 21.6183 21.473C21.7266 21.0512 21.8535 20.6178 21.9989 20.1729C22.1541 19.7272 22.3247 19.2898 22.5108 18.8608C22.7058 18.4212 22.9198 18.0289 23.1529 17.6838C23.3957 17.3379 23.6637 17.0534 23.957 16.8303C24.2494 16.5974 24.5658 16.4654 24.9062 16.4341C25.441 16.3849 25.8297 16.5061 26.0723 16.7976C26.3246 17.0882 26.473 17.4767 26.5177 17.9629C26.5303 18.0991 26.5388 18.2454 26.5434 18.4019C26.5471 18.5486 26.5454 18.691 26.5385 18.8289C26.5382 19.3585 26.5489 19.9018 26.5706 20.4588C26.6022 21.0149 26.642 21.5555 26.6903 22.0806L26.7158 22.3578C26.7784 23.0385 26.8665 23.6776 26.9803 24.2752C27.0941 24.8728 27.2693 25.499 27.5061 26.1539L27.659 26.537C27.7104 26.6696 27.768 26.8163 27.8318 26.9771C27.9054 27.1371 27.9687 27.2931 28.0219 27.4451C28.0751 27.5971 28.1226 27.7399 28.1643 27.8733C28.206 28.0068 28.2304 28.1124 28.2375 28.1902C28.2563 28.3944 28.1959 28.5373 28.0563 28.6188C27.9167 28.7002 27.7691 28.7481 27.6135 28.7624C27.5162 28.7714 27.4039 28.7768 27.2766 28.7787C27.1502 28.7903 27.0224 28.7874 26.8933 28.7698C26.7749 28.7611 26.655 28.7378 26.5339 28.6999C26.4224 28.6611 26.3291 28.6059 26.2539 28.5344L26.2552 28.549C26.1596 28.4695 26.0866 28.3683 26.0361 28.2455C25.9856 28.1226 25.9448 27.9989 25.9137 27.8743L25.8724 27.7457C25.688 27.2331 25.528 26.7721 25.3923 26.3629C25.2663 25.9528 25.155 25.5413 25.0582 25.1286C24.9614 24.7158 24.8778 24.287 24.8075 23.8424C24.747 23.3968 24.6899 22.8823 24.6362 22.2989C24.5906 21.8029 24.5636 21.2954 24.5551 20.7764C24.5564 20.2566 24.5585 19.7464 24.5615 19.246C24.5571 19.1974 24.5522 19.1439 24.5468 19.0855C24.5503 19.0166 24.5546 18.9573 24.5599 18.9078C24.2431 19.5155 23.9754 20.1776 23.7569 20.894C23.5472 21.5997 23.3635 22.3227 23.206 23.0629C23.0582 23.8022 22.9352 24.5441 22.8369 25.2886C22.7475 26.0225 22.6695 26.7211 22.603 27.3843C22.6039 27.394 22.6287 27.4505 22.6774 27.5539C22.735 27.6467 22.7895 27.7594 22.8409 27.892C22.9011 28.0139 22.9565 28.1363 23.007 28.2591C23.0567 28.3723 23.0833 28.4483 23.0868 28.4872C23.1074 28.7108 23.047 28.8537 22.9056 28.9157C22.7642 28.9778 22.6157 29.0159 22.4601 29.0302C22.3434 29.041 22.2165 29.0477 22.0795 29.0505C21.9424 29.0533 21.8041 29.0415 21.6643 29.0151C21.5343 28.9878 21.4079 28.9455 21.2849 28.8882C21.1726 28.8397 21.077 28.7602 20.9982 28.6498C20.9309 28.5579 20.8419 28.3356 20.731 27.9829C20.6192 27.6206 20.4972 27.2003 20.365 26.7221C20.2319 26.2342 20.1005 25.7118 19.9709 25.1549C19.8412 24.598 19.7191 24.0699 19.6046 23.5705C19.49 23.071 19.3958 22.6335 19.3221 22.2578C19.2483 21.8821 19.2052 21.6262 19.1927 21.49L19.1726 21.2712C18.923 21.9708 18.7315 22.7142 18.5979 23.5012C18.4643 24.2882 18.378 25.0562 18.339 25.8051L18.3047 26.073C18.2924 26.1526 18.285 26.2317 18.2824 26.3104C18.279 26.3794 18.2804 26.4479 18.2866 26.516C18.2965 26.6229 18.3183 26.7533 18.352 26.9071C18.3955 27.06 18.4452 27.2271 18.501 27.4083C18.5729 27.6567 18.6359 27.9156 18.6902 28.1853C18.7532 28.4442 18.7968 28.705 18.8209 28.9676Z" fill="#90D0FF"/>
<path d="M10.4478 28.2811C10.4603 28.4173 10.4587 28.5596 10.4429 28.7082C10.4272 28.8567 10.3955 28.992 10.3479 29.1141C10.295 29.2857 10.1797 29.4189 10.0021 29.5136C9.83423 29.6075 9.63979 29.6793 9.41881 29.7291C9.20665 29.7682 8.98874 29.798 8.76508 29.8186C8.54052 29.8294 8.35575 29.8464 8.21077 29.8695C7.80502 29.9363 7.39972 30.0078 6.99486 30.0843C6.59 30.1607 6.18469 30.2323 5.77894 30.299C5.67576 30.5635 5.49289 30.7078 5.23033 30.7319C5.15253 30.7391 5.0535 30.7286 4.93322 30.7004C4.81385 30.682 4.68827 30.6494 4.55648 30.6026C4.43532 30.5647 4.31812 30.5167 4.20489 30.4584C4.10228 30.409 4.0284 30.3521 3.98324 30.2876C3.86912 30.2196 3.77311 30.1353 3.6952 30.0346C3.62702 29.933 3.58667 29.8141 3.57416 29.6779C3.5536 29.4543 3.583 29.2407 3.66237 29.0373C3.74173 28.8339 3.81093 28.6265 3.86995 28.4151C4.28759 26.9841 4.68137 25.5603 5.05128 24.1435C5.4203 22.717 5.77338 21.2773 6.11054 19.8243C6.22412 19.3529 6.33239 18.8772 6.43535 18.397C6.54714 17.9062 6.63948 17.4171 6.71238 16.9299C6.78527 16.4427 6.8334 15.9528 6.85678 15.4603C6.88988 14.9669 6.88408 14.4771 6.83938 13.9909C6.82508 13.8353 6.79038 13.6179 6.73528 13.3385C6.68991 13.0583 6.61581 12.7856 6.51298 12.5205C6.41898 12.2447 6.29497 12.0158 6.14095 11.8339C5.98603 11.6422 5.79188 11.557 5.55849 11.5785C5.41262 11.5919 5.26591 11.6495 5.11836 11.7514C4.97081 11.8532 4.82991 11.974 4.69567 12.1138C4.57114 12.2528 4.45724 12.4005 4.35395 12.5571C4.26039 12.7128 4.18494 12.8522 4.12759 12.9751C3.98641 13.2529 3.86646 13.5483 3.76776 13.8614C3.66815 14.1647 3.588 14.4663 3.5273 14.7661C3.51153 14.9147 3.49577 15.0632 3.48 15.2118C3.47307 15.3497 3.44669 15.4894 3.40085 15.6309C3.36206 15.7424 3.31087 15.8255 3.24726 15.8804C3.19249 15.9247 3.10676 15.9522 2.99006 15.9629C2.83447 15.9772 2.67178 15.9676 2.50199 15.9342C2.34103 15.8902 2.18801 15.8258 2.04293 15.741C1.90757 15.6554 1.78987 15.5485 1.68983 15.4204C1.5889 15.2826 1.53039 15.1262 1.5143 14.9511C1.49106 14.6983 1.51644 14.441 1.59044 14.1792C1.67417 13.9165 1.74907 13.6645 1.81514 13.4231C1.96146 12.9879 2.13875 12.5695 2.34701 12.1679C2.55526 11.7663 2.80643 11.4049 3.10053 11.0837C3.39462 10.7624 3.73342 10.5008 4.11694 10.2988C4.49955 10.0871 4.93884 9.9585 5.4348 9.91291C6.05717 9.8557 6.58465 9.9396 7.01722 10.1646C7.44889 10.3799 7.8002 10.6811 8.07114 11.068C8.3518 11.4541 8.55958 11.9008 8.69448 12.4082C8.8391 12.9147 8.93511 13.4256 8.98248 13.941C9.06383 14.8259 9.04402 15.7839 8.92305 16.815C8.80118 17.8363 8.62673 18.8722 8.39968 19.9228C8.17263 20.9734 7.91993 22.0116 7.64157 23.0375C7.37205 24.0528 7.12455 24.9875 6.89907 25.8418L6.25717 28.4604L9.45525 27.7251C9.51359 27.7198 9.56663 27.71 9.61436 27.6958C9.66209 27.6816 9.71513 27.6718 9.77348 27.6665C9.99714 27.6459 10.1585 27.6948 10.2577 27.8132C10.3657 27.9209 10.429 28.0769 10.4478 28.2811Z" fill="#90D0FF"/>
<path d="M32.7621 35.2401C32.7621 35.2401 34.2167 35.6512 34.3603 35.7041C35.4404 36.1774 36.4722 36.7644 37.4651 37.4059C39.9723 39.0438 41.8275 41.155 42.8703 43.987C43.4832 45.6902 43.6106 47.1957 41.9666 48.1796C40.2587 49.1837 37.9951 47.7358 37.8782 45.7772C37.7724 43.9416 39.4668 41.4803 40.7987 40.3563C42.4782 38.9536 45.2197 38.7186 47.2995 38.44C53.4454 37.6197 61.3902 40.8116 65.5721 45.3205C66.7386 46.5956 68.2579 48.1384 68.782 49.8278" stroke="#90D0FF" stroke-width="2" stroke-miterlimit="1.5" stroke-linecap="round"/>
<path d="M66.3473 41.6146C66.3768 41.6192 66.3972 41.6831 66.3927 41.7127C66.7005 42.4584 66.9148 43.2198 67.1587 43.9857C67.606 45.3901 67.9644 46.7804 68.3179 48.2002C68.4759 48.7405 68.6339 49.2807 68.7874 49.8506C68.8331 49.9945 68.6906 50.0614 68.5564 49.9657C68.0491 49.5221 67.5462 49.0487 67.0387 48.605C65.6711 47.4498 63.715 46.1715 61.8101 46.6899" stroke="#90D0FF" stroke-width="2" stroke-miterlimit="1.5" stroke-linecap="round"/>
</g>
</svg>
