<svg width="41" height="40" viewBox="0 0 41 40" fill="none" xmlns="http://www.w3.org/2000/svg">
<path fill-rule="evenodd" clip-rule="evenodd" d="M31.4138 4.05299C30.954 4.20826 30.5967 4.53606 30.3933 4.9894C30.2977 5.20232 30.2812 5.36191 30.2584 6.29757L30.2323 7.36325L29.1711 7.38989C28.1912 7.41451 28.0929 7.42591 27.8876 7.53871C27.5315 7.73442 27.2815 8.00287 27.1286 8.35342C27.0035 8.64046 26.989 8.73003 27.0056 9.11335C27.0288 9.64614 27.1691 9.96398 27.5272 10.2954C27.9138 10.6532 28.1115 10.7032 29.2579 10.7332L30.2506 10.7592L30.2673 11.8054C30.2837 12.8247 30.2878 12.8592 30.428 13.1531C30.6931 13.7088 31.1911 14.0464 31.8103 14.0903C32.4468 14.1354 33.0583 13.7639 33.3483 13.1559C33.4903 12.8584 33.4939 12.8277 33.5104 11.7991L33.5272 10.7468L34.3128 10.7464C34.7448 10.7463 35.2354 10.7231 35.403 10.6948C35.9881 10.5962 36.4169 10.2625 36.6522 9.72271C36.7742 9.44297 36.7886 9.35207 36.7713 8.97002C36.7418 8.3165 36.4847 7.88229 35.9452 7.57468C35.6685 7.41696 35.6648 7.41648 34.6065 7.38989L33.5453 7.36325L33.5195 6.29757C33.4944 5.26632 33.4889 5.22215 33.3497 4.93026C33.1843 4.58359 32.8821 4.27993 32.5536 4.13031C32.2577 3.99561 31.6966 3.95756 31.4138 4.05299Z" fill="url(#paint0_linear_2180_33186)"/>
<path fill-rule="evenodd" clip-rule="evenodd" d="M31.4138 4.05299C30.954 4.20826 30.5967 4.53606 30.3933 4.9894C30.2977 5.20232 30.2812 5.36191 30.2584 6.29757L30.2323 7.36325L29.1711 7.38989C28.1912 7.41451 28.0929 7.42591 27.8876 7.53871C27.5315 7.73442 27.2815 8.00287 27.1286 8.35342C27.0035 8.64046 26.989 8.73003 27.0056 9.11335C27.0288 9.64614 27.1691 9.96398 27.5272 10.2954C27.9138 10.6532 28.1115 10.7032 29.2579 10.7332L30.2506 10.7592L30.2673 11.8054C30.2837 12.8247 30.2878 12.8592 30.428 13.1531C30.6931 13.7088 31.1911 14.0464 31.8103 14.0903C32.4468 14.1354 33.0583 13.7639 33.3483 13.1559C33.4903 12.8584 33.4939 12.8277 33.5104 11.7991L33.5272 10.7468L34.3128 10.7464C34.7448 10.7463 35.2354 10.7231 35.403 10.6948C35.9881 10.5962 36.4169 10.2625 36.6522 9.72271C36.7742 9.44297 36.7886 9.35207 36.7713 8.97002C36.7418 8.3165 36.4847 7.88229 35.9452 7.57468C35.6685 7.41696 35.6648 7.41648 34.6065 7.38989L33.5453 7.36325L33.5195 6.29757C33.4944 5.26632 33.4889 5.22215 33.3497 4.93026C33.1843 4.58359 32.8821 4.27993 32.5536 4.13031C32.2577 3.99561 31.6966 3.95756 31.4138 4.05299Z" fill="#1B73F0"/>
<path fill-rule="evenodd" clip-rule="evenodd" d="M3.15157 11.8522C2.6657 12.0086 2.21947 12.4424 2.0709 12.9027C1.95417 13.2645 1.98508 13.8514 2.13784 14.1733C2.28925 14.4924 2.57842 14.7906 2.89885 14.9583C3.11973 15.0738 3.26364 15.1017 3.81868 15.1367C4.20553 15.161 4.64057 15.2244 4.87445 15.2904C6.28181 15.6878 7.4203 16.6744 8.0243 18.02C8.12742 18.2498 8.42445 19.2614 8.74877 20.4875C9.05108 21.6304 9.34817 22.6974 9.40894 22.8586C10.2489 25.0868 12.0982 26.878 14.3622 27.6562C15.5617 28.0685 15.0301 28.0421 22.8318 28.0763C26.6754 28.0932 29.9543 28.0893 30.1182 28.0677C31.0448 27.9456 31.6756 27.071 31.508 26.1407C31.4372 25.7475 31.262 25.4354 30.9569 25.159C30.4766 24.7238 31.107 24.7588 23.1424 24.7246L16.0504 24.6941L15.595 24.5484C14.2015 24.1028 13.1169 23.1406 12.5306 21.8297C12.4363 21.619 12.1686 20.7272 11.9358 19.848C11.271 17.3379 11.2221 17.1684 11.035 16.7228C10.1979 14.7297 8.47643 13.0577 6.4737 12.2925C5.40469 11.884 3.7388 11.6632 3.15157 11.8522Z" fill="url(#paint1_linear_2180_33186)"/>
<path fill-rule="evenodd" clip-rule="evenodd" d="M3.15157 11.8522C2.6657 12.0086 2.21947 12.4424 2.0709 12.9027C1.95417 13.2645 1.98508 13.8514 2.13784 14.1733C2.28925 14.4924 2.57842 14.7906 2.89885 14.9583C3.11973 15.0738 3.26364 15.1017 3.81868 15.1367C4.20553 15.161 4.64057 15.2244 4.87445 15.2904C6.28181 15.6878 7.4203 16.6744 8.0243 18.02C8.12742 18.2498 8.42445 19.2614 8.74877 20.4875C9.05108 21.6304 9.34817 22.6974 9.40894 22.8586C10.2489 25.0868 12.0982 26.878 14.3622 27.6562C15.5617 28.0685 15.0301 28.0421 22.8318 28.0763C26.6754 28.0932 29.9543 28.0893 30.1182 28.0677C31.0448 27.9456 31.6756 27.071 31.508 26.1407C31.4372 25.7475 31.262 25.4354 30.9569 25.159C30.4766 24.7238 31.107 24.7588 23.1424 24.7246L16.0504 24.6941L15.595 24.5484C14.2015 24.1028 13.1169 23.1406 12.5306 21.8297C12.4363 21.619 12.1686 20.7272 11.9358 19.848C11.271 17.3379 11.2221 17.1684 11.035 16.7228C10.1979 14.7297 8.47643 13.0577 6.4737 12.2925C5.40469 11.884 3.7388 11.6632 3.15157 11.8522Z" fill="url(#paint2_linear_2180_33186)"/>
<path fill-rule="evenodd" clip-rule="evenodd" d="M13.9235 29.3357C12.7017 29.6181 11.7389 30.5676 11.4336 31.7912C11.3309 32.2031 11.3291 33.0091 11.43 33.4492C11.5823 34.1142 12.02 34.8222 12.5308 35.2301C12.9597 35.5725 13.1397 35.6743 13.6038 35.8373C13.9574 35.9614 14.1012 35.9824 14.5874 35.9814C15.2493 35.9801 15.7679 35.8376 16.2957 35.5122C17.4622 34.793 18.0881 33.3033 17.8033 31.924C17.5606 30.748 16.6462 29.7451 15.4932 29.3901C15.0778 29.2622 14.3505 29.237 13.9235 29.3357ZM29.9488 29.3117C28.2238 29.6076 27.0338 31.2649 27.2514 33.0686C27.5019 35.1458 29.5856 36.4929 31.5222 35.8296C32.3057 35.5612 33.036 34.9073 33.3991 34.1488C33.5169 33.9029 33.6474 33.5339 33.6891 33.3288C34.1596 31.0137 32.2133 28.9233 29.9488 29.3117Z" fill="#1B73F0"/>
<path opacity="0.3" d="M11.297 13.1188C10.6404 10.5859 12.5524 8.11511 15.169 8.11511H27.831C30.4476 8.11511 32.3596 10.5859 31.703 13.1188L29.7767 20.5506C29.3194 22.3149 27.7272 23.547 25.9046 23.547H17.0954C15.2728 23.547 13.6806 22.3149 13.2233 20.5506L11.297 13.1188Z" fill="#1B73F0"/>
<mask id="mask0_2180_33186" style="mask-type:alpha" maskUnits="userSpaceOnUse" x="11" y="8" width="21" height="16">
<path d="M11.297 13.1188C10.6404 10.5859 12.5524 8.11511 15.169 8.11511H27.831C30.4476 8.11511 32.3596 10.5859 31.703 13.1188L29.7767 20.5506C29.3194 22.3149 27.7272 23.547 25.9046 23.547H17.0954C15.2728 23.547 13.6806 22.3149 13.2233 20.5506L11.297 13.1188Z" fill="#1B73F0"/>
</mask>
<g mask="url(#mask0_2180_33186)">
<path d="M10 19.4319H33L29 23.547H14L10 19.4319Z" fill="url(#paint3_linear_2180_33186)"/>
</g>
<defs>
<linearGradient id="paint0_linear_2180_33186" x1="35.9392" y1="14.094" x2="27.1397" y2="14.094" gradientUnits="userSpaceOnUse">
<stop stop-color="#1B73F0"/>
<stop offset="1" stop-color="#1B73F0" stop-opacity="0"/>
</linearGradient>
<linearGradient id="paint1_linear_2180_33186" x1="29.0034" y1="28.0868" x2="2.42193" y2="28.0868" gradientUnits="userSpaceOnUse">
<stop stop-color="#1B73F0"/>
<stop offset="1" stop-color="#1B73F0" stop-opacity="0"/>
</linearGradient>
<linearGradient id="paint2_linear_2180_33186" x1="29.0034" y1="28.0868" x2="2.42193" y2="28.0868" gradientUnits="userSpaceOnUse">
<stop stop-color="#1B73F0"/>
<stop offset="1" stop-color="#1B73F0" stop-opacity="0"/>
</linearGradient>
<linearGradient id="paint3_linear_2180_33186" x1="31.0286" y1="23.547" x2="10.3286" y2="23.547" gradientUnits="userSpaceOnUse">
<stop stop-color="#1B73F0"/>
<stop offset="1" stop-color="#1B73F0" stop-opacity="0"/>
</linearGradient>
</defs>
</svg>
