<svg width="163" height="220" viewBox="0 0 163 220" fill="none" xmlns="http://www.w3.org/2000/svg">
<path fill-rule="evenodd" clip-rule="evenodd" d="M53.1216 0.444578L107.445 0.444578L107.7 0.444578V0.699537V55.474H162.025H162.28V55.729V219.528V219.783H162.025H107.7H107.473H107.445H107.218H53.1216H52.8926H52.8666H52.6377H-1.68546H-1.72018H-1.9404H-1.97513H-56.3003H-56.5273H-56.5552H-56.7822H-110.878H-111.107H-111.133H-111.362H-165.685H-165.72H-165.94H-165.975H-220.3H-220.527H-220.555H-220.782H-274.878H-275.107H-275.133H-275.362H-329.685H-329.72H-329.94H-329.975H-384.3H-384.527H-384.555H-384.782H-438.878H-439.107H-439.133H-439.362H-493.685H-493.94L-493.94 219.528V165.19V164.935V110.585V110.335V110.33V110.08V55.7304L-493.94 55.729V55.474H-493.685H-439.362L-439.133 55.474L-439.107 55.474L-438.878 55.474L-384.782 55.474L-384.555 55.474L-384.527 55.474L-384.3 55.474H-329.975L-329.94 55.474L-329.72 55.474L-329.685 55.474H-275.362L-275.133 55.474L-275.107 55.474L-274.878 55.474L-220.782 55.474L-220.555 55.474L-220.527 55.474L-220.3 55.474H-165.975L-165.94 55.474L-165.72 55.474L-165.685 55.474H-111.362L-111.133 55.474L-111.107 55.474L-110.878 55.474L-56.7822 55.474L-56.5552 55.474L-56.5273 55.474L-56.3003 55.474H-1.97516L-1.94043 55.474V0.699539V0.44458H-1.68546H52.6377L52.8666 0.444578L53.1216 0.444578ZM-220.272 165.19V219.273H-166.23V165.19H-220.272ZM-220.272 110.075V55.9854H-166.284V110.075H-220.272ZM-220.272 164.68V110.59H-166.284V164.68H-220.272ZM-220.81 164.68L-220.81 110.59H-274.852L-274.852 164.68H-220.81ZM-220.81 110.075V55.9854H-274.852V110.075H-220.81ZM-220.81 165.19H-274.852V219.273H-220.81V165.19ZM-329.431 55.9854V110.075H-275.388V55.9854H-329.431ZM-275.388 110.59H-329.431V164.68H-275.388V110.59ZM-275.388 165.19H-329.431V219.273H-275.388V165.19ZM107.19 55.474V0.954496L53.1476 0.954498V55.474L107.19 55.474ZM53.1476 55.9854V110.075H107.19V55.9854H53.1476ZM107.19 110.59H53.1476V164.244H107.19L107.19 110.59ZM-1.43051 110.075V55.9854H52.6117V110.075H-1.43051ZM-1.43051 55.474H52.6117V0.954496L-1.43051 0.954498V55.474ZM-1.43051 110.59H52.6117V164.244H-1.43051V110.59ZM107.728 165.19V219.273H161.77V165.19H107.728ZM107.728 110.075V55.9854H161.716V110.075H107.728ZM107.728 164.68V110.59H161.716V164.68H107.728ZM53.1476 219.273V165.19H107.19V219.273H53.1476ZM-1.43051 165.19V219.273H52.6117V165.19H-1.43051ZM-56.2723 55.9854V110.075H-2.28406V55.9854H-56.2723ZM-56.2723 110.59V164.68H-2.28406V110.59H-56.2723ZM-2.2301 165.19H-56.2723V219.273H-2.2301V165.19ZM-110.852 165.19V219.273H-56.8102V165.19H-110.852ZM-56.8102 110.59V164.68H-110.852V110.59H-56.8102ZM-56.8102 55.9854V110.075H-110.852V55.9854H-56.8102ZM-165.431 219.273V165.19H-111.388V219.273H-165.431ZM-111.388 164.68V110.59H-165.431V164.68H-111.388ZM-111.388 110.075V55.9854H-165.431V110.075H-111.388ZM-384.272 165.19H-330.23V219.273H-384.272V165.19ZM-384.272 164.68L-384.272 110.59H-330.284V164.68H-384.272ZM-384.272 110.075V55.9854H-330.284V110.075H-384.272ZM-384.81 55.9854V110.075H-438.852L-438.852 55.9854H-384.81ZM-438.852 164.68V110.59H-384.81V164.68H-438.852ZM-438.852 165.19L-438.852 219.273H-384.81V165.19H-438.852ZM-493.431 219.273L-493.431 165.19H-439.388L-439.388 219.273H-493.431ZM-493.431 110.59V164.68H-439.388V110.59H-493.431ZM-439.388 55.9854L-439.388 110.075H-493.431V55.9854H-439.388Z" fill="url(#paint0_linear_661_7448)"/>
<defs>
<linearGradient id="paint0_linear_661_7448" x1="-310.44" y1="19.9551" x2="-186.727" y2="-185.597" gradientUnits="userSpaceOnUse">
<stop stop-color="white"/>
<stop offset="1" stop-color="white" stop-opacity="0"/>
</linearGradient>
</defs>
</svg>
