<svg width="84" height="84" viewBox="0 0 84 84" fill="none" xmlns="http://www.w3.org/2000/svg">
<rect x="1.44083" y="1.44083" width="81.1183" height="81.1183" rx="2.55917" fill="#161619" stroke="#41434E" stroke-width="1.11833"/>
<path d="M66.5822 60.9648V69.9998H65.1002V66.0478H60.8492V69.9998H59.3672V60.9648H60.8492V64.8388H65.1002V60.9648H66.5822Z" fill="white"/>
<path d="M54.4988 70.0909C53.8921 70.0909 53.3461 69.9869 52.8608 69.7789C52.3754 69.5622 51.9941 69.2589 51.7168 68.8689C51.4394 68.4789 51.3008 68.0239 51.3008 67.5039H52.8868C52.9214 67.8939 53.0731 68.2146 53.3418 68.4659C53.6191 68.7172 54.0048 68.8429 54.4988 68.8429C55.0101 68.8429 55.4088 68.7216 55.6948 68.4789C55.9808 68.2276 56.1238 67.9069 56.1238 67.5169C56.1238 67.2136 56.0328 66.9666 55.8508 66.7759C55.6774 66.5852 55.4564 66.4379 55.1878 66.3339C54.9278 66.2299 54.5638 66.1172 54.0958 65.9959C53.5064 65.8399 53.0254 65.6839 52.6528 65.5279C52.2888 65.3632 51.9768 65.1119 51.7168 64.7739C51.4568 64.4359 51.3268 63.9852 51.3268 63.4219C51.3268 62.9019 51.4568 62.4469 51.7168 62.0569C51.9768 61.6669 52.3408 61.3679 52.8088 61.1599C53.2768 60.9519 53.8184 60.8479 54.4338 60.8479C55.3091 60.8479 56.0241 61.0689 56.5788 61.5109C57.1421 61.9442 57.4541 62.5422 57.5148 63.3049H55.8768C55.8508 62.9756 55.6948 62.6939 55.4088 62.4599C55.1228 62.2259 54.7458 62.1089 54.2778 62.1089C53.8531 62.1089 53.5064 62.2172 53.2378 62.4339C52.9691 62.6506 52.8348 62.9626 52.8348 63.3699C52.8348 63.6472 52.9171 63.8769 53.0818 64.0589C53.2551 64.2322 53.4718 64.3709 53.7318 64.4749C53.9918 64.5789 54.3471 64.6916 54.7978 64.8129C55.3958 64.9776 55.8811 65.1422 56.2538 65.3069C56.6351 65.4716 56.9558 65.7272 57.2158 66.0739C57.4844 66.4119 57.6188 66.8669 57.6188 67.4389C57.6188 67.8982 57.4931 68.3316 57.2418 68.7389C56.9991 69.1462 56.6394 69.4756 56.1628 69.7269C55.6948 69.9696 55.1401 70.0909 54.4988 70.0909Z" fill="white"/>
<path d="M49.5758 60.9648V69.9998H48.0938V60.9648H49.5758Z" fill="white"/>
<path d="M43.7984 68.8038H46.8534V69.9998H42.3164V60.9648H43.7984V68.8038Z" fill="white"/>
<path d="M38.9649 65.3588C39.4502 65.4455 39.8619 65.7012 40.1999 66.1258C40.5379 66.5505 40.7069 67.0315 40.7069 67.5688C40.7069 68.0282 40.5856 68.4442 40.3429 68.8168C40.1089 69.1808 39.7666 69.4712 39.3159 69.6878C38.8652 69.8958 38.3409 69.9998 37.7429 69.9998H34.1289V60.9648H37.5739C38.1892 60.9648 38.7179 61.0688 39.1599 61.2768C39.6019 61.4848 39.9356 61.7665 40.1609 62.1218C40.3862 62.4685 40.4989 62.8585 40.4989 63.2918C40.4989 63.8118 40.3602 64.2452 40.0829 64.5918C39.8056 64.9385 39.4329 65.1942 38.9649 65.3588ZM35.6109 64.7608H37.4439C37.9292 64.7608 38.3062 64.6525 38.5749 64.4358C38.8522 64.2105 38.9909 63.8898 38.9909 63.4738C38.9909 63.0665 38.8522 62.7502 38.5749 62.5248C38.3062 62.2908 37.9292 62.1738 37.4439 62.1738H35.6109V64.7608ZM37.6129 68.7908C38.1156 68.7908 38.5099 68.6695 38.7959 68.4268C39.0819 68.1842 39.2249 67.8462 39.2249 67.4128C39.2249 66.9708 39.0732 66.6198 38.7699 66.3598C38.4666 66.0998 38.0636 65.9698 37.5609 65.9698H35.6109V68.7908H37.6129Z" fill="white"/>
<path d="M26.6226 60.9648V66.7238C26.6226 67.4085 26.8003 67.9242 27.1556 68.2708C27.5196 68.6175 28.0223 68.7908 28.6636 68.7908C29.3136 68.7908 29.8163 68.6175 30.1716 68.2708C30.5356 67.9242 30.7176 67.4085 30.7176 66.7238V60.9648H32.1996V66.6978C32.1996 67.4345 32.0393 68.0585 31.7186 68.5698C31.398 69.0812 30.969 69.4625 30.4316 69.7138C29.8943 69.9652 29.3006 70.0908 28.6506 70.0908C28.0006 70.0908 27.407 69.9652 26.8696 69.7138C26.341 69.4625 25.9206 69.0812 25.6086 68.5698C25.2966 68.0585 25.1406 67.4345 25.1406 66.6978V60.9648H26.6226Z" fill="white"/>
<path d="M23.7399 63.6558C23.7399 64.1152 23.6315 64.5485 23.4149 64.9558C23.1982 65.3632 22.8515 65.6968 22.3749 65.9568C21.8982 66.2082 21.2872 66.3338 20.5419 66.3338H18.9039V69.9998H17.4219V60.9648H20.5419C21.2352 60.9648 21.8202 61.0862 22.2969 61.3288C22.7822 61.5628 23.1419 61.8835 23.3759 62.2908C23.6185 62.6982 23.7399 63.1532 23.7399 63.6558ZM20.5419 65.1248C21.1052 65.1248 21.5255 64.9992 21.8029 64.7478C22.0802 64.4878 22.2189 64.1238 22.2189 63.6558C22.2189 62.6678 21.6599 62.1738 20.5419 62.1738H18.9039V65.1248H20.5419Z" fill="white"/>
<path opacity="0.1" fill-rule="evenodd" clip-rule="evenodd" d="M55.3322 25.0667C55.3322 22.8265 55.3322 21.7064 54.8962 20.8508C54.5127 20.0981 53.9008 19.4862 53.1482 19.1027C52.2925 18.6667 51.1724 18.6667 48.9322 18.6667H48.2003C46.8958 18.6667 46.2435 18.6667 45.6297 18.8141C45.0855 18.9448 44.5652 19.1603 44.088 19.4527C43.5498 19.7826 43.0886 20.2438 42.1661 21.1663L35.3329 28.0001C33.879 29.4541 33.1521 30.1811 32.7635 30.9653C32.0241 32.4575 32.0242 34.2093 32.7636 35.7014C33.1522 36.4856 33.8792 37.2126 35.3331 38.6665V38.6665C36.7872 40.1206 37.5142 40.8476 38.2985 41.2362C39.7907 41.9757 41.5426 41.9756 43.0348 41.2362C43.819 40.8475 44.546 40.1204 46 38.6663L52.8331 31.8327C53.7554 30.9103 54.2166 30.4491 54.5463 29.9109C54.8387 29.4338 55.0542 28.9135 55.1848 28.3694C55.3322 27.7556 55.3322 27.1034 55.3322 25.799V25.0667ZM46.0033 30.6661C47.476 30.6661 48.6699 29.4722 48.6699 27.9994C48.6699 26.5267 47.476 25.3328 46.0033 25.3328C44.5305 25.3328 43.3366 26.5267 43.3366 27.9994C43.3366 29.4722 44.5305 30.6661 46.0033 30.6661Z" fill="white"/>
<path d="M33.3346 30.0001L28.668 26.6666L30.1053 25.2293C31.286 24.0487 31.8763 23.4583 32.5749 23.0852C33.1934 22.7549 33.8709 22.5498 34.5687 22.4816C35.3569 22.4046 36.1755 22.5683 37.8128 22.8958L40.0006 23.3334M50.6672 34.0001L51.1051 36.1878C51.4329 37.8253 51.5968 38.6441 51.5198 39.4324C51.4517 40.1304 51.2465 40.808 50.9162 41.4265C50.543 42.1253 49.9526 42.7157 48.7717 43.8966L47.335 45.3333L44.0016 40.6667M35.334 38.6665L38.0004 36.0001M48.6706 27.9994C48.6706 29.4722 47.4767 30.6661 46.0039 30.6661C44.5311 30.6661 43.3372 29.4722 43.3372 27.9994C43.3372 26.5267 44.5311 25.3328 46.0039 25.3328C47.4767 25.3328 48.6706 26.5267 48.6706 27.9994ZM48.9328 18.6667H48.201C46.8964 18.6667 46.2442 18.6667 45.6303 18.8141C45.0861 18.9448 44.5659 19.1603 44.0887 19.4527C43.5504 19.7826 43.0892 20.2438 42.1668 21.1663L35.3336 28.0001C33.8797 29.4541 33.1527 30.1811 32.7641 30.9653C32.0248 32.4575 32.0248 34.2093 32.7642 35.7014C33.1529 36.4856 33.8798 37.2126 35.3338 38.6665V38.6665C36.7878 40.1206 37.5149 40.8476 38.2991 41.2362C39.7913 41.9757 41.5432 41.9756 43.0354 41.2362C43.8197 40.8475 44.5467 40.1204 46.0007 38.6663L52.8337 31.8327C53.756 30.9103 54.2172 30.4491 54.547 29.9109C54.8394 29.4338 55.0549 28.9135 55.1855 28.3694C55.3328 27.7556 55.3328 27.1034 55.3328 25.799V25.0667C55.3328 22.8265 55.3328 21.7064 54.8969 20.8508C54.5134 20.0981 53.9015 19.4862 53.1488 19.1027C52.2932 18.6667 51.1731 18.6667 48.9328 18.6667Z" stroke="white" stroke-width="1.4" stroke-linecap="round" stroke-linejoin="round"/>
</svg>
