<svg width="349" height="28" viewBox="0 0 349 28" fill="none" xmlns="http://www.w3.org/2000/svg">
<rect width="349" height="28" rx="6" fill="#0D0F12"/>
<path d="M97.1818 11.8889H96.7273V9.66667C96.7273 8.95942 96.4399 8.28115 95.9285 7.78105C95.417 7.28095 94.7233 7 94 7C93.2767 7 92.583 7.28095 92.0715 7.78105C91.5601 8.28115 91.2727 8.95942 91.2727 9.66667V11.8889H90.8182C90.3361 11.8894 89.874 12.0769 89.5331 12.4102C89.1923 12.7434 89.0005 13.1953 89 13.6667V18.5556C89.0005 19.0269 89.1923 19.4788 89.5331 19.8121C89.874 20.1454 90.3361 20.3328 90.8182 20.3333H97.1818C97.6639 20.3328 98.126 20.1454 98.4669 19.8121C98.8077 19.4788 98.9995 19.0269 99 18.5556V13.6667C98.9995 13.1953 98.8077 12.7434 98.4669 12.4102C98.126 12.0769 97.6639 11.8894 97.1818 11.8889ZM95.8182 11.8889H92.1818V9.66667C92.1818 9.19517 92.3734 8.74299 92.7144 8.40959C93.0553 8.07619 93.5178 7.88889 94 7.88889C94.4822 7.88889 94.9447 8.07619 95.2856 8.40959C95.6266 8.74299 95.8182 9.19517 95.8182 9.66667V11.8889Z" fill="white"/>
<path d="M254.756 11.3007C255.311 11.3007 255.805 11.4177 256.238 11.6517C256.671 11.877 257.014 12.2193 257.265 12.6787C257.516 13.138 257.642 13.697 257.642 14.3557V18.5547H256.472V14.5247C256.472 13.814 256.294 13.2723 255.939 12.8997C255.592 12.5183 255.12 12.3277 254.522 12.3277C253.907 12.3277 253.417 12.527 253.053 12.9257C252.689 13.3157 252.507 13.8833 252.507 14.6287V18.5547H251.337V14.5247C251.337 13.814 251.159 13.2723 250.804 12.8997C250.457 12.5183 249.985 12.3277 249.387 12.3277C248.772 12.3277 248.282 12.527 247.918 12.9257C247.554 13.3157 247.372 13.8833 247.372 14.6287V18.5547H246.189V11.4307H247.372V12.4577C247.606 12.085 247.918 11.799 248.308 11.5997C248.707 11.4003 249.144 11.3007 249.621 11.3007C250.219 11.3007 250.748 11.435 251.207 11.7037C251.666 11.9723 252.009 12.3667 252.234 12.8867C252.433 12.384 252.763 11.994 253.222 11.7167C253.681 11.4393 254.193 11.3007 254.756 11.3007Z" fill="white"/>
<path d="M240.981 18.6717C240.313 18.6717 239.707 18.52 239.161 18.2167C238.623 17.9133 238.199 17.4843 237.887 16.9297C237.583 16.3663 237.432 15.7163 237.432 14.9797C237.432 14.2517 237.588 13.6103 237.9 13.0557C238.22 12.4923 238.654 12.0633 239.2 11.7687C239.746 11.4653 240.357 11.3137 241.033 11.3137C241.709 11.3137 242.32 11.4653 242.866 11.7687C243.412 12.0633 243.841 12.488 244.153 13.0427C244.473 13.5973 244.634 14.243 244.634 14.9797C244.634 15.7163 244.469 16.3663 244.14 16.9297C243.819 17.4843 243.381 17.9133 242.827 18.2167C242.272 18.52 241.657 18.6717 240.981 18.6717ZM240.981 17.6317C241.405 17.6317 241.804 17.532 242.177 17.3327C242.549 17.1333 242.848 16.8343 243.074 16.4357C243.308 16.037 243.425 15.5517 243.425 14.9797C243.425 14.4077 243.312 13.9223 243.087 13.5237C242.861 13.125 242.567 12.8303 242.203 12.6397C241.839 12.4403 241.444 12.3407 241.02 12.3407C240.586 12.3407 240.188 12.4403 239.824 12.6397C239.468 12.8303 239.182 13.125 238.966 13.5237C238.749 13.9223 238.641 14.4077 238.641 14.9797C238.641 15.5603 238.745 16.05 238.953 16.4487C239.169 16.8473 239.455 17.1463 239.811 17.3457C240.166 17.5363 240.556 17.6317 240.981 17.6317Z" fill="white"/>
<path d="M229.535 14.9797C229.535 14.243 229.682 13.6017 229.977 13.0557C230.272 12.501 230.679 12.072 231.199 11.7687C231.728 11.4653 232.33 11.3137 233.006 11.3137C233.881 11.3137 234.601 11.526 235.164 11.9507C235.736 12.3753 236.113 12.9647 236.295 13.7187H235.021C234.9 13.2853 234.661 12.943 234.306 12.6917C233.959 12.4403 233.526 12.3147 233.006 12.3147C232.33 12.3147 231.784 12.5487 231.368 13.0167C230.952 13.476 230.744 14.1303 230.744 14.9797C230.744 15.8377 230.952 16.5007 231.368 16.9687C231.784 17.4367 232.33 17.6707 233.006 17.6707C233.526 17.6707 233.959 17.5493 234.306 17.3067C234.653 17.064 234.891 16.7173 235.021 16.2667H236.295C236.104 16.9947 235.723 17.5797 235.151 18.0217C234.579 18.455 233.864 18.6717 233.006 18.6717C232.33 18.6717 231.728 18.52 231.199 18.2167C230.679 17.9133 230.272 17.4843 229.977 16.9297C229.682 16.375 229.535 15.725 229.535 14.9797Z" fill="white"/>
<path d="M227.625 18.6327C227.4 18.6327 227.209 18.5547 227.053 18.3987C226.897 18.2427 226.819 18.052 226.819 17.8267C226.819 17.6013 226.897 17.4107 227.053 17.2547C227.209 17.0987 227.4 17.0207 227.625 17.0207C227.842 17.0207 228.024 17.0987 228.171 17.2547C228.327 17.4107 228.405 17.6013 228.405 17.8267C228.405 18.052 228.327 18.2427 228.171 18.3987C228.024 18.5547 227.842 18.6327 227.625 18.6327Z" fill="white"/>
<path d="M222.977 18.6717C222.431 18.6717 221.942 18.5807 221.508 18.3987C221.075 18.208 220.733 17.948 220.481 17.6187C220.23 17.2807 220.091 16.895 220.065 16.4617H221.287C221.322 16.817 221.487 17.1073 221.781 17.3327C222.085 17.558 222.479 17.6707 222.964 17.6707C223.415 17.6707 223.77 17.571 224.03 17.3717C224.29 17.1723 224.42 16.921 224.42 16.6177C224.42 16.3057 224.282 16.076 224.004 15.9287C223.727 15.7727 223.298 15.621 222.717 15.4737C222.189 15.335 221.755 15.1963 221.417 15.0577C221.088 14.9103 220.802 14.698 220.559 14.4207C220.325 14.1347 220.208 13.762 220.208 13.3027C220.208 12.9387 220.317 12.605 220.533 12.3017C220.75 11.9983 221.058 11.76 221.456 11.5867C221.855 11.4047 222.31 11.3137 222.821 11.3137C223.61 11.3137 224.247 11.513 224.732 11.9117C225.218 12.3103 225.478 12.8563 225.512 13.5497H224.329C224.303 13.177 224.152 12.878 223.874 12.6527C223.606 12.4273 223.242 12.3147 222.782 12.3147C222.358 12.3147 222.02 12.4057 221.768 12.5877C221.517 12.7697 221.391 13.008 221.391 13.3027C221.391 13.5367 221.465 13.7317 221.612 13.8877C221.768 14.035 221.959 14.1563 222.184 14.2517C222.418 14.3383 222.739 14.438 223.146 14.5507C223.658 14.6893 224.074 14.828 224.394 14.9667C224.715 15.0967 224.988 15.296 225.213 15.5647C225.447 15.8333 225.569 16.1843 225.577 16.6177C225.577 17.0077 225.469 17.3587 225.252 17.6707C225.036 17.9827 224.728 18.2297 224.329 18.4117C223.939 18.585 223.489 18.6717 222.977 18.6717Z" fill="white"/>
<path d="M218.894 14.7197C218.894 14.945 218.881 15.1833 218.855 15.4347H213.161C213.204 16.1367 213.443 16.687 213.876 17.0857C214.318 17.4757 214.851 17.6707 215.475 17.6707C215.986 17.6707 216.411 17.5537 216.749 17.3197C217.096 17.077 217.338 16.7563 217.477 16.3577H218.751C218.56 17.0423 218.179 17.6013 217.607 18.0347C217.035 18.4593 216.324 18.6717 215.475 18.6717C214.799 18.6717 214.192 18.52 213.655 18.2167C213.126 17.9133 212.71 17.4843 212.407 16.9297C212.104 16.3663 211.952 15.7163 211.952 14.9797C211.952 14.243 212.099 13.5973 212.394 13.0427C212.689 12.488 213.1 12.0633 213.629 11.7687C214.166 11.4653 214.782 11.3137 215.475 11.3137C216.151 11.3137 216.749 11.461 217.269 11.7557C217.789 12.0503 218.188 12.4577 218.465 12.9777C218.751 13.489 218.894 14.0697 218.894 14.7197ZM217.672 14.4727C217.672 14.022 217.572 13.6363 217.373 13.3157C217.174 12.9863 216.901 12.7393 216.554 12.5747C216.216 12.4013 215.839 12.3147 215.423 12.3147C214.825 12.3147 214.314 12.5053 213.889 12.8867C213.473 13.268 213.235 13.7967 213.174 14.4727H217.672Z" fill="white"/>
<path d="M209.806 10.2737C209.581 10.2737 209.39 10.1957 209.234 10.0397C209.078 9.88367 209 9.693 209 9.46767C209 9.24233 209.078 9.05167 209.234 8.89567C209.39 8.73967 209.581 8.66167 209.806 8.66167C210.023 8.66167 210.205 8.73967 210.352 8.89567C210.508 9.05167 210.586 9.24233 210.586 9.46767C210.586 9.693 210.508 9.88367 210.352 10.0397C210.205 10.1957 210.023 10.2737 209.806 10.2737ZM210.378 11.4307V18.5547H209.195V11.4307H210.378Z" fill="white"/>
<path d="M200.856 14.9797C200.856 14.243 201.004 13.6017 201.298 13.0557C201.593 12.501 202 12.072 202.52 11.7687C203.049 11.4653 203.651 11.3137 204.327 11.3137C205.203 11.3137 205.922 11.526 206.485 11.9507C207.057 12.3753 207.434 12.9647 207.616 13.7187H206.342C206.221 13.2853 205.983 12.943 205.627 12.6917C205.281 12.4403 204.847 12.3147 204.327 12.3147C203.651 12.3147 203.105 12.5487 202.689 13.0167C202.273 13.476 202.065 14.1303 202.065 14.9797C202.065 15.8377 202.273 16.5007 202.689 16.9687C203.105 17.4367 203.651 17.6707 204.327 17.6707C204.847 17.6707 205.281 17.5493 205.627 17.3067C205.974 17.064 206.212 16.7173 206.342 16.2667H207.616C207.426 16.9947 207.044 17.5797 206.472 18.0217C205.9 18.455 205.185 18.6717 204.327 18.6717C203.651 18.6717 203.049 18.52 202.52 18.2167C202 17.9133 201.593 17.4843 201.298 16.9297C201.004 16.375 200.856 15.725 200.856 14.9797Z" fill="white"/>
<path d="M192.071 14.9667C192.071 14.2387 192.219 13.6017 192.513 13.0557C192.808 12.501 193.211 12.072 193.722 11.7687C194.242 11.4653 194.819 11.3137 195.451 11.3137C196.075 11.3137 196.617 11.448 197.076 11.7167C197.536 11.9853 197.878 12.3233 198.103 12.7307V11.4307H199.299V18.5547H198.103V17.2287C197.869 17.6447 197.518 17.9913 197.05 18.2687C196.591 18.5373 196.054 18.6717 195.438 18.6717C194.806 18.6717 194.234 18.5157 193.722 18.2037C193.211 17.8917 192.808 17.454 192.513 16.8907C192.219 16.3273 192.071 15.686 192.071 14.9667ZM198.103 14.9797C198.103 14.4423 197.995 13.9743 197.778 13.5757C197.562 13.177 197.267 12.8737 196.894 12.6657C196.53 12.449 196.127 12.3407 195.685 12.3407C195.243 12.3407 194.84 12.4447 194.476 12.6527C194.112 12.8607 193.822 13.164 193.605 13.5627C193.389 13.9613 193.28 14.4293 193.28 14.9667C193.28 15.5127 193.389 15.9893 193.605 16.3967C193.822 16.7953 194.112 17.103 194.476 17.3197C194.84 17.5277 195.243 17.6317 195.685 17.6317C196.127 17.6317 196.53 17.5277 196.894 17.3197C197.267 17.103 197.562 16.7953 197.778 16.3967C197.995 15.9893 198.103 15.517 198.103 14.9797Z" fill="white"/>
<path d="M184.175 14.9797C184.175 14.243 184.322 13.6017 184.617 13.0557C184.911 12.501 185.319 12.072 185.839 11.7687C186.367 11.4653 186.97 11.3137 187.646 11.3137C188.521 11.3137 189.24 11.526 189.804 11.9507C190.376 12.3753 190.753 12.9647 190.935 13.7187H189.661C189.539 13.2853 189.301 12.943 188.946 12.6917C188.599 12.4403 188.166 12.3147 187.646 12.3147C186.97 12.3147 186.424 12.5487 186.008 13.0167C185.592 13.476 185.384 14.1303 185.384 14.9797C185.384 15.8377 185.592 16.5007 186.008 16.9687C186.424 17.4367 186.97 17.6707 187.646 17.6707C188.166 17.6707 188.599 17.5493 188.946 17.3067C189.292 17.064 189.531 16.7173 189.661 16.2667H190.935C190.744 16.9947 190.363 17.5797 189.791 18.0217C189.219 18.455 188.504 18.6717 187.646 18.6717C186.97 18.6717 186.367 18.52 185.839 18.2167C185.319 17.9133 184.911 17.4843 184.617 16.9297C184.322 16.375 184.175 15.725 184.175 14.9797Z" fill="white"/>
<path d="M182.029 10.2737C181.803 10.2737 181.613 10.1957 181.457 10.0397C181.301 9.88367 181.223 9.693 181.223 9.46767C181.223 9.24233 181.301 9.05167 181.457 8.89567C181.613 8.73967 181.803 8.66167 182.029 8.66167C182.245 8.66167 182.427 8.73967 182.575 8.89567C182.731 9.05167 182.809 9.24233 182.809 9.46767C182.809 9.693 182.731 9.88367 182.575 10.0397C182.427 10.1957 182.245 10.2737 182.029 10.2737ZM182.601 11.4307V18.5547H181.418V11.4307H182.601Z" fill="white"/>
<path d="M179.401 8.93467V18.5547H178.218V8.93467H179.401Z" fill="white"/>
<path d="M176.657 14.7197C176.657 14.945 176.644 15.1833 176.618 15.4347H170.924C170.967 16.1367 171.206 16.687 171.639 17.0857C172.081 17.4757 172.614 17.6707 173.238 17.6707C173.749 17.6707 174.174 17.5537 174.512 17.3197C174.859 17.077 175.101 16.7563 175.24 16.3577H176.514C176.323 17.0423 175.942 17.6013 175.37 18.0347C174.798 18.4593 174.087 18.6717 173.238 18.6717C172.562 18.6717 171.955 18.52 171.418 18.2167C170.889 17.9133 170.473 17.4843 170.17 16.9297C169.867 16.3663 169.715 15.7163 169.715 14.9797C169.715 14.243 169.862 13.5973 170.157 13.0427C170.452 12.488 170.863 12.0633 171.392 11.7687C171.929 11.4653 172.545 11.3137 173.238 11.3137C173.914 11.3137 174.512 11.461 175.032 11.7557C175.552 12.0503 175.951 12.4577 176.228 12.9777C176.514 13.489 176.657 14.0697 176.657 14.7197ZM175.435 14.4727C175.435 14.022 175.335 13.6363 175.136 13.3157C174.937 12.9863 174.664 12.7393 174.317 12.5747C173.979 12.4013 173.602 12.3147 173.186 12.3147C172.588 12.3147 172.077 12.5053 171.652 12.8867C171.236 13.268 170.998 13.7967 170.937 14.4727H175.435Z" fill="white"/>
<path d="M160.93 14.9667C160.93 14.2387 161.077 13.6017 161.372 13.0557C161.666 12.501 162.069 12.072 162.581 11.7687C163.101 11.4653 163.681 11.3137 164.323 11.3137C164.877 11.3137 165.393 11.4437 165.87 11.7037C166.346 11.955 166.71 12.2887 166.962 12.7047V8.93467H168.158V18.5547H166.962V17.2157C166.728 17.6403 166.381 17.9913 165.922 18.2687C165.462 18.5373 164.925 18.6717 164.31 18.6717C163.677 18.6717 163.101 18.5157 162.581 18.2037C162.069 17.8917 161.666 17.454 161.372 16.8907C161.077 16.3273 160.93 15.686 160.93 14.9667ZM166.962 14.9797C166.962 14.4423 166.853 13.9743 166.637 13.5757C166.42 13.177 166.125 12.8737 165.753 12.6657C165.389 12.449 164.986 12.3407 164.544 12.3407C164.102 12.3407 163.699 12.4447 163.335 12.6527C162.971 12.8607 162.68 13.164 162.464 13.5627C162.247 13.9613 162.139 14.4293 162.139 14.9667C162.139 15.5127 162.247 15.9893 162.464 16.3967C162.68 16.7953 162.971 17.103 163.335 17.3197C163.699 17.5277 164.102 17.6317 164.544 17.6317C164.986 17.6317 165.389 17.5277 165.753 17.3197C166.125 17.103 166.42 16.7953 166.637 16.3967C166.853 15.9893 166.962 15.517 166.962 14.9797Z" fill="white"/>
<path d="M159.355 8.93467V18.5547H158.172V8.93467H159.355Z" fill="white"/>
<path d="M148.945 14.9667C148.945 14.2387 149.093 13.6017 149.387 13.0557C149.682 12.501 150.085 12.072 150.596 11.7687C151.116 11.4653 151.693 11.3137 152.325 11.3137C152.949 11.3137 153.491 11.448 153.95 11.7167C154.41 11.9853 154.752 12.3233 154.977 12.7307V11.4307H156.173V18.5547H154.977V17.2287C154.743 17.6447 154.392 17.9913 153.924 18.2687C153.465 18.5373 152.928 18.6717 152.312 18.6717C151.68 18.6717 151.108 18.5157 150.596 18.2037C150.085 17.8917 149.682 17.454 149.387 16.8907C149.093 16.3273 148.945 15.686 148.945 14.9667ZM154.977 14.9797C154.977 14.4423 154.869 13.9743 154.652 13.5757C154.436 13.177 154.141 12.8737 153.768 12.6657C153.404 12.449 153.001 12.3407 152.559 12.3407C152.117 12.3407 151.714 12.4447 151.35 12.6527C150.986 12.8607 150.696 13.164 150.479 13.5627C150.263 13.9613 150.154 14.4293 150.154 14.9667C150.154 15.5127 150.263 15.9893 150.479 16.3967C150.696 16.7953 150.986 17.103 151.35 17.3197C151.714 17.5277 152.117 17.6317 152.559 17.6317C153.001 17.6317 153.404 17.5277 153.768 17.3197C154.141 17.103 154.436 16.7953 154.652 16.3967C154.869 15.9893 154.977 15.517 154.977 14.9797Z" fill="white"/>
<path d="M146.799 10.2737C146.574 10.2737 146.383 10.1957 146.227 10.0397C146.071 9.88367 145.993 9.693 145.993 9.46767C145.993 9.24233 146.071 9.05167 146.227 8.89567C146.383 8.73967 146.574 8.66167 146.799 8.66167C147.016 8.66167 147.198 8.73967 147.345 8.89567C147.501 9.05167 147.579 9.24233 147.579 9.46767C147.579 9.693 147.501 9.88367 147.345 10.0397C147.198 10.1957 147.016 10.2737 146.799 10.2737ZM147.371 11.4307V18.5547H146.188V11.4307H147.371Z" fill="white"/>
<path d="M142.896 12.4057V16.6047C142.896 16.9513 142.969 17.1983 143.117 17.3457C143.264 17.4843 143.52 17.5537 143.884 17.5537H144.755V18.5547H143.689C143.03 18.5547 142.536 18.403 142.207 18.0997C141.877 17.7963 141.713 17.298 141.713 16.6047V12.4057H140.79V11.4307H141.713V9.63667H142.896V11.4307H144.755V12.4057H142.896Z" fill="white"/>
<path d="M137.183 18.6717C136.637 18.6717 136.147 18.5807 135.714 18.3987C135.28 18.208 134.938 17.948 134.687 17.6187C134.435 17.2807 134.297 16.895 134.271 16.4617H135.493C135.527 16.817 135.692 17.1073 135.987 17.3327C136.29 17.558 136.684 17.6707 137.17 17.6707C137.62 17.6707 137.976 17.571 138.236 17.3717C138.496 17.1723 138.626 16.921 138.626 16.6177C138.626 16.3057 138.487 16.076 138.21 15.9287C137.932 15.7727 137.503 15.621 136.923 15.4737C136.394 15.335 135.961 15.1963 135.623 15.0577C135.293 14.9103 135.007 14.698 134.765 14.4207C134.531 14.1347 134.414 13.762 134.414 13.3027C134.414 12.9387 134.522 12.605 134.739 12.3017C134.955 11.9983 135.263 11.76 135.662 11.5867C136.06 11.4047 136.515 11.3137 137.027 11.3137C137.815 11.3137 138.452 11.513 138.938 11.9117C139.423 12.3103 139.683 12.8563 139.718 13.5497H138.535C138.509 13.177 138.357 12.878 138.08 12.6527C137.811 12.4273 137.447 12.3147 136.988 12.3147C136.563 12.3147 136.225 12.4057 135.974 12.5877C135.722 12.7697 135.597 13.008 135.597 13.3027C135.597 13.5367 135.67 13.7317 135.818 13.8877C135.974 14.035 136.164 14.1563 136.39 14.2517C136.624 14.3383 136.944 14.438 137.352 14.5507C137.863 14.6893 138.279 14.828 138.6 14.9667C138.92 15.0967 139.193 15.296 139.419 15.5647C139.653 15.8333 139.774 16.1843 139.783 16.6177C139.783 17.0077 139.674 17.3587 139.458 17.6707C139.241 17.9827 138.933 18.2297 138.535 18.4117C138.145 18.585 137.694 18.6717 137.183 18.6717Z" fill="white"/>
<path d="M133.099 14.7197C133.099 14.945 133.086 15.1833 133.06 15.4347H127.366C127.41 16.1367 127.648 16.687 128.081 17.0857C128.523 17.4757 129.056 17.6707 129.68 17.6707C130.192 17.6707 130.616 17.5537 130.954 17.3197C131.301 17.077 131.544 16.7563 131.682 16.3577H132.956C132.766 17.0423 132.384 17.6013 131.812 18.0347C131.24 18.4593 130.53 18.6717 129.68 18.6717C129.004 18.6717 128.398 18.52 127.86 18.2167C127.332 17.9133 126.916 17.4843 126.612 16.9297C126.309 16.3663 126.157 15.7163 126.157 14.9797C126.157 14.243 126.305 13.5973 126.599 13.0427C126.894 12.488 127.306 12.0633 127.834 11.7687C128.372 11.4653 128.987 11.3137 129.68 11.3137C130.356 11.3137 130.954 11.461 131.474 11.7557C131.994 12.0503 132.393 12.4577 132.67 12.9777C132.956 13.489 133.099 14.0697 133.099 14.7197ZM131.877 14.4727C131.877 14.022 131.778 13.6363 131.578 13.3157C131.379 12.9863 131.106 12.7393 130.759 12.5747C130.421 12.4013 130.044 12.3147 129.628 12.3147C129.03 12.3147 128.519 12.5053 128.094 12.8867C127.678 13.268 127.44 13.7967 127.379 14.4727H131.877Z" fill="white"/>
<path d="M124.583 8.93467V18.5547H123.4V8.93467H124.583Z" fill="white"/>
<path d="M121.838 14.7197C121.838 14.945 121.825 15.1833 121.799 15.4347H116.105C116.149 16.1367 116.387 16.687 116.82 17.0857C117.262 17.4757 117.795 17.6707 118.419 17.6707C118.931 17.6707 119.355 17.5537 119.693 17.3197C120.04 17.077 120.283 16.7563 120.421 16.3577H121.695C121.505 17.0423 121.123 17.6013 120.551 18.0347C119.979 18.4593 119.269 18.6717 118.419 18.6717C117.743 18.6717 117.137 18.52 116.599 18.2167C116.071 17.9133 115.655 17.4843 115.351 16.9297C115.048 16.3663 114.896 15.7163 114.896 14.9797C114.896 14.243 115.044 13.5973 115.338 13.0427C115.633 12.488 116.045 12.0633 116.573 11.7687C117.111 11.4653 117.726 11.3137 118.419 11.3137C119.095 11.3137 119.693 11.461 120.213 11.7557C120.733 12.0503 121.132 12.4577 121.409 12.9777C121.695 13.489 121.838 14.0697 121.838 14.7197ZM120.616 14.4727C120.616 14.022 120.517 13.6363 120.317 13.3157C120.118 12.9863 119.845 12.7393 119.498 12.5747C119.16 12.4013 118.783 12.3147 118.367 12.3147C117.769 12.3147 117.258 12.5053 116.833 12.8867C116.417 13.268 116.179 13.7967 116.118 14.4727H120.616Z" fill="white"/>
<path d="M107 14.9797C107 14.243 107.147 13.6017 107.442 13.0557C107.737 12.501 108.144 12.072 108.664 11.7687C109.193 11.4653 109.795 11.3137 110.471 11.3137C111.346 11.3137 112.066 11.526 112.629 11.9507C113.201 12.3753 113.578 12.9647 113.76 13.7187H112.486C112.365 13.2853 112.126 12.943 111.771 12.6917C111.424 12.4403 110.991 12.3147 110.471 12.3147C109.795 12.3147 109.249 12.5487 108.833 13.0167C108.417 13.476 108.209 14.1303 108.209 14.9797C108.209 15.8377 108.417 16.5007 108.833 16.9687C109.249 17.4367 109.795 17.6707 110.471 17.6707C110.991 17.6707 111.424 17.5493 111.771 17.3067C112.118 17.064 112.356 16.7173 112.486 16.2667H113.76C113.569 16.9947 113.188 17.5797 112.616 18.0217C112.044 18.455 111.329 18.6717 110.471 18.6717C109.795 18.6717 109.193 18.52 108.664 18.2167C108.144 17.9133 107.737 17.4843 107.442 16.9297C107.147 16.375 107 15.725 107 14.9797Z" fill="white"/>
</svg>
