<svg width="114" height="114" viewBox="0 0 114 114" fill="none" xmlns="http://www.w3.org/2000/svg">
<rect x="16.4408" y="16.4408" width="81.1183" height="81.1183" rx="2.55917" fill="#161619" stroke="#41434E" stroke-width="1.11833"/>
<rect x="0.5" y="0.5" width="113" height="113" stroke="#0FF1FF"/>
<path d="M81.5817 75.965V85H80.0997V81.048H75.8487V85H74.3667V75.965H75.8487V79.839H80.0997V75.965H81.5817Z" fill="white"/>
<path d="M69.4978 85.091C68.8911 85.091 68.3451 84.987 67.8598 84.779C67.3745 84.5623 66.9931 84.259 66.7158 83.869C66.4385 83.479 66.2998 83.024 66.2998 82.504H67.8858C67.9205 82.894 68.0721 83.2147 68.3408 83.466C68.6181 83.7173 69.0038 83.843 69.4978 83.843C70.0091 83.843 70.4078 83.7217 70.6938 83.479C70.9798 83.2277 71.1228 82.907 71.1228 82.517C71.1228 82.2137 71.0318 81.9667 70.8498 81.776C70.6765 81.5853 70.4555 81.438 70.1868 81.334C69.9268 81.23 69.5628 81.1173 69.0948 80.996C68.5055 80.84 68.0245 80.684 67.6518 80.528C67.2878 80.3633 66.9758 80.112 66.7158 79.774C66.4558 79.436 66.3258 78.9853 66.3258 78.422C66.3258 77.902 66.4558 77.447 66.7158 77.057C66.9758 76.667 67.3398 76.368 67.8078 76.16C68.2758 75.952 68.8175 75.848 69.4328 75.848C70.3081 75.848 71.0231 76.069 71.5778 76.511C72.1411 76.9443 72.4531 77.5423 72.5138 78.305H70.8758C70.8498 77.9757 70.6938 77.694 70.4078 77.46C70.1218 77.226 69.7448 77.109 69.2768 77.109C68.8521 77.109 68.5055 77.2173 68.2368 77.434C67.9681 77.6507 67.8338 77.9627 67.8338 78.37C67.8338 78.6473 67.9161 78.877 68.0808 79.059C68.2541 79.2323 68.4708 79.371 68.7308 79.475C68.9908 79.579 69.3461 79.6917 69.7968 79.813C70.3948 79.9777 70.8801 80.1423 71.2528 80.307C71.6341 80.4717 71.9548 80.7273 72.2148 81.074C72.4835 81.412 72.6178 81.867 72.6178 82.439C72.6178 82.8983 72.4921 83.3317 72.2408 83.739C71.9981 84.1463 71.6385 84.4757 71.1618 84.727C70.6938 84.9697 70.1391 85.091 69.4978 85.091Z" fill="white"/>
<path d="M64.5753 75.965V85H63.0933V75.965H64.5753Z" fill="white"/>
<path d="M58.7989 83.804H61.8539V85H57.3169V75.965H58.7989V83.804Z" fill="white"/>
<path d="M53.9644 80.359C54.4498 80.4457 54.8614 80.7013 55.1994 81.126C55.5374 81.5507 55.7064 82.0317 55.7064 82.569C55.7064 83.0283 55.5851 83.4443 55.3424 83.817C55.1084 84.181 54.7661 84.4713 54.3154 84.688C53.8648 84.896 53.3404 85 52.7424 85H49.1284V75.965H52.5734C53.1888 75.965 53.7174 76.069 54.1594 76.277C54.6014 76.485 54.9351 76.7667 55.1604 77.122C55.3858 77.4687 55.4984 77.8587 55.4984 78.292C55.4984 78.812 55.3598 79.2453 55.0824 79.592C54.8051 79.9387 54.4324 80.1943 53.9644 80.359ZM50.6104 79.761H52.4434C52.9288 79.761 53.3058 79.6527 53.5744 79.436C53.8518 79.2107 53.9904 78.89 53.9904 78.474C53.9904 78.0667 53.8518 77.7503 53.5744 77.525C53.3058 77.291 52.9288 77.174 52.4434 77.174H50.6104V79.761ZM52.6124 83.791C53.1151 83.791 53.5094 83.6697 53.7954 83.427C54.0814 83.1843 54.2244 82.8463 54.2244 82.413C54.2244 81.971 54.0728 81.62 53.7694 81.36C53.4661 81.1 53.0631 80.97 52.5604 80.97H50.6104V83.791H52.6124Z" fill="white"/>
<path d="M41.6216 75.965V81.724C41.6216 82.4087 41.7993 82.9243 42.1546 83.271C42.5186 83.6177 43.0213 83.791 43.6626 83.791C44.3126 83.791 44.8153 83.6177 45.1706 83.271C45.5346 82.9243 45.7166 82.4087 45.7166 81.724V75.965H47.1986V81.698C47.1986 82.4347 47.0383 83.0587 46.7176 83.57C46.397 84.0813 45.968 84.4627 45.4306 84.714C44.8933 84.9653 44.2996 85.091 43.6496 85.091C42.9996 85.091 42.406 84.9653 41.8686 84.714C41.34 84.4627 40.9196 84.0813 40.6076 83.57C40.2956 83.0587 40.1396 82.4347 40.1396 81.698V75.965H41.6216Z" fill="white"/>
<path d="M38.7394 78.656C38.7394 79.1153 38.6311 79.5487 38.4144 79.956C38.1977 80.3633 37.8511 80.697 37.3744 80.957C36.8977 81.2083 36.2867 81.334 35.5414 81.334H33.9034V85H32.4214V75.965H35.5414C36.2347 75.965 36.8197 76.0863 37.2964 76.329C37.7817 76.563 38.1414 76.8837 38.3754 77.291C38.6181 77.6983 38.7394 78.1533 38.7394 78.656ZM35.5414 80.125C36.1047 80.125 36.5251 79.9993 36.8024 79.748C37.0797 79.488 37.2184 79.124 37.2184 78.656C37.2184 77.668 36.6594 77.174 35.5414 77.174H33.9034V80.125H35.5414Z" fill="white"/>
<path opacity="0.1" fill-rule="evenodd" clip-rule="evenodd" d="M70.3302 40.0667C70.3302 37.8264 70.3302 36.7063 69.8943 35.8507C69.5108 35.098 68.8988 34.4861 68.1462 34.1026C67.2906 33.6667 66.1704 33.6667 63.9302 33.6667H63.1984C61.8938 33.6667 61.2416 33.6667 60.6277 33.814C60.0835 33.9447 59.5633 34.1602 59.086 34.4527C58.5478 34.7825 58.0866 35.2438 57.1642 36.1662L50.331 43C48.8771 44.454 48.1501 45.181 47.7615 45.9652C47.0222 47.4574 47.0222 49.2092 47.7616 50.7013C48.1503 51.4855 48.8772 52.2125 50.3312 53.6664V53.6664C51.7852 55.1205 52.5122 55.8475 53.2965 56.2362C54.7887 56.9756 56.5406 56.9755 58.0328 56.2361C58.8171 55.8474 59.5441 55.1203 60.998 53.6662L67.8311 46.8326C68.7534 45.9102 69.2146 45.449 69.5444 44.9108C69.8368 44.4337 70.0523 43.9135 70.1829 43.3693C70.3302 42.7555 70.3302 42.1033 70.3302 40.7989V40.0667ZM61.0013 45.666C62.4741 45.666 63.668 44.4721 63.668 42.9993C63.668 41.5266 62.4741 40.3327 61.0013 40.3327C59.5285 40.3327 58.3346 41.5266 58.3346 42.9993C58.3346 44.4721 59.5285 45.666 61.0013 45.666Z" fill="white"/>
<path d="M48.3322 45L43.6655 41.6665L45.1029 40.2292C46.2835 39.0486 46.8739 38.4583 47.5725 38.0851C48.1909 37.7548 48.8684 37.5497 49.5662 37.4815C50.3545 37.4045 51.1731 37.5682 52.8104 37.8957L54.9982 38.3333M65.6648 49L66.1027 51.1877C66.4305 52.8252 66.5943 53.644 66.5174 54.4323C66.4492 55.1303 66.2441 55.8079 65.9138 56.4265C65.5406 57.1252 64.9502 57.7156 63.7693 58.8965L62.3325 60.3333L58.9992 55.6666M50.3315 53.6665L52.998 51M63.6681 42.9993C63.6681 44.4721 62.4742 45.666 61.0015 45.666C59.5287 45.666 58.3348 44.4721 58.3348 42.9993C58.3348 41.5266 59.5287 40.3327 61.0015 40.3327C62.4742 40.3327 63.6681 41.5266 63.6681 42.9993ZM63.9304 33.6667H63.1986C61.894 33.6667 61.2417 33.6667 60.6279 33.814C60.0837 33.9447 59.5634 34.1602 59.0862 34.4527C58.548 34.7825 58.0868 35.2438 57.1643 36.1662L50.3311 43C48.8772 44.454 48.1503 45.181 47.7617 45.9652C47.0223 47.4574 47.0224 49.2092 47.7618 50.7013C48.1504 51.4855 48.8774 52.2125 50.3313 53.6664V53.6664C51.7854 55.1205 52.5124 55.8475 53.2967 56.2362C54.7889 56.9756 56.5408 56.9755 58.033 56.2361C58.8172 55.8474 59.5442 55.1203 60.9982 53.6662L67.8313 46.8326C68.7536 45.9102 69.2148 45.449 69.5446 44.9108C69.8369 44.4337 70.0524 43.9135 70.1831 43.3693C70.3304 42.7555 70.3304 42.1033 70.3304 40.7989V40.0667C70.3304 37.8264 70.3304 36.7063 69.8944 35.8507C69.5109 35.098 68.899 34.4861 68.1464 34.1026C67.2907 33.6667 66.1706 33.6667 63.9304 33.6667Z" stroke="white" stroke-width="1.4" stroke-linecap="round" stroke-linejoin="round"/>
</svg>
