<svg width="444" height="329" viewBox="0 0 444 329" fill="none" xmlns="http://www.w3.org/2000/svg">
<g filter="url(#filter0_d_803_19271)">
<path d="M420.01 138.114C426.94 138.114 434.5 142.434 439.81 146.574L437.11 155.934H436.48C431.35 143.874 424.78 139.284 417.67 139.284C408.76 139.284 403.63 144.324 403.09 149.724C401.38 167.724 439.99 161.784 439.99 184.284C439.99 194.994 430.36 202.554 417.58 202.554C406.87 202.554 400.21 198.954 393.19 193.644L395.89 183.384H396.52C401.11 192.564 409.48 200.754 421.27 200.754C428.92 200.754 435.31 195.804 436.03 190.134C438.37 170.964 399.67 177.084 399.67 154.494C399.67 147.204 405.52 138.114 420.01 138.114Z" fill="white"/>
</g>
<g filter="url(#filter1_d_803_19271)">
<path d="M390.846 190.764L391.386 191.124L389.406 202.014H352.866C352.866 202.014 352.866 201.564 352.866 201.384C354.216 200.574 354.846 199.224 354.846 196.074V145.044C354.846 141.894 354.216 140.544 352.866 139.734C352.866 139.554 352.866 139.014 352.866 139.014H386.526L388.416 149.004L387.966 149.364C383.826 144.684 378.246 139.734 368.256 139.734H361.956V166.284L384.636 164.304V168.894L361.956 167.004V201.384H369.246C379.146 201.384 386.616 196.254 390.846 190.764Z" fill="white"/>
</g>
<g filter="url(#filter2_d_803_19271)">
<path d="M349.257 139.734C347.817 140.544 347.187 141.894 347.187 145.044V196.074C347.187 199.224 347.817 200.574 349.257 201.384C349.257 201.564 349.257 202.014 349.257 202.014H338.097C338.097 202.014 338.097 201.564 338.097 201.384C339.447 200.574 340.077 199.224 340.077 196.074V145.044C340.077 141.894 339.447 140.544 338.097 139.734C338.097 139.554 338.097 139.014 338.097 139.014H349.257C349.257 139.014 349.257 139.554 349.257 139.734Z" fill="white"/>
</g>
<g filter="url(#filter3_d_803_19271)">
<path d="M334.777 183.924L335.407 184.194C330.547 194.274 321.907 202.554 305.977 202.554C288.247 202.554 272.857 188.154 272.857 170.334C272.857 152.514 288.967 138.114 306.787 138.114C316.507 138.114 322.357 140.634 330.007 145.674L327.307 155.934H326.677C320.107 145.494 309.397 137.754 297.607 140.274C282.217 143.604 276.637 161.784 281.497 177.714C286.357 193.554 299.317 201.834 315.157 199.404C323.257 198.234 330.187 192.924 334.777 183.924Z" fill="white"/>
</g>
<g filter="url(#filter4_d_803_19271)">
<path d="M275.573 201.384V202.014H261.713V201.384C264.053 199.044 263.333 195.894 260.813 189.324L256.403 177.894H234.083L231.653 184.734C228.773 192.924 228.323 197.334 232.103 201.384V202.014H221.483V201.384C225.353 197.334 227.963 193.194 230.933 184.734L244.433 146.754L241.463 139.014H248.573L266.123 184.734C269.813 193.734 272.153 197.334 275.573 201.384ZM234.353 177.174H256.133L244.793 147.744L234.353 177.174Z" fill="white"/>
</g>
<g filter="url(#filter5_d_803_19271)">
<path d="M223.589 183.924L224.219 184.194C219.359 194.274 210.719 202.554 194.789 202.554C177.059 202.554 161.669 188.154 161.669 170.334C161.669 152.514 177.779 138.114 195.599 138.114C205.319 138.114 211.169 140.634 218.819 145.674L216.119 155.934H215.489C208.919 145.494 198.209 137.754 186.419 140.274C171.029 143.604 165.449 161.784 170.309 177.714C175.169 193.554 188.129 201.834 203.969 199.404C212.069 198.234 218.999 192.924 223.589 183.924Z" fill="white"/>
</g>
<g filter="url(#filter6_d_803_19271)">
<path d="M158.96 139.734C157.52 140.544 156.89 141.894 156.89 145.044V196.074C156.89 199.224 157.52 200.574 158.96 201.384C158.96 201.564 158.96 202.014 158.96 202.014H147.8C147.8 202.014 147.8 201.564 147.8 201.384C149.15 200.574 149.78 199.224 149.78 196.074V145.044C149.78 141.894 149.15 140.544 147.8 139.734C147.8 139.554 147.8 139.014 147.8 139.014H158.96C158.96 139.014 158.96 139.554 158.96 139.734Z" fill="white"/>
</g>
<g filter="url(#filter7_d_803_19271)">
<path d="M145.457 190.764L145.997 191.124L144.017 202.014H106.487C106.487 202.014 106.487 201.564 106.487 201.384C107.927 200.574 108.557 199.224 108.557 196.074V145.044C108.557 141.804 107.927 140.544 106.487 139.734C106.487 139.554 106.487 139.014 106.487 139.014H117.647C117.647 139.014 117.647 139.554 117.647 139.734C116.297 140.544 115.667 141.804 115.667 145.044V201.384H123.857C133.847 201.384 141.227 196.254 145.457 190.764Z" fill="white"/>
</g>
<g filter="url(#filter8_d_803_19271)">
<path d="M103.243 190.764L103.783 191.124L101.803 202.014H65.2632C65.2632 202.014 65.2632 201.564 65.2632 201.384C66.6132 200.574 67.2432 199.224 67.2432 196.074V145.044C67.2432 141.894 66.6132 140.544 65.2632 139.734C65.2632 139.554 65.2632 139.014 65.2632 139.014H98.9232L100.813 149.004L100.363 149.364C96.2232 144.684 90.6432 139.734 80.6532 139.734H74.3532V166.284L97.0332 164.304V168.894L74.3532 167.004V201.384H81.6432C91.5432 201.384 99.0132 196.254 103.243 190.764Z" fill="white"/>
</g>
<g filter="url(#filter9_d_803_19271)">
<path d="M26.5 139.014C47.38 139.014 62.59 152.784 62.59 170.514C62.59 188.334 47.38 202.014 26.5 202.014H4C4 202.014 4 201.564 4 201.384C5.35 200.574 5.98 199.224 5.98 196.074V145.044C5.98 141.894 5.35 140.544 4 139.734C4 139.554 4 139.014 4 139.014H26.5ZM26.5 201.384C44.5 201.384 55.48 187.164 55.48 170.514C55.48 153.954 44.5 139.734 26.5 139.734H13.09V201.384H26.5Z" fill="white"/>
</g>
<g filter="url(#filter10_d_803_19271)">
<path d="M418.864 100.764L419.404 101.124L417.424 112.014H379.894C379.894 112.014 379.894 111.564 379.894 111.384C381.334 110.574 381.964 109.224 381.964 106.074V55.044C381.964 51.804 381.334 50.544 379.894 49.734C379.894 49.554 379.894 49.014 379.894 49.014H391.054C391.054 49.014 391.054 49.554 391.054 49.734C389.704 50.544 389.074 51.804 389.074 55.044V111.384H397.264C407.254 111.384 414.634 106.254 418.864 100.764Z" fill="white"/>
</g>
<g filter="url(#filter11_d_803_19271)">
<path d="M378.986 111.384V112.014H365.125V111.384C367.465 109.044 366.746 105.894 364.226 99.324L359.815 87.894H337.496L335.066 94.734C332.186 102.924 331.736 107.334 335.516 111.384V112.014H324.896V111.384C328.766 107.334 331.376 103.194 334.346 94.734L347.846 56.754L344.876 49.014H351.986L369.536 94.734C373.226 103.734 375.566 107.334 378.986 111.384ZM337.766 87.174H359.546L348.206 57.744L337.766 87.174Z" fill="white"/>
</g>
<g filter="url(#filter12_d_803_19271)">
<path d="M323.987 49.734C322.547 50.544 321.917 51.894 321.917 55.044V106.074C321.917 109.224 322.547 110.574 323.987 111.384C323.987 111.564 323.987 112.014 323.987 112.014H312.827C312.827 112.014 312.827 111.564 312.827 111.384C314.177 110.574 314.807 109.224 314.807 106.074V55.044C314.807 51.894 314.177 50.544 312.827 49.734C312.827 49.554 312.827 49.014 312.827 49.014H323.987C323.987 49.014 323.987 49.554 323.987 49.734Z" fill="white"/>
</g>
<g filter="url(#filter13_d_803_19271)">
<path d="M308.119 49.014L310.999 59.994L310.459 60.264C306.409 55.674 300.739 49.734 290.749 49.734H288.769V106.074C288.769 109.224 289.489 110.574 290.839 111.384C290.839 111.564 290.839 112.014 290.839 112.014H279.679C279.679 112.014 279.679 111.564 279.679 111.384C281.029 110.574 281.749 109.224 281.749 106.074V49.734H279.769C269.779 49.734 264.109 55.674 260.059 60.264L259.519 59.994L262.399 49.014H308.119Z" fill="white"/>
</g>
<g filter="url(#filter14_d_803_19271)">
<path d="M239.511 48.114C246.441 48.114 254.001 52.434 259.311 56.574L256.611 65.934H255.981C250.851 53.874 244.281 49.284 237.171 49.284C228.261 49.284 223.131 54.324 222.591 59.724C220.881 77.724 259.491 71.784 259.491 94.284C259.491 104.994 249.861 112.554 237.081 112.554C226.371 112.554 219.711 108.954 212.691 103.644L215.391 93.384H216.021C220.611 102.564 228.981 110.754 240.771 110.754C248.421 110.754 254.811 105.804 255.531 100.134C257.871 80.964 219.171 87.084 219.171 64.494C219.171 57.204 225.021 48.114 239.511 48.114Z" fill="white"/>
</g>
<g filter="url(#filter15_d_803_19271)">
<path d="M210.347 100.764L210.887 101.124L208.907 112.014H172.367C172.367 112.014 172.367 111.564 172.367 111.384C173.717 110.574 174.347 109.224 174.347 106.074V55.044C174.347 51.894 173.717 50.544 172.367 49.734C172.367 49.554 172.367 49.014 172.367 49.014H206.027L207.917 59.004L207.467 59.364C203.327 54.684 197.747 49.734 187.757 49.734H181.457V76.284L204.137 74.304V78.894L181.457 77.004V111.384H188.747C198.647 111.384 206.117 106.254 210.347 100.764Z" fill="white"/>
</g>
<g filter="url(#filter16_d_803_19271)">
<path d="M170.025 100.764L170.565 101.124L168.585 112.014H131.055C131.055 112.014 131.055 111.564 131.055 111.384C132.495 110.574 133.125 109.224 133.125 106.074V55.044C133.125 51.804 132.495 50.544 131.055 49.734C131.055 49.554 131.055 49.014 131.055 49.014H142.215C142.215 49.014 142.215 49.554 142.215 49.734C140.865 50.544 140.235 51.804 140.235 55.044V111.384H148.425C158.415 111.384 165.795 106.254 170.025 100.764Z" fill="white"/>
</g>
<g filter="url(#filter17_d_803_19271)">
<path d="M127.811 100.764L128.351 101.124L126.371 112.014H89.8306C89.8306 112.014 89.8306 111.564 89.8306 111.384C91.1806 110.574 91.8106 109.224 91.8106 106.074V55.044C91.8106 51.894 91.1806 50.544 89.8306 49.734C89.8306 49.554 89.8306 49.014 89.8306 49.014H123.491L125.381 59.004L124.931 59.364C120.791 54.684 115.211 49.734 105.221 49.734H98.9206V76.284L121.601 74.304V78.894L98.9206 77.004V111.384H106.211C116.111 111.384 123.581 106.254 127.811 100.764Z" fill="white"/>
</g>
<g filter="url(#filter18_d_803_19271)">
<path d="M86.5108 93.924L87.1408 94.194C82.2808 104.274 73.6408 112.554 57.7108 112.554C39.9808 112.554 24.5908 98.154 24.5908 80.334C24.5908 62.514 40.7008 48.114 58.5208 48.114C68.2408 48.114 74.0908 50.634 81.7408 55.674L79.0408 65.934H78.4108C71.8408 55.494 61.1308 47.754 49.3408 50.274C33.9508 53.604 28.3708 71.784 33.2308 87.714C38.0908 103.554 51.0508 111.834 66.8908 109.404C74.9908 108.234 81.9208 102.924 86.5108 93.924Z" fill="white"/>
</g>
<path d="M313.125 8.136V12.042H320.073L319.443 12.888H311.217V0.0540009H311.667H320.217L319.443 0.846H313.125V4.518V5.13H319.983L319.353 5.922H313.125V6.912V8.136Z" fill="white"/>
<path d="M301.1 5.634L307.796 12.888H305.15L300.02 7.32599L299.786 7.056L298.706 8.316V12.87H296.744V0.809995V0.0359955H298.004H298.706V7.038L304.682 0.593995L305.204 0.0359955H305.762H306.284L305.798 0.593995L301.1 5.634Z" fill="white"/>
<path d="M291.369 0.0359955H292.089V12.888H290.145V0.809995V0.0359955H291.369Z" fill="white"/>
<path d="M280.181 0.0359955V12.096H286.805C286.805 12.096 286.139 12.87 286.121 12.888H278.255V0.791995V0.0359955H279.479H280.181Z" fill="white"/>
<path d="M263.825 14.058C264.131 14.634 264.293 15.282 264.275 15.93C264.275 16.254 264.221 16.56 264.113 16.884C264.023 17.19 263.879 17.496 263.663 17.784C263.465 18.054 263.213 18.306 262.907 18.522C262.745 18.612 262.565 18.702 262.403 18.774C262.223 18.828 262.025 18.882 261.845 18.918C261.755 18.936 261.647 18.936 261.557 18.936C261.467 18.954 261.359 18.954 261.269 18.936C261.071 18.936 260.873 18.9 260.693 18.846C260.315 18.756 259.973 18.558 259.703 18.288C259.433 18.018 259.253 17.676 259.199 17.316C259.127 16.974 259.181 16.596 259.361 16.254C259.451 16.092 259.577 15.93 259.739 15.804C259.901 15.678 260.099 15.588 260.297 15.534C260.495 15.462 260.693 15.444 260.891 15.462C261.071 15.462 261.251 15.48 261.413 15.516L261.269 16.2C261.269 16.2 260.999 16.164 260.873 16.164C260.765 16.164 260.639 16.182 260.549 16.218C260.351 16.29 260.225 16.416 260.135 16.596C260.045 16.776 260.009 16.974 260.063 17.19C260.099 17.388 260.225 17.586 260.387 17.73C260.531 17.874 260.747 17.982 260.963 18.036C261.071 18.072 261.197 18.072 261.305 18.09C261.359 18.09 261.431 18.072 261.485 18.072C261.557 18.072 261.611 18.054 261.665 18.054C262.151 17.964 262.547 17.676 262.817 17.28C263.087 16.884 263.213 16.398 263.213 15.912C263.213 15.426 263.069 14.94 262.835 14.508C262.583 14.058 262.241 13.662 261.809 13.32C261.377 12.978 260.891 12.672 260.369 12.384C260.189 12.294 260.009 12.186 259.811 12.078C259.541 12.384 259.199 12.654 258.821 12.888C258.515 13.068 258.191 13.23 257.849 13.338C257.507 13.464 257.147 13.536 256.805 13.572C256.445 13.608 256.085 13.626 255.725 13.59C255.383 13.572 255.023 13.518 254.681 13.428C253.979 13.248 253.331 12.924 252.791 12.492C252.251 12.042 251.819 11.466 251.585 10.8C251.369 10.152 251.387 9.432 251.621 8.784C251.747 8.442 251.909 8.154 252.125 7.866C252.323 7.596 252.557 7.344 252.827 7.128C253.151 6.84 253.493 6.606 253.871 6.408C253.835 6.318 253.799 6.246 253.781 6.174C253.565 5.598 253.385 5.004 253.313 4.392C253.295 4.23 253.277 4.086 253.277 3.924C253.277 3.87 253.277 3.834 253.277 3.798C253.277 3.744 253.277 3.708 253.277 3.672C253.295 3.582 253.295 3.492 253.313 3.402C253.367 3.078 253.457 2.772 253.583 2.448C253.709 2.16 253.889 1.854 254.105 1.584C254.231 1.44 254.357 1.314 254.483 1.188C254.627 1.062 254.789 0.953996 254.951 0.845995C255.275 0.647996 255.653 0.521997 256.049 0.449996C256.229 0.413996 256.427 0.395996 256.625 0.395996C256.805 0.395996 257.021 0.395996 257.201 0.431995C257.993 0.557996 258.731 0.953996 259.181 1.548C259.415 1.854 259.577 2.196 259.649 2.556C259.739 2.916 259.721 3.276 259.649 3.636C259.559 3.978 259.415 4.32 259.217 4.608C259.019 4.896 258.785 5.148 258.533 5.382C258.029 5.832 257.435 6.174 256.841 6.462C256.535 6.606 256.229 6.714 255.923 6.84L255.707 6.912C255.653 6.93 255.581 6.948 255.527 6.984C255.581 7.074 255.635 7.164 255.689 7.254C255.779 7.398 255.887 7.56 255.977 7.704C255.977 7.56 255.977 7.452 255.977 7.452H264.113V8.478H261.593C261.593 8.514 261.593 8.532 261.575 8.568C261.539 8.712 261.503 8.856 261.467 9C261.395 9.306 261.305 9.594 261.179 9.864C261.053 10.242 260.873 10.602 260.657 10.962C260.621 11.034 260.495 11.214 260.495 11.214C260.495 11.214 260.711 11.34 260.783 11.394C260.855 11.43 260.927 11.466 260.981 11.502C261.521 11.808 262.061 12.15 262.565 12.564C262.817 12.78 263.069 12.996 263.267 13.248C263.483 13.5 263.663 13.77 263.825 14.058ZM254.555 3.726C254.555 3.762 254.555 3.78 254.555 3.816C254.555 3.834 254.555 3.87 254.555 3.906C254.555 4.014 254.573 4.14 254.591 4.266C254.645 4.77 254.789 5.292 254.969 5.796C254.987 5.814 254.987 5.85 255.005 5.868C255.077 5.85 255.149 5.814 255.221 5.796L255.437 5.706C255.707 5.616 255.977 5.508 256.229 5.382C256.751 5.148 257.219 4.86 257.597 4.518C257.975 4.194 258.263 3.798 258.353 3.384C258.461 2.988 258.371 2.574 258.119 2.232C257.849 1.89 257.435 1.656 256.985 1.584C256.877 1.566 256.769 1.566 256.643 1.566C256.535 1.566 256.409 1.584 256.283 1.602C256.175 1.62 256.067 1.656 255.959 1.692C255.851 1.728 255.761 1.764 255.653 1.836C255.275 2.052 254.969 2.43 254.771 2.88C254.681 3.096 254.609 3.33 254.573 3.564C254.573 3.618 254.555 3.672 254.555 3.726ZM258.101 11.916C258.173 11.88 258.695 11.52 258.695 11.52C258.695 11.52 258.497 11.358 258.281 11.25C258.173 11.178 258.065 11.124 257.957 11.052C257.831 10.98 257.705 10.908 257.561 10.818L257.345 10.692L257.147 10.548C256.607 10.17 256.139 9.756 255.707 9.288C255.275 8.82 254.915 8.316 254.591 7.794C254.537 7.704 254.483 7.614 254.429 7.506C254.177 7.668 253.943 7.83 253.745 7.992C253.547 8.172 253.367 8.352 253.223 8.55C253.079 8.73 252.971 8.946 252.881 9.162C252.737 9.576 252.719 10.026 252.863 10.458C253.007 10.89 253.295 11.286 253.673 11.592C254.069 11.916 254.537 12.15 255.041 12.276C255.293 12.348 255.563 12.384 255.833 12.402C256.103 12.438 256.373 12.42 256.643 12.402C257.165 12.348 257.669 12.186 258.101 11.916ZM260.243 8.73C260.279 8.604 260.189 8.478 260.045 8.478H256.607C256.607 8.478 256.679 8.604 256.751 8.676C257.093 9.054 257.471 9.396 257.885 9.684L258.065 9.81L258.227 9.918C258.353 9.99 258.479 10.08 258.605 10.152C258.731 10.224 259.379 10.584 259.379 10.584C259.379 10.584 259.541 10.422 259.667 10.188C259.793 9.954 259.901 9.72 259.991 9.486C260.099 9.234 260.171 8.982 260.243 8.73Z" fill="white"/>
<path d="M231.659 5.634L238.355 12.888H235.709L230.579 7.32599L230.345 7.056L229.265 8.316V12.87H227.303V0.809995V0.0359955H228.563H229.265V7.038L235.241 0.593995L235.763 0.0359955H236.321H236.843L236.357 0.593995L231.659 5.634Z" fill="white"/>
<path d="M221.859 0.0359955H222.633V12.888H221.463L212.391 3.132L212.373 12.528V12.888H211.599V0.0359955H212.427L221.859 10.134V0.0359955Z" fill="white"/>
<path d="M206.224 0.0359955H206.944V12.888H205V0.809995V0.0359955H206.224Z" fill="white"/>
<path d="M200.901 5.004C200.901 6.75 200.127 8.28 198.579 9.126C198.399 9.216 198.237 9.288 198.237 9.288L200.253 12.366L200.595 12.888H198.201L198.093 12.708L196.545 10.278C196.347 9.972 196.005 9.792 195.645 9.792C195.519 9.792 195.393 9.792 195.303 9.792H192.189V10.152V12.528V12.888H190.245V0.792001V0.0540009H191.523H195.303C198.237 0.0540009 200.901 2.214 200.901 4.86V5.004ZM195.303 9.162C197.589 9.162 198.939 7.308 198.939 5.004V4.842C198.939 2.556 197.589 0.684 195.303 0.684H192.189V9.162H195.303Z" fill="white"/>
<path d="M179.168 0.0359935C183.362 0.0359935 186.17 2.42999 186.17 6.46199C186.17 8.56799 185.198 10.206 183.884 11.34C182.732 12.348 181.094 12.888 179.168 12.888H175.244V0.809993C175.244 0.809993 175.19 -0.0180068 175.244 0.0359935H179.168ZM179.168 12.186C182.696 12.186 184.19 10.098 184.19 6.46199C184.19 1.47599 181.238 0.737993 179.168 0.737993H177.134V12.186H179.168Z" fill="white"/>
<path d="M160.294 11.826H161.482C161.482 11.844 161.482 11.862 161.482 11.898L160.294 14.418H159.106C159.106 14.4 159.106 14.382 159.106 14.364L160.294 11.826Z" fill="white"/>
<path d="M146.976 0H158.442L158.19 0.792001H153.69V12.888H151.728V0.792001H147.228L146.976 0Z" fill="white"/>
<path d="M146.519 12.384L146.717 12.852H144.557L144.449 12.618L143.459 10.188L143.441 10.116L136.673 10.134L136.637 10.206L136.007 11.736C135.989 11.754 135.953 11.772 135.917 11.808C135.611 11.844 135.503 11.844 135.143 11.844C135.089 11.772 135.089 11.754 135.035 11.7L139.445 0.756006L139.751 0.0180054H141.497L141.605 0.252006L146.519 12.384ZM137.087 9.10801L143.009 9.07201L142.955 8.92801L139.859 1.96201L137.141 8.94601L137.087 9.10801ZM136.025 12.672C137.015 12.564 137.987 12.276 138.851 11.808L139.229 12.438C138.941 12.6 138.635 12.726 138.311 12.852C137.627 13.122 136.889 13.302 136.133 13.374C135.791 13.41 135.431 13.428 135.071 13.428C134.171 13.428 133.271 13.32 132.407 13.158C132.407 13.158 132.389 13.158 132.389 13.14C131.255 12.924 130.211 12.708 129.149 12.708C129.077 12.708 129.005 12.708 128.951 12.708C127.781 12.708 125.567 13.104 125.567 13.104L124.433 13.284V0.792006V0.0180054H125.657H133.019L132.371 1.06201H126.341V6.24601H132.839L132.191 7.29001H126.341V12.132C126.341 12.132 127.997 11.934 128.933 11.916C128.951 11.916 128.951 11.916 128.951 11.916C129.581 11.916 130.211 11.97 130.823 12.078C131.453 12.168 132.047 12.312 132.623 12.42C133.199 12.546 133.757 12.636 134.315 12.672C134.621 12.69 134.909 12.708 135.197 12.708C135.485 12.708 135.755 12.69 136.025 12.672Z" fill="white"/>
<rect x="92.8257" y="267.014" width="259" height="57" fill="url(#paint0_linear_803_19271)"/>
<rect x="92.8257" y="267.014" width="259" height="57" fill="black"/>
<path d="M305.414 297.51V302.718H314.678L313.838 303.846H302.87V286.734H303.47H314.87L313.838 287.79H305.414V292.686V293.502H314.558L313.718 294.558H305.414V295.878V297.51Z" fill="white"/>
<path d="M291.985 286.71V302.79H300.817C300.817 302.79 299.929 303.822 299.905 303.846H289.417V287.718V286.71H291.049H291.985Z" fill="white"/>
<path d="M282.969 295.062C284.817 295.686 286.593 297.342 286.569 299.31C286.569 301.806 283.977 303.846 281.337 303.846H272.097V286.614H279.297C282.081 286.614 284.769 288.774 284.769 291.39C284.769 292.71 283.785 293.886 282.897 294.75C282.849 294.798 282.657 294.942 282.657 294.942C282.657 294.942 282.897 295.038 282.969 295.062ZM274.737 287.694V294.75V294.87H279.297C281.241 294.87 282.177 293.262 282.177 291.27C282.177 289.302 281.241 287.694 279.273 287.694H274.737ZM280.593 302.886C282.393 302.886 283.953 301.302 283.953 299.358C283.953 297.414 282.393 295.83 280.593 295.83H274.737V302.886H280.593Z" fill="white"/>
<path d="M269.524 303.222L269.764 303.846H266.932L266.812 303.534L265.732 300.798L265.468 300.174H256.468L256.204 300.798L255.076 303.534L254.956 303.846H253.828L254.068 303.222L260.332 287.718L260.716 286.734H263.044L263.164 287.022L269.524 303.222ZM256.876 299.118H265.084L264.868 298.518L261.004 288.726L256.948 298.95L256.876 299.118Z" fill="white"/>
<path d="M240.645 286.662H255.933L255.597 287.718H249.597V303.846H246.981V287.718H240.981L240.645 286.662Z" fill="white"/>
<path d="M228.906 303.222L229.146 303.846H226.314L226.194 303.534L225.114 300.798L224.85 300.174H215.85L215.586 300.798L214.458 303.534L214.338 303.846H213.21L213.45 303.222L219.714 287.718L220.098 286.734H222.426L222.546 287.022L228.906 303.222ZM216.258 299.118H224.466L224.25 298.518L220.386 288.726L216.33 298.95L216.258 299.118Z" fill="white"/>
<path d="M192.498 294.174L201.426 303.846H197.898L191.058 296.43L190.746 296.07L189.306 297.75V303.822H186.69V287.742V286.71H188.37H189.306V296.046L197.274 287.454L197.97 286.71H198.714H199.41L198.762 287.454L192.498 294.174Z" fill="white"/>
<path d="M174.922 286.374C179.53 286.374 183.682 290.334 183.682 295.23C183.682 300.102 179.53 304.086 174.922 304.086C170.338 304.086 166.234 300.102 166.234 295.23C166.234 290.334 170.338 286.374 174.922 286.374ZM176.29 302.886C179.962 302.286 181.834 298.182 181.09 293.958C180.322 289.734 177.25 286.95 173.578 287.55C169.882 288.174 168.13 292.11 168.874 296.334C169.642 300.558 172.618 303.51 176.29 302.886Z" fill="white"/>
<path d="M155.281 286.374C159.889 286.374 164.041 290.334 164.041 295.23C164.041 300.102 159.889 304.086 155.281 304.086C150.697 304.086 146.593 300.102 146.593 295.23C146.593 290.334 150.697 286.374 155.281 286.374ZM156.649 302.886C160.321 302.286 162.193 298.182 161.449 293.958C160.681 289.734 157.609 286.95 153.937 287.55C150.241 288.174 148.489 292.11 149.233 296.334C150.001 300.558 152.977 303.51 156.649 302.886Z" fill="white"/>
<path d="M140.961 295.062C142.809 295.686 144.585 297.342 144.561 299.31C144.561 301.806 141.969 303.846 139.329 303.846H130.089V286.614H137.289C140.073 286.614 142.761 288.774 142.761 291.39C142.761 292.71 141.777 293.886 140.889 294.75C140.841 294.798 140.649 294.942 140.649 294.942C140.649 294.942 140.889 295.038 140.961 295.062ZM132.729 287.694V294.75V294.87H137.289C139.233 294.87 140.169 293.262 140.169 291.27C140.169 289.302 139.233 287.694 137.265 287.694H132.729ZM138.585 302.886C140.385 302.886 141.945 301.302 141.945 299.358C141.945 297.414 140.385 295.83 138.585 295.83H132.729V302.886H138.585Z" fill="white"/>
<rect x="92.3257" y="267.514" width="259" height="57" stroke="#0FF1FF"/>
<rect x="89.3257" y="264.514" width="5" height="5" fill="white" stroke="#0FF1FF"/>
<rect x="89.3257" y="322.514" width="5" height="5" fill="white" stroke="#0FF1FF"/>
<rect x="349.326" y="322.514" width="5" height="5" fill="white" stroke="#0FF1FF"/>
<rect x="349.326" y="264.514" width="5" height="5" fill="white" stroke="#0FF1FF"/>
<defs>
<filter id="filter0_d_803_19271" x="389.19" y="138.114" width="54.7998" height="72.44" filterUnits="userSpaceOnUse" color-interpolation-filters="sRGB">
<feFlood flood-opacity="0" result="BackgroundImageFix"/>
<feColorMatrix in="SourceAlpha" type="matrix" values="0 0 0 0 0 0 0 0 0 0 0 0 0 0 0 0 0 0 127 0" result="hardAlpha"/>
<feOffset dy="4"/>
<feGaussianBlur stdDeviation="2"/>
<feComposite in2="hardAlpha" operator="out"/>
<feColorMatrix type="matrix" values="0 0 0 0 0 0 0 0 0 0 0 0 0 0 0 0 0 0 0.25 0"/>
<feBlend mode="normal" in2="BackgroundImageFix" result="effect1_dropShadow_803_19271"/>
<feBlend mode="normal" in="SourceGraphic" in2="effect1_dropShadow_803_19271" result="shape"/>
</filter>
<filter id="filter1_d_803_19271" x="348.866" y="139.014" width="46.52" height="71" filterUnits="userSpaceOnUse" color-interpolation-filters="sRGB">
<feFlood flood-opacity="0" result="BackgroundImageFix"/>
<feColorMatrix in="SourceAlpha" type="matrix" values="0 0 0 0 0 0 0 0 0 0 0 0 0 0 0 0 0 0 127 0" result="hardAlpha"/>
<feOffset dy="4"/>
<feGaussianBlur stdDeviation="2"/>
<feComposite in2="hardAlpha" operator="out"/>
<feColorMatrix type="matrix" values="0 0 0 0 0 0 0 0 0 0 0 0 0 0 0 0 0 0 0.25 0"/>
<feBlend mode="normal" in2="BackgroundImageFix" result="effect1_dropShadow_803_19271"/>
<feBlend mode="normal" in="SourceGraphic" in2="effect1_dropShadow_803_19271" result="shape"/>
</filter>
<filter id="filter2_d_803_19271" x="334.097" y="139.014" width="19.1602" height="71" filterUnits="userSpaceOnUse" color-interpolation-filters="sRGB">
<feFlood flood-opacity="0" result="BackgroundImageFix"/>
<feColorMatrix in="SourceAlpha" type="matrix" values="0 0 0 0 0 0 0 0 0 0 0 0 0 0 0 0 0 0 127 0" result="hardAlpha"/>
<feOffset dy="4"/>
<feGaussianBlur stdDeviation="2"/>
<feComposite in2="hardAlpha" operator="out"/>
<feColorMatrix type="matrix" values="0 0 0 0 0 0 0 0 0 0 0 0 0 0 0 0 0 0 0.25 0"/>
<feBlend mode="normal" in2="BackgroundImageFix" result="effect1_dropShadow_803_19271"/>
<feBlend mode="normal" in="SourceGraphic" in2="effect1_dropShadow_803_19271" result="shape"/>
</filter>
<filter id="filter3_d_803_19271" x="268.857" y="138.114" width="70.5498" height="72.44" filterUnits="userSpaceOnUse" color-interpolation-filters="sRGB">
<feFlood flood-opacity="0" result="BackgroundImageFix"/>
<feColorMatrix in="SourceAlpha" type="matrix" values="0 0 0 0 0 0 0 0 0 0 0 0 0 0 0 0 0 0 127 0" result="hardAlpha"/>
<feOffset dy="4"/>
<feGaussianBlur stdDeviation="2"/>
<feComposite in2="hardAlpha" operator="out"/>
<feColorMatrix type="matrix" values="0 0 0 0 0 0 0 0 0 0 0 0 0 0 0 0 0 0 0.25 0"/>
<feBlend mode="normal" in2="BackgroundImageFix" result="effect1_dropShadow_803_19271"/>
<feBlend mode="normal" in="SourceGraphic" in2="effect1_dropShadow_803_19271" result="shape"/>
</filter>
<filter id="filter4_d_803_19271" x="217.483" y="139.014" width="62.0898" height="71" filterUnits="userSpaceOnUse" color-interpolation-filters="sRGB">
<feFlood flood-opacity="0" result="BackgroundImageFix"/>
<feColorMatrix in="SourceAlpha" type="matrix" values="0 0 0 0 0 0 0 0 0 0 0 0 0 0 0 0 0 0 127 0" result="hardAlpha"/>
<feOffset dy="4"/>
<feGaussianBlur stdDeviation="2"/>
<feComposite in2="hardAlpha" operator="out"/>
<feColorMatrix type="matrix" values="0 0 0 0 0 0 0 0 0 0 0 0 0 0 0 0 0 0 0.25 0"/>
<feBlend mode="normal" in2="BackgroundImageFix" result="effect1_dropShadow_803_19271"/>
<feBlend mode="normal" in="SourceGraphic" in2="effect1_dropShadow_803_19271" result="shape"/>
</filter>
<filter id="filter5_d_803_19271" x="157.669" y="138.114" width="70.5498" height="72.44" filterUnits="userSpaceOnUse" color-interpolation-filters="sRGB">
<feFlood flood-opacity="0" result="BackgroundImageFix"/>
<feColorMatrix in="SourceAlpha" type="matrix" values="0 0 0 0 0 0 0 0 0 0 0 0 0 0 0 0 0 0 127 0" result="hardAlpha"/>
<feOffset dy="4"/>
<feGaussianBlur stdDeviation="2"/>
<feComposite in2="hardAlpha" operator="out"/>
<feColorMatrix type="matrix" values="0 0 0 0 0 0 0 0 0 0 0 0 0 0 0 0 0 0 0.25 0"/>
<feBlend mode="normal" in2="BackgroundImageFix" result="effect1_dropShadow_803_19271"/>
<feBlend mode="normal" in="SourceGraphic" in2="effect1_dropShadow_803_19271" result="shape"/>
</filter>
<filter id="filter6_d_803_19271" x="143.8" y="139.014" width="19.1602" height="71" filterUnits="userSpaceOnUse" color-interpolation-filters="sRGB">
<feFlood flood-opacity="0" result="BackgroundImageFix"/>
<feColorMatrix in="SourceAlpha" type="matrix" values="0 0 0 0 0 0 0 0 0 0 0 0 0 0 0 0 0 0 127 0" result="hardAlpha"/>
<feOffset dy="4"/>
<feGaussianBlur stdDeviation="2"/>
<feComposite in2="hardAlpha" operator="out"/>
<feColorMatrix type="matrix" values="0 0 0 0 0 0 0 0 0 0 0 0 0 0 0 0 0 0 0.25 0"/>
<feBlend mode="normal" in2="BackgroundImageFix" result="effect1_dropShadow_803_19271"/>
<feBlend mode="normal" in="SourceGraphic" in2="effect1_dropShadow_803_19271" result="shape"/>
</filter>
<filter id="filter7_d_803_19271" x="102.487" y="139.014" width="47.5098" height="71" filterUnits="userSpaceOnUse" color-interpolation-filters="sRGB">
<feFlood flood-opacity="0" result="BackgroundImageFix"/>
<feColorMatrix in="SourceAlpha" type="matrix" values="0 0 0 0 0 0 0 0 0 0 0 0 0 0 0 0 0 0 127 0" result="hardAlpha"/>
<feOffset dy="4"/>
<feGaussianBlur stdDeviation="2"/>
<feComposite in2="hardAlpha" operator="out"/>
<feColorMatrix type="matrix" values="0 0 0 0 0 0 0 0 0 0 0 0 0 0 0 0 0 0 0.25 0"/>
<feBlend mode="normal" in2="BackgroundImageFix" result="effect1_dropShadow_803_19271"/>
<feBlend mode="normal" in="SourceGraphic" in2="effect1_dropShadow_803_19271" result="shape"/>
</filter>
<filter id="filter8_d_803_19271" x="61.2632" y="139.014" width="46.52" height="71" filterUnits="userSpaceOnUse" color-interpolation-filters="sRGB">
<feFlood flood-opacity="0" result="BackgroundImageFix"/>
<feColorMatrix in="SourceAlpha" type="matrix" values="0 0 0 0 0 0 0 0 0 0 0 0 0 0 0 0 0 0 127 0" result="hardAlpha"/>
<feOffset dy="4"/>
<feGaussianBlur stdDeviation="2"/>
<feComposite in2="hardAlpha" operator="out"/>
<feColorMatrix type="matrix" values="0 0 0 0 0 0 0 0 0 0 0 0 0 0 0 0 0 0 0.25 0"/>
<feBlend mode="normal" in2="BackgroundImageFix" result="effect1_dropShadow_803_19271"/>
<feBlend mode="normal" in="SourceGraphic" in2="effect1_dropShadow_803_19271" result="shape"/>
</filter>
<filter id="filter9_d_803_19271" x="0" y="139.014" width="66.5898" height="71" filterUnits="userSpaceOnUse" color-interpolation-filters="sRGB">
<feFlood flood-opacity="0" result="BackgroundImageFix"/>
<feColorMatrix in="SourceAlpha" type="matrix" values="0 0 0 0 0 0 0 0 0 0 0 0 0 0 0 0 0 0 127 0" result="hardAlpha"/>
<feOffset dy="4"/>
<feGaussianBlur stdDeviation="2"/>
<feComposite in2="hardAlpha" operator="out"/>
<feColorMatrix type="matrix" values="0 0 0 0 0 0 0 0 0 0 0 0 0 0 0 0 0 0 0.25 0"/>
<feBlend mode="normal" in2="BackgroundImageFix" result="effect1_dropShadow_803_19271"/>
<feBlend mode="normal" in="SourceGraphic" in2="effect1_dropShadow_803_19271" result="shape"/>
</filter>
<filter id="filter10_d_803_19271" x="375.894" y="49.014" width="47.5103" height="71" filterUnits="userSpaceOnUse" color-interpolation-filters="sRGB">
<feFlood flood-opacity="0" result="BackgroundImageFix"/>
<feColorMatrix in="SourceAlpha" type="matrix" values="0 0 0 0 0 0 0 0 0 0 0 0 0 0 0 0 0 0 127 0" result="hardAlpha"/>
<feOffset dy="4"/>
<feGaussianBlur stdDeviation="2"/>
<feComposite in2="hardAlpha" operator="out"/>
<feColorMatrix type="matrix" values="0 0 0 0 0 0 0 0 0 0 0 0 0 0 0 0 0 0 0.25 0"/>
<feBlend mode="normal" in2="BackgroundImageFix" result="effect1_dropShadow_803_19271"/>
<feBlend mode="normal" in="SourceGraphic" in2="effect1_dropShadow_803_19271" result="shape"/>
</filter>
<filter id="filter11_d_803_19271" x="320.896" y="49.014" width="62.0898" height="71" filterUnits="userSpaceOnUse" color-interpolation-filters="sRGB">
<feFlood flood-opacity="0" result="BackgroundImageFix"/>
<feColorMatrix in="SourceAlpha" type="matrix" values="0 0 0 0 0 0 0 0 0 0 0 0 0 0 0 0 0 0 127 0" result="hardAlpha"/>
<feOffset dy="4"/>
<feGaussianBlur stdDeviation="2"/>
<feComposite in2="hardAlpha" operator="out"/>
<feColorMatrix type="matrix" values="0 0 0 0 0 0 0 0 0 0 0 0 0 0 0 0 0 0 0.25 0"/>
<feBlend mode="normal" in2="BackgroundImageFix" result="effect1_dropShadow_803_19271"/>
<feBlend mode="normal" in="SourceGraphic" in2="effect1_dropShadow_803_19271" result="shape"/>
</filter>
<filter id="filter12_d_803_19271" x="308.827" y="49.014" width="19.1602" height="71" filterUnits="userSpaceOnUse" color-interpolation-filters="sRGB">
<feFlood flood-opacity="0" result="BackgroundImageFix"/>
<feColorMatrix in="SourceAlpha" type="matrix" values="0 0 0 0 0 0 0 0 0 0 0 0 0 0 0 0 0 0 127 0" result="hardAlpha"/>
<feOffset dy="4"/>
<feGaussianBlur stdDeviation="2"/>
<feComposite in2="hardAlpha" operator="out"/>
<feColorMatrix type="matrix" values="0 0 0 0 0 0 0 0 0 0 0 0 0 0 0 0 0 0 0.25 0"/>
<feBlend mode="normal" in2="BackgroundImageFix" result="effect1_dropShadow_803_19271"/>
<feBlend mode="normal" in="SourceGraphic" in2="effect1_dropShadow_803_19271" result="shape"/>
</filter>
<filter id="filter13_d_803_19271" x="255.519" y="49.014" width="59.48" height="71" filterUnits="userSpaceOnUse" color-interpolation-filters="sRGB">
<feFlood flood-opacity="0" result="BackgroundImageFix"/>
<feColorMatrix in="SourceAlpha" type="matrix" values="0 0 0 0 0 0 0 0 0 0 0 0 0 0 0 0 0 0 127 0" result="hardAlpha"/>
<feOffset dy="4"/>
<feGaussianBlur stdDeviation="2"/>
<feComposite in2="hardAlpha" operator="out"/>
<feColorMatrix type="matrix" values="0 0 0 0 0 0 0 0 0 0 0 0 0 0 0 0 0 0 0.25 0"/>
<feBlend mode="normal" in2="BackgroundImageFix" result="effect1_dropShadow_803_19271"/>
<feBlend mode="normal" in="SourceGraphic" in2="effect1_dropShadow_803_19271" result="shape"/>
</filter>
<filter id="filter14_d_803_19271" x="208.691" y="48.114" width="54.7998" height="72.44" filterUnits="userSpaceOnUse" color-interpolation-filters="sRGB">
<feFlood flood-opacity="0" result="BackgroundImageFix"/>
<feColorMatrix in="SourceAlpha" type="matrix" values="0 0 0 0 0 0 0 0 0 0 0 0 0 0 0 0 0 0 127 0" result="hardAlpha"/>
<feOffset dy="4"/>
<feGaussianBlur stdDeviation="2"/>
<feComposite in2="hardAlpha" operator="out"/>
<feColorMatrix type="matrix" values="0 0 0 0 0 0 0 0 0 0 0 0 0 0 0 0 0 0 0.25 0"/>
<feBlend mode="normal" in2="BackgroundImageFix" result="effect1_dropShadow_803_19271"/>
<feBlend mode="normal" in="SourceGraphic" in2="effect1_dropShadow_803_19271" result="shape"/>
</filter>
<filter id="filter15_d_803_19271" x="168.367" y="49.014" width="46.52" height="71" filterUnits="userSpaceOnUse" color-interpolation-filters="sRGB">
<feFlood flood-opacity="0" result="BackgroundImageFix"/>
<feColorMatrix in="SourceAlpha" type="matrix" values="0 0 0 0 0 0 0 0 0 0 0 0 0 0 0 0 0 0 127 0" result="hardAlpha"/>
<feOffset dy="4"/>
<feGaussianBlur stdDeviation="2"/>
<feComposite in2="hardAlpha" operator="out"/>
<feColorMatrix type="matrix" values="0 0 0 0 0 0 0 0 0 0 0 0 0 0 0 0 0 0 0.25 0"/>
<feBlend mode="normal" in2="BackgroundImageFix" result="effect1_dropShadow_803_19271"/>
<feBlend mode="normal" in="SourceGraphic" in2="effect1_dropShadow_803_19271" result="shape"/>
</filter>
<filter id="filter16_d_803_19271" x="127.055" y="49.014" width="47.5098" height="71" filterUnits="userSpaceOnUse" color-interpolation-filters="sRGB">
<feFlood flood-opacity="0" result="BackgroundImageFix"/>
<feColorMatrix in="SourceAlpha" type="matrix" values="0 0 0 0 0 0 0 0 0 0 0 0 0 0 0 0 0 0 127 0" result="hardAlpha"/>
<feOffset dy="4"/>
<feGaussianBlur stdDeviation="2"/>
<feComposite in2="hardAlpha" operator="out"/>
<feColorMatrix type="matrix" values="0 0 0 0 0 0 0 0 0 0 0 0 0 0 0 0 0 0 0.25 0"/>
<feBlend mode="normal" in2="BackgroundImageFix" result="effect1_dropShadow_803_19271"/>
<feBlend mode="normal" in="SourceGraphic" in2="effect1_dropShadow_803_19271" result="shape"/>
</filter>
<filter id="filter17_d_803_19271" x="85.8306" y="49.014" width="46.52" height="71" filterUnits="userSpaceOnUse" color-interpolation-filters="sRGB">
<feFlood flood-opacity="0" result="BackgroundImageFix"/>
<feColorMatrix in="SourceAlpha" type="matrix" values="0 0 0 0 0 0 0 0 0 0 0 0 0 0 0 0 0 0 127 0" result="hardAlpha"/>
<feOffset dy="4"/>
<feGaussianBlur stdDeviation="2"/>
<feComposite in2="hardAlpha" operator="out"/>
<feColorMatrix type="matrix" values="0 0 0 0 0 0 0 0 0 0 0 0 0 0 0 0 0 0 0.25 0"/>
<feBlend mode="normal" in2="BackgroundImageFix" result="effect1_dropShadow_803_19271"/>
<feBlend mode="normal" in="SourceGraphic" in2="effect1_dropShadow_803_19271" result="shape"/>
</filter>
<filter id="filter18_d_803_19271" x="20.5908" y="48.114" width="70.5498" height="72.44" filterUnits="userSpaceOnUse" color-interpolation-filters="sRGB">
<feFlood flood-opacity="0" result="BackgroundImageFix"/>
<feColorMatrix in="SourceAlpha" type="matrix" values="0 0 0 0 0 0 0 0 0 0 0 0 0 0 0 0 0 0 127 0" result="hardAlpha"/>
<feOffset dy="4"/>
<feGaussianBlur stdDeviation="2"/>
<feComposite in2="hardAlpha" operator="out"/>
<feColorMatrix type="matrix" values="0 0 0 0 0 0 0 0 0 0 0 0 0 0 0 0 0 0 0.25 0"/>
<feBlend mode="normal" in2="BackgroundImageFix" result="effect1_dropShadow_803_19271"/>
<feBlend mode="normal" in="SourceGraphic" in2="effect1_dropShadow_803_19271" result="shape"/>
</filter>
<linearGradient id="paint0_linear_803_19271" x1="222.826" y1="215.014" x2="351.826" y2="335.514" gradientUnits="userSpaceOnUse">
<stop stop-color="#770000"/>
<stop offset="1" stop-color="#4A0001"/>
</linearGradient>
</defs>
</svg>
