<svg width="48" height="48" viewBox="0 0 48 48" fill="none" xmlns="http://www.w3.org/2000/svg">
<path fill-rule="evenodd" clip-rule="evenodd" d="M24 48C37.2548 48 48 37.2548 48 24C48 10.7452 37.2548 0 24 0C10.7452 0 0 10.7452 0 24C0 37.2548 10.7452 48 24 48ZM21.1671 16.7912C21.5867 16.7545 22.096 17.0658 23.1146 17.6882L30.0596 21.9324C31.0051 22.5102 31.4778 22.7991 31.639 23.171C31.7797 23.4957 31.7797 23.8642 31.639 24.1889C31.4778 24.5608 31.0051 24.8497 30.0596 25.4275L23.1146 29.6716C22.096 30.2941 21.5867 30.6053 21.1671 30.5686C20.8013 30.5366 20.4669 30.349 20.2488 30.0536C19.9987 29.7147 19.9987 29.1178 19.9987 27.9241V19.4358C19.9987 18.242 19.9987 17.6452 20.2488 17.3063C20.4669 17.0108 20.8013 16.8232 21.1671 16.7912Z" fill="white"/>
</svg>
