<svg width="160" height="215" viewBox="0 0 160 215" fill="none" xmlns="http://www.w3.org/2000/svg">
<path fill-rule="evenodd" clip-rule="evenodd" d="M0.00635529 107.756L0.0063553 108.011H0.261313H54.5845H54.8134H54.8394H55.0684H109.006V160.854V161.109V214.078V214.333H109.261H163.584H163.813H163.839H164.068H218.165H218.392H218.42H218.647H272.972H273.006H273.227H273.261H327.584H327.813H327.839H328.068H382.165H382.392H382.42H382.647H436.972H437.227V214.078V54.3916V54.1367H436.972H382.646H382.392H328.227V-51.9306V-52.1855L327.972 -52.1855L273.646 -52.1855L273.392 -52.1855L219.068 -52.1855L218.813 -52.1855L218.584 -52.1855H164.261L164.227 -52.1855L163.972 -52.1855L109.646 -52.1855L109.392 -52.1855L55.0684 -52.1855L54.8134 -52.1855L54.5845 -52.1855H0.261306H0.00634766V-51.9306L0.00635529 -51.9282V1.04959V1.30066V1.30455V1.55562V54.5334V54.7884V107.756ZM328.227 107.367V54.6478H382.137V107.367H328.227ZM328.094 108.011H328.227V107.881H382.137L382.137 160.599H328.094L328.094 108.011ZM273.516 108.011H273.647H327.558V160.599H273.516V108.011ZM218.674 108.011H218.813H218.839H219.068H272.663V160.599H218.674V108.011ZM164.094 108.011H164.227H164.261H218.137V160.599H164.094V108.011ZM109.516 108.011H109.647H163.558V160.599H109.516V108.011ZM327.663 54.1367V1.55951H273.674V54.1367H327.584H327.663ZM273.137 54.1367L273.137 1.55951H219.094L219.094 54.1367H272.972H273.137ZM218.558 54.1367V1.55951H164.516V54.1367H218.392H218.558ZM163.663 54.1367V1.55951H109.674L109.674 54.1367H163.584H163.663ZM109.137 54.1367V1.55951H55.0944V54.2784H109.006V54.1367H109.137ZM109.006 54.7884H55.0944L55.0944 107.501H109.006V107.371V54.7884ZM273.674 107.367V54.7884H327.558V107.367H273.674ZM273.674 -51.6732V1.0457H327.663V-51.6732H273.674ZM219.094 -51.6732H273.137V1.0457H219.094V-51.6732ZM219.094 107.367V54.7884H272.663V107.367H219.094ZM164.516 107.367V54.7884H218.137V107.367H164.516ZM218.558 1.0457V-51.6732H164.516V1.0457H218.558ZM109.674 1.0457V-51.6732H163.663V1.0457H109.674ZM109.674 107.367H163.558L163.558 54.7884H109.674V107.367ZM109.137 1.0457V-51.6732H55.0944L55.0944 1.0457H109.137ZM0.516269 54.7884L0.516272 107.501H54.5585L54.5585 54.7884H0.516269ZM54.5585 1.55951V54.2784H0.516272V1.55951H54.5585ZM54.5585 -51.6732L54.5585 1.0457H0.516272V-51.6732H54.5585ZM382.674 213.823V161.109H436.717V213.823H382.674ZM382.674 54.6478V107.367H436.663V54.6478H382.674ZM382.674 107.881V160.599H436.663V107.881H382.674ZM328.094 161.109V213.823H382.137V161.109H328.094ZM273.516 213.823V161.109H327.558V213.823H273.516ZM218.674 161.109H272.717V213.823H218.674V161.109ZM164.094 213.823V161.109H218.137V213.823H164.094ZM109.516 161.109L109.516 213.823H163.558V161.109H109.516Z" fill="url(#paint0_linear_661_7425)"/>
<defs>
<linearGradient id="paint0_linear_661_7425" x1="318.006" y1="11.4688" x2="84.4327" y2="294.225" gradientUnits="userSpaceOnUse">
<stop stop-color="white"/>
<stop offset="1" stop-color="white" stop-opacity="0"/>
</linearGradient>
</defs>
</svg>
