<svg width="282" height="69" viewBox="0 0 282 69" fill="none" xmlns="http://www.w3.org/2000/svg">
<path d="M74.0961 24.1114H102.644V29.3425H91.4209V58.755H85.2451V29.3425H74.0699V24.1094H74.0941L74.0961 24.1114ZM101.426 33.6691H106.703V38.5115H106.802C106.977 37.8266 107.299 37.1659 107.773 36.5294C108.785 35.1652 110.155 34.1076 111.731 33.4738C112.531 33.1565 113.384 32.9906 114.245 32.9843C114.889 32.9843 115.365 33.0085 115.614 33.0346C115.862 33.0588 116.11 33.1072 116.384 33.1313V38.4611C115.98 38.3904 115.573 38.3333 115.165 38.2899C114.76 38.242 114.353 38.2178 113.945 38.2174C112.998 38.2174 112.104 38.4128 111.258 38.7814C110.412 39.146 109.688 39.708 109.068 40.419C108.406 41.214 107.899 42.1261 107.573 43.1081C107.201 44.1837 107.026 45.4043 107.026 46.8002V58.7308H101.402V33.6691H101.426ZM142.245 58.757H136.72V55.2602H136.619C135.922 56.5332 134.903 57.5364 133.533 58.2937C132.164 59.0511 130.77 59.4419 129.352 59.4419C125.992 59.4419 123.551 58.6361 122.06 56.9965C120.566 55.3589 119.818 52.8894 119.818 49.588V33.6712H125.444V49.0502C125.444 51.2518 125.867 52.8169 126.739 53.7213C127.585 54.6257 128.804 55.091 130.347 55.091C131.541 55.091 132.512 54.9198 133.308 54.5512C134.105 54.1846 134.752 53.7213 135.225 53.109C135.723 52.5228 136.071 51.7896 136.297 50.9577C136.519 50.1258 136.619 49.2214 136.619 48.2445V33.6953H142.245V58.757ZM151.827 50.714C152.002 52.3254 152.623 53.4534 153.694 54.1121C154.788 54.7486 156.083 55.091 157.602 55.091C158.126 55.091 158.722 55.0407 159.395 54.9681C160.066 54.8936 160.712 54.7224 161.286 54.5049C161.882 54.2833 162.354 53.9409 162.753 53.5018C163.127 53.0586 163.3 52.4986 163.276 51.7896C163.273 51.4605 163.201 51.1359 163.063 50.8367C162.926 50.5375 162.728 50.2706 162.481 50.0533C161.981 49.59 161.361 49.2476 160.587 48.9535C159.726 48.655 158.844 48.418 157.949 48.2445C156.953 48.0491 155.958 47.8275 154.939 47.608C153.912 47.3858 152.898 47.1081 151.902 46.7761C150.967 46.4765 150.085 46.0312 149.289 45.4567C148.513 44.9154 147.881 44.1937 147.446 43.3538C146.975 42.4977 146.749 41.4463 146.749 40.1753C146.749 38.8056 147.098 37.6816 147.77 36.751C148.449 35.8282 149.325 35.0684 150.335 34.5272C151.42 33.9537 152.586 33.5495 153.793 33.3287C155.062 33.1092 156.283 32.9863 157.427 32.9863C158.746 32.9863 160.015 33.1334 161.212 33.4033C162.37 33.6513 163.474 34.1064 164.471 34.7468C165.442 35.3591 166.237 36.1648 166.886 37.1438C167.532 38.1207 167.931 39.3192 168.105 40.7131H162.231C161.957 39.3937 161.359 38.4893 160.39 38.0482C159.419 37.5849 158.299 37.3633 157.054 37.3633C156.655 37.3633 156.182 37.3875 155.636 37.462C155.11 37.532 154.593 37.6548 154.091 37.8286C153.633 37.9974 153.217 38.2641 152.873 38.6102C152.705 38.7908 152.575 39.0026 152.49 39.2334C152.405 39.4643 152.365 39.7097 152.375 39.9557C152.375 40.6406 152.623 41.1784 153.096 41.5933C153.569 42.0083 154.192 42.3507 154.963 42.6448C155.735 42.9147 156.607 43.1584 157.602 43.3538C158.597 43.5492 159.616 43.7688 160.664 43.9903C161.683 44.2099 162.678 44.504 163.675 44.8202C164.67 45.1385 165.54 45.5796 166.314 46.1416C167.085 46.7036 167.708 47.3884 168.179 48.2203C168.652 49.0502 168.902 50.1016 168.902 51.3243C168.902 52.8149 168.554 54.0637 167.855 55.1152C167.16 56.1425 166.263 56.9965 165.168 57.633C164.021 58.2938 162.778 58.7722 161.484 59.0511C160.167 59.3407 158.823 59.488 157.475 59.4902C155.966 59.5072 154.46 59.3264 152.997 58.9524C151.628 58.5858 150.433 58.048 149.438 57.341C148.455 56.6264 147.646 55.698 147.073 54.6257C146.501 53.5501 146.201 52.2529 146.153 50.7623H151.827V50.714ZM170.395 33.6732H174.651V26.1398H180.277V33.6732H185.353V37.8025H180.279V51.2035C180.279 51.7876 180.303 52.2791 180.353 52.7182C180.402 53.1352 180.527 53.5017 180.702 53.7938C180.892 54.1007 181.181 54.3337 181.522 54.4545C181.896 54.6015 182.368 54.6761 183.016 54.6761C183.413 54.6761 183.812 54.6761 184.211 54.6499C184.61 54.6257 185.006 54.5774 185.405 54.4787V58.757C184.783 58.8315 184.16 58.8799 183.588 58.9524C182.985 59.0225 182.378 59.0554 181.771 59.0511C180.279 59.0511 179.084 58.9041 178.186 58.6362C177.292 58.3662 176.569 57.9513 176.071 57.4135C175.547 56.8757 175.225 56.215 175.026 55.4073C174.832 54.4989 174.724 53.5743 174.703 52.6457V37.8488H170.447V33.6671H170.397L170.395 33.6732ZM189.335 33.6732H194.663V37.0693H194.764C195.557 35.6029 196.653 34.5756 198.071 33.9411C199.52 33.2966 201.091 32.971 202.678 32.9863C204.692 32.9863 206.434 33.3287 207.929 34.0378C209.421 34.7226 210.666 35.6774 211.661 36.898C212.656 38.1207 213.38 39.5388 213.877 41.1542C214.384 42.8347 214.636 44.5817 214.624 46.337C214.624 48.0229 214.401 49.6605 213.952 51.2276C213.539 52.7392 212.856 54.1635 211.935 55.4314C211.031 56.6537 209.855 57.65 208.501 58.3421C207.107 59.0753 205.49 59.4419 203.598 59.4419C202.771 59.441 201.946 59.3668 201.133 59.2203C200.321 59.074 199.528 58.8369 198.77 58.5133C198.016 58.1988 197.312 57.7783 196.677 57.2644C196.051 56.7648 195.505 56.1717 195.06 55.506H194.959V68.0247H189.335V33.6691V33.6732ZM208.998 46.2383C209 45.1233 208.849 44.0133 208.551 42.9389C208.275 41.9208 207.82 40.9603 207.206 40.1028C206.623 39.2869 205.867 38.61 204.992 38.1207C204.052 37.6128 202.999 37.3522 201.93 37.3633C199.566 37.3633 197.773 38.169 196.578 39.7845C195.384 41.3979 194.786 43.5512 194.786 46.2383C194.786 47.5093 194.937 48.6836 195.259 49.7592C195.581 50.8348 196.031 51.7654 196.677 52.547C197.302 53.3305 198.047 53.9409 198.919 54.38C199.789 54.8453 200.81 55.0648 201.955 55.0648C203.25 55.0648 204.319 54.7969 205.216 54.2833C206.084 53.7839 206.831 53.0997 207.405 52.2791C207.977 51.4472 208.402 50.5166 208.65 49.4671C208.879 48.4061 208.996 47.3238 208.998 46.2383ZM218.929 24.1114H224.555V29.3445H218.929V24.1114ZM218.929 33.6712H224.555V58.757H218.929V33.6712ZM229.582 24.1114H235.208V58.757H229.582V24.1114ZM252.457 59.4419C250.414 59.4419 248.597 59.0994 247.006 58.4408C245.48 57.8151 244.1 56.8827 242.949 55.7013C241.831 54.4962 240.974 53.0724 240.433 51.5197C239.841 49.8058 239.547 48.0031 239.563 46.1899C239.563 44.2824 239.861 42.5239 240.433 40.9085C240.974 39.3565 241.831 37.9334 242.949 36.7288C244.043 35.5545 245.413 34.6501 247.006 33.9894C248.597 33.3287 250.414 32.9863 252.457 32.9863C254.497 32.9863 256.314 33.3287 257.907 33.9894C259.5 34.6501 260.844 35.5807 261.964 36.7288C263.082 37.933 263.938 39.3563 264.478 40.9085C265.05 42.5219 265.348 44.2824 265.348 46.1899C265.348 48.1236 265.05 49.9063 264.478 51.5197C263.938 53.0727 263.082 54.4966 261.964 55.7013C260.868 56.8757 259.5 57.7801 257.907 58.4408C256.314 59.0994 254.497 59.4419 252.457 59.4419ZM252.457 55.0648C253.701 55.0648 254.795 54.7969 255.716 54.2833C256.613 53.7838 257.387 53.0901 257.982 52.2529C258.578 51.423 259.001 50.4682 259.301 49.4168C259.575 48.3653 259.724 47.2897 259.724 46.1899C259.724 45.1143 259.575 44.0628 259.301 42.9872C259.045 41.9669 258.597 41.0045 257.982 40.1511C257.386 39.3218 256.611 38.6369 255.716 38.1469C254.795 37.6333 253.701 37.3633 252.457 37.3633C251.212 37.3633 250.116 37.6333 249.195 38.1469C248.305 38.6444 247.533 39.328 246.931 40.1511C246.325 41.0096 245.878 41.9703 245.612 42.9872C245.336 44.0327 245.194 45.1087 245.187 46.1899C245.187 47.2897 245.338 48.3653 245.612 49.4168C245.886 50.4682 246.333 51.423 246.931 52.2529C247.528 53.0848 248.275 53.7696 249.195 54.2833C250.116 54.8211 251.212 55.0648 252.457 55.0648ZM266.992 33.6732H271.248V26.1398H276.874V33.6732H281.95V37.8025H276.874V51.2035C276.874 51.7876 276.898 52.2791 276.946 52.7182C276.996 53.1352 277.121 53.5017 277.297 53.7938C277.487 54.101 277.776 54.3341 278.116 54.4545C278.491 54.6015 278.962 54.6761 279.611 54.6761C280.008 54.6761 280.407 54.6761 280.805 54.6499C281.204 54.6257 281.601 54.5774 282 54.4787V58.757C281.378 58.8315 280.755 58.8799 280.183 58.9524C279.58 59.0225 278.973 59.0554 278.366 59.0511C276.874 59.0511 275.677 58.9041 274.781 58.6362C273.886 58.3662 273.163 57.9513 272.666 57.4135C272.144 56.8757 271.82 56.215 271.62 55.4073C271.427 54.4988 271.319 53.5743 271.298 52.6457V37.8488H267.042V33.6671H266.992V33.6732Z" fill="white"/>
<path d="M67.5247 24.1089H41.7399L33.7754 0L25.7828 24.1109L0 24.0847L20.882 38.9985L12.8934 63.0812L33.7754 48.1916L54.6333 63.0812L46.6689 38.9985L67.5247 24.1089Z" fill="#04DA8D"/>
<path d="M48.464 44.4529L46.6712 39.0002L33.7798 48.1934L48.464 44.4529Z" fill="#126849"/>
</svg>
