<svg width="188" height="24" viewBox="0 0 188 24" fill="none" xmlns="http://www.w3.org/2000/svg">
<path d="M12.3375 17.8086L17.6984 16.45L19.9383 23.3531L12.3375 17.8086ZM24.675 8.88594H15.2383L12.3375 0L9.43672 8.88594H0L7.6375 14.3937L4.73672 23.2797L12.3742 17.7719L17.0742 14.3937L24.675 8.88594Z" fill="white"/>
<path d="M53.0133 17.8086L58.3742 16.45L60.6141 23.3531L53.0133 17.8086ZM65.3508 8.88594H55.9141L53.0133 0L50.1125 8.88594H40.6758L48.3133 14.3937L45.4125 23.2797L53.05 17.7719L57.75 14.3937L65.3508 8.88594Z" fill="white"/>
<path d="M93.6891 17.8086L99.05 16.45L101.29 23.3531L93.6891 17.8086ZM106.027 8.88594H96.5898L93.6891 0L90.7883 8.88594H81.3516L88.9891 14.3937L86.0883 23.2797L93.7258 17.7719L98.4258 14.3937L106.027 8.88594Z" fill="white"/>
<path d="M134.365 17.8086L139.726 16.45L141.966 23.3531L134.365 17.8086ZM146.702 8.88594H137.266L134.365 0L131.464 8.88594H122.027L129.665 14.3937L126.764 23.2797L134.402 17.7719L139.102 14.3937L146.702 8.88594Z" fill="white"/>
<path d="M175.041 17.8086L180.402 16.45L182.641 23.3531L175.041 17.8086ZM187.378 8.88594H177.941L175.041 0L172.14 8.88594H162.703L170.341 14.3937L167.44 23.2797L175.077 17.7719L179.777 14.3937L187.378 8.88594Z" fill="white"/>
<path d="M175.041 17.8086L180.402 16.45L182.641 23.3531L175.041 17.8086ZM179 11.5L177.941 8.88594L175.041 0L172.14 8.88594H162.703L170.341 14.3937L167.44 23.2797L175.077 17.7719L179.777 14.3937L179 11.5Z" fill="white"/>
</svg>
