<svg width="113" height="29" viewBox="0 0 113 29" fill="none" xmlns="http://www.w3.org/2000/svg">
<path d="M100.723 0.391113V28.0155H112.134V23.338H105.403V16.1719H109.743V11.4943H105.403V5.06863H112.134V0.391113H100.723Z" fill="white"/>
<path d="M91.4607 0.391113V15.455L86.7273 0.391113H82.0469V28.0155H86.7273V14.4824L90.9582 28.0155H96.1411V0.391113H91.4607Z" fill="white"/>
<path d="M72.937 0.391113V21.9101C72.937 22.912 72.1231 23.7258 71.1212 23.7258C70.1193 23.7258 69.3055 22.912 69.3055 21.9101V0.391113H64.625V21.9101C64.625 25.4975 67.5338 28.4063 71.1212 28.4063C74.7087 28.4063 77.6175 25.4975 77.6175 21.9101V0.391113H72.937Z" fill="white"/>
<path d="M60.7707 0.391113H47.8047V5.06863H51.9475V28.0155H56.6279V5.06863H60.7707V0.391113Z" fill="white"/>
<path d="M45.6573 28.0155H40.8211L37.3629 14.8967C37.3629 14.8967 40.3393 14.362 40.3393 11.1947V6.87853C40.3393 5.87662 39.5283 5.06569 38.5294 5.06569H36.7312V28.0155H32.0508V0.391113H38.5264C42.017 0.391113 44.8552 3.14709 45.005 6.59646H45.0197V11.1124H45.005C45.005 13.839 44.1118 15.8046 42.4812 17.0562L45.6602 28.0155H45.6573Z" fill="white"/>
<path d="M14.4336 6.49623V21.9126C14.4336 25.5001 17.3424 28.4089 20.9298 28.4089C24.5173 28.4089 27.426 25.5001 27.426 21.9126V6.49329C27.426 2.90582 24.5202 0 20.9328 0C17.3453 0 14.4365 2.90876 14.4365 6.49623M19.117 21.9126V6.49623C19.117 5.49432 19.9309 4.68046 20.9328 4.68046H20.9386C21.9376 4.68046 22.7485 5.49138 22.7485 6.49035V21.9097C22.7485 22.9116 21.9347 23.7255 20.9328 23.7255C19.9309 23.7255 19.117 22.9116 19.117 21.9097" fill="white"/>
<path d="M0 0.391113V28.0155H4.68046V16.1719H9.01715V11.4943H4.68046V5.06863H11.4088V0.391113H0Z" fill="white"/>
</svg>
