<svg width="115" height="38" viewBox="0 0 115 38" fill="none" xmlns="http://www.w3.org/2000/svg">
<path fill-rule="evenodd" clip-rule="evenodd" d="M0.0046708 7.48058L0 14.9612H1.1677H2.3354V10.7891C2.3354 8.33724 2.39028 6.63706 2.46852 6.66567C2.54179 6.69238 3.63213 7.83089 4.8915 9.19564C6.15101 10.5604 7.22923 11.6951 7.28762 11.7173C7.346 11.7395 8.48889 10.5724 9.82737 9.12383L12.2609 6.49008V10.7256V14.9612H13.4286H14.5963V7.59005C14.5963 3.53594 14.5704 0.218944 14.5387 0.218944C14.4942 0.218944 7.87497 7.33798 7.44219 7.85133C7.36585 7.94168 2.32402 2.63915 0.393369 0.437888L0.00919564 0L0.0046708 7.48058ZM107.415 0.349726C105.498 0.963061 104.448 2.26257 104.453 4.01397C104.456 5.22108 104.703 5.94783 105.354 6.66845C106.062 7.45183 106.744 7.82345 109.038 8.67397C111.385 9.5442 111.953 10.0087 111.953 11.0586C111.953 12.2949 111.028 12.9091 109.159 12.9145C107.822 12.9183 106.54 12.5564 105.348 11.8389L104.509 11.3334V12.644V13.9548L105.454 14.3969C106.828 15.04 108.62 15.3173 110.114 15.1185C111.556 14.9264 112.925 14.2959 113.559 13.5315C114.487 12.4113 114.676 10.4527 113.992 9.04063C113.405 7.82666 112.519 7.3028 108.669 5.89353C108.184 5.71575 107.574 5.35391 107.3 5.08139C106.847 4.62891 106.814 4.53564 106.885 3.90537C106.941 3.40939 107.066 3.1309 107.341 2.89444C108.436 1.95254 110.843 2.0969 112.73 3.21745C113.197 3.49507 113.608 3.72205 113.642 3.72205C113.677 3.72205 113.705 3.16491 113.705 2.48385V1.24564L112.978 0.877235C111.398 0.0769223 108.984 -0.152093 107.415 0.349726ZM23.016 7.48058C21.1936 11.4744 19.703 14.7916 19.7038 14.8517C19.7044 14.9118 20.2533 14.9612 20.9237 14.9612H22.1425L22.5457 14.0124L22.949 13.0636H26.4137H29.8785L30.2817 14.0124L30.685 14.9612H31.92C32.9083 14.9612 33.1455 14.92 33.1077 14.7551C33.0169 14.3583 26.5134 0.218944 26.4219 0.218944C26.3709 0.218944 24.8383 3.48675 23.016 7.48058ZM38.5341 7.6515V14.9612H39.7748H41.0155V11.9689V8.9767H41.8637H42.712L45.2573 11.9646L47.8027 14.9526L49.1529 14.9568C49.8954 14.9593 50.502 14.9118 50.5007 14.8517C50.4995 14.7916 49.3829 13.4678 48.0194 11.9103C46.6559 10.3527 45.5403 9.0361 45.5403 8.98473C45.5403 8.93335 45.8197 8.81658 46.1612 8.7252C47.7693 8.29505 48.619 7.09159 48.7236 5.09526C48.8353 2.96917 48.1126 1.6593 46.3888 0.863369L45.4673 0.437888L42.0007 0.389866L38.5341 0.341698V7.6515ZM56.3416 7.66303V14.9612H57.5795H58.8174L58.8566 11.6837L58.8959 8.40628L61.8151 11.6777L64.7344 14.949L66.3289 14.9552L67.9235 14.9612L67.629 14.6327C67.4671 14.4522 65.9361 12.7395 64.2267 10.8268L61.119 7.34921L61.693 6.73982C64.9307 3.3024 67.1187 0.962623 67.3479 0.692592L67.6259 0.364906H66.1067H64.5876L61.7417 3.46092L58.8959 6.55693L58.8565 3.46092L58.8171 0.364906H57.5793H56.3416V7.66303ZM73.8571 7.66303V14.9612H78.3089H82.7608V13.8664V12.7717H79.5496H76.3384V10.5093V8.24688H79.2577H82.1769V7.15217V6.05745H79.2577H76.3384V4.3059V2.55434H79.5496H82.7608V1.45963V0.364906H78.3089H73.8571V7.66303ZM88.1614 1.45963V2.55434H90.5698H92.9782V8.75775V14.9612H94.2188H95.4595V8.75775V2.55434H97.8679H100.276V1.45963V0.364906H94.2188H88.1614V1.45963ZM41.0155 4.75531V6.95643L42.8765 6.90826C44.9743 6.85411 45.404 6.71472 45.9492 5.91148C46.4209 5.21641 46.3574 3.91968 45.8231 3.34035C45.2265 2.69345 44.6864 2.55434 42.7717 2.55434H41.0155V4.75531ZM25.1515 8.07421L23.9568 10.8012L25.188 10.8434C25.8652 10.8666 26.9692 10.8666 27.6415 10.8434L28.8637 10.8012L27.7106 8.17726C27.0763 6.73413 26.5099 5.50702 26.4518 5.45024C26.3938 5.39361 25.8087 6.5743 25.1515 8.07421ZM42.1487 22.4126C39.8746 22.7592 38.3979 24.248 38.3922 26.2003C38.3889 27.283 38.6007 27.972 39.1603 28.6995C39.7533 29.4704 40.6641 29.9807 42.8927 30.7908C43.8667 31.1448 44.8521 31.5686 45.0827 31.7328C45.6222 32.1169 45.8927 32.7775 45.7842 33.446C45.6113 34.5115 44.7774 34.9811 43.0579 34.9811C42.4404 34.9811 41.6476 34.9037 41.2965 34.8092C40.5693 34.6133 39.0394 33.8715 38.9011 33.6476C38.6553 33.25 38.5341 33.6092 38.5341 34.7357C38.5341 36.1574 38.5616 36.1929 40.079 36.7262C41.7977 37.3304 44.3217 37.3258 45.7439 36.7162C46.6253 36.3384 47.5721 35.4546 47.9093 34.695C48.334 33.7379 48.287 32.2129 47.8022 31.2218C47.1834 29.9572 46.5051 29.51 43.5698 28.4318C42.6065 28.0779 41.6719 27.6932 41.4929 27.5769C41.0006 27.2566 40.6825 26.5373 40.7872 25.98C41.1194 24.2094 44.3534 23.9678 46.7239 25.5367C47.0329 25.7411 47.3199 25.9084 47.3618 25.9084C47.4035 25.9084 47.4378 25.3514 47.4378 24.6706V23.433L46.8861 23.1514C45.5926 22.4915 43.6345 22.1862 42.1487 22.4126ZM19.8861 29.6543L19.9239 36.9285L21.1281 36.9709L22.3323 37.0133V32.4095C22.3323 29.8775 22.3733 27.8059 22.4232 27.8059C22.4733 27.8059 24.527 29.7599 26.987 32.1483C29.4471 34.5366 31.6394 36.6499 31.8588 36.8445L32.2577 37.1984V29.8747V22.5512H31.0191H29.7805L29.7419 27.0838L29.7034 31.6164L24.9047 27.0473C22.2654 24.5343 20.048 22.4562 19.977 22.4292C19.9033 22.401 19.8643 25.4902 19.8861 29.6543ZM10.0714 29.7764V37.0015H11.3121H12.5528V29.7764V22.5512H11.3121H10.0714V29.7764ZM53.7142 29.7764V37.0015H54.9549H56.1956V29.7764V22.5512H54.9549H53.7142V29.7764ZM63.6397 29.7635V37.0015L66.8144 36.999C70.4157 36.9961 71.4716 36.8408 72.8363 36.1135C74.998 34.9612 76.1925 32.706 76.1925 29.7764C76.1925 26.4195 74.715 24.0879 71.8866 22.9814C71.0674 22.661 70.7727 22.6351 67.3252 22.5822L63.6397 22.5254V29.7635ZM81.739 29.7764V37.0015H86.1179H90.4968V35.9068V34.8121H87.3586H84.2204V32.5497V30.2872H87.0667H89.9129V29.2655V28.2438H87.0667H84.2204V26.4922V24.7407H87.3586H90.4968V23.6459V22.5512H86.1179H81.739V29.7764ZM96.3353 29.7764V37.0015H97.576H98.8167V34.0823V31.163L99.7289 31.1718L100.641 31.1804L103.115 34.091L105.588 37.0015H106.956H108.324L108.029 36.6001C107.866 36.3794 106.721 35.0493 105.484 33.6444L103.235 31.09L103.964 30.849C105.385 30.379 106.182 29.4424 106.438 27.9428C106.883 25.3239 105.73 23.4041 103.327 22.7645C102.76 22.6137 101.666 22.5541 99.437 22.553L96.3353 22.5512V29.7764ZM66.121 29.7788V34.8483L68.274 34.7839C70.0972 34.7295 70.5387 34.6696 71.1568 34.3937C72.1045 33.9706 72.8794 33.2041 73.3006 32.2733C73.5932 31.6273 73.6381 31.2944 73.6381 29.7764C73.6381 28.1978 73.6009 27.9454 73.2611 27.2211C72.8016 26.2416 72.1918 25.6102 71.2697 25.159C70.6526 24.857 70.3183 24.8117 68.347 24.7637L66.121 24.7094V29.7788ZM98.8167 26.9473V29.154L100.681 29.0959C102.331 29.0445 102.611 28.9978 103.106 28.6916C104.479 27.8431 104.362 25.7303 102.901 24.9964C102.5 24.795 102.016 24.7411 100.605 24.7409L98.8167 24.7407V26.9473Z" fill="white"/>
</svg>
