<svg width="147" height="52" viewBox="0 0 147 52" fill="none" xmlns="http://www.w3.org/2000/svg">
<path d="M27.0713 52C41.4307 52 53.0713 40.3594 53.0713 26C53.0713 11.6406 41.4307 0 27.0713 0C12.7119 0 1.07129 11.6406 1.07129 26C1.07129 40.3594 12.7119 52 27.0713 52Z" fill="white"/>
<path d="M67.9286 19.9643C68.3323 19.989 68.7367 19.9272 69.1146 19.7831C69.4925 19.639 69.8353 19.4158 70.1201 19.1286C70.6571 18.4446 70.9099 17.5799 70.8258 16.7143V6.37H75.5244V16.7143C75.5827 17.6897 75.4323 18.6664 75.0832 19.5791C74.7342 20.4918 74.1944 21.3196 73.5001 22.0071C71.9472 23.3131 69.9545 23.9773 67.9286 23.8643C65.9025 23.9792 63.9092 23.3147 62.3572 22.0071C61.6394 21.3311 61.0755 20.5086 60.7038 19.5953C60.332 18.682 60.1612 17.6994 60.2029 16.7143V6.37H64.9015V16.7143C64.8459 17.5775 65.1253 18.4289 65.6815 19.0914C65.9684 19.3938 66.3187 19.6289 66.7072 19.7798C67.0957 19.9307 67.5129 19.9937 67.9286 19.9643ZM84.9029 23.8829C83.5454 23.8819 82.1992 23.6366 80.9286 23.1586C79.6863 22.7048 78.549 22.0035 77.5858 21.0971L79.8515 18.2371C80.5179 18.8418 81.2846 19.3257 82.1172 19.6671C83.0023 20.0227 83.9491 20.1994 84.9029 20.1871C85.4575 20.2174 86.0098 20.0953 86.5001 19.8343C86.683 19.7267 86.8333 19.5713 86.9347 19.3848C87.0361 19.1983 87.0849 18.9878 87.0758 18.7757C87.0727 18.5476 87.0069 18.3248 86.8858 18.1316C86.7646 17.9383 86.5926 17.7821 86.3886 17.68C85.6297 17.2537 84.8179 16.929 83.9743 16.7143L82.9158 16.4357C81.5923 16.1498 80.3722 15.5076 79.3872 14.5786C78.9839 14.1568 78.6693 13.6585 78.4619 13.113C78.2546 12.5675 78.1587 11.986 78.1801 11.4029C78.188 10.4054 78.4989 9.43392 79.0715 8.61714C79.678 7.79128 80.5006 7.14868 81.4486 6.76C82.5591 6.29436 83.7548 6.0666 84.9586 6.09143C86.2316 6.09405 87.4923 6.33989 88.6729 6.81571C89.8338 7.26568 90.9081 7.91281 91.8486 8.72857L89.5086 11.6814C88.861 11.1355 88.1426 10.6795 87.3729 10.3257C86.6161 9.95199 85.7842 9.75513 84.9401 9.75C84.3992 9.71521 83.8592 9.83092 83.3801 10.0843C83.1893 10.1844 83.0316 10.3377 82.9261 10.5255C82.8206 10.7134 82.7719 10.9278 82.7858 11.1429C82.7921 11.3495 82.8477 11.5516 82.9478 11.7325C83.0479 11.9134 83.1898 12.0678 83.3615 12.1829C83.9734 12.5777 84.6536 12.8548 85.3672 13L86.6486 13.3529C88.1268 13.6573 89.4867 14.3791 90.5672 15.4329C91.3226 16.2732 91.7337 17.3673 91.7186 18.4971C91.7368 19.5159 91.4383 20.5152 90.8643 21.3571C90.2528 22.1857 89.4235 22.8285 88.4686 23.2143C87.3395 23.6828 86.1251 23.9105 84.9029 23.8829ZM105.926 23.5486L104.83 20.4286H98.4044L97.3272 23.6414H92.6844L98.9801 6.46286H104.44L110.643 23.5486H105.926ZM99.5001 16.8629H103.567L101.636 10.8457L99.5001 16.8629ZM65.3101 45.5557V32.1657H60.2029V28.4514H75.0601V32.1657H70.0086V45.5557H65.3101ZM84.9401 45.89C83.3381 45.9211 81.7562 45.5304 80.3529 44.7571C79.0399 44.0086 77.9551 42.9174 77.2144 41.6C76.4208 40.1965 76.0168 38.6064 76.0443 36.9943C76.0258 35.7763 76.2402 34.5661 76.6758 33.4286C77.0952 32.3705 77.7273 31.4097 78.5329 30.6057C79.3412 29.8053 80.3008 29.1739 81.3558 28.7486C83.6465 27.8761 86.178 27.8761 88.4686 28.7486C89.5234 29.1744 90.4829 29.8057 91.2915 30.6057C92.0975 31.4094 92.7297 32.3703 93.1486 33.4286C93.636 34.5558 93.9009 35.7666 93.9286 36.9943C93.9618 38.6047 93.5643 40.1947 92.7772 41.6C92.0236 42.9154 90.9257 44.0005 89.6015 44.7386C88.1781 45.5311 86.5687 45.9286 84.9401 45.89ZM84.9401 42.0086C85.7061 42.0253 86.4586 41.8048 87.0944 41.3771C87.7283 40.9314 88.2291 40.3215 88.5429 39.6129C88.9153 38.791 89.0993 37.8964 89.0815 36.9943C89.0962 36.0925 88.9124 35.1985 88.5429 34.3757C88.2394 33.6356 87.7383 32.9932 87.0944 32.5186C86.4519 32.096 85.6997 31.8708 84.9308 31.8708C84.1618 31.8708 83.4097 32.096 82.7672 32.5186C82.1233 32.9932 81.6222 33.6356 81.3186 34.3757C80.9492 35.1985 80.7653 36.0925 80.7801 36.9943C80.7622 37.8964 80.9462 38.791 81.3186 39.6129C81.6325 40.3215 82.1332 40.9314 82.7672 41.3771C83.4104 41.8019 84.1697 42.0161 84.9401 41.99V42.0086ZM96.5472 45.5557V28.3771H103.326C104.9 28.3442 106.455 28.7219 107.839 29.4729C109.117 30.183 110.177 31.2299 110.903 32.5C111.631 33.8727 112.012 35.4031 112.012 36.9571C112.012 38.5112 111.631 40.0415 110.903 41.4143C110.177 42.6844 109.117 43.7313 107.839 44.4414C106.455 45.1924 104.9 45.5701 103.326 45.5371L96.5472 45.5557ZM101.171 41.8414H103.326C103.883 41.8633 104.437 41.7536 104.943 41.5213C105.45 41.289 105.895 40.9405 106.241 40.5043C106.991 39.4846 107.371 38.2401 107.319 36.9757C107.371 35.7113 106.991 34.4669 106.241 33.4471C105.895 33.0109 105.45 32.6625 104.943 32.4302C104.437 32.1978 103.883 32.0882 103.326 32.11H101.171V41.8414ZM125.871 45.5557L124.794 42.3429H118.35L117.273 45.5557H112.63L118.926 28.3771H124.386L130.681 45.5557H125.871ZM119.539 38.87H123.643L121.619 32.8529L119.539 38.87ZM139.744 39.3714V45.5557H134.971V39.3714L128.88 28.3771H134.191L137.367 35.2857L140.524 28.47H145.836L139.744 39.3714Z" fill="white"/>
</svg>
