<svg width="1231" height="741" viewBox="0 0 1231 741" fill="none" xmlns="http://www.w3.org/2000/svg">
<rect x="1.45279" y="1.45279" width="1228.51" height="738.094" rx="18.0579" fill="#0B0B0B" stroke="#41434E" stroke-width="1.09442"/>
<path fill-rule="evenodd" clip-rule="evenodd" d="M702.032 76.9638L695.56 76.9647V88.4874H702.032V76.9638ZM702.032 90.4058H695.56C694.988 90.4051 694.439 90.2026 694.035 89.8428C693.63 89.483 693.403 88.9952 693.402 88.4865V76.9647C693.402 75.9061 694.371 75.0444 695.56 75.0444H702.032C703.222 75.0444 704.19 75.9061 704.19 76.9647V88.4874C704.19 88.9961 703.962 89.4839 703.557 89.8437C703.153 90.2035 702.604 90.4051 702.032 90.4058Z" fill="#2B2B2B"/>
<path fill-rule="evenodd" clip-rule="evenodd" d="M661.047 75.9047H650.258V89.3467H661.046V75.9038L661.047 75.9047ZM661.047 91.2661H650.258C649.686 91.2651 649.138 91.0625 648.734 90.7027C648.329 90.3429 648.102 89.8553 648.102 89.3467V75.9047C648.102 74.8461 649.069 73.9844 650.258 73.9844H661.046C662.235 73.9844 663.203 74.8461 663.203 75.9047V89.3467C663.203 89.8553 662.975 90.3429 662.571 90.7027C662.167 91.0625 661.618 91.2651 661.046 91.2661H661.047Z" fill="#2B2B2B"/>
<path fill-rule="evenodd" clip-rule="evenodd" d="M616.81 89.3458V91.2661H608.181V89.3458H616.811H616.81ZM620.048 73.9844C621.236 73.9844 622.205 74.8452 622.205 75.9047V85.5061C622.204 86.0147 621.977 86.5024 621.572 86.8622C621.168 87.222 620.62 87.4245 620.048 87.4255H604.944C604.372 87.4245 603.823 87.2218 603.419 86.8618C603.015 86.5018 602.787 86.014 602.787 85.5052V75.9038C602.787 75.3951 603.015 74.9073 603.419 74.5475C603.823 74.1876 604.372 73.9851 604.944 73.9844H620.048ZM620.048 75.9047H604.944V85.5061H620.048V75.9047Z" fill="white"/>
<path fill-rule="evenodd" clip-rule="evenodd" d="M632.678 104.203V105.106H590.664V104.203H632.678Z" stroke="#1F77FF" stroke-width="1.20388"/>
<path fill-rule="evenodd" clip-rule="evenodd" d="M558.337 75.7428V100.075C558.337 100.997 557.971 101.881 557.319 102.533C556.667 103.185 555.783 103.551 554.861 103.551H440.289C439.367 103.551 438.483 103.185 437.831 102.533C437.179 101.881 436.812 100.997 436.812 100.075V75.7428C436.812 74.8209 437.179 73.9367 437.831 73.2848C438.483 72.6328 439.367 72.2666 440.289 72.2666H554.861C555.783 72.2666 556.667 72.6328 557.319 73.2848C557.971 73.9367 558.337 74.8209 558.337 75.7428Z" fill="#171717"/>
<path d="M448.426 92.4083V88.2879H453.111V92.4083H454.092V83.6401H453.111V87.4172H448.426V83.6401H447.445V92.4083H448.426ZM459.071 92.6045C459.659 92.6045 460.183 92.4655 460.64 92.1876C461.098 91.9096 461.456 91.5294 461.714 91.0471C461.971 90.5647 462.101 90.0129 462.101 89.3916C462.101 88.7702 461.971 88.2184 461.714 87.736C461.467 87.2651 461.096 86.8707 460.641 86.5956C460.183 86.3176 459.66 86.1786 459.072 86.1786C458.491 86.1786 457.972 86.3176 457.514 86.5956C457.056 86.8735 456.698 87.2537 456.441 87.736C456.183 88.2184 456.055 88.7702 456.055 89.3916C456.055 90.0129 456.183 90.5647 456.441 91.0471C456.698 91.5294 457.056 91.9096 457.514 92.1876C457.972 92.4655 458.49 92.6045 459.071 92.6045ZM459.071 91.7829C458.67 91.7829 458.319 91.6807 458.016 91.4763C457.714 91.2719 457.477 90.9899 457.305 90.6301C457.133 90.2704 457.048 89.8576 457.048 89.3916C457.048 88.9174 457.134 88.5021 457.306 88.1464C457.477 87.7908 457.714 87.5112 458.017 87.3068C458.319 87.1024 458.671 87.0002 459.072 87.0002C459.48 87.0002 459.836 87.1024 460.139 87.3068C460.441 87.5112 460.678 87.7908 460.85 88.1464C461.021 88.5021 461.107 88.9174 461.107 89.3916C461.107 89.8576 461.021 90.2704 460.85 90.6301C460.678 90.9899 460.441 91.2719 460.139 91.4763C459.836 91.6807 459.48 91.7829 459.071 91.7829ZM464.749 92.4083V89.6981C464.749 88.8724 464.909 88.2184 465.228 87.736C465.547 87.2537 465.976 87.0125 466.515 87.0125C466.949 87.0125 467.284 87.1801 467.521 87.5153C467.758 87.8505 467.877 88.3206 467.877 88.9256V92.4083H468.821V89.6981C468.821 88.8724 468.98 88.2184 469.299 87.736C469.618 87.2537 470.051 87.0125 470.599 87.0125C471.032 87.0125 471.367 87.1801 471.605 87.5153C471.842 87.8505 471.96 88.3206 471.96 88.9256V92.4083H472.904V88.8275C472.904 87.9772 472.716 87.3232 472.34 86.8654C471.964 86.4075 471.429 86.1786 470.734 86.1786C470.219 86.1786 469.775 86.3135 469.403 86.5833C469.031 86.8531 468.764 87.2332 468.6 87.7238C468.469 87.2251 468.244 86.8425 467.926 86.5768C467.607 86.3111 467.202 86.1786 466.712 86.1786C466.237 86.1786 465.83 86.3029 465.491 86.5522C465.152 86.8016 464.901 87.1515 464.737 87.6011V86.3748H463.805V92.4083H464.749ZM477.564 92.6045C478.056 92.6098 478.541 92.4983 478.98 92.2791C479.41 92.0625 479.784 91.7338 480.103 91.2924L479.465 90.6792C479.22 91.0553 478.946 91.3332 478.644 91.5131C478.341 91.693 478.002 91.7829 477.626 91.7829C477.029 91.7829 476.54 91.5908 476.16 91.2065C475.78 90.8223 475.557 90.3277 475.492 89.7227H480.238V89.3548C480.238 88.7334 480.119 88.1832 479.882 87.705C479.663 87.2471 479.321 86.8589 478.895 86.5833C478.474 86.3135 477.99 86.1786 477.442 86.1786C476.911 86.1714 476.39 86.316 475.939 86.5956C475.494 86.8735 475.142 87.2553 474.885 87.7418C474.627 88.2282 474.499 88.7784 474.499 89.3916C474.499 90.0047 474.627 90.5541 474.885 91.0406C475.131 91.5155 475.505 91.9126 475.964 92.1876C476.426 92.4655 476.959 92.6045 477.564 92.6045ZM479.257 88.9501H475.504C475.578 88.3696 475.792 87.8995 476.148 87.5398C476.503 87.1801 476.935 87.0002 477.442 87.0002C477.949 87.0002 478.363 87.176 478.686 87.5276C479.009 87.8791 479.2 88.3533 479.257 88.9501Z" fill="white"/>
<path d="M543.192 85.8751C543.337 86.0119 543.427 86.1967 543.445 86.3949C543.463 86.5931 543.408 86.7911 543.29 86.9518L543.225 87.0311L540.316 90.1116C540.204 90.2257 540.069 90.3159 539.921 90.3766C539.772 90.4373 539.613 90.4673 539.453 90.4648C539.173 90.4648 538.895 90.3749 538.676 90.1917L538.586 90.1083L535.681 87.0311C535.535 86.8804 535.453 86.6796 535.451 86.4701C535.449 86.2605 535.528 86.0583 535.671 85.9052C535.814 85.752 536.01 85.6596 536.22 85.647C536.429 85.6344 536.635 85.7026 536.795 85.8375L536.87 85.9086L539.453 88.6433L542.036 85.9086C542.173 85.7639 542.358 85.674 542.556 85.6557C542.754 85.6375 542.952 85.6923 543.113 85.8097L543.192 85.8751Z" fill="#2B2B2B"/>
<path d="M746.62 91.5892V84.7725H745.886L744.227 86.146V86.9652L745.858 85.5925V91.5892H746.62ZM752.826 91.5892V90.9507H749.46L751.215 89.1488C751.555 88.8055 751.877 88.4441 752.178 88.0664C752.407 87.7713 752.566 87.4982 752.655 87.2464C752.744 86.9954 752.788 86.7305 752.788 86.4509C752.788 86.0888 752.704 85.7691 752.535 85.4928C752.367 85.2164 752.135 85.0022 751.84 84.8494C751.544 84.6965 751.199 84.6204 750.805 84.6204C749.82 84.6204 749.048 85.0619 748.488 85.9449L749.012 86.4223C749.248 86.0152 749.509 85.7192 749.795 85.5353C750.081 85.3513 750.415 85.2589 750.796 85.2589C751.183 85.2589 751.488 85.3669 751.711 85.5835C751.934 85.7993 752.045 86.0945 752.045 86.4697C752.045 86.6986 752.006 86.9194 751.93 87.1319C751.835 87.3777 751.704 87.6076 751.54 87.8138C751.355 88.0558 751.104 88.3386 750.786 88.6624L748.527 90.9793V91.5892H752.826ZM756.068 91.7421C756.526 91.7421 756.93 91.6562 757.283 91.4846C757.636 91.3129 757.914 91.0758 758.117 90.7741C758.321 90.4716 758.422 90.1274 758.422 89.7399C758.422 89.3393 758.305 88.9853 758.069 88.6771C757.826 88.3625 757.499 88.1228 757.126 87.9855C757.433 87.8591 757.699 87.6516 757.898 87.3854C758.089 87.1238 758.184 86.8319 758.184 86.5082C758.184 86.1394 758.094 85.8132 757.912 85.5312C757.728 85.2451 757.469 85.0142 757.164 84.8633C756.845 84.7014 756.481 84.6204 756.068 84.6204C755.661 84.6204 755.297 84.7014 754.976 84.8633C754.655 85.0259 754.403 85.2475 754.224 85.5312C754.04 85.8234 753.945 86.1629 753.951 86.5082C753.951 86.8319 754.046 87.1246 754.237 87.3854C754.428 87.6454 754.685 87.8457 755.009 87.9855C754.636 88.1228 754.309 88.3625 754.066 88.6771C753.83 88.9853 753.713 89.3393 753.713 89.7399C753.713 90.1274 753.815 90.4724 754.017 90.7741C754.222 91.0766 754.5 91.3129 754.851 91.4846C755.205 91.6562 755.61 91.7421 756.068 91.7421ZM756.068 87.7279C755.831 87.7307 755.597 87.6751 755.386 87.5661C755.188 87.4657 755.019 87.3166 754.896 87.1328C754.774 86.9506 754.711 86.736 754.714 86.5172C754.714 86.276 754.775 86.0618 754.895 85.8737C755.016 85.6865 755.179 85.5369 755.385 85.4257C755.595 85.3136 755.83 85.2562 756.068 85.2589C756.321 85.2589 756.55 85.3145 756.755 85.4257C756.957 85.5369 757.119 85.6865 757.24 85.8737C757.36 86.0618 757.421 86.276 757.421 86.5172C757.421 86.7461 757.36 86.9513 757.24 87.1328C757.117 87.3158 756.95 87.4648 756.754 87.5661C756.542 87.6761 756.306 87.7318 756.067 87.7279H756.068ZM756.068 91.1028C755.79 91.1063 755.516 91.0444 755.267 90.9221C755.036 90.8113 754.839 90.6422 754.694 90.4316C754.555 90.2246 754.482 89.9798 754.485 89.7301C754.485 89.4693 754.555 89.2363 754.694 89.0295C754.838 88.8192 755.036 88.6513 755.267 88.543C755.508 88.4261 755.775 88.3673 756.068 88.3673C756.366 88.3673 756.634 88.4261 756.873 88.543C757.111 88.6608 757.301 88.8226 757.441 89.0295C757.58 89.2363 757.653 89.4807 757.65 89.7301C757.65 89.9909 757.58 90.2247 757.441 90.4307C757.297 90.6404 757.101 90.8094 756.873 90.9213C756.623 91.0448 756.347 91.107 756.068 91.1028ZM762.026 91.7421C762.522 91.7421 762.944 91.599 763.293 91.3129C763.643 91.0267 763.911 90.618 764.099 90.0874C764.287 89.5568 764.381 88.9199 764.381 88.176C764.381 87.432 764.287 86.7959 764.099 86.2645C763.911 85.7339 763.643 85.3276 763.293 85.0448C762.944 84.7619 762.522 84.6196 762.026 84.6196C761.53 84.6196 761.107 84.7619 760.758 85.0448C760.408 85.3276 760.14 85.7339 759.952 86.2645C759.765 86.7959 759.671 87.4328 759.671 88.176C759.671 88.9199 759.765 89.5576 759.952 90.0874C760.14 90.6188 760.408 91.0267 760.758 91.3129C761.107 91.599 761.53 91.7421 762.025 91.7421H762.026ZM762.026 91.1028C761.523 91.1028 761.135 90.8493 760.858 90.34C760.582 89.8323 760.443 89.1104 760.443 88.176C760.443 87.2423 760.582 86.5221 760.858 86.0176C761.134 85.5116 761.523 85.2589 762.026 85.2589C762.534 85.2589 762.925 85.5124 763.199 86.0168C763.472 86.5221 763.608 87.2423 763.608 88.176C763.608 89.1104 763.472 89.8323 763.199 90.34C762.925 90.8485 762.534 91.1028 762.026 91.1028Z" fill="white"/>
<path d="M775.794 91.8505V89.2859C775.953 89.5524 776.176 89.7641 776.462 89.9195C776.767 90.0797 777.108 90.1602 777.453 90.1533C777.892 90.1533 778.281 90.0454 778.621 89.8295C778.963 89.6106 779.241 89.3044 779.426 88.9425C779.623 88.5681 779.722 88.1389 779.722 87.6557C779.722 87.1791 779.627 86.7515 779.436 86.3738C779.26 86.0122 778.99 85.7045 778.654 85.4827C778.314 85.2634 777.915 85.1504 777.51 85.1581C777.149 85.1541 776.794 85.2516 776.486 85.4393C776.177 85.6274 775.944 85.8759 775.785 86.1874V85.3101H775.061V91.8505H775.794ZM777.348 89.5148C777.002 89.5198 776.663 89.4106 776.385 89.2041C776.108 89.001 775.901 88.7163 775.794 88.3898V87.7889C775.794 87.3949 775.864 87.0491 776.004 86.7507C776.129 86.4699 776.326 86.2276 776.576 86.0492C776.819 85.8803 777.109 85.792 777.405 85.7966C777.71 85.7966 777.979 85.8759 778.211 86.0353C778.443 86.1939 778.624 86.413 778.754 86.6926C778.885 86.9722 778.95 87.2935 778.95 87.6557C778.95 88.0179 778.882 88.3392 778.744 88.6188C778.608 88.8984 778.421 89.1175 778.182 89.2761C777.934 89.4378 777.644 89.521 777.348 89.5148ZM781.191 90.0012L782.535 88.0179L783.879 90.0012H784.756L783.011 87.5698L784.584 85.3101H783.745L782.535 87.1414L781.343 85.3101H780.484L782.067 87.5698L780.322 90.0012H781.19H781.191Z" fill="#7C7C7C"/>
<path d="M790.132 74.2012H739.288C738.766 74.2011 738.249 74.3037 737.767 74.5033C737.285 74.7029 736.847 74.9955 736.478 75.3644C736.109 75.7333 735.817 76.1712 735.617 76.6532C735.417 77.1353 735.314 77.6519 735.314 78.1736V97.2404C735.314 97.7622 735.417 98.2788 735.617 98.7608C735.817 99.2428 736.109 99.6808 736.478 100.05C736.847 100.419 737.285 100.711 737.767 100.911C738.249 101.11 738.766 101.213 739.288 101.213H790.132C790.653 101.213 791.17 101.11 791.652 100.91C792.134 100.711 792.572 100.418 792.941 100.049C793.31 99.6801 793.602 99.2421 793.802 98.76C794.002 98.278 794.104 97.7613 794.104 97.2396V78.1744C794.104 77.1209 793.686 76.1105 792.941 75.3655C792.196 74.6205 791.185 74.202 790.132 74.202V74.2012ZM739.288 75.7905H790.132C790.764 75.7905 791.37 76.0416 791.817 76.4885C792.264 76.9354 792.515 77.5416 792.515 78.1736V97.2404C792.515 97.8725 792.264 98.4786 791.817 98.9256C791.37 99.3725 790.764 99.6236 790.132 99.6236H739.288C738.975 99.6237 738.665 99.5621 738.375 99.4424C738.086 99.3227 737.823 99.1472 737.602 98.9258C737.381 98.7045 737.205 98.4418 737.085 98.1526C736.965 97.8634 736.904 97.5534 736.904 97.2404V78.1736C736.904 77.8606 736.965 77.5506 737.085 77.2614C737.205 76.9723 737.381 76.7095 737.602 76.4882C737.823 76.2669 738.086 76.0914 738.375 75.9717C738.665 75.8519 738.975 75.7904 739.288 75.7905Z" fill="#E5E5E5"/>
<path d="M1229.42 55.3035H1229.97V54.7563V19.7348C1229.97 9.76173 1221.88 1.67691 1211.91 1.67691H19.5107C9.5376 1.67691 1.45279 9.76171 1.45279 19.7348V54.7563V55.3035H2H1229.42Z" fill="#1A1C1F" stroke="#41434E" stroke-width="1.09442"/>
<path fill-rule="evenodd" clip-rule="evenodd" d="M115.827 37.2451C120.662 37.2451 124.582 33.3252 124.582 28.4897C124.582 23.6543 120.662 19.7344 115.827 19.7344C110.991 19.7344 107.071 23.6543 107.071 28.4897C107.071 33.3252 110.991 37.2451 115.827 37.2451ZM54.54 28.49C54.54 33.3255 50.6201 37.2454 45.7847 37.2454C40.9492 37.2454 37.0293 33.3255 37.0293 28.49C37.0293 23.6545 40.9492 19.7346 45.7847 19.7346C50.6201 19.7346 54.54 23.6545 54.54 28.49ZM89.5611 28.4903C89.5611 33.3257 85.6412 37.2456 80.8057 37.2456C75.9703 37.2456 72.0504 33.3257 72.0504 28.4903C72.0504 23.6548 75.9703 19.7349 80.8057 19.7349C85.6412 19.7349 89.5611 23.6548 89.5611 28.4903Z" fill="#3C3C3C"/>
</svg>
