<svg width="40" height="40" viewBox="0 0 40 40" fill="none" xmlns="http://www.w3.org/2000/svg">
<path d="M15.832 16.6666C15.832 17.1268 15.4589 17.4999 14.9987 17.4999C14.5385 17.4999 14.1654 17.1268 14.1654 16.6666M15.832 16.6666C15.832 16.2063 15.4589 15.8333 14.9987 15.8333C14.5385 15.8333 14.1654 16.2063 14.1654 16.6666M15.832 16.6666H14.1654M25.832 16.6666C25.832 17.1268 25.4589 17.4999 24.9987 17.4999C24.5385 17.4999 24.1654 17.1268 24.1654 16.6666M25.832 16.6666C25.832 16.2063 25.4589 15.8333 24.9987 15.8333C24.5385 15.8333 24.1654 16.2063 24.1654 16.6666M25.832 16.6666H24.1654M26.6658 24.9999C25.1454 27.024 22.7249 28.3333 19.9985 28.3333C17.2721 28.3333 14.8516 27.024 13.3312 24.9999M19.9987 36.6666V36.6666C29.2034 36.6666 36.6654 29.2047 36.6654 19.9999V19.9999C36.6654 10.7952 29.2034 3.33325 19.9987 3.33325V3.33325C10.794 3.33325 3.33203 10.7952 3.33203 19.9999V19.9999C3.33203 29.2047 10.794 36.6666 19.9987 36.6666Z" stroke="white" stroke-width="2.5" stroke-linecap="round" stroke-linejoin="round"/>
</svg>
