<svg width="1226" height="652" viewBox="0 0 1226 652" fill="none" xmlns="http://www.w3.org/2000/svg">
<rect x="0.5" y="0.5" width="1225" height="651" rx="16.5" fill="#0B0B0B" stroke="#41434E"/>
<path d="M1225 49.5H1225.5V49V17C1225.5 7.8873 1218.11 0.5 1209 0.5H17C7.8873 0.5 0.5 7.8873 0.5 17V49V49.5H1H1225Z" fill="#1A1C1F" stroke="#41434E"/>
<path fill-rule="evenodd" clip-rule="evenodd" d="M49 25C49 29.4183 45.4183 33 41 33C36.5817 33 33 29.4183 33 25C33 20.5817 36.5817 17 41 17C45.4183 17 49 20.5817 49 25ZM81 25C81 29.4183 77.4183 33 73 33C68.5817 33 65 29.4183 65 25C65 20.5817 68.5817 17 73 17C77.4183 17 81 20.5817 81 25ZM105 33C109.418 33 113 29.4183 113 25C113 20.5817 109.418 17 105 17C100.582 17 97 20.5817 97 25C97 29.4183 100.582 33 105 33Z" fill="#3C3C3C"/>
<path fill-rule="evenodd" clip-rule="evenodd" d="M691.878 69.2919L685.965 69.2927V79.8212H691.878V69.2919ZM691.878 81.5742H685.965C685.442 81.5735 684.941 81.3885 684.571 81.0597C684.202 80.731 683.994 80.2853 683.993 79.8204V69.2927C683.993 68.3254 684.878 67.5381 685.965 67.5381H691.878C692.965 67.5381 693.85 68.3254 693.85 69.2927V79.8212C693.85 80.2861 693.642 80.7318 693.272 81.0606C692.903 81.3894 692.401 81.5735 691.878 81.5742Z" fill="#2B2B2B"/>
<path fill-rule="evenodd" clip-rule="evenodd" d="M654.423 68.3242H644.566V80.6065H654.423V68.3234L654.423 68.3242ZM654.423 82.3603H644.566C644.043 82.3595 643.542 82.1744 643.172 81.8456C642.803 81.5168 642.595 81.0713 642.595 80.6065V68.3242C642.595 67.357 643.478 66.5696 644.566 66.5696H654.423C655.509 66.5696 656.393 67.357 656.393 68.3242V80.6065C656.393 81.0713 656.185 81.5168 655.816 81.8456C655.446 82.1744 654.945 82.3595 654.423 82.3603H654.423Z" fill="#2B2B2B"/>
<path fill-rule="evenodd" clip-rule="evenodd" d="M614.011 80.6057V82.3603H606.127V80.6057H614.012H614.011ZM616.97 66.5696C618.056 66.5696 618.94 67.3561 618.94 68.3242V77.0973C618.94 77.562 618.732 78.0076 618.363 78.3364C617.993 78.6651 617.492 78.8502 616.97 78.8511H603.169C602.646 78.8502 602.145 78.665 601.776 78.3361C601.406 78.0071 601.198 77.5613 601.198 77.0965V68.3234C601.198 67.8586 601.406 67.4129 601.776 67.0841C602.145 66.7553 602.646 66.5703 603.169 66.5696H616.97ZM616.97 68.3242H603.169V77.0973H616.97V68.3242Z" fill="white"/>
<path fill-rule="evenodd" clip-rule="evenodd" d="M628.505 94.1811V95.0064H590.116V94.1811H628.505Z" stroke="#1F77FF" stroke-width="1.10002"/>
<path fill-rule="evenodd" clip-rule="evenodd" d="M560.576 68.1763V90.4089C560.576 91.2513 560.241 92.0592 559.645 92.6548C559.05 93.2505 558.242 93.5852 557.399 93.5852H452.711C451.869 93.5852 451.061 93.2505 450.465 92.6548C449.87 92.0592 449.535 91.2513 449.535 90.4089V68.1763C449.535 67.3339 449.87 66.526 450.465 65.9303C451.061 65.3346 451.869 65 452.711 65H557.399C558.242 65 559.05 65.3346 559.645 65.9303C560.241 66.526 560.576 67.3339 560.576 68.1763Z" fill="#171717"/>
<path d="M460.142 83.4042V79.6392H464.422V83.4042H465.319V75.3925H464.422V78.8437H460.142V75.3925H459.246V83.4042H460.142ZM469.868 83.5834C470.406 83.5834 470.884 83.4565 471.302 83.2025C471.721 82.9485 472.048 82.6011 472.283 82.1604C472.519 81.7196 472.637 81.2154 472.637 80.6477C472.637 80.08 472.519 79.5757 472.283 79.135C472.058 78.7047 471.719 78.3443 471.303 78.0929C470.885 77.8389 470.407 77.7119 469.869 77.7119C469.338 77.7119 468.864 77.8389 468.446 78.0929C468.027 78.3469 467.7 78.6942 467.465 79.135C467.23 79.5757 467.112 80.08 467.112 80.6477C467.112 81.2154 467.23 81.7196 467.465 82.1604C467.7 82.6011 468.027 82.9485 468.446 83.2025C468.864 83.4565 469.338 83.5834 469.868 83.5834ZM469.868 82.8327C469.502 82.8327 469.181 82.7393 468.904 82.5526C468.628 82.3658 468.411 82.1081 468.255 81.7794C468.098 81.4507 468.02 81.0735 468.02 80.6477C468.02 80.2144 468.098 79.8349 468.255 79.51C468.412 79.185 468.629 78.9296 468.905 78.7428C469.182 78.5561 469.503 78.4627 469.869 78.4627C470.242 78.4627 470.567 78.5561 470.844 78.7428C471.12 78.9296 471.337 79.185 471.494 79.51C471.65 79.8349 471.729 80.2144 471.729 80.6477C471.729 81.0735 471.65 81.4507 471.494 81.7794C471.337 82.1081 471.12 82.3658 470.844 82.5526C470.567 82.7393 470.242 82.8327 469.868 82.8327ZM475.057 83.4042V80.9278C475.057 80.1733 475.203 79.5757 475.494 79.135C475.785 78.6942 476.177 78.4739 476.67 78.4739C477.066 78.4739 477.373 78.627 477.589 78.9333C477.806 79.2396 477.914 79.6691 477.914 80.2219V83.4042H478.777V80.9278C478.777 80.1733 478.923 79.5757 479.214 79.135C479.505 78.6942 479.901 78.4739 480.402 78.4739C480.798 78.4739 481.104 78.627 481.321 78.9333C481.537 79.2396 481.646 79.6691 481.646 80.2219V83.4042H482.508V80.1322C482.508 79.3554 482.336 78.7577 481.993 78.3394C481.649 77.9211 481.16 77.7119 480.525 77.7119C480.054 77.7119 479.649 77.8352 479.309 78.0817C478.969 78.3282 478.725 78.6756 478.575 79.1238C478.456 78.6681 478.25 78.3185 477.959 78.0757C477.668 77.8329 477.298 77.7119 476.85 77.7119C476.416 77.7119 476.044 77.8255 475.734 78.0533C475.424 78.2812 475.195 78.6009 475.046 79.0117V77.8912H474.194V83.4042H475.057ZM486.766 83.5834C487.215 83.5883 487.658 83.4864 488.06 83.2861C488.452 83.0882 488.794 82.7879 489.086 82.3845L488.503 81.8242C488.279 82.1679 488.029 82.4218 487.752 82.5862C487.476 82.7505 487.166 82.8327 486.822 82.8327C486.277 82.8327 485.83 82.6571 485.483 82.3061C485.136 81.955 484.932 81.503 484.873 80.9502H489.209V80.6141C489.209 80.0463 489.101 79.5436 488.884 79.1066C488.684 78.6882 488.371 78.3335 487.982 78.0817C487.597 77.8352 487.155 77.7119 486.654 77.7119C486.17 77.7053 485.693 77.8375 485.281 78.0929C484.874 78.3469 484.553 78.6957 484.318 79.1402C484.082 79.5847 483.965 80.0874 483.965 80.6477C483.965 81.2079 484.082 81.7099 484.318 82.1544C484.543 82.5884 484.884 82.9512 485.304 83.2025C485.726 83.4565 486.213 83.5834 486.766 83.5834ZM488.313 80.2443H484.884C484.951 79.7139 485.147 79.2844 485.472 78.9557C485.797 78.627 486.191 78.4627 486.654 78.4627C487.117 78.4627 487.496 78.6233 487.791 78.9445C488.086 79.2657 488.26 79.699 488.313 80.2443Z" fill="white"/>
<path d="M546.734 77.4342C546.867 77.5592 546.949 77.7281 546.965 77.9092C546.982 78.0903 546.931 78.2712 546.824 78.418L546.764 78.4905L544.106 81.3052C544.004 81.4095 543.881 81.4918 543.745 81.5473C543.609 81.6028 543.464 81.6302 543.318 81.6279C543.062 81.6279 542.808 81.5458 542.608 81.3784L542.526 81.3022L539.871 78.4905C539.738 78.3528 539.663 78.1693 539.661 77.9778C539.66 77.7864 539.731 77.6016 539.862 77.4617C539.993 77.3217 540.172 77.2373 540.363 77.2258C540.554 77.2143 540.743 77.2766 540.889 77.3998L540.958 77.4648L543.318 79.9636L545.678 77.4648C545.803 77.3326 545.972 77.2504 546.153 77.2338C546.334 77.2171 546.515 77.2672 546.662 77.3744L546.734 77.4342Z" fill="#2B2B2B"/>
<path d="M732.618 82.6563V76.4277H731.947L730.431 77.6827V78.4312L731.921 77.177V82.6563H732.618ZM738.288 82.6563V82.0729H735.213L736.816 80.4265C737.127 80.1128 737.421 79.7826 737.696 79.4375C737.905 79.1678 738.05 78.9183 738.132 78.6882C738.213 78.4589 738.253 78.2168 738.253 77.9614C738.253 77.6304 738.176 77.3384 738.023 77.0859C737.869 76.8334 737.656 76.6377 737.387 76.498C737.116 76.3583 736.802 76.2888 736.442 76.2888C735.542 76.2888 734.836 76.6922 734.325 77.499L734.804 77.9352C735.019 77.5632 735.257 77.2928 735.519 77.1247C735.78 76.9566 736.085 76.8722 736.433 76.8722C736.787 76.8722 737.066 76.9708 737.27 77.1688C737.473 77.366 737.574 77.6357 737.574 77.9785C737.574 78.1877 737.539 78.3894 737.47 78.5836C737.383 78.8082 737.263 79.0182 737.113 79.2066C736.944 79.4277 736.715 79.6862 736.424 79.982L734.36 82.0991V82.6563H738.288ZM741.25 82.796C741.669 82.796 742.038 82.7176 742.36 82.5607C742.683 82.4038 742.937 82.1872 743.122 81.9116C743.309 81.6352 743.402 81.3207 743.402 80.9666C743.402 80.6006 743.294 80.2771 743.079 79.9955C742.857 79.708 742.558 79.489 742.217 79.3635C742.497 79.248 742.741 79.0585 742.922 78.8152C743.097 78.5762 743.184 78.3095 743.184 78.0137C743.184 77.6768 743.101 77.3787 742.936 77.121C742.767 76.8595 742.531 76.6486 742.252 76.5107C741.961 76.3628 741.628 76.2888 741.25 76.2888C740.878 76.2888 740.546 76.3628 740.252 76.5107C739.96 76.6593 739.729 76.8618 739.565 77.121C739.397 77.388 739.311 77.6982 739.316 78.0137C739.316 78.3095 739.403 78.5769 739.578 78.8152C739.752 79.0527 739.987 79.2358 740.283 79.3635C739.942 79.489 739.643 79.708 739.421 79.9955C739.206 80.2771 739.098 80.6006 739.098 80.9666C739.098 81.3207 739.192 81.6359 739.377 81.9116C739.564 82.188 739.818 82.4038 740.139 82.5607C740.462 82.7176 740.832 82.796 741.25 82.796ZM741.25 79.1282C741.034 79.1307 740.82 79.0799 740.627 78.9803C740.447 78.8886 740.292 78.7523 740.179 78.5844C740.068 78.4179 740.011 78.2218 740.013 78.0219C740.013 77.8015 740.069 77.6058 740.178 77.434C740.289 77.2629 740.438 77.1262 740.627 77.0246C740.818 76.9221 741.033 76.8697 741.25 76.8722C741.482 76.8722 741.691 76.923 741.878 77.0246C742.063 77.1262 742.211 77.2629 742.322 77.434C742.431 77.6058 742.487 77.8015 742.487 78.0219C742.487 78.231 742.431 78.4185 742.322 78.5844C742.209 78.7516 742.056 78.8878 741.877 78.9803C741.683 79.0809 741.468 79.1317 741.25 79.1282H741.25ZM741.25 82.2119C740.997 82.2151 740.746 82.1586 740.518 82.0468C740.308 81.9455 740.128 81.791 739.995 81.5986C739.868 81.4095 739.801 81.1858 739.804 80.9576C739.804 80.7193 739.868 80.5064 739.995 80.3174C740.127 80.1254 740.308 79.9719 740.518 79.873C740.739 79.7661 740.983 79.7124 741.25 79.7124C741.523 79.7124 741.768 79.7661 741.986 79.873C742.204 79.9805 742.377 80.1284 742.505 80.3174C742.632 80.5064 742.699 80.7297 742.696 80.9576C742.696 81.1959 742.632 81.4096 742.505 81.5978C742.373 81.7894 742.195 81.9438 741.986 82.046C741.758 82.1589 741.505 82.2158 741.25 82.2119ZM746.695 82.796C747.147 82.796 747.533 82.6653 747.852 82.4038C748.172 82.1424 748.417 81.7689 748.589 81.2841C748.761 80.7993 748.846 80.2173 748.846 79.5376C748.846 78.8578 748.76 78.2766 748.589 77.791C748.417 77.3062 748.172 76.935 747.852 76.6765C747.533 76.418 747.147 76.2881 746.695 76.2881C746.241 76.2881 745.855 76.418 745.536 76.6765C745.216 76.935 744.971 77.3062 744.799 77.791C744.628 78.2766 744.542 78.8585 744.542 79.5376C744.542 80.2173 744.628 80.8 744.799 81.2841C744.971 81.7696 745.216 82.1424 745.536 82.4038C745.855 82.6653 746.241 82.796 746.694 82.796H746.695ZM746.695 82.2119C746.235 82.2119 745.88 81.9803 745.627 81.5149C745.375 81.051 745.248 80.3914 745.248 79.5376C745.248 78.6845 745.375 78.0264 745.627 77.5654C745.88 77.103 746.235 76.8722 746.695 76.8722C747.159 76.8722 747.516 77.1038 747.766 77.5647C748.015 78.0264 748.14 78.6845 748.14 79.5376C748.14 80.3914 748.015 81.051 747.766 81.5149C747.516 81.9795 747.159 82.2119 746.695 82.2119Z" fill="white"/>
<path d="M759.271 82.8949V80.5515C759.417 80.7951 759.62 80.9885 759.881 81.1305C760.16 81.2769 760.472 81.3504 760.787 81.3441C761.188 81.3441 761.544 81.2455 761.854 81.0483C762.167 80.8482 762.421 80.5685 762.59 80.2378C762.77 79.8957 762.861 79.5035 762.861 79.062C762.861 78.6265 762.773 78.2358 762.599 77.8907C762.438 77.5603 762.192 77.2791 761.885 77.0764C761.573 76.8761 761.209 76.7728 760.839 76.7799C760.509 76.7763 760.185 76.8653 759.903 77.0369C759.622 77.2087 759.408 77.4358 759.263 77.7204V76.9188H758.601V82.8949H759.271ZM760.691 80.7607C760.375 80.7653 760.065 80.6655 759.811 80.4768C759.558 80.2913 759.369 80.0311 759.271 79.7328V79.1838C759.271 78.8237 759.335 78.5077 759.463 78.2351C759.577 77.9785 759.758 77.7571 759.986 77.5941C760.208 77.4398 760.473 77.3591 760.744 77.3633C761.022 77.3633 761.268 77.4358 761.479 77.5814C761.691 77.7263 761.857 77.9265 761.976 78.182C762.096 78.4375 762.155 78.7311 762.155 79.062C762.155 79.3929 762.093 79.6865 761.967 79.942C761.842 80.1975 761.671 80.3977 761.453 80.5426C761.227 80.6904 760.961 80.7664 760.691 80.7607ZM764.202 81.2052L765.43 79.3929L766.658 81.2052H767.46L765.866 78.9836L767.303 76.9188H766.537L765.43 78.5921L764.341 76.9188H763.557L765.003 78.9836L763.409 81.2052H764.201H764.202Z" fill="#7C7C7C"/>
<path d="M772.373 66.7683H725.915C725.438 66.7682 724.966 66.8621 724.526 67.0444C724.085 67.2268 723.685 67.4941 723.348 67.8312C723.011 68.1683 722.743 68.5684 722.561 69.0089C722.379 69.4493 722.285 69.9213 722.285 70.3981V87.8199C722.285 88.2966 722.379 88.7687 722.561 89.2091C722.743 89.6495 723.011 90.0497 723.348 90.3868C723.685 90.7238 724.085 90.9912 724.526 91.1735C724.966 91.3559 725.438 91.4497 725.915 91.4496H772.373C772.849 91.4496 773.321 91.3557 773.762 91.1733C774.202 90.9908 774.602 90.7234 774.939 90.3862C775.277 90.0491 775.544 89.6489 775.726 89.2084C775.909 88.7679 776.002 88.2959 776.002 87.8191V70.3988C776.002 69.4362 775.62 68.5129 774.939 67.8322C774.258 67.1515 773.335 66.7691 772.373 66.7691V66.7683ZM725.915 68.2205H772.373C772.95 68.2205 773.504 68.45 773.912 68.8583C774.321 69.2667 774.55 69.8206 774.55 70.3981V87.8199C774.55 88.3974 774.321 88.9513 773.912 89.3596C773.504 89.768 772.95 89.9974 772.373 89.9974H725.915C725.629 89.9975 725.346 89.9413 725.082 89.8319C724.817 89.7225 724.577 89.5621 724.375 89.3599C724.173 89.1577 724.012 88.9176 723.903 88.6534C723.793 88.3891 723.737 88.1059 723.737 87.8199V70.3981C723.737 70.1121 723.793 69.8288 723.903 69.5646C724.012 69.3004 724.173 69.0603 724.375 68.8581C724.577 68.6558 724.817 68.4955 725.082 68.3861C725.346 68.2767 725.629 68.2204 725.915 68.2205Z" fill="#E5E5E5"/>
</svg>
