<svg width="71" height="272" viewBox="0 0 71 272" fill="none" xmlns="http://www.w3.org/2000/svg">
<rect x="0.559167" y="-0.559167" width="68.1187" height="269.12" rx="34.0594" transform="matrix(-1 0 0 1 70.1188 2)" fill="#161619" stroke="#41434E" stroke-width="1.11833"/>
<circle cx="35.5" cy="88.5" r="19.5" fill="#1B73F0"/>
<path fill-rule="evenodd" clip-rule="evenodd" d="M27.5261 216.904C28.8095 216.25 30.4897 216.25 33.85 216.25L36.15 216.25C39.5103 216.25 41.1905 216.25 42.4739 216.904C43.6029 217.479 44.5208 218.397 45.096 219.526C45.75 220.81 45.75 222.49 45.75 225.85L45.75 228.15C45.75 231.51 45.75 233.19 45.096 234.474C44.5208 235.603 43.6029 236.521 42.4739 237.096C41.1905 237.75 39.5103 237.75 36.15 237.75L33.85 237.75C30.4897 237.75 28.8095 237.75 27.5261 237.096C26.3971 236.521 25.4792 235.603 24.904 234.474C24.25 233.19 24.25 231.51 24.25 228.15L24.25 225.85C24.25 222.49 24.25 220.81 24.904 219.526C25.4792 218.397 26.3971 217.479 27.5261 216.904ZM30.75 223C30.75 222.586 30.4142 222.25 30 222.25C29.5858 222.25 29.25 222.586 29.25 223L29.25 231C29.25 231.414 29.5858 231.75 30 231.75C30.4142 231.75 30.75 231.414 30.75 231L30.75 223ZM40.75 224C40.75 223.586 40.4142 223.25 40 223.25C39.5858 223.25 39.25 223.586 39.25 224L39.25 231C39.25 231.414 39.5858 231.75 40 231.75C40.4142 231.75 40.75 231.414 40.75 231L40.75 224ZM35.75 226C35.75 225.586 35.4142 225.25 35 225.25C34.5858 225.25 34.25 225.586 34.25 226L34.25 231C34.25 231.414 34.5858 231.75 35 231.75C35.4142 231.75 35.75 231.414 35.75 231L35.75 226Z" fill="#B0B0B0"/>
<path d="M25.25 175.777C25.25 175.432 25.25 175.259 25.3012 175.105C25.3465 174.969 25.4206 174.844 25.5183 174.739C25.6288 174.621 25.7805 174.538 26.0838 174.373L28.8838 172.845C29.6632 172.42 30.0529 172.208 30.3714 172.247C30.6494 172.281 30.9003 172.43 31.0633 172.657C31.25 172.918 31.25 173.362 31.25 174.25V189.041C31.25 189.386 31.25 189.559 31.1988 189.713C31.1535 189.849 31.0794 189.974 30.9817 190.079C30.8712 190.197 30.7195 190.28 30.4162 190.445L27.6162 191.973C26.8368 192.398 26.4471 192.61 26.1286 192.571C25.8506 192.537 25.5997 192.388 25.4367 192.161C25.25 191.9 25.25 191.456 25.25 190.568V175.777Z" fill="#B0B0B0"/>
<path d="M39.25 190.12C39.25 190.918 39.25 191.317 39.0822 191.568C38.9355 191.789 38.7075 191.942 38.4481 191.994C38.1515 192.054 37.7824 191.903 37.0442 191.601L33.7442 190.251C33.385 190.104 33.2055 190.031 33.0735 189.909C32.9568 189.802 32.8673 189.669 32.8123 189.52C32.75 189.352 32.75 189.158 32.75 188.77V173.88C32.75 173.082 32.75 172.683 32.9178 172.432C33.0645 172.211 33.2925 172.058 33.5519 172.006C33.8485 171.946 34.2176 172.097 34.9558 172.399L38.2558 173.749C38.615 173.896 38.7945 173.969 38.9265 174.091C39.0432 174.198 39.1327 174.331 39.1877 174.48C39.25 174.648 39.25 174.842 39.25 175.23V190.12Z" fill="#B0B0B0"/>
<path d="M40.75 189.75C40.75 190.638 40.75 191.082 40.9367 191.343C41.0997 191.57 41.3506 191.719 41.6286 191.753C41.9471 191.792 42.3368 191.58 43.1162 191.155L45.9162 189.627C46.2195 189.462 46.3712 189.379 46.4817 189.26C46.5794 189.156 46.6535 189.031 46.6988 188.895C46.75 188.741 46.75 188.568 46.75 188.223V173.432C46.75 172.544 46.75 172.1 46.5633 171.839C46.4003 171.611 46.1494 171.463 45.8714 171.429C45.5529 171.39 45.1632 171.602 44.3838 172.027L41.5838 173.554C41.2805 173.72 41.1288 173.803 41.0183 173.921C40.9206 174.026 40.8465 174.151 40.8012 174.287C40.75 174.441 40.75 174.614 40.75 174.959V189.75Z" fill="#B0B0B0"/>
<path fill-rule="evenodd" clip-rule="evenodd" d="M31.9315 124.489C32.8231 124.25 33.8821 124.25 36.0001 124.25C38.118 124.25 39.177 124.25 40.0686 124.489C42.228 125.069 43.9806 126.645 44.7851 128.731C45.1172 129.592 45.2291 130.646 45.4529 132.752L45.6893 134.977C45.9859 137.769 46.1343 139.164 45.8779 140.296C45.3407 142.668 43.6113 144.591 41.3098 145.375C40.2114 145.75 38.8076 145.75 36.0001 145.75C33.1925 145.75 31.7887 145.75 30.6903 145.375C28.3888 144.591 26.6594 142.668 26.1222 140.296C25.8659 139.164 26.0142 137.769 26.3108 134.977L26.5472 132.752C26.771 130.646 26.8829 129.592 27.215 128.731C28.0195 126.645 29.7721 125.069 31.9315 124.489ZM33.7502 132C33.7502 133.243 34.7576 134.25 36.0002 134.25C37.2429 134.25 38.2502 133.243 38.2502 132V130C38.2502 129.586 38.586 129.25 39.0002 129.25C39.4144 129.25 39.7502 129.586 39.7502 130V132C39.7502 134.071 38.0713 135.75 36.0002 135.75C33.9292 135.75 32.2502 134.071 32.2502 132V130C32.2502 129.586 32.586 129.25 33.0002 129.25C33.4144 129.25 33.7502 129.586 33.7502 130V132Z" fill="#B0B0B0"/>
<path fill-rule="evenodd" clip-rule="evenodd" d="M42.7506 78.8059C41.5545 78.1964 39.9887 78.1964 36.857 78.1964H34.1717C31.0401 78.1964 29.4742 78.1964 28.2781 78.8059C27.226 79.342 26.3706 80.1974 25.8345 81.2495C25.225 82.4456 25.225 84.0115 25.225 87.1431V89.8284C25.225 92.9601 25.225 94.5259 25.8345 95.722C26.3706 96.7741 27.226 97.6296 28.2781 98.1656C29.4742 98.7751 31.0401 98.7751 34.1717 98.7751H36.857C39.9887 98.7751 41.5545 98.7751 42.7506 98.1656C43.8027 97.6296 44.6582 96.7741 45.1943 95.722C45.8037 94.5259 45.8037 92.9601 45.8037 89.8284V87.1431C45.8037 84.0115 45.8037 82.4456 45.1943 81.2495C44.6582 80.1974 43.8027 79.342 42.7506 78.8059ZM38.7047 81.9041L38.7509 81.9041C38.939 81.9039 39.1176 81.9038 39.28 81.928C40.2285 82.0696 40.9732 82.8143 41.1148 83.7628C41.139 83.9253 41.1389 84.1038 41.1387 84.2919L41.1387 84.3381V84.6572C41.1387 85.1204 40.7632 85.4959 40.3 85.4959C39.8367 85.4959 39.4612 85.1204 39.4612 84.6572V84.3381C39.4612 84.0726 39.4589 84.032 39.4557 84.0106C39.423 83.7917 39.2512 83.6198 39.0323 83.5871C39.0108 83.5839 38.9702 83.5816 38.7047 83.5816H36.353V93.3899H38.3857C38.8489 93.3899 39.2244 93.7654 39.2244 94.2287C39.2244 94.6919 38.8489 95.0674 38.3857 95.0674H35.5142H32.6428C32.1795 95.0674 31.804 94.6919 31.804 94.2287C31.804 93.7654 32.1795 93.3899 32.6428 93.3899H34.6755V83.5816H32.3237C32.0582 83.5816 32.0176 83.5839 31.9962 83.5871C31.7773 83.6198 31.6054 83.7917 31.5727 84.0106C31.5695 84.032 31.5672 84.0726 31.5672 84.3381V84.6572C31.5672 85.1204 31.1917 85.4959 30.7285 85.4959C30.2652 85.4959 29.8897 85.1204 29.8897 84.6572V84.3381L29.8897 84.2919V84.2919C29.8895 84.1038 29.8894 83.9252 29.9136 83.7628C30.0552 82.8143 30.7999 82.0696 31.7484 81.928C31.9108 81.9038 32.0894 81.9039 32.2775 81.9041L32.3237 81.9041H35.5142H38.7047Z" fill="white"/>
<path fill-rule="evenodd" clip-rule="evenodd" d="M29.4186 30C27.166 30 26.0397 30 25.184 30.436C24.4314 30.8195 23.8195 31.4314 23.436 32.184C23 33.0397 23 34.1598 23 36.4V47.6C23 49.8402 23 50.9603 23.436 51.816C23.8195 52.5686 24.4314 53.1805 25.184 53.564C26.0397 54 27.1598 54 29.4 54H30.533L30.5349 54L34.7705 54C35.1439 54 35.3306 54 35.4732 53.9273C35.5986 53.8634 35.7006 53.7614 35.7645 53.636C35.8372 53.4934 35.8372 53.3067 35.8372 52.9333V36.4C35.8372 34.1598 35.8372 33.0397 35.4012 32.184C35.0177 31.4314 34.4058 30.8195 33.6532 30.436C32.7975 30 31.6712 30 29.4186 30V30ZM30.5349 47.5814C30.5349 48.1979 30.0351 48.6977 29.4186 48.6977C28.8021 48.6977 28.3023 48.1979 28.3023 47.5814C28.3023 46.9649 28.8021 46.4651 29.4186 46.4651C30.0351 46.4651 30.5349 46.9649 30.5349 47.5814Z" fill="#B0B0B0"/>
<path d="M37.9342 32.2998C37.6636 32.5704 37.5116 32.9374 37.5116 33.32V49.3131C39.3887 47.0052 41.1858 44.3365 43.1442 41.8949C44.0093 40.8164 44.4418 40.2772 44.6139 39.9589C45.416 38.4752 45.3445 37.1688 44.3851 35.7815C44.1793 35.4839 43.7833 35.0879 42.9913 34.296L40.9948 32.2997C40.1496 31.4546 38.7793 31.4547 37.9342 32.2998V32.2998Z" fill="#B0B0B0"/>
<path d="M45.9173 42.2791C45.5918 42.2791 45.2836 42.4255 45.078 42.6778L37.5116 51.9639V52.9457C37.5116 53.3074 37.5116 53.4882 37.5799 53.6273C37.6449 53.7596 37.752 53.8667 37.8843 53.9317C38.0234 54 38.2042 54 38.5659 54H41.1395C41.629 54 41.8738 54 42.0803 53.9839C44.6995 53.7802 46.7802 51.6995 46.9839 49.0803C47 48.8738 47 48.629 47 48.1395V43.3617C47 42.7638 46.5153 42.2791 45.9173 42.2791V42.2791Z" fill="#B0B0B0"/>
</svg>
