<svg width="71" height="272" viewBox="0 0 71 272" fill="none" xmlns="http://www.w3.org/2000/svg">
<rect x="0.559167" y="-0.559167" width="68.1187" height="269.12" rx="34.0594" transform="matrix(-1 0 0 1 70.1188 2)" fill="#161619" stroke="#41434E" stroke-width="1.11833"/>
<path fill-rule="evenodd" clip-rule="evenodd" d="M33.5681 217.269C33.77 217.425 33.948 217.655 34.3042 218.115L34.727 218.661C35.0285 219.05 35.5076 219.25 36 219.25C36.4924 219.25 36.9716 219.05 37.2732 218.661L37.6959 218.115C38.052 217.655 38.23 217.426 38.4318 217.27C38.9302 216.884 39.581 216.756 40.1882 216.924C40.434 216.992 40.6858 217.138 41.1893 217.428L42.5625 218.221C43.0643 218.511 43.3152 218.656 43.4965 218.834C43.9469 219.276 44.162 219.905 44.0769 220.531C44.0426 220.782 43.933 221.051 43.7137 221.587L43.7137 221.587L43.4522 222.227C43.2657 222.683 43.3315 223.197 43.5784 223.624C43.825 224.05 44.2387 224.367 44.7265 224.433L45.4104 224.526C45.985 224.605 46.2722 224.644 46.5076 224.74C47.0915 224.979 47.5284 225.48 47.6863 226.091C47.75 226.337 47.75 226.627 47.75 227.207V228.794C47.75 229.373 47.75 229.663 47.6863 229.91C47.5284 230.52 47.0915 231.021 46.5077 231.26C46.2723 231.356 45.985 231.395 45.4104 231.474L45.4104 231.474L44.7265 231.567C44.2387 231.634 43.825 231.95 43.5784 232.377C43.3315 232.803 43.2657 233.317 43.4523 233.774L43.7137 234.413L43.7137 234.413C43.933 234.95 44.0426 235.218 44.0769 235.47C44.162 236.095 43.9469 236.724 43.4966 237.166C43.3152 237.344 43.0644 237.489 42.5626 237.779L42.5626 237.779L41.1892 238.572C40.6858 238.862 40.434 239.008 40.1883 239.076C39.5811 239.244 38.9302 239.116 38.4318 238.731C38.23 238.575 38.052 238.345 37.6959 237.885L37.2733 237.34C36.9717 236.95 36.4925 236.75 36 236.75C35.5076 236.75 35.0284 236.95 34.7269 237.34L34.3041 237.885C33.948 238.345 33.77 238.575 33.5681 238.731C33.0697 239.116 32.419 239.244 31.8118 239.076C31.566 239.008 31.3142 238.863 30.8107 238.572L30.8106 238.572L29.4375 237.779C28.9357 237.489 28.6847 237.344 28.5034 237.166C28.0531 236.724 27.838 236.095 27.9231 235.47C27.9574 235.218 28.067 234.95 28.2863 234.413L28.5478 233.774C28.7343 233.317 28.6686 232.803 28.4216 232.377C28.175 231.95 27.7613 231.634 27.2735 231.567L26.5896 231.474C26.015 231.395 25.7277 231.356 25.4923 231.26C24.9085 231.021 24.4716 230.52 24.3137 229.91C24.25 229.663 24.25 229.373 24.25 228.794V227.207C24.25 226.627 24.25 226.337 24.3137 226.091C24.4716 225.48 24.9085 224.979 25.4924 224.74C25.7278 224.644 26.015 224.605 26.5896 224.526L27.2734 224.433C27.7613 224.367 28.175 224.05 28.4216 223.624C28.6686 223.197 28.7344 222.683 28.5478 222.226L28.2863 221.587C28.0671 221.05 27.9574 220.782 27.9231 220.53C27.838 219.905 28.0531 219.276 28.5034 218.834C28.6848 218.656 28.9357 218.511 29.4375 218.221L30.8106 217.428C31.3142 217.138 31.5661 216.992 31.8119 216.924C32.419 216.756 33.0697 216.884 33.5681 217.269ZM35.9999 231C37.6568 231 38.9999 229.657 38.9999 228C38.9999 226.343 37.6568 225 35.9999 225C34.3431 225 32.9999 226.343 32.9999 228C32.9999 229.657 34.3431 231 35.9999 231Z" fill="#B0B0B0"/>
<g clip-path="url(#clip0_803_18074)">
<path fill-rule="evenodd" clip-rule="evenodd" d="M45.2817 175.799C45.3601 175.355 45.3993 175.133 45.3812 175.021C45.3095 174.577 44.831 174.328 44.4267 174.524C44.3245 174.573 44.165 174.733 43.8459 175.052L40.3531 178.545C40.0728 178.825 39.6182 178.825 39.3379 178.545V178.545C39.0576 178.264 39.0576 177.81 39.3379 177.529L42.8302 174.037C43.1491 173.718 43.3085 173.559 43.3579 173.457C43.5536 173.052 43.3043 172.574 42.8608 172.502C42.7489 172.484 42.5269 172.523 42.0827 172.602L33.1197 174.183C32.7351 174.251 32.5428 174.285 32.3754 174.325C29.9874 174.9 28.2541 176.966 28.103 179.418C28.0924 179.59 28.0924 179.785 28.0924 180.175V180.175C28.0924 180.336 28.0924 180.416 28.0951 180.494C28.1324 181.572 28.5585 182.601 29.2948 183.39C29.3476 183.447 29.4044 183.504 29.5179 183.617L34.2646 188.365C34.3783 188.478 34.4351 188.535 34.4918 188.588C35.281 189.324 36.3098 189.751 37.3886 189.788C37.4661 189.791 37.5464 189.791 37.7072 189.791V189.791C38.0982 189.791 38.2936 189.791 38.4656 189.78C40.917 189.629 42.9827 187.896 43.5576 185.508C43.5979 185.34 43.6319 185.148 43.6999 184.763L45.2817 175.799ZM34.5522 181.416C34.5522 182.473 35.4093 183.33 36.4665 183.33C37.5238 183.33 38.3808 182.473 38.3808 181.416C38.3808 180.358 37.5238 179.501 36.4665 179.501C35.4093 179.501 34.5522 180.358 34.5522 181.416Z" fill="#B0B0B0"/>
<path d="M28.1214 183.54C27.4446 182.863 26.3473 182.863 25.6705 183.54V183.54C24.9937 184.217 24.9937 185.314 25.6705 185.991L32.3706 192.691C33.0474 193.368 34.1447 193.368 34.8214 192.691V192.691C35.4982 192.014 35.4982 190.917 34.8214 190.24L28.1214 183.54Z" fill="#B0B0B0"/>
</g>
<path fill-rule="evenodd" clip-rule="evenodd" d="M35.5075 100.775C38.8448 100.775 40.5134 100.775 41.8165 100.195C43.331 99.5206 44.5421 98.3094 45.2166 96.795C45.7969 95.4918 45.7969 93.8232 45.7969 90.4859V90.4859C45.7969 87.1487 45.7969 85.4801 45.2166 84.1769C44.5421 82.6625 43.331 81.4513 41.8165 80.7769C40.5134 80.1966 38.8448 80.1966 35.5075 80.1966V80.1966C32.1703 80.1966 30.5017 80.1966 29.1985 80.7769C27.6841 81.4513 26.4729 82.6625 25.7985 84.1769C25.2182 85.4801 25.2182 87.1487 25.2182 90.4859V90.4859C25.2182 93.8232 25.2182 95.4918 25.7985 96.795C26.4729 98.3094 27.6841 99.5206 29.1985 100.195C30.5017 100.775 32.1703 100.775 35.5075 100.775V100.775ZM31.6789 88.5716C30.6217 88.5716 29.7646 87.7146 29.7646 86.6573C29.7646 85.6001 30.6217 84.7431 31.6789 84.7431C32.7362 84.7431 33.5932 85.6001 33.5932 86.6573C33.5932 87.7146 32.7362 88.5716 31.6789 88.5716ZM32.0771 94.5333C31.5642 94.0204 31.3078 93.7639 31.039 93.6131C30.359 93.2313 29.5292 93.2313 28.8492 93.6131C28.5804 93.7639 28.324 94.0204 27.8111 94.5333L27.642 94.7024C27.4768 94.8676 27.3942 94.9502 27.3209 95.0764C27.2241 95.2432 27.1566 95.551 27.1748 95.743C27.1885 95.8883 27.2139 95.9571 27.2647 96.0946C27.6598 97.1646 28.468 98.0497 29.5063 98.5787C29.9631 98.8114 30.5323 98.9518 31.4307 99.0252C32.3403 99.0995 33.5007 99.1003 35.1247 99.1003H35.8904C37.5144 99.1003 38.6748 99.0995 39.5844 99.0252C40.4828 98.9518 41.052 98.8114 41.5088 98.5787C42.2498 98.2011 42.9252 97.61 43.3786 96.8922C43.505 96.692 43.5682 96.592 43.6044 96.3655C43.6298 96.2068 43.5981 95.9222 43.5384 95.7731C43.4531 95.5601 43.3248 95.4318 43.068 95.175L40.8724 92.9794C39.9984 92.1054 39.5614 91.6684 39.0564 91.5018C38.6121 91.3553 38.133 91.3517 37.6866 91.4917C37.1793 91.6508 36.7358 92.0813 35.849 92.9423L34.1942 94.5489C33.9374 94.7982 33.8091 94.9228 33.6751 94.9959C33.3361 95.1808 32.9258 95.1778 32.5896 94.9879C32.4567 94.9129 32.3301 94.7863 32.0771 94.5333V94.5333Z" fill="#B0B0B0"/>
<path d="M41.3235 126.138C42.8894 126.138 43.6723 126.138 44.2703 126.443C44.7964 126.711 45.2241 127.138 45.4921 127.665C45.7969 128.263 45.7969 129.046 45.7969 130.611V142.243C45.7969 143.809 45.7969 144.592 45.4921 145.19C45.2241 145.716 44.7964 146.144 44.2703 146.412C43.6723 146.717 42.8894 146.717 41.3235 146.717H41.1773C39.6115 146.717 38.8286 146.717 38.2305 146.412C37.7044 146.144 37.2767 145.716 37.0087 145.19C36.704 144.592 36.704 143.809 36.704 142.243V130.611C36.704 129.046 36.704 128.263 37.0087 127.665C37.2767 127.138 37.7044 126.711 38.2305 126.443C38.8286 126.138 39.6115 126.138 41.1773 126.138H41.3235Z" fill="#B0B0B0"/>
<path d="M34.3111 130.611C34.3111 129.046 34.3111 128.263 34.0064 127.665C33.7383 127.138 33.3106 126.711 32.7845 126.443C32.1865 126.138 31.4036 126.138 29.8378 126.138H29.6915C28.1257 126.138 27.3428 126.138 26.7447 126.443C26.2187 126.711 25.791 127.138 25.5229 127.665C25.2182 128.263 25.2182 129.046 25.2182 130.611V130.758C25.2182 132.323 25.2182 133.106 25.5229 133.704C25.791 134.23 26.2187 134.658 26.7447 134.926C27.3428 135.231 28.1257 135.231 29.6915 135.231H29.8378C31.4036 135.231 32.1865 135.231 32.7845 134.926C33.3106 134.658 33.7383 134.23 34.0064 133.704C34.3111 133.106 34.3111 132.323 34.3111 130.758V130.611Z" fill="#B0B0B0"/>
<path d="M29.8378 137.624C31.4036 137.624 32.1865 137.624 32.7845 137.929C33.3106 138.197 33.7383 138.624 34.0064 139.15C34.3111 139.748 34.3111 140.531 34.3111 142.097V142.243C34.3111 143.809 34.3111 144.592 34.0064 145.19C33.7383 145.716 33.3106 146.144 32.7845 146.412C32.1865 146.717 31.4036 146.717 29.8378 146.717H29.6915C28.1257 146.717 27.3428 146.717 26.7447 146.412C26.2187 146.144 25.791 145.716 25.5229 145.19C25.2182 144.592 25.2182 143.809 25.2182 142.243V142.097C25.2182 140.531 25.2182 139.748 25.5229 139.15C25.791 138.624 26.2187 138.197 26.7447 137.929C27.3428 137.624 28.1257 137.624 29.6915 137.624H29.8378Z" fill="#B0B0B0"/>
<path fill-rule="evenodd" clip-rule="evenodd" d="M45.8027 44.1158C45.8027 38.4332 41.196 33.8265 35.5134 33.8265C29.8307 33.8265 25.224 38.4332 25.224 44.1158C25.224 49.7985 29.8307 54.4052 35.5134 54.4052C41.196 54.4052 45.8027 49.7985 45.8027 44.1158ZM34.6744 40.2872C34.6744 39.824 35.0499 39.4485 35.5131 39.4485C35.9764 39.4485 36.3519 39.824 36.3519 40.2872V43.2771H39.3417C39.805 43.2771 40.1805 43.6526 40.1805 44.1158C40.1805 44.5791 39.805 44.9546 39.3417 44.9546H36.3519V47.9444C36.3519 48.4076 35.9764 48.7832 35.5131 48.7832C35.0499 48.7832 34.6744 48.4076 34.6744 47.9444V44.9546H31.6845C31.2213 44.9546 30.8458 44.5791 30.8458 44.1158C30.8458 43.6526 31.2213 43.2771 31.6845 43.2771H34.6744V40.2872Z" fill="#B0B0B0"/>
<defs>
<clipPath id="clip0_803_18074">
<rect width="22.9716" height="22.9716" fill="white" transform="matrix(-1 0 0 1 46.9951 170.887)"/>
</clipPath>
</defs>
</svg>
