<svg width="170" height="114" viewBox="0 0 170 114" fill="none" xmlns="http://www.w3.org/2000/svg">
<rect x="20.4408" y="16.4408" width="129.118" height="81.1183" fill="#161619" stroke="#41434E" stroke-width="1.11833"/>
<rect x="0.5" y="0.5" width="169" height="113" stroke="#0FF1FF"/>
<path d="M130.69 83.091C130.083 83.091 129.537 82.987 129.052 82.779C128.566 82.5623 128.185 82.259 127.908 81.869C127.63 81.479 127.492 81.024 127.492 80.504H129.078C129.112 80.894 129.264 81.2147 129.533 81.466C129.81 81.7173 130.196 81.843 130.69 81.843C131.201 81.843 131.6 81.7217 131.886 81.479C132.172 81.2277 132.315 80.907 132.315 80.517C132.315 80.2137 132.224 79.9667 132.042 79.776C131.868 79.5853 131.647 79.438 131.379 79.334C131.119 79.23 130.755 79.1173 130.287 78.996C129.697 78.84 129.216 78.684 128.844 78.528C128.48 78.3633 128.168 78.112 127.908 77.774C127.648 77.436 127.518 76.9853 127.518 76.422C127.518 75.902 127.648 75.447 127.908 75.057C128.168 74.667 128.532 74.368 129 74.16C129.468 73.952 130.009 73.848 130.625 73.848C131.5 73.848 132.215 74.069 132.77 74.511C133.333 74.9443 133.645 75.5423 133.706 76.305H132.068C132.042 75.9757 131.886 75.694 131.6 75.46C131.314 75.226 130.937 75.109 130.469 75.109C130.044 75.109 129.697 75.2173 129.429 75.434C129.16 75.6507 129.026 75.9627 129.026 76.37C129.026 76.6473 129.108 76.877 129.273 77.059C129.446 77.2323 129.663 77.371 129.923 77.475C130.183 77.579 130.538 77.6917 130.989 77.813C131.587 77.9777 132.072 78.1423 132.445 78.307C132.826 78.4717 133.147 78.7273 133.407 79.074C133.675 79.412 133.81 79.867 133.81 80.439C133.81 80.8983 133.684 81.3317 133.433 81.739C133.19 82.1463 132.83 82.4757 132.354 82.727C131.886 82.9697 131.331 83.091 130.69 83.091Z" fill="white"/>
<path d="M126.212 73.965V75.174H123.807V83H122.325V75.174H119.907V73.965H126.212Z" fill="white"/>
<path d="M109.826 78.463C109.826 77.579 110.03 76.786 110.437 76.084C110.853 75.382 111.412 74.836 112.114 74.446C112.825 74.0473 113.601 73.848 114.441 73.848C115.403 73.848 116.257 74.0863 117.002 74.563C117.756 75.031 118.302 75.6983 118.64 76.565H116.859C116.625 76.0883 116.3 75.733 115.884 75.499C115.468 75.265 114.987 75.148 114.441 75.148C113.843 75.148 113.31 75.2823 112.842 75.551C112.374 75.8197 112.006 76.2053 111.737 76.708C111.477 77.2107 111.347 77.7957 111.347 78.463C111.347 79.1303 111.477 79.7153 111.737 80.218C112.006 80.7207 112.374 81.1107 112.842 81.388C113.31 81.6567 113.843 81.791 114.441 81.791C114.987 81.791 115.468 81.674 115.884 81.44C116.3 81.206 116.625 80.8507 116.859 80.374H118.64C118.302 81.2407 117.756 81.908 117.002 82.376C116.257 82.844 115.403 83.078 114.441 83.078C113.592 83.078 112.816 82.883 112.114 82.493C111.412 82.0943 110.853 81.544 110.437 80.842C110.03 80.14 109.826 79.347 109.826 78.463Z" fill="white"/>
<path d="M102.814 73.965V79.724C102.814 80.4087 102.991 80.9243 103.347 81.271C103.711 81.6177 104.213 81.791 104.855 81.791C105.505 81.791 106.007 81.6177 106.363 81.271C106.727 80.9243 106.909 80.4087 106.909 79.724V73.965H108.391V79.698C108.391 80.4347 108.23 81.0587 107.91 81.57C107.589 82.0813 107.16 82.4627 106.623 82.714C106.085 82.9653 105.492 83.091 104.842 83.091C104.192 83.091 103.598 82.9653 103.061 82.714C102.532 82.4627 102.112 82.0813 101.8 81.57C101.488 81.0587 101.332 80.4347 101.332 79.698V73.965H102.814Z" fill="white"/>
<path d="M95.0789 73.965C96.0409 73.965 96.8816 74.1513 97.6009 74.524C98.3289 74.888 98.8879 75.4167 99.2779 76.11C99.6766 76.7947 99.8759 77.5963 99.8759 78.515C99.8759 79.4337 99.6766 80.231 99.2779 80.907C98.8879 81.583 98.3289 82.103 97.6009 82.467C96.8816 82.8223 96.0409 83 95.0789 83H92.1279V73.965H95.0789ZM95.0789 81.791C96.1363 81.791 96.9466 81.505 97.5099 80.933C98.0733 80.361 98.3549 79.555 98.3549 78.515C98.3549 77.4663 98.0733 76.6473 97.5099 76.058C96.9466 75.4687 96.1363 75.174 95.0789 75.174H93.6099V81.791H95.0789Z" fill="white"/>
<path d="M86.0545 83.091C85.2138 83.091 84.4381 82.896 83.7275 82.506C83.0255 82.1073 82.4665 81.557 82.0505 80.855C81.6431 80.1443 81.4395 79.347 81.4395 78.463C81.4395 77.579 81.6431 76.786 82.0505 76.084C82.4665 75.382 83.0255 74.836 83.7275 74.446C84.4381 74.0473 85.2138 73.848 86.0545 73.848C86.9038 73.848 87.6795 74.0473 88.3815 74.446C89.0921 74.836 89.6511 75.382 90.0585 76.084C90.4658 76.786 90.6695 77.579 90.6695 78.463C90.6695 79.347 90.4658 80.1443 90.0585 80.855C89.6511 81.557 89.0921 82.1073 88.3815 82.506C87.6795 82.896 86.9038 83.091 86.0545 83.091ZM86.0545 81.804C86.6525 81.804 87.1855 81.6697 87.6535 81.401C88.1215 81.1237 88.4855 80.7337 88.7455 80.231C89.0141 79.7197 89.1485 79.1303 89.1485 78.463C89.1485 77.7957 89.0141 77.2107 88.7455 76.708C88.4855 76.2053 88.1215 75.8197 87.6535 75.551C87.1855 75.2823 86.6525 75.148 86.0545 75.148C85.4565 75.148 84.9235 75.2823 84.4555 75.551C83.9875 75.8197 83.6191 76.2053 83.3505 76.708C83.0905 77.2107 82.9605 77.7957 82.9605 78.463C82.9605 79.1303 83.0905 79.7197 83.3505 80.231C83.6191 80.7337 83.9875 81.1237 84.4555 81.401C84.9235 81.6697 85.4565 81.804 86.0545 81.804Z" fill="white"/>
<path d="M78.4127 83L76.3327 79.386H75.2017V83H73.7197V73.965H76.8397C77.5331 73.965 78.1181 74.0863 78.5947 74.329C79.0801 74.5717 79.4397 74.8967 79.6737 75.304C79.9164 75.7113 80.0377 76.1663 80.0377 76.669C80.0377 77.2583 79.8644 77.7957 79.5177 78.281C79.1797 78.7577 78.6554 79.0827 77.9447 79.256L80.1807 83H78.4127ZM75.2017 78.203H76.8397C77.3944 78.203 77.8104 78.0643 78.0877 77.787C78.3737 77.5097 78.5167 77.137 78.5167 76.669C78.5167 76.201 78.3781 75.837 78.1007 75.577C77.8234 75.3083 77.4031 75.174 76.8397 75.174H75.2017V78.203Z" fill="white"/>
<path d="M72.3063 76.656C72.3063 77.1153 72.1979 77.5487 71.9813 77.956C71.7646 78.3633 71.4179 78.697 70.9413 78.957C70.4646 79.2083 69.8536 79.334 69.1083 79.334H67.4703V83H65.9883V73.965H69.1083C69.8016 73.965 70.3866 74.0863 70.8633 74.329C71.3486 74.563 71.7083 74.8837 71.9423 75.291C72.1849 75.6983 72.3063 76.1533 72.3063 76.656ZM69.1083 78.125C69.6716 78.125 70.0919 77.9993 70.3693 77.748C70.6466 77.488 70.7853 77.124 70.7853 76.656C70.7853 75.668 70.2263 75.174 69.1083 75.174H67.4703V78.125H69.1083Z" fill="white"/>
<path d="M58.317 81.804H61.372V83H56.835V73.965H58.317V81.804Z" fill="white"/>
<path d="M52.5406 81.804H55.5956V83H51.0586V73.965H52.5406V81.804Z" fill="white"/>
<path d="M45.7232 75.161V77.813H48.8432V79.022H45.7232V81.791H49.2332V83H44.2412V73.952H49.2332V75.161H45.7232Z" fill="white"/>
<path d="M39.3723 83.091C38.7656 83.091 38.2196 82.987 37.7343 82.779C37.249 82.5623 36.8676 82.259 36.5903 81.869C36.313 81.479 36.1743 81.024 36.1743 80.504H37.7603C37.795 80.894 37.9466 81.2147 38.2153 81.466C38.4926 81.7173 38.8783 81.843 39.3723 81.843C39.8836 81.843 40.2823 81.7217 40.5683 81.479C40.8543 81.2277 40.9973 80.907 40.9973 80.517C40.9973 80.2137 40.9063 79.9667 40.7243 79.776C40.551 79.5853 40.33 79.438 40.0613 79.334C39.8013 79.23 39.4373 79.1173 38.9693 78.996C38.38 78.84 37.899 78.684 37.5263 78.528C37.1623 78.3633 36.8503 78.112 36.5903 77.774C36.3303 77.436 36.2003 76.9853 36.2003 76.422C36.2003 75.902 36.3303 75.447 36.5903 75.057C36.8503 74.667 37.2143 74.368 37.6823 74.16C38.1503 73.952 38.692 73.848 39.3073 73.848C40.1826 73.848 40.8976 74.069 41.4523 74.511C42.0156 74.9443 42.3277 75.5423 42.3883 76.305H40.7503C40.7243 75.9757 40.5683 75.694 40.2823 75.46C39.9963 75.226 39.6193 75.109 39.1513 75.109C38.7266 75.109 38.38 75.2173 38.1113 75.434C37.8426 75.6507 37.7083 75.9627 37.7083 76.37C37.7083 76.6473 37.7906 76.877 37.9553 77.059C38.1286 77.2323 38.3453 77.371 38.6053 77.475C38.8653 77.579 39.2206 77.6917 39.6713 77.813C40.2693 77.9777 40.7546 78.1423 41.1273 78.307C41.5086 78.4717 41.8293 78.7273 42.0893 79.074C42.358 79.412 42.4923 79.867 42.4923 80.439C42.4923 80.8983 42.3667 81.3317 42.1153 81.739C41.8726 82.1463 41.513 82.4757 41.0363 82.727C40.5683 82.9697 40.0136 83.091 39.3723 83.091Z" fill="white"/>
<path d="M97.0349 43.1058L98.0188 39.8261C98.5773 37.9645 98.8565 37.0337 98.6545 36.296C98.4777 35.6498 98.0641 35.094 97.496 34.7389C96.8474 34.3334 95.8756 34.3334 93.9321 34.3334H75.2563L77.1884 42.7059C77.5972 44.4771 77.8016 45.3628 78.2832 46.0233C78.7081 46.606 79.2826 47.063 79.9459 47.346C80.6978 47.6668 81.6067 47.6668 83.4246 47.6668H90.9048C92.6134 47.6668 93.4676 47.6668 94.1883 47.3757C94.8244 47.1188 95.3838 46.7027 95.8127 46.1672C96.2985 45.5605 96.5439 44.7423 97.0349 43.1058Z" fill="white"/>
<path d="M70.3335 30.3334L71.0002 30.3333V30.3333C71.1437 30.3333 71.2155 30.3333 71.2794 30.3354C73.0459 30.3919 74.566 31.6012 75.0183 33.3098C75.0346 33.3716 75.0508 33.4415 75.083 33.5814L75.2566 34.3334M75.2566 34.3334L77.1887 42.7058C77.5974 44.4771 77.8018 45.3627 78.2834 46.0233C78.7083 46.606 79.2828 47.063 79.9461 47.346C80.698 47.6667 81.607 47.6667 83.4248 47.6667H90.905C92.6136 47.6667 93.4679 47.6667 94.1885 47.3757C94.8247 47.1188 95.384 46.7026 95.8129 46.1671C96.2987 45.5605 96.5442 44.7423 97.0351 43.1058L98.019 39.8261C98.5775 37.9645 98.8567 37.0337 98.6548 36.2959C98.4779 35.6498 98.0643 35.0939 97.4963 34.7389C96.8476 34.3334 95.8759 34.3334 93.9323 34.3334H75.2566ZM87.6668 47.6667H77.0002C75.5274 47.6667 74.3335 48.8606 74.3335 50.3333V50.3333C74.3335 51.8061 75.5274 53 77.0002 53H97.0002M83.6668 55.6667C83.6668 57.1394 82.4729 58.3333 81.0002 58.3333C79.5274 58.3333 78.3335 57.1394 78.3335 55.6667C78.3335 54.1939 79.5274 53 81.0002 53C82.4729 53 83.6668 54.1939 83.6668 55.6667ZM94.3335 55.6667C94.3335 57.1394 93.1396 58.3333 91.6668 58.3333C90.1941 58.3333 89.0002 57.1394 89.0002 55.6667C89.0002 54.1939 90.1941 53 91.6668 53C93.1396 53 94.3335 54.1939 94.3335 55.6667Z" stroke="white" stroke-width="2" stroke-linecap="round" stroke-linejoin="round"/>
</svg>
