<svg width="240" height="213" viewBox="0 0 240 213" fill="none" xmlns="http://www.w3.org/2000/svg">
<rect x="1.45985" y="1.45985" width="237.65" height="210.08" rx="4.86134" fill="#161619" stroke="#323333" stroke-width="1.0803"/>
<rect x="16.23" y="150.453" width="209" height="42.6894" rx="7.11489" fill="black"/>
<path d="M162.403 165.904H163.323L163.123 166.424L159.375 175.669H157.921L157.827 175.429L155.453 169.946L153.185 175.042L152.945 175.669H151.477L151.384 175.429L147.648 165.904H149.489L152.704 174.095L154.999 168.892L153.732 165.904H155.586L159.135 174.095L162.403 165.904Z" fill="white"/>
<path d="M142.386 165.703C145.094 165.703 147.389 168.011 147.389 170.746C147.389 173.494 145.094 175.802 142.386 175.802C139.691 175.802 137.423 173.494 137.423 170.759C137.423 168.011 139.691 165.703 142.386 165.703ZM141.652 166.624C140.879 166.744 140.238 167.158 139.785 167.811C139.144 168.705 138.917 169.999 139.158 171.346C139.571 173.721 141.239 175.202 143.12 174.895C143.893 174.762 144.547 174.335 145.014 173.668C145.681 172.734 145.921 171.427 145.681 170.066C145.308 167.971 143.88 166.571 142.186 166.571C142.012 166.571 141.826 166.597 141.652 166.624Z" fill="white"/>
<path d="M134.902 165.904H135.742V175.669H134.675L128.138 168.652V175.669H127.298V165.904H128.098L134.902 173.174V165.904Z" fill="white"/>
<path d="M114.756 170.173L119.839 175.669H117.531L113.609 171.427L112.929 172.2V175.669H111.221V165.904H112.542H112.929V170.88L117.558 165.904H118.305H118.719L118.145 166.517L114.756 170.173Z" fill="white"/>
<path d="M104.553 165.703C107.261 165.703 109.556 168.011 109.556 170.746C109.556 173.494 107.261 175.802 104.553 175.802C101.858 175.802 99.5903 173.494 99.5903 170.759C99.5903 168.011 101.858 165.703 104.553 165.703ZM103.819 166.624C103.046 166.744 102.405 167.158 101.952 167.811C101.311 168.705 101.084 169.999 101.325 171.346C101.738 173.721 103.406 175.202 105.287 174.895C106.06 174.762 106.714 174.335 107.181 173.668C107.848 172.734 108.088 171.427 107.848 170.066C107.475 167.971 106.047 166.571 104.353 166.571C104.179 166.571 103.993 166.597 103.819 166.624Z" fill="white"/>
<path d="M93.3494 165.703C96.0575 165.703 98.352 168.011 98.352 170.746C98.352 173.494 96.0575 175.802 93.3494 175.802C90.6546 175.802 88.3867 173.494 88.3867 170.759C88.3867 168.011 90.6546 165.703 93.3494 165.703ZM92.6156 166.624C91.8419 166.744 91.2015 167.158 90.748 167.811C90.1076 168.705 89.8808 169.999 90.121 171.346C90.5345 173.721 92.2021 175.202 94.0831 174.895C94.8568 174.762 95.5105 174.335 95.9774 173.668C96.6444 172.734 96.8846 171.427 96.6444 170.066C96.2709 167.971 94.8435 166.571 93.1493 166.571C92.9758 166.571 92.7891 166.597 92.6156 166.624Z" fill="white"/>
<path d="M85.1824 170.546C86.2097 170.92 87.2369 171.88 87.2369 173.027C87.2369 174.441 85.8094 175.669 84.1819 175.669H78.9258V165.97H79.0458V165.85H83.048C84.7422 165.85 86.2363 167.144 86.2363 168.625C86.2363 169.239 85.8895 169.866 85.1824 170.546ZM80.6467 171.226V174.882H83.7684C84.7155 174.882 85.516 174.041 85.516 173.054C85.516 172.054 84.7155 171.226 83.7684 171.226H80.6467ZM83.048 170.439C84.1419 170.439 84.5288 169.465 84.5288 168.558C84.5288 167.665 84.1419 166.691 83.048 166.691H80.6467V170.439H83.048Z" fill="white"/>
<rect x="126.511" y="103.387" width="99.6085" height="32.017" rx="3.55745" fill="#0E0E0E" stroke="#0E0E0E" stroke-width="0.889362"/>
<path d="M202.996 117.01L208.332 122.346L213.668 117.01" stroke="white" stroke-width="1.33404" stroke-linecap="round" stroke-linejoin="round"/>
<path d="M178.718 119.908C178.718 118.48 178.951 117.368 179.416 116.571C179.88 115.766 180.694 115.363 181.856 115.363C183.01 115.363 183.819 115.766 184.284 116.571C184.749 117.368 184.981 118.48 184.981 119.908C184.981 121.36 184.749 122.489 184.284 123.294C183.819 124.1 183.01 124.502 181.856 124.502C180.694 124.502 179.88 124.1 179.416 123.294C178.951 122.489 178.718 121.36 178.718 119.908ZM183.861 119.908C183.861 119.185 183.811 118.575 183.711 118.077C183.62 117.571 183.425 117.164 183.126 116.857C182.835 116.55 182.412 116.396 181.856 116.396C181.291 116.396 180.86 116.55 180.561 116.857C180.27 117.164 180.075 117.571 179.976 118.077C179.885 118.575 179.839 119.185 179.839 119.908C179.839 120.655 179.885 121.281 179.976 121.788C180.075 122.294 180.27 122.701 180.561 123.008C180.86 123.315 181.291 123.469 181.856 123.469C182.412 123.469 182.835 123.315 183.126 123.008C183.425 122.701 183.62 122.294 183.711 121.788C183.811 121.281 183.861 120.655 183.861 119.908Z" fill="white"/>
<path d="M171.361 117.766C171.419 117.002 171.714 116.405 172.245 115.973C172.776 115.541 173.465 115.326 174.312 115.326C174.876 115.326 175.362 115.429 175.769 115.637C176.184 115.836 176.495 116.11 176.703 116.459C176.918 116.807 177.026 117.202 177.026 117.642C177.026 118.156 176.877 118.6 176.578 118.974C176.288 119.347 175.906 119.588 175.433 119.696V119.758C175.972 119.891 176.4 120.153 176.715 120.543C177.03 120.933 177.188 121.443 177.188 122.074C177.188 122.547 177.08 122.975 176.864 123.357C176.649 123.73 176.325 124.025 175.893 124.241C175.462 124.456 174.943 124.564 174.337 124.564C173.457 124.564 172.735 124.336 172.17 123.88C171.606 123.415 171.291 122.759 171.224 121.912H172.32C172.378 122.41 172.581 122.817 172.93 123.132C173.279 123.448 173.743 123.606 174.324 123.606C174.905 123.606 175.345 123.456 175.644 123.157C175.951 122.85 176.105 122.456 176.105 121.975C176.105 121.352 175.897 120.904 175.482 120.63C175.067 120.356 174.441 120.219 173.602 120.219H173.316V119.273H173.615C174.378 119.264 174.955 119.14 175.345 118.899C175.736 118.65 175.931 118.268 175.931 117.754C175.931 117.314 175.785 116.961 175.495 116.695C175.213 116.43 174.806 116.297 174.275 116.297C173.76 116.297 173.345 116.43 173.03 116.695C172.714 116.961 172.527 117.318 172.469 117.766H171.361Z" fill="white"/>
<path d="M169.283 124.577C169.067 124.577 168.885 124.502 168.735 124.353C168.586 124.203 168.511 124.021 168.511 123.805C168.511 123.589 168.586 123.406 168.735 123.257C168.885 123.108 169.067 123.033 169.283 123.033C169.491 123.033 169.665 123.108 169.806 123.257C169.956 123.406 170.03 123.589 170.03 123.805C170.03 124.021 169.956 124.203 169.806 124.353C169.665 124.502 169.491 124.577 169.283 124.577ZM169.283 119.248C169.067 119.248 168.885 119.173 168.735 119.024C168.586 118.874 168.511 118.692 168.511 118.476C168.511 118.26 168.586 118.077 168.735 117.928C168.885 117.779 169.067 117.704 169.283 117.704C169.491 117.704 169.665 117.779 169.806 117.928C169.956 118.077 170.03 118.26 170.03 118.476C170.03 118.692 169.956 118.874 169.806 119.024C169.665 119.173 169.491 119.248 169.283 119.248Z" fill="white"/>
<path d="M162.35 122.087C162.433 122.56 162.624 122.925 162.922 123.182C163.229 123.44 163.64 123.568 164.155 123.568C164.844 123.568 165.35 123.298 165.674 122.759C166.006 122.219 166.164 121.31 166.147 120.032C165.973 120.406 165.682 120.7 165.276 120.916C164.869 121.124 164.416 121.227 163.918 121.227C163.362 121.227 162.864 121.115 162.424 120.891C161.993 120.659 161.652 120.323 161.403 119.883C161.154 119.443 161.03 118.912 161.03 118.289C161.03 117.401 161.287 116.687 161.802 116.147C162.316 115.6 163.047 115.326 163.993 115.326C165.155 115.326 165.969 115.703 166.434 116.459C166.907 117.214 167.143 118.339 167.143 119.833C167.143 120.879 167.048 121.742 166.857 122.423C166.674 123.103 166.359 123.622 165.911 123.979C165.471 124.336 164.865 124.515 164.093 124.515C163.246 124.515 162.586 124.286 162.113 123.83C161.64 123.373 161.37 122.792 161.304 122.087H162.35ZM164.105 120.269C164.661 120.269 165.118 120.099 165.475 119.758C165.832 119.41 166.01 118.941 166.01 118.351C166.01 117.729 165.836 117.227 165.487 116.845C165.139 116.463 164.649 116.272 164.018 116.272C163.437 116.272 162.972 116.455 162.624 116.82C162.283 117.185 162.113 117.666 162.113 118.264C162.113 118.87 162.283 119.356 162.624 119.721C162.964 120.086 163.458 120.269 164.105 120.269Z" fill="white"/>
<path d="M153.074 119.908C153.074 118.48 153.307 117.368 153.771 116.571C154.236 115.766 155.05 115.363 156.212 115.363C157.366 115.363 158.175 115.766 158.64 116.571C159.105 117.368 159.337 118.48 159.337 119.908C159.337 121.36 159.105 122.489 158.64 123.294C158.175 124.1 157.366 124.502 156.212 124.502C155.05 124.502 154.236 124.1 153.771 123.294C153.307 122.489 153.074 121.36 153.074 119.908ZM158.217 119.908C158.217 119.185 158.167 118.575 158.067 118.077C157.976 117.571 157.781 117.164 157.482 116.857C157.191 116.55 156.768 116.396 156.212 116.396C155.647 116.396 155.216 116.55 154.917 116.857C154.626 117.164 154.431 117.571 154.332 118.077C154.24 118.575 154.195 119.185 154.195 119.908C154.195 120.655 154.24 121.281 154.332 121.788C154.431 122.294 154.626 122.701 154.917 123.008C155.216 123.315 155.647 123.469 156.212 123.469C156.768 123.469 157.191 123.315 157.482 123.008C157.781 122.701 157.976 122.294 158.067 121.788C158.167 121.281 158.217 120.655 158.217 119.908Z" fill="white"/>
<g clip-path="url(#clip0_803_18152)">
<path fill-rule="evenodd" clip-rule="evenodd" d="M134.367 119.678C134.367 116.158 137.22 113.304 140.74 113.304C144.261 113.304 147.114 116.158 147.114 119.678C147.114 123.198 144.261 126.052 140.74 126.052C137.22 126.052 134.367 123.198 134.367 119.678ZM141.185 117.306C141.185 117.061 140.986 116.862 140.74 116.862C140.495 116.862 140.296 117.061 140.296 117.306V119.678C140.296 119.827 140.37 119.965 140.494 120.048L142.272 121.234C142.477 121.37 142.753 121.315 142.889 121.11C143.025 120.906 142.97 120.63 142.766 120.494L141.185 119.44V117.306Z" fill="white"/>
</g>
<path opacity="0.4" d="M147.817 89.1724V91.659H150.528V92.4595H147.817V95.0208H150.848V95.8212H146.846V88.3719H150.848V89.1724H147.817Z" fill="white"/>
<path opacity="0.4" d="M144.559 88.436V95.8212H143.587V90.3143L141.133 95.8212H140.45L137.984 90.3036V95.8212H137.013V88.436H138.059L140.791 94.5406L143.523 88.436H144.559Z" fill="white"/>
<path opacity="0.4" d="M134.718 88.3826V95.8213H133.747V88.3826H134.718Z" fill="white"/>
<path opacity="0.4" d="M131.911 88.3826V89.1724H129.883V95.8213H128.912V89.1724H126.874V88.3826H131.911Z" fill="white"/>
<rect x="15.3403" y="103.387" width="96.9404" height="32.017" rx="3.55745" fill="#0E0E0E" stroke="#0E0E0E" stroke-width="0.889362"/>
<path d="M91.8252 117.01L97.1614 122.346L102.498 117.01" stroke="white" stroke-width="1.33404" stroke-linecap="round" stroke-linejoin="round"/>
<path d="M79.4963 117.679L75.3874 127.715H74.217L75.5617 124.427L72.8101 117.679H74.0676L76.2092 123.207L78.3259 117.679H79.4963Z" fill="white"/>
<path d="M64.7817 121.066C64.7817 120.368 64.9229 119.758 65.2051 119.235C65.4873 118.704 65.8733 118.293 66.363 118.003C66.8611 117.712 67.4131 117.567 68.019 117.567C68.6167 117.567 69.1355 117.696 69.5754 117.953C70.0153 118.21 70.3432 118.534 70.559 118.924V117.679H71.7045V124.502H70.559V123.232C70.3349 123.631 69.9987 123.963 69.5505 124.228C69.1106 124.486 68.5959 124.614 68.0066 124.614C67.4006 124.614 66.8528 124.465 66.363 124.166C65.8733 123.867 65.4873 123.448 65.2051 122.908C64.9229 122.369 64.7817 121.755 64.7817 121.066ZM70.559 121.078C70.559 120.563 70.4553 120.115 70.2478 119.733C70.0402 119.352 69.758 119.061 69.4011 118.862C69.0525 118.654 68.6665 118.551 68.2431 118.551C67.8198 118.551 67.4338 118.65 67.0852 118.849C66.7366 119.049 66.4585 119.339 66.251 119.721C66.0434 120.103 65.9397 120.551 65.9397 121.066C65.9397 121.589 66.0434 122.045 66.251 122.435C66.4585 122.817 66.7366 123.112 67.0852 123.319C67.4338 123.519 67.8198 123.618 68.2431 123.618C68.6665 123.618 69.0525 123.519 69.4011 123.319C69.758 123.112 70.0402 122.817 70.2478 122.435C70.4553 122.045 70.559 121.593 70.559 121.078Z" fill="white"/>
<path d="M56.3677 121.066C56.3677 120.368 56.5088 119.758 56.791 119.235C57.0732 118.704 57.4592 118.293 57.949 118.003C58.447 117.712 59.0032 117.567 59.6174 117.567C60.1486 117.567 60.6425 117.691 61.0991 117.94C61.5556 118.181 61.9042 118.501 62.145 118.899V115.288H63.2905V124.502H62.145V123.22C61.9208 123.626 61.5888 123.963 61.1489 124.228C60.7089 124.486 60.1943 124.614 59.605 124.614C58.999 124.614 58.447 124.465 57.949 124.166C57.4592 123.867 57.0732 123.448 56.791 122.908C56.5088 122.369 56.3677 121.755 56.3677 121.066ZM62.145 121.078C62.145 120.563 62.0412 120.115 61.8337 119.733C61.6262 119.352 61.344 119.061 60.987 118.862C60.6384 118.654 60.2524 118.551 59.8291 118.551C59.4057 118.551 59.0198 118.65 58.6711 118.849C58.3225 119.049 58.0444 119.339 57.8369 119.721C57.6294 120.103 57.5256 120.551 57.5256 121.066C57.5256 121.589 57.6294 122.045 57.8369 122.435C58.0444 122.817 58.3225 123.112 58.6711 123.319C59.0198 123.519 59.4057 123.618 59.8291 123.618C60.2524 123.618 60.6384 123.519 60.987 123.319C61.344 123.112 61.6262 122.817 61.8337 122.435C62.0412 122.045 62.145 121.593 62.145 121.078Z" fill="white"/>
<path d="M51.8025 124.614C51.1633 124.614 50.5823 124.469 50.0593 124.178C49.5447 123.888 49.1379 123.477 48.8391 122.946C48.5486 122.406 48.4033 121.784 48.4033 121.078C48.4033 120.381 48.5527 119.767 48.8516 119.235C49.1587 118.696 49.5737 118.285 50.0967 118.003C50.6196 117.712 51.2048 117.567 51.8523 117.567C52.4997 117.567 53.0849 117.712 53.6079 118.003C54.1308 118.285 54.5417 118.692 54.8405 119.223C55.1476 119.754 55.3012 120.373 55.3012 121.078C55.3012 121.784 55.1435 122.406 54.8281 122.946C54.5209 123.477 54.1018 123.888 53.5705 124.178C53.0393 124.469 52.4499 124.614 51.8025 124.614ZM51.8025 123.618C52.2092 123.618 52.591 123.523 52.948 123.332C53.3049 123.141 53.5913 122.854 53.8071 122.473C54.0312 122.091 54.1433 121.626 54.1433 121.078C54.1433 120.53 54.0354 120.065 53.8195 119.684C53.6037 119.302 53.3215 119.02 52.9729 118.837C52.6242 118.646 52.2465 118.551 51.8398 118.551C51.4248 118.551 51.0429 118.646 50.6943 118.837C50.354 119.02 50.0801 119.302 49.8725 119.684C49.665 120.065 49.5613 120.53 49.5613 121.078C49.5613 121.634 49.6609 122.103 49.8601 122.485C50.0676 122.867 50.3415 123.153 50.6819 123.344C51.0222 123.527 51.3957 123.618 51.8025 123.618Z" fill="white"/>
<path d="M47.4321 115.824V116.745H45.0664V124.502H43.9333V116.745H41.5552V115.824H47.4321Z" fill="white"/>
<g clip-path="url(#clip1_803_18152)">
<path fill-rule="evenodd" clip-rule="evenodd" d="M27.6431 112.267C27.6431 112.021 27.444 111.822 27.1984 111.822C26.9528 111.822 26.7537 112.021 26.7537 112.267V112.449C26.0561 112.492 25.5611 112.587 25.1387 112.803C24.4693 113.144 23.9251 113.688 23.584 114.357C23.1963 115.118 23.1963 116.114 23.1963 118.107V119.471C23.1963 121.463 23.1963 122.459 23.584 123.22C23.9251 123.889 24.4693 124.434 25.1387 124.775C25.8997 125.162 26.8958 125.162 28.8882 125.162H30.2519C32.2442 125.162 33.2404 125.162 34.0014 124.775C34.6708 124.434 35.215 123.889 35.5561 123.22C35.9438 122.459 35.9438 121.463 35.9438 119.471V118.107C35.9438 116.114 35.9438 115.118 35.5561 114.357C35.215 113.688 34.6708 113.144 34.0014 112.803C33.5789 112.587 33.084 112.492 32.3864 112.449V112.267C32.3864 112.021 32.1873 111.822 31.9417 111.822C31.6961 111.822 31.497 112.021 31.497 112.267V112.42C31.13 112.415 30.7183 112.415 30.2519 112.415H28.8882C28.4218 112.415 28.0101 112.415 27.6431 112.42V112.267ZM25.8643 116.417C25.8643 116.171 26.0634 115.972 26.309 115.972H32.831C33.0766 115.972 33.2756 116.171 33.2756 116.417C33.2756 116.663 33.0766 116.862 32.831 116.862H26.309C26.0634 116.862 25.8643 116.663 25.8643 116.417ZM26.1608 119.085C26.1608 118.676 26.4926 118.344 26.9019 118.344C27.3112 118.344 27.643 118.676 27.643 119.085C27.643 119.494 27.3112 119.826 26.9019 119.826C26.4926 119.826 26.1608 119.494 26.1608 119.085ZM28.8288 119.085C28.8288 118.676 29.1607 118.344 29.57 118.344C29.9793 118.344 30.3111 118.676 30.3111 119.085C30.3111 119.494 29.9793 119.826 29.57 119.826C29.1607 119.826 28.8288 119.494 28.8288 119.085ZM31.4969 119.085C31.4969 118.676 31.8287 118.344 32.2381 118.344C32.6474 118.344 32.9792 118.676 32.9792 119.085C32.9792 119.494 32.6474 119.826 32.2381 119.826C31.8287 119.826 31.4969 119.494 31.4969 119.085ZM26.1608 121.457C26.1608 121.047 26.4926 120.716 26.9019 120.716C27.3112 120.716 27.643 121.047 27.643 121.457C27.643 121.866 27.3112 122.198 26.9019 122.198C26.4926 122.198 26.1608 121.866 26.1608 121.457ZM28.8288 121.457C28.8288 121.047 29.1607 120.716 29.57 120.716C29.9793 120.716 30.3111 121.047 30.3111 121.457C30.3111 121.866 29.9793 122.198 29.57 122.198C29.1607 122.198 28.8288 121.866 28.8288 121.457ZM31.4969 121.457C31.4969 121.047 31.8287 120.716 32.2381 120.716C32.6474 120.716 32.9792 121.047 32.9792 121.457C32.9792 121.866 32.6474 122.198 32.2381 122.198C31.8287 122.198 31.4969 121.866 31.4969 121.457Z" fill="white"/>
</g>
<path opacity="0.4" d="M108.956 95.896C108.465 95.896 108.024 95.8106 107.632 95.6399C107.248 95.462 106.946 95.2201 106.725 94.9141C106.505 94.6011 106.391 94.2418 106.384 93.8362H107.419C107.455 94.1849 107.597 94.4801 107.846 94.722C108.102 94.9568 108.472 95.0742 108.956 95.0742C109.418 95.0742 109.781 94.9604 110.044 94.7327C110.315 94.4979 110.45 94.1991 110.45 93.8362C110.45 93.5516 110.372 93.3204 110.215 93.1425C110.059 92.9647 109.863 92.8295 109.628 92.737C109.393 92.6445 109.077 92.5449 108.678 92.4382C108.187 92.3101 107.793 92.182 107.494 92.054C107.202 91.9259 106.949 91.7267 106.736 91.4563C106.53 91.1788 106.426 90.8089 106.426 90.3464C106.426 89.9408 106.53 89.5815 106.736 89.2685C106.942 88.9554 107.23 88.7135 107.6 88.5428C107.978 88.372 108.408 88.2866 108.892 88.2866C109.589 88.2866 110.158 88.4609 110.599 88.8096C111.048 89.1582 111.3 89.6207 111.357 90.197H110.29C110.254 89.9124 110.105 89.6634 109.842 89.4499C109.578 89.2293 109.23 89.1191 108.796 89.1191C108.39 89.1191 108.059 89.2258 107.803 89.4392C107.547 89.6456 107.419 89.9373 107.419 90.3144C107.419 90.5847 107.494 90.8053 107.643 90.9761C107.8 91.1468 107.988 91.2784 108.209 91.3709C108.436 91.4563 108.753 91.5559 109.159 91.6698C109.65 91.8049 110.044 91.9401 110.343 92.0753C110.642 92.2034 110.898 92.4061 111.112 92.6836C111.325 92.954 111.432 93.324 111.432 93.7935C111.432 94.1564 111.336 94.4979 111.144 94.8181C110.952 95.1383 110.667 95.398 110.29 95.5972C109.913 95.7964 109.468 95.896 108.956 95.896Z" fill="white"/>
<path opacity="0.4" d="M101.457 89.1724V91.6591H104.167V92.4595H101.457V95.0209H104.487V95.8213H100.485V88.372H104.487V89.1724H101.457Z" fill="white"/>
<path opacity="0.4" d="M98.6492 88.3827V89.1724H96.6214V95.8213H95.6502V89.1724H93.6118V88.3827H98.6492Z" fill="white"/>
<path opacity="0.4" d="M90.6361 94.1671H87.3917L86.7941 95.8213H85.7695L88.459 88.4254H89.5796L92.2583 95.8213H91.2338L90.6361 94.1671ZM90.3586 93.3773L89.0139 89.6207L87.6692 93.3773H90.3586Z" fill="white"/>
<path opacity="0.4" d="M80.3691 88.3827C81.1802 88.3827 81.881 88.5357 82.4716 88.8416C83.0692 89.1404 83.5246 89.5709 83.8376 90.133C84.1578 90.695 84.3179 91.3567 84.3179 92.118C84.3179 92.8793 84.1578 93.541 83.8376 94.1031C83.5246 94.658 83.0692 95.0849 82.4716 95.3837C81.881 95.6755 81.1802 95.8213 80.3691 95.8213H78.0532V88.3827H80.3691ZM80.3691 95.0209C81.3296 95.0209 82.0625 94.7683 82.5676 94.2632C83.0728 93.7509 83.3254 93.0358 83.3254 92.118C83.3254 91.1931 83.0692 90.4709 82.557 89.9515C82.0518 89.4321 81.3225 89.1724 80.3691 89.1724H79.0244V95.0209H80.3691Z" fill="white"/>
<path opacity="0.4" d="M69.4268 89.1724V91.6591H72.1375V92.4595H69.4268V95.0209H72.4577V95.8213H68.4556V88.372H72.4577V89.1724H69.4268Z" fill="white"/>
<path opacity="0.4" d="M64.1797 95.0316H66.7837V95.8213H63.2085V88.3827H64.1797V95.0316Z" fill="white"/>
<path opacity="0.4" d="M59.7476 91.9899C60.018 92.0326 60.2634 92.1429 60.484 92.3208C60.7117 92.4987 60.8895 92.7192 61.0176 92.9825C61.1528 93.2457 61.2204 93.5268 61.2204 93.8256C61.2204 94.2027 61.1243 94.5442 60.9322 94.8501C60.7401 95.149 60.4591 95.3873 60.0891 95.5652C59.7263 95.7359 59.2958 95.8213 58.7978 95.8213H56.0229V88.3827H58.691C59.1962 88.3827 59.6266 88.4681 59.9824 88.6388C60.3381 88.8025 60.6049 89.0266 60.7828 89.3112C60.9607 89.5958 61.0496 89.9159 61.0496 90.2717C61.0496 90.7128 60.9287 91.0792 60.6868 91.3709C60.452 91.6555 60.1389 91.8619 59.7476 91.9899ZM56.9941 91.5951H58.627C59.0824 91.5951 59.4345 91.4883 59.6836 91.2749C59.9326 91.0614 60.0571 90.7662 60.0571 90.3891C60.0571 90.012 59.9326 89.7167 59.6836 89.5033C59.4345 89.2898 59.0752 89.1831 58.6057 89.1831H56.9941V91.5951ZM58.7124 95.0209C59.1962 95.0209 59.5733 94.907 59.8436 94.6794C60.114 94.4517 60.2492 94.1351 60.2492 93.7295C60.2492 93.3169 60.1069 92.9931 59.8223 92.7584C59.5377 92.5164 59.1571 92.3955 58.6804 92.3955H56.9941V95.0209H58.7124Z" fill="white"/>
<path opacity="0.4" d="M52.5883 94.1671H49.3439L48.7462 95.8213H47.7217L50.4111 88.4254H51.5317L54.2105 95.8213H53.1859L52.5883 94.1671ZM52.3108 93.3773L50.9661 89.6207L49.6214 93.3773H52.3108Z" fill="white"/>
<path opacity="0.4" d="M43.9155 95.0316H46.5196V95.8213H42.9443V88.3827H43.9155V95.0316Z" fill="white"/>
<path opacity="0.4" d="M40.6489 88.3827V95.8213H39.6777V88.3827H40.6489Z" fill="white"/>
<path opacity="0.4" d="M36.2431 94.1671H32.9987L32.401 95.8213H31.3765L34.0659 88.4254H35.1865L37.8652 95.8213H36.8407L36.2431 94.1671ZM35.9656 93.3773L34.6209 89.6207L33.2761 93.3773H35.9656Z" fill="white"/>
<path opacity="0.4" d="M30.141 88.3827L27.3342 95.8213H26.2136L23.4067 88.3827H24.442L26.7792 94.7968L29.1164 88.3827H30.141Z" fill="white"/>
<path opacity="0.4" d="M20.559 94.1671H17.3146L16.7169 95.8213H15.6924L18.3818 88.4254H19.5024L22.1812 95.8213H21.1566L20.559 94.1671ZM20.2815 93.3773L18.9368 89.6207L17.5921 93.3773H20.2815Z" fill="white"/>
<rect x="15.3403" y="37.8567" width="210.779" height="32.017" rx="3.55745" fill="#0E0E0E" stroke="#0E0E0E" stroke-width="0.889362"/>
<path d="M202.996 51.1971L208.332 56.5333L213.668 51.1971" stroke="white" stroke-width="1.33404" stroke-linecap="round" stroke-linejoin="round"/>
<path d="M133.394 54.4092C133.394 54.625 133.382 54.8533 133.357 55.094H127.903C127.945 55.7664 128.173 56.2935 128.588 56.6753C129.011 57.0488 129.522 57.2356 130.119 57.2356C130.609 57.2356 131.016 57.1235 131.34 56.8994C131.672 56.667 131.904 56.3599 132.037 55.978H133.257C133.074 56.6338 132.709 57.1692 132.161 57.5842C131.613 57.991 130.933 58.1943 130.119 58.1943C129.472 58.1943 128.891 58.0491 128.376 57.7585C127.87 57.468 127.471 57.0571 127.181 56.5259C126.89 55.9863 126.745 55.3638 126.745 54.6582C126.745 53.9527 126.886 53.3343 127.168 52.803C127.451 52.2718 127.845 51.865 128.351 51.5828C128.866 51.2923 129.455 51.147 130.119 51.147C130.767 51.147 131.34 51.2881 131.838 51.5704C132.336 51.8526 132.717 52.2427 132.983 52.7408C133.257 53.2305 133.394 53.7867 133.394 54.4092ZM132.224 54.1726C132.224 53.741 132.128 53.3716 131.937 53.0645C131.746 52.7491 131.485 52.5125 131.153 52.3548C130.829 52.1888 130.468 52.1058 130.07 52.1058C129.497 52.1058 129.007 52.2884 128.6 52.6536C128.202 53.0188 127.974 53.5252 127.916 54.1726H132.224Z" fill="white"/>
<path d="M125.238 48.8685V58.0823H124.104V48.8685H125.238Z" fill="white"/>
<path d="M116.823 52.5167C117.048 52.1265 117.38 51.8028 117.82 51.5455C118.268 51.2798 118.787 51.147 119.376 51.147C119.982 51.147 120.53 51.2923 121.019 51.5828C121.518 51.8733 121.908 52.2842 122.19 52.8155C122.472 53.3384 122.613 53.9485 122.613 54.6458C122.613 55.3347 122.472 55.949 122.19 56.4885C121.908 57.0281 121.518 57.4473 121.019 57.7461C120.53 58.0449 119.982 58.1943 119.376 58.1943C118.795 58.1943 118.28 58.0657 117.832 57.8084C117.392 57.5427 117.056 57.2149 116.823 56.8247V61.3196H115.69V51.2591H116.823V52.5167ZM121.455 54.6458C121.455 54.1311 121.352 53.6829 121.144 53.3011C120.936 52.9192 120.654 52.6287 120.297 52.4295C119.949 52.2303 119.563 52.1307 119.139 52.1307C118.724 52.1307 118.338 52.2344 117.981 52.4419C117.633 52.6412 117.351 52.9358 117.135 53.326C116.927 53.7078 116.823 54.1519 116.823 54.6582C116.823 55.1729 116.927 55.6253 117.135 56.0154C117.351 56.3972 117.633 56.6919 117.981 56.8994C118.338 57.0986 118.724 57.1983 119.139 57.1983C119.563 57.1983 119.949 57.0986 120.297 56.8994C120.654 56.6919 120.936 56.3972 121.144 56.0154C121.352 55.6253 121.455 55.1687 121.455 54.6458Z" fill="white"/>
<path d="M110.702 58.1943C110.063 58.1943 109.482 58.0491 108.959 57.7585C108.444 57.468 108.037 57.0571 107.739 56.5259C107.448 55.9863 107.303 55.3638 107.303 54.6582C107.303 53.961 107.452 53.3467 107.751 52.8155C108.058 52.2759 108.473 51.865 108.996 51.5828C109.519 51.2923 110.104 51.147 110.752 51.147C111.399 51.147 111.984 51.2923 112.507 51.5828C113.03 51.865 113.441 52.2718 113.74 52.803C114.047 53.3343 114.201 53.9527 114.201 54.6582C114.201 55.3638 114.043 55.9863 113.727 56.5259C113.42 57.0571 113.001 57.468 112.47 57.7585C111.939 58.0491 111.349 58.1943 110.702 58.1943ZM110.702 57.1983C111.109 57.1983 111.49 57.1028 111.847 56.9119C112.204 56.721 112.491 56.4346 112.706 56.0528C112.931 55.6709 113.043 55.2061 113.043 54.6582C113.043 54.1104 112.935 53.6455 112.719 53.2637C112.503 52.8819 112.221 52.5997 111.872 52.417C111.524 52.2261 111.146 52.1307 110.739 52.1307C110.324 52.1307 109.942 52.2261 109.594 52.417C109.253 52.5997 108.979 52.8819 108.772 53.2637C108.564 53.6455 108.461 54.1104 108.461 54.6582C108.461 55.2144 108.56 55.6834 108.76 56.0652C108.967 56.447 109.241 56.7334 109.581 56.9243C109.922 57.1069 110.295 57.1983 110.702 57.1983Z" fill="white"/>
<path d="M106.23 54.4092C106.23 54.625 106.218 54.8533 106.193 55.094H100.739C100.781 55.7664 101.009 56.2935 101.424 56.6753C101.848 57.0488 102.358 57.2356 102.956 57.2356C103.446 57.2356 103.852 57.1235 104.176 56.8994C104.508 56.667 104.74 56.3599 104.873 55.978H106.093C105.911 56.6338 105.546 57.1692 104.998 57.5842C104.45 57.991 103.769 58.1943 102.956 58.1943C102.308 58.1943 101.727 58.0491 101.213 57.7585C100.706 57.468 100.308 57.0571 100.017 56.5259C99.7268 55.9863 99.5815 55.3638 99.5815 54.6582C99.5815 53.9527 99.7227 53.3343 100.005 52.803C100.287 52.2718 100.681 51.865 101.188 51.5828C101.702 51.2923 102.292 51.147 102.956 51.147C103.603 51.147 104.176 51.2881 104.674 51.5704C105.172 51.8526 105.554 52.2427 105.82 52.7408C106.093 53.2305 106.23 53.7867 106.23 54.4092ZM105.06 54.1726C105.06 53.741 104.965 53.3716 104.774 53.0645C104.583 52.7491 104.321 52.5125 103.989 52.3548C103.665 52.1888 103.304 52.1058 102.906 52.1058C102.333 52.1058 101.843 52.2884 101.437 52.6536C101.038 53.0188 100.81 53.5252 100.752 54.1726H105.06Z" fill="white"/>
<path d="M92.7239 52.5167C92.948 52.1265 93.28 51.8028 93.7199 51.5455C94.1682 51.2798 94.687 51.147 95.2763 51.147C95.8823 51.147 96.4301 51.2923 96.9199 51.5828C97.4179 51.8733 97.8081 52.2842 98.0903 52.8155C98.3725 53.3384 98.5136 53.9485 98.5136 54.6458C98.5136 55.3347 98.3725 55.949 98.0903 56.4885C97.8081 57.0281 97.4179 57.4473 96.9199 57.7461C96.4301 58.0449 95.8823 58.1943 95.2763 58.1943C94.6953 58.1943 94.1806 58.0657 93.7324 57.8084C93.2925 57.5427 92.9563 57.2149 92.7239 56.8247V61.3196H91.5908V51.2591H92.7239V52.5167ZM97.3557 54.6458C97.3557 54.1311 97.2519 53.6829 97.0444 53.3011C96.8369 52.9192 96.5546 52.6287 96.1977 52.4295C95.8491 52.2303 95.4631 52.1307 95.0398 52.1307C94.6247 52.1307 94.2387 52.2344 93.8818 52.4419C93.5332 52.6412 93.251 52.9358 93.0351 53.326C92.8276 53.7078 92.7239 54.1519 92.7239 54.6582C92.7239 55.1729 92.8276 55.6253 93.0351 56.0154C93.251 56.3972 93.5332 56.6919 93.8818 56.8994C94.2387 57.0986 94.6247 57.1983 95.0398 57.1983C95.4631 57.1983 95.8491 57.0986 96.1977 56.8994C96.5546 56.6919 96.8369 56.3972 97.0444 56.0154C97.2519 55.6253 97.3557 55.1687 97.3557 54.6458Z" fill="white"/>
<path d="M80.7856 57.1733C81.8398 56.3267 82.6658 55.6335 83.2634 55.094C83.8611 54.5462 84.3632 53.9776 84.77 53.3882C85.185 52.7906 85.3925 52.2054 85.3925 51.6326C85.3925 51.0931 85.2597 50.6697 84.9941 50.3626C84.7368 50.0472 84.3176 49.8895 83.7365 49.8895C83.1721 49.8895 82.7322 50.0679 82.4167 50.4249C82.1096 50.7735 81.9436 51.2425 81.9187 51.8318H80.823C80.8562 50.9021 81.1384 50.1841 81.6697 49.6778C82.2009 49.1714 82.8857 48.9183 83.7241 48.9183C84.5791 48.9183 85.2556 49.1548 85.7536 49.628C86.26 50.1011 86.5131 50.7527 86.5131 51.5828C86.5131 52.2718 86.3056 52.9441 85.8906 53.5999C85.4838 54.2473 85.019 54.8201 84.4961 55.3181C83.9731 55.8079 83.3049 56.3806 82.4914 57.0364H86.7746V57.9826H80.7856V57.1733Z" fill="white"/>
<path d="M74.2781 52.3672C74.4773 51.9771 74.7595 51.6741 75.1247 51.4583C75.4983 51.2425 75.9507 51.1346 76.4819 51.1346V52.305H76.1831C74.9131 52.305 74.2781 52.9939 74.2781 54.3719V58.0823H73.145V51.2591H74.2781V52.3672Z" fill="white"/>
<path d="M68.1565 58.1943C67.5173 58.1943 66.9363 58.0491 66.4133 57.7585C65.8987 57.468 65.4919 57.0571 65.1931 56.5259C64.9026 55.9863 64.7573 55.3638 64.7573 54.6582C64.7573 53.961 64.9067 53.3467 65.2056 52.8155C65.5127 52.2759 65.9277 51.865 66.4507 51.5828C66.9736 51.2923 67.5588 51.147 68.2063 51.147C68.8537 51.147 69.4389 51.2923 69.9619 51.5828C70.4848 51.865 70.8957 52.2718 71.1945 52.803C71.5016 53.3343 71.6552 53.9527 71.6552 54.6582C71.6552 55.3638 71.4975 55.9863 71.1821 56.5259C70.8749 57.0571 70.4558 57.468 69.9245 57.7585C69.3933 58.0491 68.8039 58.1943 68.1565 58.1943ZM68.1565 57.1983C68.5632 57.1983 68.945 57.1028 69.302 56.9119C69.6589 56.721 69.9453 56.4346 70.1611 56.0528C70.3852 55.6709 70.4973 55.2061 70.4973 54.6582C70.4973 54.1104 70.3894 53.6455 70.1735 53.2637C69.9577 52.8819 69.6755 52.5997 69.3269 52.417C68.9782 52.2261 68.6006 52.1307 68.1938 52.1307C67.7788 52.1307 67.397 52.2261 67.0483 52.417C66.708 52.5997 66.4341 52.8819 66.2265 53.2637C66.019 53.6455 65.9153 54.1104 65.9153 54.6582C65.9153 55.2144 66.0149 55.6834 66.2141 56.0652C66.4216 56.447 66.6955 56.7334 67.0359 56.9243C67.3762 57.1069 67.7497 57.1983 68.1565 57.1983Z" fill="white"/>
<path d="M63.8596 52.1929H62.4277V58.0823H61.2947V52.1929H60.4106V51.2591H61.2947V50.7735C61.2947 50.0098 61.4897 49.4537 61.8799 49.105C62.2783 48.7481 62.9133 48.5696 63.7849 48.5696V49.5159C63.2868 49.5159 62.9341 49.6155 62.7265 49.8147C62.5273 50.0057 62.4277 50.3252 62.4277 50.7735V51.2591H63.8596V52.1929Z" fill="white"/>
<path d="M56.268 54.4092C56.268 54.625 56.2556 54.8533 56.2307 55.094H50.7771C50.8186 55.7664 51.0469 56.2935 51.4619 56.6753C51.8852 57.0488 52.3957 57.2356 52.9934 57.2356C53.4831 57.2356 53.8899 57.1235 54.2136 56.8994C54.5456 56.667 54.778 56.3599 54.9108 55.978H56.131C55.9484 56.6338 55.5832 57.1692 55.0354 57.5842C54.4875 57.991 53.8068 58.1943 52.9934 58.1943C52.3459 58.1943 51.7649 58.0491 51.2502 57.7585C50.7439 57.468 50.3455 57.0571 50.0549 56.5259C49.7644 55.9863 49.6191 55.3638 49.6191 54.6582C49.6191 53.9527 49.7603 53.3343 50.0425 52.803C50.3247 52.2718 50.719 51.865 51.2253 51.5828C51.74 51.2923 52.3293 51.147 52.9934 51.147C53.6408 51.147 54.2136 51.2881 54.7116 51.5704C55.2097 51.8526 55.5915 52.2427 55.8571 52.7408C56.131 53.2305 56.268 53.7867 56.268 54.4092ZM55.0976 54.1726C55.0976 53.741 55.0021 53.3716 54.8112 53.0645C54.6203 52.7491 54.3588 52.5125 54.0268 52.3548C53.7031 52.1888 53.342 52.1058 52.9436 52.1058C52.3708 52.1058 51.8811 52.2884 51.4743 52.6536C51.0759 53.0188 50.8476 53.5252 50.7895 54.1726H55.0976Z" fill="white"/>
<path d="M48.1116 48.8685V58.0823H46.9785V48.8685H48.1116Z" fill="white"/>
<path d="M39.6975 52.5291C39.9299 52.1223 40.2702 51.7903 40.7185 51.533C41.1667 51.2757 41.6772 51.147 42.25 51.147C42.8642 51.147 43.4162 51.2923 43.906 51.5828C44.3957 51.8733 44.7817 52.2842 45.0639 52.8155C45.3461 53.3384 45.4872 53.9485 45.4872 54.6458C45.4872 55.3347 45.3461 55.949 45.0639 56.4885C44.7817 57.0281 44.3915 57.4473 43.8935 57.7461C43.4038 58.0449 42.8559 58.1943 42.25 58.1943C41.6606 58.1943 41.1418 58.0657 40.6936 57.8083C40.2536 57.551 39.9216 57.2231 39.6975 56.8247V58.0823H38.5645V48.8685H39.6975V52.5291ZM44.3293 54.6458C44.3293 54.1311 44.2255 53.6829 44.018 53.301C43.8105 52.9192 43.5283 52.6287 43.1713 52.4295C42.8227 52.2303 42.4367 52.1306 42.0134 52.1306C41.5984 52.1306 41.2124 52.2344 40.8554 52.4419C40.5068 52.6411 40.2246 52.9358 40.0088 53.3259C39.8013 53.7078 39.6975 54.1519 39.6975 54.6582C39.6975 55.1729 39.8013 55.6252 40.0088 56.0154C40.2246 56.3972 40.5068 56.6919 40.8554 56.8994C41.2124 57.0986 41.5984 57.1982 42.0134 57.1982C42.4367 57.1982 42.8227 57.0986 43.1713 56.8994C43.5283 56.6919 43.8105 56.3972 44.018 56.0154C44.2255 55.6252 44.3293 55.1687 44.3293 54.6458Z" fill="white"/>
<path d="M29.7266 54.6458C29.7266 53.9485 29.8677 53.3384 30.1499 52.8155C30.4321 52.2842 30.8181 51.8733 31.3078 51.5828C31.8059 51.2923 32.3579 51.147 32.9638 51.147C33.5615 51.147 34.0803 51.2757 34.5202 51.533C34.9602 51.7903 35.288 52.1141 35.5039 52.5042V51.2591H36.6494V58.0823H35.5039V56.8123C35.2797 57.2107 34.9436 57.5427 34.4953 57.8084C34.0554 58.0657 33.5407 58.1943 32.9514 58.1943C32.3454 58.1943 31.7976 58.0449 31.3078 57.7461C30.8181 57.4473 30.4321 57.0281 30.1499 56.4885C29.8677 55.949 29.7266 55.3347 29.7266 54.6458ZM35.5039 54.6582C35.5039 54.1436 35.4001 53.6954 35.1926 53.3135C34.9851 52.9317 34.7028 52.6412 34.3459 52.4419C33.9973 52.2344 33.6113 52.1307 33.188 52.1307C32.7646 52.1307 32.3786 52.2303 32.03 52.4295C31.6814 52.6287 31.4033 52.9192 31.1958 53.3011C30.9883 53.6829 30.8845 54.1311 30.8845 54.6458C30.8845 55.1687 30.9883 55.6253 31.1958 56.0154C31.4033 56.3972 31.6814 56.6919 32.03 56.8994C32.3786 57.0986 32.7646 57.1983 33.188 57.1983C33.6113 57.1983 33.9973 57.0986 34.3459 56.8994C34.7028 56.6919 34.9851 56.3972 35.1926 56.0154C35.4001 55.6253 35.5039 55.1729 35.5039 54.6582Z" fill="white"/>
<path d="M28.7553 49.4039V50.3252H26.3896V58.0823H25.2566V50.3252H22.8784V49.4039H28.7553Z" fill="white"/>
<path opacity="0.4" d="M64.7859 30.0832C64.295 30.0832 63.8539 29.9978 63.4625 29.8271C63.0783 29.6492 62.7759 29.4073 62.5554 29.1013C62.3348 28.7883 62.221 28.429 62.2139 28.0234H63.2491C63.2847 28.3721 63.427 28.6673 63.676 28.9092C63.9321 29.144 64.3021 29.2614 64.7859 29.2614C65.2484 29.2614 65.6112 29.1476 65.8745 28.9199C66.1448 28.6851 66.28 28.3863 66.28 28.0234C66.28 27.7388 66.2018 27.5076 66.0452 27.3297C65.8887 27.1519 65.6931 27.0167 65.4583 26.9242C65.2235 26.8317 64.9069 26.7321 64.5084 26.6254C64.0175 26.4973 63.6226 26.3692 63.3238 26.2412C63.0321 26.1131 62.7795 25.9139 62.5661 25.6435C62.3597 25.366 62.2566 24.996 62.2566 24.5336C62.2566 24.128 62.3597 23.7687 62.5661 23.4557C62.7724 23.1426 63.0605 22.9007 63.4305 22.73C63.8076 22.5592 64.2381 22.4738 64.7219 22.4738C65.4191 22.4738 65.9883 22.6481 66.4294 22.9968C66.8777 23.3454 67.1303 23.8079 67.1872 24.3842H66.1199C66.0844 24.0996 65.935 23.8505 65.6717 23.6371C65.4085 23.4165 65.0598 23.3063 64.6258 23.3063C64.2203 23.3063 63.8894 23.413 63.6333 23.6264C63.3772 23.8328 63.2491 24.1245 63.2491 24.5016C63.2491 24.7719 63.3238 24.9925 63.4732 25.1632C63.6297 25.334 63.8183 25.4656 64.0388 25.5581C64.2665 25.6435 64.5831 25.7431 64.9887 25.8569C65.4796 25.9921 65.8745 26.1273 66.1733 26.2625C66.4721 26.3906 66.7283 26.5933 66.9417 26.8708C67.1552 27.1412 67.2619 27.5112 67.2619 27.9807C67.2619 28.3436 67.1658 28.6851 66.9737 29.0053C66.7816 29.3255 66.497 29.5852 66.1199 29.7844C65.7429 29.9836 65.2982 30.0832 64.7859 30.0832Z" fill="white"/>
<path opacity="0.4" d="M57.2866 23.3596V25.8463H59.9974V26.6467H57.2866V29.2081H60.3176V30.0085H56.3154V22.5592H60.3176V23.3596H57.2866Z" fill="white"/>
<path opacity="0.4" d="M47.0679 26.2838C47.0679 25.5581 47.2315 24.9071 47.5588 24.3308C47.8861 23.7474 48.3308 23.292 48.8928 22.9647C49.462 22.6375 50.0917 22.4738 50.7818 22.4738C51.5929 22.4738 52.3009 22.6695 52.9056 23.0608C53.5104 23.4521 53.9515 24.0071 54.229 24.7257H53.0657C52.8594 24.2774 52.5606 23.9324 52.1693 23.6905C51.785 23.4486 51.3226 23.3276 50.7818 23.3276C50.2625 23.3276 49.7964 23.4486 49.3838 23.6905C48.9711 23.9324 48.6474 24.2774 48.4126 24.7257C48.1778 25.1668 48.0604 25.6862 48.0604 26.2838C48.0604 26.8744 48.1778 27.3938 48.4126 27.842C48.6474 28.2831 48.9711 28.6246 49.3838 28.8665C49.7964 29.1085 50.2625 29.2294 50.7818 29.2294C51.3226 29.2294 51.785 29.112 52.1693 28.8772C52.5606 28.6353 52.8594 28.2902 53.0657 27.842H54.229C53.9515 28.5535 53.5104 29.1049 52.9056 29.4962C52.3009 29.8804 51.5929 30.0725 50.7818 30.0725C50.0917 30.0725 49.462 29.9124 48.8928 29.5923C48.3308 29.265 47.8861 28.8132 47.5588 28.2369C47.2315 27.6606 47.0679 27.0096 47.0679 26.2838Z" fill="white"/>
<path opacity="0.4" d="M45.1352 22.5699V30.0085H44.1641V22.5699H45.1352Z" fill="white"/>
<path opacity="0.4" d="M42.4589 22.5699L39.652 30.0085H38.5314L35.7246 22.5699H36.7598L39.0971 28.984L41.4343 22.5699H42.4589Z" fill="white"/>
<path opacity="0.4" d="M33.095 30.0085L31.3234 26.9669H30.1494V30.0085H29.1782V22.5699H31.5795C32.1416 22.5699 32.6147 22.6659 32.9989 22.858C33.3902 23.0501 33.682 23.3098 33.8741 23.6371C34.0662 23.9644 34.1622 24.3379 34.1622 24.7577C34.1622 25.27 34.0128 25.7218 33.714 26.1131C33.4223 26.5044 32.9811 26.7641 32.3906 26.8922L34.2583 30.0085H33.095ZM30.1494 26.1878H31.5795C32.106 26.1878 32.5009 26.0597 32.7641 25.8036C33.0274 25.5404 33.159 25.1917 33.159 24.7577C33.159 24.3166 33.0274 23.9751 32.7641 23.7332C32.508 23.4913 32.1131 23.3703 31.5795 23.3703H30.1494V26.1878Z" fill="white"/>
<path opacity="0.4" d="M24.0376 23.3596V25.8463H26.7484V26.6467H24.0376V29.2081H27.0685V30.0085H23.0664V22.5592H27.0685V23.3596H24.0376Z" fill="white"/>
<path opacity="0.4" d="M18.5208 30.0832C18.0298 30.0832 17.5887 29.9978 17.1974 29.8271C16.8132 29.6492 16.5108 29.4073 16.2902 29.1013C16.0697 28.7883 15.9558 28.429 15.9487 28.0234H16.9839C17.0195 28.3721 17.1618 28.6673 17.4108 28.9092C17.667 29.144 18.037 29.2614 18.5208 29.2614C18.9832 29.2614 19.3461 29.1476 19.6093 28.9199C19.8797 28.6851 20.0149 28.3863 20.0149 28.0234C20.0149 27.7388 19.9366 27.5076 19.7801 27.3297C19.6236 27.1519 19.4279 27.0167 19.1931 26.9242C18.9583 26.8317 18.6417 26.7321 18.2433 26.6254C17.7524 26.4973 17.3575 26.3692 17.0587 26.2412C16.7669 26.1131 16.5144 25.9139 16.3009 25.6435C16.0946 25.366 15.9914 24.996 15.9914 24.5336C15.9914 24.128 16.0946 23.7687 16.3009 23.4557C16.5072 23.1426 16.7954 22.9007 17.1654 22.73C17.5425 22.5592 17.9729 22.4738 18.4567 22.4738C19.154 22.4738 19.7232 22.6481 20.1643 22.9968C20.6125 23.3454 20.8651 23.8079 20.922 24.3842H19.8548C19.8192 24.0996 19.6698 23.8505 19.4066 23.6371C19.1433 23.4165 18.7947 23.3063 18.3607 23.3063C17.9551 23.3063 17.6243 23.413 17.3682 23.6264C17.112 23.8328 16.9839 24.1245 16.9839 24.5016C16.9839 24.7719 17.0587 24.9925 17.2081 25.1632C17.3646 25.334 17.5531 25.4656 17.7737 25.5581C18.0014 25.6435 18.318 25.7431 18.7235 25.8569C19.2145 25.9921 19.6093 26.1273 19.9082 26.2625C20.207 26.3906 20.4631 26.5933 20.6766 26.8708C20.89 27.1412 20.9967 27.5112 20.9967 27.9807C20.9967 28.3436 20.9007 28.6851 20.7086 29.0053C20.5165 29.3255 20.2319 29.5852 19.8548 29.7844C19.4777 29.9836 19.033 30.0832 18.5208 30.0832Z" fill="white"/>
<defs>
<clipPath id="clip0_803_18152">
<rect width="14.2298" height="14.2298" fill="white" transform="translate(133.625 112.563)"/>
</clipPath>
<clipPath id="clip1_803_18152">
<rect width="14.2298" height="14.2298" fill="white" transform="translate(22.4551 111.674)"/>
</clipPath>
</defs>
</svg>
