<svg width="272" height="266" viewBox="0 0 272 266" fill="none" xmlns="http://www.w3.org/2000/svg">
<path fill-rule="evenodd" clip-rule="evenodd" d="M7.62939e-06 158.942L7.64156e-06 159.196H0.254966H54.5781H54.8071H54.8331H55.062H109V212.04V212.295V265.264V265.519H109.255H163.578H163.807H163.833H164.062H218.158H218.385H218.413H218.64H272.965H273H273.22H273.255H327.578H327.807H327.833H328.062H382.158H382.385H382.413H382.64H436.965H437.22V265.264V105.577V105.322H436.965H382.64H382.385H328.22V-0.745043V-1L327.965 -1L273.64 -1L273.385 -1L219.062 -1L218.807 -1L218.578 -1H164.255L164.22 -1L163.965 -1L109.64 -1L109.385 -1L55.062 -1L54.8071 -1L54.5781 -1H0.254958H0V-0.745041L7.62939e-06 -0.742638V52.2351V52.4862V52.4901V52.7412V105.719V105.974V158.942ZM328.22 158.552V105.833H382.13V158.552H328.22ZM328.088 159.196H328.22V159.066H382.13L382.13 211.785H328.088L328.088 159.196ZM273.51 159.196H273.64H327.552V211.785H273.51V159.196ZM218.668 159.196H218.807H218.833H219.062H272.656V211.785H218.668V159.196ZM164.088 159.196H164.22H164.255H218.13V211.785H164.088V159.196ZM109.51 159.196H109.64H163.552V211.785H109.51V159.196ZM327.656 105.322V52.7451H273.668V105.322H327.578H327.656ZM273.13 105.322L273.13 52.7451H219.088L219.088 105.322H272.965H273.13ZM218.552 105.322V52.7451H164.51V105.322H218.385H218.552ZM163.656 105.322V52.7451H109.668L109.668 105.322H163.578H163.656ZM109.13 105.322V52.7451H55.088V105.464H109V105.322H109.13ZM109 105.974H55.088L55.0881 158.687H109V158.556V105.974ZM273.668 158.552V105.974H327.552V158.552H273.668ZM273.668 -0.48768V52.2313H327.656V-0.48768H273.668ZM219.088 -0.48768H273.13V52.2313H219.088V-0.48768ZM219.088 158.552V105.974H272.656V158.552H219.088ZM164.51 158.552V105.974H218.13V158.552H164.51ZM218.552 52.2313V-0.48768H164.51V52.2313H218.552ZM109.668 52.2313V-0.48768H163.656V52.2313H109.668ZM109.668 158.552H163.552L163.552 105.974H109.668V158.552ZM109.13 52.2313V-0.48768H55.088L55.088 52.2313H109.13ZM0.509921 105.974L0.509924 158.687H54.5521L54.5521 105.974H0.509921ZM54.5521 52.7451V105.464H0.509924V52.7451H54.5521ZM54.5521 -0.48768L54.5521 52.2313H0.509924V-0.48768H54.5521ZM382.668 265.009V212.295H436.71V265.009H382.668ZM382.668 105.833V158.552H436.656V105.833H382.668ZM382.668 159.066V211.785H436.656V159.066H382.668ZM328.088 212.295V265.009H382.13V212.295H328.088ZM273.51 265.009V212.295H327.552V265.009H273.51ZM218.668 212.295H272.71V265.009H218.668V212.295ZM164.088 265.009V212.295H218.13V265.009H164.088ZM109.51 212.295L109.51 265.009H163.552V212.295H109.51Z" fill="url(#paint0_linear_1116_19109)"/>
<defs>
<linearGradient id="paint0_linear_1116_19109" x1="372" y1="-77" x2="93.7564" y2="198.816" gradientUnits="userSpaceOnUse">
<stop stop-color="white"/>
<stop offset="1" stop-color="white" stop-opacity="0"/>
</linearGradient>
</defs>
</svg>
