<svg width="41" height="40" viewBox="0 0 41 40" fill="none" xmlns="http://www.w3.org/2000/svg">
<path opacity="0.3" fill-rule="evenodd" clip-rule="evenodd" d="M35.334 8.33333C35.334 6.49238 33.8416 5 32.0006 5H28.6673C26.8264 5 25.334 6.49238 25.334 8.33333V11.6667C25.334 13.5076 23.8416 15 22.0007 15H18.6673C16.8264 15 15.334 16.4924 15.334 18.3333V21.6667C15.334 23.5076 13.8416 25 12.0007 25H8.66732C6.82637 25 5.33398 26.4924 5.33398 28.3333V31.6667C5.33398 33.5076 6.82637 35 8.66732 35H32.0006C33.8416 35 35.334 33.5076 35.334 31.6667V25V15V8.33333Z" fill="#1B73F0"/>
<path d="M32.4173 25H8.25065C6.63982 25 5.33398 26.3058 5.33398 27.9167V32.0833C5.33398 33.6942 6.63982 35 8.25065 35H32.4173C34.0281 35 35.334 33.6942 35.334 32.0833V27.9167C35.334 26.3058 34.0281 25 32.4173 25Z" fill="url(#paint0_linear_839_15542)"/>
<defs>
<linearGradient id="paint0_linear_839_15542" x1="8.61523" y1="25" x2="33.9277" y2="25" gradientUnits="userSpaceOnUse">
<stop stop-color="#1B73F0"/>
<stop offset="1" stop-color="#1B73F0" stop-opacity="0"/>
</linearGradient>
</defs>
</svg>
