<svg width="140" height="173" viewBox="0 0 140 173" fill="none" xmlns="http://www.w3.org/2000/svg">
<path d="M109.021 18.6756C109.021 18.6756 105.132 23.3676 104.776 23.8718C102.272 27.9141 100.189 32.2232 98.36 36.6241C93.7824 47.7971 92.4518 59.0503 95.4676 70.8382C97.3288 77.8952 100.349 83.1852 108.058 82.6914C116.026 82.1185 120.229 72.1332 116.137 65.3632C112.29 59.0268 101.034 54.7306 94.0409 54.0451C85.2559 53.2297 75.6162 58.7204 68.0735 62.5529C45.7919 73.8876 26.7151 102.658 23.1442 127.194C22.1879 134.096 20.6729 142.694 22.7969 149.501" stroke="white" stroke-width="2.88313" stroke-miterlimit="1.5" stroke-linecap="round"/>
<path d="M12.0893 116.667C12.0019 116.749 12.0804 117.008 12.1632 117.096C12.8469 120.276 13.8769 123.294 14.819 126.395C16.5463 132.081 18.5366 137.517 20.6105 143.039C21.3218 145.194 22.0331 147.349 22.8271 149.593C23.0043 150.175 23.6304 150.071 23.8574 149.446C24.5269 146.813 25.1137 144.091 25.7837 141.457C27.6819 134.493 31.2525 125.775 38.7629 123.139" stroke="white" stroke-width="2.88313" stroke-miterlimit="1.5" stroke-linecap="round"/>
</svg>
