<svg width="92" height="77" viewBox="0 0 92 77" fill="none" xmlns="http://www.w3.org/2000/svg">
<path d="M87.5613 13.8289C87.7708 15.6213 87.8821 17.4478 87.8952 19.3085C87.9281 21.1443 87.7179 22.9403 87.2646 24.6965C86.9844 25.7967 86.575 26.9574 86.0364 28.1786C85.5177 29.3747 85.0127 30.592 84.5215 31.8304C84.0304 33.0687 83.6177 34.2979 83.2834 35.5179C82.9688 36.713 82.8757 37.8594 83.0041 38.9572C83.0355 39.226 83.0768 39.4824 83.128 39.7262C83.1792 39.97 83.2205 40.2264 83.252 40.4952C83.3201 41.0778 83.2643 41.5725 83.0848 41.9796C82.9053 42.3867 82.4795 42.6295 81.8073 42.7081C81.4264 42.7526 80.9593 42.7391 80.4059 42.6675C79.8525 42.5959 79.3972 42.4901 79.0402 42.3502C78.4711 42.1442 78.0872 41.8711 77.8884 41.531C77.6871 41.1684 77.551 40.6847 77.4803 40.0798C77.3441 38.9147 77.3812 37.7749 77.5916 36.6602C77.7994 35.5231 78.1019 34.4203 78.4994 33.3519C78.8942 32.261 79.3365 31.1874 79.8262 30.1309C80.3159 29.0743 80.772 28.0218 81.1944 26.9731C82.017 24.8784 82.4917 22.7222 82.6185 20.5045C82.7678 18.2841 82.7115 16.0537 82.4496 13.8132C82.3972 13.3651 82.3008 12.8314 82.1602 12.2119C82.0421 11.5898 81.8765 10.9505 81.6635 10.2941C81.4505 9.6377 81.1927 8.98651 80.8901 8.34057C80.6099 7.692 80.2717 7.12971 79.8754 6.65369C79.4764 6.15526 79.0234 5.77672 78.5162 5.51805C78.0289 5.23436 77.4827 5.12787 76.8778 5.19858C76.1384 5.285 75.561 5.59096 75.1455 6.11645C74.73 6.64194 74.4271 7.25646 74.2369 7.96003C74.0466 8.66359 73.9399 9.40279 73.9169 10.1776C73.9137 10.9275 73.9449 11.5824 74.0104 12.1425C74.0837 12.7699 74.2605 13.4078 74.5407 14.0564C74.8182 14.6825 75.113 15.2613 75.4249 15.7926C75.7368 16.3239 76.0172 16.7794 76.266 17.1591C76.5121 17.5164 76.6405 17.7399 76.6509 17.8295C76.6771 18.0535 76.5972 18.2446 76.4113 18.4025C76.2478 18.5579 76.0368 18.6961 75.7785 18.8172C75.5175 18.9158 75.2552 19.0033 74.9915 19.0795C74.7253 19.1333 74.5138 19.1694 74.3569 19.1877C73.5056 19.2873 72.7697 19.1121 72.1494 18.6623C71.5514 18.2098 71.0524 17.6322 70.6523 16.9296C70.2496 16.2045 69.9313 15.4241 69.6974 14.5884C69.4858 13.7502 69.3421 13.0062 69.2661 12.3564C69.1195 11.1018 69.1323 9.8512 69.3045 8.6047C69.4768 7.35819 69.844 6.22516 70.4061 5.20561C70.9682 4.18605 71.7194 3.32609 72.6595 2.62573C73.622 1.92274 74.809 1.48876 76.2205 1.32377C78.1697 1.09593 79.82 1.32316 81.1716 2.00547C82.5205 2.66538 83.6406 3.60185 84.5318 4.81489C85.4231 6.02793 86.0987 7.4365 86.5588 9.0406C87.0386 10.6197 87.3728 12.2158 87.5613 13.8289ZM79.1983 47.7823C79.1721 47.5582 79.2308 47.381 79.3746 47.2507C79.5157 47.0979 79.6957 46.986 79.9145 46.915C80.1531 46.819 80.3844 46.7579 80.6084 46.7317C80.8549 46.7029 81.0677 46.678 81.247 46.6571C81.471 46.6309 81.73 46.612 82.0238 46.6003C82.3375 46.5637 82.634 46.5744 82.9133 46.6326C83.19 46.6684 83.4285 46.7654 83.6287 46.9237C83.8486 47.057 83.9756 47.2693 84.0097 47.5605C84.0228 47.6725 84.0404 47.9203 84.0625 48.3038C84.1044 48.6623 84.139 49.0556 84.1664 49.484C84.2162 49.9096 84.2396 50.3043 84.2367 50.668C84.2535 51.0067 84.2521 51.1886 84.2323 51.2136C84.1267 51.4758 83.9296 51.6351 83.6409 51.6915C83.3549 51.7704 83.0775 51.8255 82.8086 51.8569C82.1365 51.9355 81.6284 51.9608 81.2845 51.9329C80.9406 51.905 80.6784 51.7994 80.498 51.616C80.34 51.4301 80.2065 51.1618 80.0974 50.8112C80.0107 50.458 79.8884 49.9954 79.7307 49.4233C79.6545 49.1597 79.5559 48.8987 79.4348 48.6403C79.3138 48.3819 79.2349 48.0959 79.1983 47.7823Z" fill="#1B73F0"/>
<path d="M72.3281 54.581C72.4355 55.4996 72.5145 56.4669 72.5651 57.483C72.6158 58.499 72.6216 59.5203 72.5826 60.5469C72.5462 61.5958 72.4513 62.6289 72.2976 63.6461C72.144 64.6633 71.9153 65.6212 71.6115 66.5197C71.0861 67.8529 70.363 69.0503 69.4424 70.1117C68.5468 71.193 67.5321 72.1292 66.3982 72.9203C65.2643 73.7115 64.0336 74.3549 62.7062 74.8508C61.3789 75.3466 60.0206 75.6757 58.6315 75.838C58.4299 75.8616 58.1933 75.8779 57.9219 75.8869C57.628 75.8986 57.3414 75.8753 57.0621 75.8171C56.7854 75.7813 56.5469 75.6843 56.3467 75.526C56.1465 75.3677 56.0281 75.1317 55.9914 74.8181C55.9757 74.6836 55.9936 74.5453 56.0451 74.403C56.0399 74.3582 56.0458 74.3121 56.063 74.2646C56.0604 74.2422 56.0578 74.2198 56.0552 74.1974C56.1596 73.731 56.2969 73.3516 56.4672 73.0592C56.6374 72.7667 56.8477 72.5264 57.0983 72.3381C57.329 72.1749 57.6197 72.0387 57.9703 71.9296C58.3011 71.8455 58.688 71.7549 59.1308 71.6577C60.5568 71.4229 61.873 70.9284 63.0794 70.1742L63.0833 70.2078C64.4558 69.3206 65.4937 68.2909 66.1969 67.1186C66.9252 65.966 67.4263 64.7152 67.7 63.3659C67.9989 62.0365 68.1205 60.6483 68.0649 59.2013C68.0093 57.7543 67.8964 56.3027 67.7262 54.8464C67.6869 54.5103 67.6581 54.2639 67.6398 54.1071C67.6214 53.9502 67.6044 53.8046 67.5887 53.6702C67.5756 53.5582 67.5599 53.4237 67.5415 53.2669C67.5232 53.1101 67.4832 52.8649 67.4215 52.5315C66.7081 53.2281 65.9257 53.6261 65.0743 53.7256C64.0885 53.8409 63.2169 53.6702 62.4595 53.2137C61.7219 52.7321 61.0668 52.082 60.4942 51.2632C59.9413 50.4194 59.465 49.4531 59.0652 48.3643C58.6852 47.2505 58.3599 46.1189 58.0893 44.9696C57.8384 43.7952 57.6252 42.6506 57.4494 41.5356C57.2961 40.418 57.1683 39.4223 57.0662 38.5485L56.9012 37.137C56.7624 35.9496 56.6262 34.7846 56.4926 33.6419C56.3815 32.4967 56.2927 31.3488 56.2264 30.1983L56.1675 29.6942C56.136 29.4254 56.1046 29.1565 56.0732 28.8877C56.0418 28.6188 56.0341 28.3585 56.0501 28.1069C56.0978 27.7379 56.1909 27.4659 56.3294 27.2907C56.4903 27.1129 56.7612 27.0018 57.142 26.9572C57.3213 26.9363 57.4906 26.9278 57.6501 26.9319C57.8319 26.9334 58.0151 26.946 58.1996 26.9699C58.6462 27.0994 59.0045 27.2505 59.2746 27.4233C59.542 27.5738 59.7474 27.7769 59.8908 28.0326C60.0541 28.2634 60.1665 28.5455 60.2282 28.8789C60.3123 29.2097 60.3805 29.5992 60.4329 30.0473L60.9593 34.5506C61.0222 35.0883 61.1007 35.7604 61.195 36.567C61.3091 37.3485 61.4435 38.2072 61.5983 39.1429C61.7531 40.0787 61.923 41.0467 62.1081 42.0471C62.2932 43.0474 62.5079 44.0102 62.7523 44.9355C62.9967 45.8608 63.2544 46.705 63.5253 47.4682C63.7962 48.2314 64.0962 48.855 64.4253 49.3389C64.7264 48.4179 64.9545 47.3579 65.1096 46.1589C65.2621 44.9374 65.3493 43.644 65.3714 42.2788C65.4133 40.8886 65.3953 39.4713 65.3173 38.0269C65.2617 36.5799 65.1764 35.1705 65.0615 33.7986C64.969 32.424 64.852 31.1318 64.7106 29.922C64.5889 28.6871 64.4744 27.6104 64.3671 26.6918C64.3409 26.4678 64.3134 26.2325 64.2846 25.9861C64.2755 25.7146 64.3041 25.4728 64.3701 25.2607C64.4335 25.0262 64.5358 24.8325 64.6769 24.6798C64.8405 24.5244 65.0902 24.4271 65.4263 24.3878C65.5831 24.3695 65.7538 24.3722 65.9383 24.3961C66.1451 24.4173 66.3184 24.4425 66.4581 24.4716C66.5029 24.4663 66.549 24.4723 66.5964 24.4895C66.6637 24.4816 66.7197 24.4751 66.7645 24.4698C67.0912 24.5452 67.4068 24.6219 67.7111 24.6998C68.0155 24.7778 68.279 24.8946 68.5016 25.0503C68.7439 25.1809 68.9368 25.3741 69.0803 25.6299C69.2461 25.883 69.354 26.2225 69.4037 26.6481C69.4639 27.1634 69.5221 27.7585 69.5783 28.4332C69.6542 29.083 69.7117 29.7689 69.7507 30.4911C69.8121 31.2107 69.861 31.9203 69.8974 32.6201C69.9311 33.2975 69.957 33.9076 69.9751 34.4506L69.9781 35.6425C69.97 35.9614 69.9731 36.279 69.9873 36.5953C70.0016 36.9116 70.0244 37.2042 70.0558 37.473C70.2234 38.9069 70.4023 40.3395 70.5923 41.7707C70.7797 43.1796 70.9796 44.5984 71.192 46.027C71.4044 47.4557 71.6056 48.8856 71.7956 50.3169C71.983 51.7258 72.1605 53.1471 72.3281 54.581Z" fill="#1B73F0"/>
<path d="M55.8857 52.3469C55.9381 52.795 55.8304 53.1368 55.5627 53.3725C55.295 53.6082 54.9483 53.7509 54.5226 53.8007C54.2538 53.8321 53.9711 53.8425 53.6746 53.8317C53.3755 53.7985 53.0876 53.764 52.8109 53.7283C52.3247 53.6488 51.9354 53.524 51.6429 53.3538C51.3729 53.181 51.1563 52.9792 50.9931 52.7484C50.8272 52.4953 50.7035 52.2145 50.6221 51.9061C50.563 51.595 50.5 51.2504 50.4331 50.8721C50.42 50.7601 50.397 50.6606 50.3641 50.5736C50.3536 50.484 50.3432 50.3944 50.3327 50.3048C50.1162 49.0356 49.8958 47.7327 49.6714 46.3963C49.4695 45.0573 49.2939 43.7493 49.1446 42.4722C49.0687 41.8225 48.9927 41.1727 48.9168 40.523C48.8632 39.8707 48.8097 39.2183 48.7561 38.566C48.7026 37.9136 48.6392 37.2738 48.5658 36.6465C48.5123 35.9941 48.4476 35.3431 48.3716 34.6933C48.3559 34.5589 48.3303 34.437 48.2948 34.3276C48.2791 34.1932 48.2522 34.06 48.214 33.9282C47.731 34.8477 47.327 35.8601 47.002 36.9655C46.6968 38.0459 46.4416 39.1658 46.2365 40.3253C46.0288 41.4624 45.8672 42.6055 45.7517 43.7545C45.6559 44.8785 45.5886 45.9538 45.5496 46.9803L45.5313 47.6979C45.5109 48.4951 45.4932 49.3148 45.478 50.1568C45.4603 50.9765 45.4986 51.7896 45.5928 52.5962C45.6321 52.9322 45.7313 53.2953 45.8905 53.6855C45.9563 53.8595 46.0108 54.0348 46.0542 54.2115C46.1173 54.363 46.1633 54.5621 46.1921 54.8085C46.255 55.3462 46.1624 55.7204 45.9145 55.9311C45.6692 56.1641 45.3226 56.3069 44.8745 56.3592C44.6056 56.3907 44.3005 56.4036 43.9592 56.3981C43.6403 56.3899 43.3175 56.3482 42.9907 56.2728C42.689 56.2173 42.3945 56.1268 42.1074 56.0014C41.8202 55.876 41.5838 55.6992 41.3981 55.4711C41.2297 55.1955 41.0049 54.4383 40.7238 53.1994C40.4651 51.9578 40.1711 50.4138 39.8417 48.5673C39.5347 46.7182 39.2015 44.6451 38.8422 42.3479C38.4802 40.0283 38.1117 37.6527 37.7366 35.2211C37.3839 32.7868 37.0339 30.375 36.6864 27.9856C36.3614 25.5935 36.0587 23.3919 35.7781 21.3808C35.52 19.367 35.2934 17.6221 35.0981 16.146C34.9003 14.6475 34.766 13.5958 34.6953 12.9909C34.6429 12.5428 34.6518 12.133 34.7219 11.7614C34.8118 11.3648 35.148 11.1325 35.7305 11.0644C36.3354 10.9937 36.9238 11.0725 37.4955 11.3009C38.0647 11.5069 38.5065 11.8868 38.821 12.4405C38.8763 12.5249 38.9643 12.8893 39.0851 13.5338C39.2032 14.1559 39.3436 14.9684 39.5063 15.9714C39.6663 16.9519 39.8447 18.0893 40.0414 19.3835C40.2355 20.6554 40.4361 21.9832 40.6433 23.367C40.8478 24.7285 41.0537 26.1011 41.2609 27.4849C41.4681 28.8688 41.6648 30.163 41.851 31.3676L42.6004 36.3218C42.7881 35.5958 43.039 34.8284 43.3533 34.0195C43.6675 33.2106 44.0456 32.4624 44.4876 31.7748C44.952 31.0846 45.4855 30.4999 46.0881 30.0207C46.7131 29.5388 47.4288 29.2508 48.2354 29.1565C49.2212 29.0413 50.0243 29.2086 50.6446 29.6584C51.265 30.1082 51.7541 30.6983 52.112 31.4287C52.4923 32.1564 52.7671 32.9532 52.9364 33.8191C53.1058 34.685 53.2324 35.4764 53.3162 36.1934C53.3686 36.6415 53.4084 37.0797 53.4358 37.508C53.4855 37.9337 53.5241 38.3607 53.5514 38.789C53.5814 39.2397 53.6114 39.6904 53.6414 40.1411C53.6911 40.5668 53.7422 41.0037 53.7946 41.4517C53.9753 42.9977 54.1948 44.5844 54.4532 46.2121C54.709 47.8174 55.0629 49.3885 55.5151 50.9254L55.6373 51.388C55.6978 51.5172 55.7498 51.6701 55.7931 51.8467C55.8365 52.0233 55.8673 52.19 55.8857 52.3469Z" fill="#1B73F0"/>
<path d="M31.4642 17.1158C31.7837 19.8491 32.0808 22.5851 32.3555 25.3237C32.6302 28.0623 32.8377 30.8087 32.978 33.563C33.138 36.2923 33.2196 39.0307 33.2229 41.7783C33.2261 44.5259 33.1285 47.2853 32.9301 50.0565L32.7066 52.8079C32.7922 52.9569 32.9343 53.2014 33.133 53.5416C33.3516 53.8567 33.574 54.2054 33.8004 54.5877C34.0241 54.9477 34.2229 55.2878 34.3966 55.6081C34.5703 55.9285 34.6637 56.1447 34.6768 56.2567C34.7108 56.548 34.6138 56.7864 34.3857 56.9721C34.18 57.1551 33.9242 57.2985 33.6184 57.4024C33.3152 57.5287 32.9969 57.6227 32.6634 57.6844C32.33 57.746 32.0624 57.7887 31.8608 57.8122C31.6144 57.8411 31.3778 57.8573 31.1511 57.8611C30.9271 57.8873 30.7103 57.8786 30.5008 57.8349C29.9646 57.7159 29.5937 57.5549 29.3883 57.3518C29.1829 57.1487 28.9308 56.8375 28.6319 56.4182C27.4814 54.7359 26.4364 52.9844 25.4969 51.1638C24.5771 49.3182 23.7331 47.441 22.965 45.5323C22.1942 43.6012 21.4794 41.6635 20.8206 39.7192C20.1593 37.7526 19.5216 35.7945 18.9076 33.845C18.9653 41.3328 18.5446 48.8083 17.6456 56.2717C17.8944 56.6514 18.1708 57.0733 18.4748 57.5374C18.7987 57.9764 18.9881 58.4312 19.0431 58.9017C19.0798 59.2154 19.0078 59.4736 18.8271 59.6764C18.6464 59.8792 18.4031 60.0326 18.0973 60.1364C17.8139 60.2377 17.5042 60.308 17.1681 60.3472C16.8571 60.4063 16.5882 60.4377 16.3616 60.4415C16.2996 60.4942 16.2363 60.5357 16.1717 60.5659C16.1071 60.5962 16.0188 60.6179 15.9068 60.631C15.1226 60.7226 14.4678 60.5607 13.9423 60.1452C13.4392 59.7271 13.014 59.1977 12.6665 58.557C11.6441 56.6098 10.6968 54.529 9.82477 52.3144C8.95273 50.0999 8.15517 47.8425 7.4321 45.5424C6.70903 43.2423 6.04328 40.9469 5.43485 38.6561C4.84621 36.3403 4.31154 34.0977 3.83085 31.9282C3.20554 29.2988 2.59275 26.6792 1.99246 24.0695C1.39218 21.4598 0.933597 18.7995 0.616715 16.0886C0.561719 15.6181 0.587031 15.2517 0.692651 14.9896C0.795651 14.705 1.11601 14.5313 1.65371 14.4684C2.48268 14.3716 3.13692 14.4313 3.61644 14.6478C4.11574 14.8393 4.5036 15.1459 4.78002 15.5678C5.07623 15.9647 5.29199 16.4505 5.42729 17.0252C5.585 17.5972 5.72554 18.2167 5.84891 18.8836C6.87839 23.805 8.00607 28.6922 9.23195 33.5453C10.4578 38.3983 11.9585 43.1738 13.734 47.8717C13.9749 44.6868 14.0702 41.5189 14.0199 38.368C13.9893 35.1921 13.9475 32.0175 13.8945 28.8442C13.8648 28.0074 13.8114 27.162 13.7343 26.308C13.6572 25.454 13.5913 24.5987 13.5366 23.7421C13.5017 22.8605 13.4793 21.9887 13.4694 21.1269C13.4819 20.2624 13.5642 19.4125 13.7164 18.5771C13.8342 17.8366 14.0949 17.2497 14.4985 16.8165C14.9021 16.3832 15.4959 16.1208 16.2801 16.0291C17.0418 15.9401 17.6552 16.0387 18.1202 16.325C18.5851 16.6113 18.9598 16.999 19.244 17.4881C19.5481 17.9522 19.7816 18.4927 19.9446 19.1096C20.1075 19.7264 20.2553 20.311 20.388 20.8632C21.3997 24.8556 22.563 28.7848 23.8779 32.6509C25.2153 36.5143 26.7068 40.3371 28.3525 44.119C28.3947 40.594 28.2701 37.0997 27.9788 33.6363C27.6876 30.173 27.3363 26.6825 26.9252 23.165C26.6921 21.171 26.4353 19.1684 26.1548 17.1573C25.8967 15.1435 25.5253 13.1316 25.0405 11.1216C25.0117 10.8751 24.9631 10.6537 24.8947 10.4573C24.8263 10.2609 24.7778 10.0395 24.7489 9.79303C24.694 9.32253 24.8003 8.96944 25.068 8.73376C25.3331 8.47567 25.6896 8.32043 26.1377 8.26806C26.429 8.23401 26.7466 8.23095 27.0905 8.25888C27.4542 8.26179 27.8106 8.29962 28.1598 8.37236C28.5288 8.42007 28.868 8.50532 29.1776 8.62811C29.5096 8.74828 29.7783 8.90991 29.9837 9.113C30.0865 9.21455 30.1825 9.45314 30.2718 9.82878C30.3835 10.2018 30.4932 10.6545 30.6009 11.187C30.7086 11.7195 30.8089 12.2869 30.9021 12.8892C30.9952 13.4915 31.0745 14.0727 31.1399 14.6328C31.2278 15.1903 31.2979 15.6931 31.3503 16.1412C31.4027 16.5893 31.4407 16.9141 31.4642 17.1158Z" fill="#1B73F0"/>
</svg>
