<svg width="32" height="32" viewBox="0 0 32 32" fill="none" xmlns="http://www.w3.org/2000/svg">
<path d="M21.3333 3.77644C19.7001 3.06285 17.8962 2.66699 16 2.66699C8.63616 2.66699 2.66663 8.63653 2.66663 16.0003C2.66663 23.3641 8.63616 29.3337 16 29.3337C23.3638 29.3337 29.3333 23.3641 29.3333 16.0003C29.3333 12.9981 28.3411 10.2277 26.6666 7.99902M12 18.667C12 20.1398 13.1939 21.3337 14.6666 21.3337H17.6754C18.9592 21.3337 20 20.2929 20 19.0091C20 18.0085 19.3597 17.1202 18.4105 16.8038L13.5894 15.1968C12.6402 14.8804 12 13.9921 12 12.9915C12 11.7077 13.0407 10.667 14.3245 10.667H17.3333C18.8061 10.667 20 11.8609 20 13.3337M16 8.66699V23.3337" stroke="#1B73F0" stroke-width="2" stroke-linecap="round" stroke-linejoin="round"/>
</svg>
