<svg width="484" height="310" viewBox="0 0 484 310" fill="none" xmlns="http://www.w3.org/2000/svg">
<mask id="mask0_807_9179" style="mask-type:alpha" maskUnits="userSpaceOnUse" x="0" y="0" width="484" height="310">
<rect width="484" height="310" rx="16" fill="#717171"/>
</mask>
<g mask="url(#mask0_807_9179)">
<rect width="484" height="310" rx="16" fill="url(#paint0_linear_807_9179)"/>
<path opacity="0.1" fill-rule="evenodd" clip-rule="evenodd" d="M116.979 57.9782C116.979 46.5061 126.279 37.2061 137.751 37.2061H347.226C358.699 37.2061 367.999 46.5061 367.999 57.9782V110.976C367.999 112.293 367.388 113.526 366.399 114.395C357.942 121.831 352.605 132.73 352.605 144.876C352.605 157.022 357.942 167.922 366.399 175.357C367.388 176.226 367.999 177.46 367.999 178.776V233.335C367.999 244.807 358.699 254.107 347.226 254.107H137.751C126.279 254.107 116.979 244.807 116.979 233.335V178.956C116.979 177.63 117.598 176.388 118.6 175.518C127.164 168.08 132.58 157.11 132.58 144.875C132.58 132.64 127.164 121.671 118.6 114.232C117.598 113.362 116.979 112.121 116.979 110.795V57.9782Z" fill="url(#paint1_linear_807_9179)"/>
<path d="M323.903 210.622L318.19 224.573H316.563L318.433 220.003L314.607 210.622H316.356L319.333 218.307L322.275 210.622H323.903Z" fill="#717171"/>
<path d="M313.048 207.298V220.107H311.473V207.298H313.048Z" fill="#717171"/>
<path d="M309.394 215.001C309.394 215.301 309.376 215.618 309.342 215.953H301.76C301.818 216.888 302.135 217.62 302.712 218.151C303.301 218.67 304.01 218.93 304.841 218.93C305.522 218.93 306.088 218.774 306.538 218.463C306.999 218.14 307.322 217.713 307.507 217.182H309.203C308.949 218.093 308.442 218.838 307.68 219.415C306.918 219.98 305.972 220.263 304.841 220.263C303.941 220.263 303.133 220.061 302.418 219.657C301.714 219.253 301.16 218.682 300.756 217.943C300.352 217.193 300.15 216.328 300.15 215.347C300.15 214.366 300.347 213.507 300.739 212.768C301.131 212.029 301.679 211.464 302.383 211.072C303.099 210.668 303.918 210.466 304.841 210.466C305.741 210.466 306.538 210.662 307.23 211.054C307.922 211.447 308.453 211.989 308.822 212.681C309.203 213.362 309.394 214.135 309.394 215.001ZM307.767 214.672C307.767 214.072 307.634 213.558 307.368 213.131C307.103 212.693 306.739 212.364 306.278 212.145C305.828 211.914 305.326 211.799 304.772 211.799C303.976 211.799 303.295 212.053 302.729 212.56C302.176 213.068 301.858 213.772 301.777 214.672H307.767Z" fill="#717171"/>
<path d="M296.355 211.92V217.511C296.355 217.972 296.453 218.301 296.649 218.497C296.845 218.682 297.186 218.774 297.67 218.774H298.83V220.107H297.411C296.534 220.107 295.876 219.905 295.438 219.501C294.999 219.097 294.78 218.434 294.78 217.511V211.92H293.551V210.622H294.78V208.233H296.355V210.622H298.83V211.92H296.355Z" fill="#717171"/>
<path d="M282.147 215.33C282.147 214.36 282.344 213.512 282.736 212.785C283.128 212.047 283.665 211.476 284.346 211.072C285.038 210.668 285.806 210.466 286.648 210.466C287.479 210.466 288.2 210.645 288.812 211.002C289.423 211.36 289.879 211.81 290.179 212.353V210.622H291.771V220.107H290.179V218.342C289.867 218.895 289.4 219.357 288.777 219.726C288.165 220.084 287.45 220.263 286.631 220.263C285.788 220.263 285.027 220.055 284.346 219.64C283.665 219.224 283.128 218.642 282.736 217.892C282.344 217.141 282.147 216.288 282.147 215.33ZM290.179 215.347C290.179 214.632 290.035 214.008 289.746 213.478C289.458 212.947 289.065 212.543 288.569 212.266C288.085 211.978 287.548 211.833 286.959 211.833C286.371 211.833 285.834 211.972 285.35 212.249C284.865 212.526 284.478 212.93 284.19 213.46C283.901 213.991 283.757 214.614 283.757 215.33C283.757 216.057 283.901 216.691 284.19 217.234C284.478 217.765 284.865 218.174 285.35 218.463C285.834 218.74 286.371 218.878 286.959 218.878C287.548 218.878 288.085 218.74 288.569 218.463C289.065 218.174 289.458 217.765 289.746 217.234C290.035 216.691 290.179 216.063 290.179 215.347Z" fill="#717171"/>
<path d="M279.29 209.081C278.99 209.081 278.736 208.977 278.528 208.769C278.321 208.562 278.217 208.308 278.217 208.008C278.217 207.708 278.321 207.454 278.528 207.246C278.736 207.038 278.99 206.935 279.29 206.935C279.578 206.935 279.821 207.038 280.017 207.246C280.225 207.454 280.329 207.708 280.329 208.008C280.329 208.308 280.225 208.562 280.017 208.769C279.821 208.977 279.578 209.081 279.29 209.081ZM280.052 210.621V220.107H278.476V210.621H280.052Z" fill="#717171"/>
<path d="M266.19 215.329C266.19 214.36 266.387 213.512 266.779 212.785C267.171 212.046 267.708 211.475 268.389 211.071C269.081 210.667 269.854 210.465 270.708 210.465C271.447 210.465 272.133 210.639 272.768 210.985C273.403 211.319 273.887 211.764 274.222 212.318V207.298H275.814V220.107H274.222V218.324C273.91 218.889 273.449 219.357 272.837 219.726C272.226 220.084 271.51 220.263 270.691 220.263C269.848 220.263 269.081 220.055 268.389 219.639C267.708 219.224 267.171 218.641 266.779 217.891C266.387 217.141 266.19 216.287 266.19 215.329ZM274.222 215.347C274.222 214.631 274.078 214.008 273.789 213.477C273.501 212.946 273.108 212.543 272.612 212.266C272.128 211.977 271.591 211.833 271.002 211.833C270.414 211.833 269.877 211.971 269.393 212.248C268.908 212.525 268.521 212.929 268.233 213.46C267.944 213.991 267.8 214.614 267.8 215.329C267.8 216.056 267.944 216.691 268.233 217.233C268.521 217.764 268.908 218.174 269.393 218.462C269.877 218.739 270.414 218.878 271.002 218.878C271.591 218.878 272.128 218.739 272.612 218.462C273.108 218.174 273.501 217.764 273.789 217.233C274.078 216.691 274.222 216.062 274.222 215.347Z" fill="#717171"/>
<path d="M264.7 215.001C264.7 215.301 264.683 215.618 264.648 215.953H257.067C257.125 216.888 257.442 217.62 258.019 218.151C258.607 218.67 259.317 218.93 260.148 218.93C260.829 218.93 261.394 218.774 261.844 218.463C262.306 218.14 262.629 217.713 262.814 217.182H264.51C264.256 218.093 263.748 218.838 262.987 219.415C262.225 219.98 261.279 220.263 260.148 220.263C259.248 220.263 258.44 220.061 257.725 219.657C257.021 219.253 256.467 218.682 256.063 217.943C255.659 217.193 255.457 216.328 255.457 215.347C255.457 214.366 255.653 213.507 256.046 212.768C256.438 212.029 256.986 211.464 257.69 211.072C258.405 210.668 259.225 210.466 260.148 210.466C261.048 210.466 261.844 210.662 262.537 211.054C263.229 211.447 263.76 211.989 264.129 212.681C264.51 213.362 264.7 214.135 264.7 215.001ZM263.073 214.672C263.073 214.072 262.94 213.558 262.675 213.131C262.41 212.693 262.046 212.364 261.585 212.145C261.135 211.914 260.633 211.799 260.079 211.799C259.282 211.799 258.602 212.053 258.036 212.56C257.482 213.068 257.165 213.772 257.084 214.672H263.073Z" fill="#717171"/>
<path d="M249.619 210.448C250.357 210.448 251.015 210.604 251.592 210.916C252.169 211.216 252.625 211.671 252.96 212.283C253.294 212.895 253.461 213.639 253.461 214.516V220.107H251.904V214.741C251.904 213.795 251.667 213.073 251.194 212.577C250.732 212.07 250.103 211.816 249.307 211.816C248.488 211.816 247.836 212.081 247.351 212.612C246.867 213.131 246.624 213.887 246.624 214.879V220.107H245.066V214.741C245.066 213.795 244.83 213.073 244.357 212.577C243.895 212.07 243.266 211.816 242.47 211.816C241.651 211.816 240.999 212.081 240.514 212.612C240.029 213.131 239.787 213.887 239.787 214.879V220.107H238.212V210.621H239.787V211.989C240.099 211.493 240.514 211.112 241.033 210.846C241.564 210.581 242.147 210.448 242.782 210.448C243.578 210.448 244.282 210.627 244.893 210.985C245.505 211.343 245.961 211.868 246.261 212.56C246.526 211.891 246.965 211.371 247.576 211.002C248.188 210.633 248.869 210.448 249.619 210.448Z" fill="#717171"/>
<path d="M231.786 210.448C232.524 210.448 233.182 210.604 233.759 210.916C234.336 211.216 234.792 211.671 235.126 212.283C235.461 212.895 235.628 213.639 235.628 214.516V220.107H234.071V214.741C234.071 213.795 233.834 213.073 233.361 212.577C232.899 212.07 232.27 211.816 231.474 211.816C230.655 211.816 230.003 212.081 229.518 212.612C229.034 213.131 228.791 213.887 228.791 214.879V220.107H227.233V214.741C227.233 213.795 226.997 213.073 226.524 212.577C226.062 212.07 225.433 211.816 224.637 211.816C223.818 211.816 223.166 212.081 222.681 212.612C222.196 213.131 221.954 213.887 221.954 214.879V220.107H220.379V210.621H221.954V211.989C222.266 211.493 222.681 211.112 223.2 210.846C223.731 210.581 224.314 210.448 224.949 210.448C225.745 210.448 226.449 210.627 227.06 210.985C227.672 211.343 228.128 211.868 228.428 212.56C228.693 211.891 229.132 211.371 229.743 211.002C230.355 210.633 231.036 210.448 231.786 210.448Z" fill="#717171"/>
<path d="M216.933 209.081C216.633 209.081 216.379 208.977 216.171 208.769C215.963 208.562 215.859 208.308 215.859 208.008C215.859 207.708 215.963 207.454 216.171 207.246C216.379 207.038 216.633 206.935 216.933 206.935C217.221 206.935 217.463 207.038 217.66 207.246C217.867 207.454 217.971 207.708 217.971 208.008C217.971 208.308 217.867 208.562 217.66 208.769C217.463 208.977 217.221 209.081 216.933 209.081ZM217.694 210.621V220.107H216.119V210.621H217.694Z" fill="#717171"/>
<path d="M209.425 215.001C209.425 215.301 209.408 215.618 209.373 215.953H201.791C201.849 216.888 202.166 217.62 202.743 218.151C203.332 218.67 204.042 218.93 204.872 218.93C205.553 218.93 206.119 218.774 206.569 218.463C207.03 218.14 207.353 217.713 207.538 217.182H209.234C208.981 218.093 208.473 218.838 207.711 219.415C206.95 219.98 206.003 220.263 204.872 220.263C203.972 220.263 203.165 220.061 202.449 219.657C201.745 219.253 201.191 218.682 200.787 217.943C200.384 217.193 200.182 216.328 200.182 215.347C200.182 214.366 200.378 213.507 200.77 212.768C201.163 212.029 201.711 211.464 202.415 211.072C203.13 210.668 203.949 210.466 204.872 210.466C205.773 210.466 206.569 210.662 207.261 211.054C207.954 211.447 208.484 211.989 208.854 212.681C209.234 213.362 209.425 214.135 209.425 215.001ZM207.798 214.672C207.798 214.072 207.665 213.558 207.4 213.131C207.134 212.693 206.771 212.364 206.309 212.145C205.859 211.914 205.357 211.799 204.803 211.799C204.007 211.799 203.326 212.053 202.761 212.56C202.207 213.068 201.89 213.772 201.809 214.672H207.798Z" fill="#717171"/>
<path d="M198.11 210.622V220.107H196.535V218.705C196.235 219.19 195.814 219.571 195.271 219.847C194.741 220.113 194.152 220.246 193.506 220.246C192.767 220.246 192.104 220.096 191.515 219.796C190.927 219.484 190.459 219.022 190.113 218.411C189.779 217.799 189.611 217.055 189.611 216.178V210.622H191.169V215.97C191.169 216.905 191.406 217.626 191.879 218.134C192.352 218.63 192.998 218.878 193.818 218.878C194.66 218.878 195.323 218.619 195.808 218.099C196.293 217.58 196.535 216.824 196.535 215.832V210.622H198.11Z" fill="#717171"/>
<path d="M181.216 208.042C182.532 208.042 183.668 208.291 184.626 208.787C185.595 209.271 186.334 209.97 186.842 210.881C187.361 211.793 187.621 212.866 187.621 214.101C187.621 215.335 187.361 216.409 186.842 217.32C186.334 218.22 185.595 218.913 184.626 219.397C183.668 219.871 182.532 220.107 181.216 220.107H177.46V208.042H181.216ZM181.216 218.809C182.774 218.809 183.963 218.399 184.782 217.58C185.601 216.749 186.011 215.589 186.011 214.101C186.011 212.601 185.595 211.429 184.765 210.587C183.945 209.745 182.762 209.323 181.216 209.323H179.035V218.809H181.216Z" fill="#717171"/>
<path opacity="0.32" d="M148.149 218.543C148.538 219.384 149.006 220.265 148.734 221.213C148.541 221.881 148.122 222.428 148.063 223.147C147.962 224.372 149.04 225.363 150.252 225.162C151.381 224.973 152.467 223.9 153.658 224.18C153.777 224.208 154.171 224.347 155.133 224.692C156.209 225.077 157.355 225.263 158.663 225.263C165.06 225.263 170.246 220.078 170.246 213.681C170.246 207.284 165.06 202.099 158.663 202.099C152.267 202.099 147.081 207.284 147.081 213.681C147.081 215.416 147.463 217.064 148.149 218.543Z" fill="#717171"/>
<path fill-rule="evenodd" clip-rule="evenodd" d="M158.664 208.025C159.11 208.025 159.472 208.387 159.472 208.833V214.22C159.472 214.666 159.11 215.028 158.664 215.028C158.218 215.028 157.856 214.666 157.856 214.22V208.833C157.856 208.387 158.218 208.025 158.664 208.025ZM157.317 217.991C157.317 217.247 157.92 216.644 158.664 216.644C159.408 216.644 160.011 217.247 160.011 217.991C160.011 218.735 159.408 219.338 158.664 219.338C157.92 219.338 157.317 218.735 157.317 217.991Z" fill="#717171"/>
<path d="M296.405 136.84C296.405 129.641 297.612 124.024 300.025 119.988C302.481 115.91 306.683 113.871 312.634 113.871C318.584 113.871 322.766 115.91 325.18 119.988C327.635 124.024 328.862 129.641 328.862 136.84C328.862 144.122 327.635 149.823 325.18 153.943C322.766 158.021 318.584 160.06 312.634 160.06C306.683 160.06 302.481 158.021 300.025 153.943C297.612 149.823 296.405 144.122 296.405 136.84ZM321.872 136.84C321.872 133.47 321.643 130.619 321.185 128.289C320.769 125.959 319.895 124.065 318.563 122.609C317.232 121.111 315.255 120.362 312.634 120.362C310.012 120.362 308.036 121.111 306.704 122.609C305.373 124.065 304.478 125.959 304.02 128.289C303.604 130.619 303.396 133.47 303.396 136.84C303.396 140.336 303.604 143.269 304.02 145.641C304.436 148.013 305.31 149.927 306.642 151.384C308.015 152.84 310.012 153.568 312.634 153.568C315.255 153.568 317.232 152.84 318.563 151.384C319.937 149.927 320.831 148.013 321.247 145.641C321.664 143.269 321.872 140.336 321.872 136.84Z" fill="#717171"/>
<path d="M258.292 136.84C258.292 129.641 259.499 124.024 261.912 119.988C264.367 115.91 268.57 113.871 274.521 113.871C280.471 113.871 284.653 115.91 287.066 119.988C289.522 124.024 290.749 129.641 290.749 136.84C290.749 144.122 289.522 149.823 287.066 153.943C284.653 158.021 280.471 160.06 274.521 160.06C268.57 160.06 264.367 158.021 261.912 153.943C259.499 149.823 258.292 144.122 258.292 136.84ZM283.758 136.84C283.758 133.47 283.529 130.619 283.072 128.289C282.656 125.959 281.782 124.065 280.45 122.609C279.119 121.111 277.142 120.362 274.521 120.362C271.899 120.362 269.922 121.111 268.591 122.609C267.259 124.065 266.365 125.959 265.907 128.289C265.491 130.619 265.283 133.47 265.283 136.84C265.283 140.336 265.491 143.269 265.907 145.641C266.323 148.013 267.197 149.927 268.528 151.384C269.902 152.84 271.899 153.568 274.521 153.568C277.142 153.568 279.119 152.84 280.45 151.384C281.823 149.927 282.718 148.013 283.134 145.641C283.55 143.269 283.758 140.336 283.758 136.84Z" fill="#717171"/>
<path d="M249.636 120.799H228.726V133.22C229.6 132.055 230.89 131.077 232.596 130.286C234.344 129.496 236.196 129.1 238.151 129.1C241.647 129.1 244.476 129.849 246.64 131.347C248.846 132.845 250.406 134.739 251.321 137.027C252.279 139.316 252.757 141.73 252.757 144.268C252.757 147.347 252.154 150.093 250.947 152.507C249.782 154.879 248.013 156.751 245.641 158.125C243.311 159.498 240.44 160.184 237.028 160.184C232.492 160.184 228.851 159.061 226.105 156.814C223.358 154.567 221.715 151.592 221.174 147.888H228.102C228.56 149.844 229.579 151.404 231.161 152.569C232.742 153.693 234.718 154.255 237.09 154.255C240.045 154.255 242.25 153.36 243.707 151.571C245.205 149.781 245.954 147.41 245.954 144.455C245.954 141.459 245.205 139.17 243.707 137.589C242.209 135.966 240.003 135.155 237.09 135.155C235.051 135.155 233.324 135.675 231.91 136.715C230.536 137.714 229.538 139.087 228.914 140.835H222.173V114.557H249.636V120.799Z" fill="#717171"/>
<path d="M216.891 151.633L209.339 168.861H204.72L209.151 151.633H216.891Z" fill="#717171"/>
<path d="M187.268 121.174V114.682H200.25V160.184H193.072V121.174H187.268Z" fill="#717171"/>
<path d="M179.691 147.826C179.691 149.906 179.17 151.862 178.13 153.693C177.131 155.524 175.633 157.063 173.636 158.312C171.68 159.56 169.35 160.309 166.645 160.559V165.615H162.588V160.559C158.677 160.184 155.514 158.957 153.101 156.876C150.687 154.796 149.48 152.049 149.48 148.637H157.095C157.22 150.26 157.74 151.612 158.656 152.694C159.571 153.735 160.882 154.4 162.588 154.692V140.96C159.8 140.252 157.532 139.545 155.785 138.838C154.037 138.089 152.539 136.923 151.291 135.342C150.084 133.761 149.48 131.597 149.48 128.851C149.48 125.397 150.687 122.547 153.101 120.3C155.514 118.011 158.677 116.679 162.588 116.305V111.249H166.645V116.305C170.307 116.638 173.241 117.803 175.446 119.8C177.693 121.756 178.962 124.461 179.254 127.914H171.639C171.514 126.625 171.015 125.48 170.141 124.482C169.267 123.441 168.102 122.734 166.645 122.359V135.842C169.433 136.507 171.701 137.215 173.449 137.964C175.196 138.671 176.674 139.815 177.88 141.397C179.087 142.936 179.691 145.079 179.691 147.826ZM156.721 128.476C156.721 130.182 157.22 131.514 158.219 132.471C159.259 133.428 160.716 134.198 162.588 134.78V122.172C160.799 122.38 159.363 123.025 158.281 124.107C157.241 125.189 156.721 126.645 156.721 128.476ZM166.645 154.692C168.476 154.4 169.912 153.672 170.952 152.507C171.992 151.3 172.513 149.865 172.513 148.2C172.513 146.536 171.992 145.246 170.952 144.33C169.953 143.373 168.518 142.603 166.645 142.021V154.692Z" fill="#717171"/>
<path d="M297.955 84.2243C297.955 84.5623 297.936 84.9197 297.897 85.2967H289.357C289.422 86.3495 289.78 87.1748 290.429 87.7727C291.092 88.3576 291.892 88.6501 292.828 88.6501C293.594 88.6501 294.231 88.4746 294.738 88.1237C295.258 87.7597 295.622 87.2788 295.83 86.6809H297.741C297.455 87.7078 296.883 88.5461 296.025 89.196C295.167 89.8329 294.101 90.1513 292.828 90.1513C291.814 90.1513 290.904 89.9239 290.098 89.469C289.305 89.014 288.681 88.3706 288.226 87.5388C287.771 86.6939 287.544 85.7191 287.544 84.6143C287.544 83.5095 287.765 82.5411 288.207 81.7093C288.649 80.8774 289.266 80.2405 290.059 79.7986C290.865 79.3437 291.788 79.1162 292.828 79.1162C293.841 79.1162 294.738 79.3372 295.518 79.7791C296.298 80.221 296.896 80.8319 297.312 81.6118C297.741 82.3787 297.955 83.2495 297.955 84.2243ZM296.122 83.8539C296.122 83.178 295.973 82.5996 295.674 82.1187C295.375 81.6248 294.966 81.2544 294.446 81.0074C293.939 80.7474 293.373 80.6175 292.75 80.6175C291.853 80.6175 291.086 80.9034 290.449 81.4753C289.825 82.0472 289.468 82.8401 289.377 83.8539H296.122Z" fill="#717171"/>
<path d="M275.701 84.6143C275.701 83.5095 275.922 82.5476 276.364 81.7288C276.806 80.8969 277.417 80.2535 278.197 79.7986C278.99 79.3437 279.893 79.1162 280.907 79.1162C282.22 79.1162 283.298 79.4347 284.143 80.0715C285.001 80.7084 285.566 81.5923 285.839 82.7231H283.929C283.747 82.0732 283.389 81.5598 282.856 81.1829C282.337 80.8059 281.687 80.6175 280.907 80.6175C279.893 80.6175 279.074 80.9684 278.45 81.6703C277.826 82.3592 277.514 83.3405 277.514 84.6143C277.514 85.9011 277.826 86.8954 278.45 87.5973C279.074 88.2992 279.893 88.6501 280.907 88.6501C281.687 88.6501 282.337 88.4681 282.856 88.1042C283.376 87.7403 283.734 87.2203 283.929 86.5445H285.839C285.553 87.6363 284.982 88.5136 284.124 89.1765C283.266 89.8264 282.194 90.1513 280.907 90.1513C279.893 90.1513 278.99 89.9239 278.197 89.469C277.417 89.014 276.806 88.3706 276.364 87.5388C275.922 86.7069 275.701 85.7321 275.701 84.6143Z" fill="#717171"/>
<path d="M272.482 77.5563C272.144 77.5563 271.858 77.4393 271.624 77.2053C271.39 76.9714 271.273 76.6854 271.273 76.3475C271.273 76.0095 271.39 75.7236 271.624 75.4896C271.858 75.2557 272.144 75.1387 272.482 75.1387C272.807 75.1387 273.08 75.2557 273.301 75.4896C273.535 75.7236 273.652 76.0095 273.652 76.3475C273.652 76.6854 273.535 76.9714 273.301 77.2053C273.08 77.4393 272.807 77.5563 272.482 77.5563ZM273.34 79.2915V89.9757H271.566V79.2915H273.34Z" fill="#717171"/>
<path d="M263.754 90.1513C262.753 90.1513 261.844 89.9239 261.025 89.469C260.219 89.014 259.582 88.3706 259.114 87.5388C258.659 86.6939 258.432 85.7191 258.432 84.6143C258.432 83.5225 258.666 82.5606 259.134 81.7288C259.614 80.8839 260.264 80.2405 261.083 79.7986C261.902 79.3437 262.818 79.1162 263.832 79.1162C264.846 79.1162 265.762 79.3437 266.581 79.7986C267.4 80.2405 268.044 80.8774 268.511 81.7093C268.992 82.5411 269.233 83.5095 269.233 84.6143C269.233 85.7191 268.986 86.6939 268.492 87.5388C268.011 88.3706 267.355 89.014 266.523 89.469C265.691 89.9239 264.768 90.1513 263.754 90.1513ZM263.754 88.5916C264.391 88.5916 264.989 88.4421 265.548 88.1432C266.107 87.8442 266.555 87.3958 266.893 86.7979C267.244 86.2 267.42 85.4721 267.42 84.6143C267.42 83.7564 267.251 83.0285 266.913 82.4307C266.575 81.8328 266.133 81.3908 265.587 81.1049C265.041 80.8059 264.45 80.6565 263.813 80.6565C263.163 80.6565 262.565 80.8059 262.019 81.1049C261.486 81.3908 261.057 81.8328 260.732 82.4307C260.407 83.0285 260.245 83.7564 260.245 84.6143C260.245 85.4851 260.401 86.2195 260.713 86.8174C261.038 87.4153 261.467 87.8637 262 88.1627C262.532 88.4486 263.117 88.5916 263.754 88.5916Z" fill="#717171"/>
<path d="M252.143 88.338L255.457 79.2915H257.349L253.157 89.9757H251.09L246.898 79.2915H248.809L252.143 88.338Z" fill="#717171"/>
<path d="M240.901 79.0967C242.201 79.0967 243.254 79.4931 244.059 80.286C244.865 81.0658 245.268 82.1967 245.268 83.6784V89.9758H243.513V83.9319C243.513 82.866 243.247 82.0537 242.714 81.4948C242.181 80.9229 241.453 80.6369 240.53 80.6369C239.595 80.6369 238.847 80.9294 238.288 81.5143C237.742 82.0992 237.47 82.9505 237.47 84.0683V89.9758H235.695V79.2916H237.47V80.8124C237.82 80.2665 238.295 79.8441 238.893 79.5451C239.504 79.2462 240.173 79.0967 240.901 79.0967Z" fill="#717171"/>
<path d="M232.672 76.3862V89.9754H230.897V76.3862H232.672Z" fill="#717171"/>
<path d="M223.358 84.2243C223.358 84.5623 223.338 84.9197 223.299 85.2967H214.759C214.824 86.3495 215.182 87.1748 215.832 87.7727C216.495 88.3576 217.294 88.6501 218.23 88.6501C218.997 88.6501 219.634 88.4746 220.141 88.1237C220.66 87.7597 221.024 87.2788 221.232 86.6809H223.143C222.857 87.7078 222.285 88.5461 221.427 89.196C220.569 89.8329 219.504 90.1513 218.23 90.1513C217.216 90.1513 216.306 89.9239 215.5 89.469C214.707 89.014 214.084 88.3706 213.629 87.5388C213.174 86.6939 212.946 85.7191 212.946 84.6143C212.946 83.5095 213.167 82.5411 213.609 81.7093C214.051 80.8774 214.668 80.2405 215.461 79.7986C216.267 79.3437 217.19 79.1162 218.23 79.1162C219.244 79.1162 220.141 79.3372 220.92 79.7791C221.7 80.221 222.298 80.8319 222.714 81.6118C223.143 82.3787 223.358 83.2495 223.358 84.2243ZM221.525 83.8539C221.525 83.178 221.375 82.5996 221.076 82.1187C220.777 81.6248 220.368 81.2544 219.848 81.0074C219.341 80.7474 218.776 80.6175 218.152 80.6175C217.255 80.6175 216.488 80.9034 215.851 81.4753C215.227 82.0472 214.87 82.8401 214.779 83.8539H221.525Z" fill="#717171"/>
<path d="M208.671 80.7539V87.0513C208.671 87.5712 208.782 87.9417 209.003 88.1626C209.224 88.3706 209.607 88.4746 210.153 88.4746H211.459V89.9758H209.86C208.873 89.9758 208.132 89.7483 207.638 89.2934C207.144 88.8385 206.897 88.0911 206.897 87.0513V80.7539H205.513V79.2916H206.897V76.6011H208.671V79.2916H211.459V80.7539H208.671Z" fill="#717171"/>
<path d="M202.626 77.5563C202.288 77.5563 202.002 77.4393 201.768 77.2053C201.534 76.9714 201.417 76.6854 201.417 76.3475C201.417 76.0095 201.534 75.7236 201.768 75.4896C202.002 75.2557 202.288 75.1387 202.626 75.1387C202.951 75.1387 203.224 75.2557 203.445 75.4896C203.679 75.7236 203.796 76.0095 203.796 76.3475C203.796 76.6854 203.679 76.9714 203.445 77.2053C203.224 77.4393 202.951 77.5563 202.626 77.5563ZM203.484 79.2915V89.9757H201.709V79.2915H203.484Z" fill="#717171"/>
<path d="M195.305 90.1513C194.486 90.1513 193.752 90.0149 193.102 89.7419C192.452 89.456 191.938 89.066 191.561 88.5721C191.184 88.0652 190.976 87.4868 190.938 86.8369H192.77C192.822 87.3698 193.069 87.8052 193.511 88.1432C193.966 88.4811 194.557 88.6501 195.285 88.6501C195.961 88.6501 196.494 88.5006 196.884 88.2017C197.274 87.9027 197.469 87.5258 197.469 87.0709C197.469 86.6029 197.261 86.2585 196.845 86.0375C196.429 85.8036 195.786 85.5761 194.915 85.3552C194.122 85.1472 193.472 84.9392 192.965 84.7313C192.471 84.5103 192.042 84.1919 191.678 83.7759C191.327 83.347 191.152 82.7881 191.152 82.0992C191.152 81.5533 191.314 81.0529 191.639 80.598C191.964 80.143 192.426 79.7856 193.024 79.5256C193.622 79.2527 194.304 79.1162 195.071 79.1162C196.254 79.1162 197.209 79.4152 197.937 80.0131C198.665 80.611 199.055 81.4298 199.107 82.4696H197.332C197.293 81.9107 197.066 81.4623 196.65 81.1244C196.247 80.7864 195.701 80.6175 195.012 80.6175C194.375 80.6175 193.869 80.7539 193.492 81.0269C193.115 81.2998 192.926 81.6573 192.926 82.0992C192.926 82.4501 193.037 82.7426 193.258 82.9766C193.492 83.1975 193.778 83.3795 194.115 83.5225C194.466 83.6524 194.947 83.8019 195.558 83.9709C196.325 84.1789 196.949 84.3868 197.43 84.5948C197.911 84.7898 198.32 85.0887 198.658 85.4916C199.009 85.8946 199.191 86.421 199.204 87.0709C199.204 87.6558 199.042 88.1822 198.717 88.6501C198.392 89.118 197.93 89.4885 197.332 89.7614C196.748 90.0214 196.072 90.1513 195.305 90.1513Z" fill="#717171"/>
<path d="M180.122 81.2804C180.486 80.6435 181.019 80.1236 181.721 79.7206C182.422 79.3177 183.222 79.1162 184.119 79.1162C185.081 79.1162 185.945 79.3437 186.712 79.7986C187.479 80.2535 188.083 80.8969 188.525 81.7288C188.967 82.5477 189.188 83.503 189.188 84.5948C189.188 85.6736 188.967 86.6355 188.525 87.4803C188.083 88.3252 187.472 88.9816 186.692 89.4495C185.925 89.9174 185.068 90.1514 184.119 90.1514C183.196 90.1514 182.383 89.9499 181.682 89.547C180.993 89.144 180.473 88.6306 180.122 88.0067V89.9759H178.348V75.5483H180.122V81.2804ZM187.375 84.5948C187.375 83.7889 187.212 83.0871 186.887 82.4892C186.562 81.8913 186.12 81.4363 185.561 81.1244C185.016 80.8124 184.411 80.6565 183.748 80.6565C183.098 80.6565 182.494 80.8189 181.935 81.1439C181.389 81.4558 180.947 81.9173 180.609 82.5282C180.284 83.1261 180.122 83.8214 180.122 84.6143C180.122 85.4202 180.284 86.1285 180.609 86.7394C180.947 87.3373 181.389 87.7988 181.935 88.1237C182.494 88.4357 183.098 88.5916 183.748 88.5916C184.411 88.5916 185.016 88.4357 185.561 88.1237C186.12 87.7988 186.562 87.3373 186.887 86.7394C187.212 86.1285 187.375 85.4137 187.375 84.5948Z" fill="#717171"/>
<path d="M176.005 84.2243C176.005 84.5623 175.985 84.9197 175.946 85.2967H167.407C167.472 86.3495 167.829 87.1748 168.479 87.7727C169.142 88.3576 169.942 88.6501 170.877 88.6501C171.644 88.6501 172.281 88.4746 172.788 88.1237C173.308 87.7597 173.672 87.2788 173.88 86.6809H175.791C175.505 87.7078 174.933 88.5461 174.075 89.196C173.217 89.8329 172.151 90.1513 170.877 90.1513C169.864 90.1513 168.954 89.9239 168.148 89.469C167.355 89.014 166.731 88.3706 166.276 87.5388C165.821 86.6939 165.594 85.7191 165.594 84.6143C165.594 83.5095 165.815 82.5411 166.257 81.7093C166.699 80.8774 167.316 80.2405 168.109 79.7986C168.915 79.3437 169.838 79.1162 170.877 79.1162C171.891 79.1162 172.788 79.3372 173.568 79.7791C174.348 80.221 174.946 80.8319 175.362 81.6118C175.791 82.3787 176.005 83.2495 176.005 84.2243ZM174.172 83.8539C174.172 83.178 174.023 82.5996 173.724 82.1187C173.425 81.6248 173.015 81.2544 172.496 81.0074C171.989 80.7474 171.423 80.6175 170.799 80.6175C169.903 80.6175 169.136 80.9034 168.499 81.4753C167.875 82.0472 167.517 82.8401 167.426 83.8539H174.172Z" fill="#717171"/>
<path d="M164.316 76.3862L160.377 89.9754H158.389L155.23 79.0378L151.955 89.9754L149.985 89.9949L146.184 76.3862H148.075L151.038 87.9088L154.314 76.3862H156.302L159.422 87.8698L162.405 76.3862H164.316Z" fill="#717171"/>
</g>
<defs>
<linearGradient id="paint0_linear_807_9179" x1="48" y1="-27" x2="42.5668" y2="350.873" gradientUnits="userSpaceOnUse">
<stop stop-color="#242424"/>
<stop offset="0.5" stop-color="#242424" stop-opacity="0.5"/>
<stop offset="1" stop-opacity="0"/>
</linearGradient>
<linearGradient id="paint1_linear_807_9179" x1="176.697" y1="67.1323" x2="244.476" y2="303.95" gradientUnits="userSpaceOnUse">
<stop stop-color="white"/>
<stop offset="0.5" stop-color="#808080" stop-opacity="0.5"/>
<stop offset="1" stop-opacity="0"/>
</linearGradient>
</defs>
</svg>
