<svg width="474" height="67" viewBox="0 0 474 67" fill="none" xmlns="http://www.w3.org/2000/svg">
<path d="M87.0027 28.5471C69.1497 38.5 40.9251 38.3269 22.6455 29.5618C17.5255 27.0635 10.9997 24.171 7.34816 19.6252" stroke="#1B73F0" stroke-width="3" stroke-miterlimit="1.5" stroke-linecap="round"/>
<path d="M24.7486 41.8645C24.6526 41.8861 24.513 41.715 24.4908 41.6186C22.6445 39.7045 21.0662 37.6293 19.3911 35.5757C16.3201 31.8108 13.5386 27.9812 10.7363 24.0553C9.59814 22.5899 8.46 21.1244 7.29965 19.5626C6.98509 19.1768 7.34116 18.7993 7.86867 18.9301C9.96118 19.6766 12.0759 20.5195 14.1692 21.266C19.7607 23.1533 27.3057 24.7057 32.5197 20.811" stroke="#1B73F0" stroke-width="3" stroke-miterlimit="1.5" stroke-linecap="round"/>
<path d="M469.695 44.4688C469.695 44.3125 469.75 44.1953 469.859 44.1172C469.969 44.0234 470.102 43.9609 470.258 43.9297C470.43 43.8828 470.594 43.8594 470.75 43.8594C470.922 43.8594 471.07 43.8594 471.195 43.8594C471.352 43.8594 471.531 43.8672 471.734 43.8828C471.953 43.8828 472.156 43.9141 472.344 43.9766C472.531 44.0234 472.688 44.1094 472.812 44.2344C472.953 44.3438 473.023 44.5 473.023 44.7031C473.023 44.7812 473.016 44.9531 473 45.2188C473 45.4688 472.992 45.7422 472.977 46.0391C472.977 46.3359 472.969 46.6094 472.953 46.8594C472.953 47.0938 472.945 47.2188 472.93 47.2344C472.805 47.4062 472.641 47.5 472.438 47.5156C472.25 47.5469 472.07 47.5625 471.898 47.5625C471.414 47.5625 471.055 47.5391 470.82 47.4922C470.586 47.4453 470.414 47.3516 470.305 47.2109C470.195 47.0703 470.125 46.875 470.094 46.625C470.078 46.375 470.039 46.0469 469.977 45.6406C469.93 45.4531 469.867 45.2656 469.789 45.0781C469.727 44.8906 469.695 44.6875 469.695 44.4688Z" fill="#1B73F0"/>
<path d="M468.359 46.2734C468.359 46.4453 468.32 46.5938 468.242 46.7188C468.164 46.8281 468.062 46.9219 467.938 47C467.828 47.0625 467.703 47.1094 467.562 47.1406C467.438 47.1719 467.312 47.1875 467.188 47.1875C467 47.1875 466.797 47.1641 466.578 47.1172C466.359 47.0703 466.141 47.0078 465.922 46.9297C465.703 46.8359 465.5 46.7266 465.312 46.6016C465.141 46.4609 465.008 46.3047 464.914 46.1328C464.82 45.9609 464.75 45.75 464.703 45.5C464.672 45.2344 464.641 44.9688 464.609 44.7031C464.453 45.0781 464.266 45.4453 464.047 45.8047C463.844 46.1641 463.594 46.4844 463.297 46.7656C463 47.0312 462.664 47.2422 462.289 47.3984C461.93 47.5703 461.523 47.6562 461.07 47.6562C460.273 47.6562 459.625 47.4688 459.125 47.0938C458.641 46.7188 458.258 46.25 457.977 45.6875C457.711 45.1094 457.531 44.4844 457.438 43.8125C457.359 43.125 457.32 42.4688 457.32 41.8438C457.32 41.3281 457.344 40.7422 457.391 40.0859C457.438 39.4297 457.5 38.7578 457.578 38.0703C457.656 37.3828 457.75 36.7188 457.859 36.0781C457.969 35.4219 458.086 34.8438 458.211 34.3438C458.367 33.7656 458.555 33.1328 458.773 32.4453C459.008 31.7422 459.297 31.0938 459.641 30.5C460 29.8906 460.438 29.375 460.953 28.9531C461.469 28.5312 462.086 28.2969 462.805 28.25C462.758 26.9844 462.688 25.8203 462.594 24.7578C462.516 23.6797 462.43 22.5781 462.336 21.4531L462.102 18.8516L462.008 17.9141C461.977 17.6641 461.953 17.4141 461.938 17.1641C461.922 16.8984 461.914 16.6406 461.914 16.3906C461.914 16.0312 462.008 15.7812 462.195 15.6406C462.398 15.5 462.656 15.4297 462.969 15.4297C463.656 15.4297 464.18 15.5312 464.539 15.7344C464.898 15.9375 465.148 16.2109 465.289 16.5547C465.445 16.8984 465.531 17.3047 465.547 17.7734C465.562 18.2266 465.57 18.7188 465.57 19.25C465.57 19.5938 465.609 19.9844 465.688 20.4219L465.805 21.2891L465.992 23.6797C466.023 24.0547 466.055 24.4297 466.086 24.8047C466.117 25.1797 466.148 25.5547 466.18 25.9297L466.672 30.9688L467.609 40.3906L467.68 41.2578C467.742 41.8984 467.797 42.5625 467.844 43.25C467.906 43.9375 468.016 44.6172 468.172 45.2891C468.219 45.4609 468.258 45.625 468.289 45.7812C468.336 45.9375 468.359 46.1016 468.359 46.2734ZM462.898 32.5625C462.898 32.3906 462.891 32.2031 462.875 32C462.875 31.7812 462.875 31.5781 462.875 31.3906V30.7578C462.766 30.9141 462.625 31.1328 462.453 31.4141C462.281 31.6797 462.148 31.9219 462.055 32.1406C461.805 32.6875 461.578 33.3906 461.375 34.25C461.172 35.0938 460.992 35.9844 460.836 36.9219C460.695 37.8438 460.586 38.75 460.508 39.6406C460.43 40.5156 460.391 41.25 460.391 41.8438C460.391 42.0625 460.391 42.3125 460.391 42.5938C460.406 42.875 460.438 43.1641 460.484 43.4609C460.531 43.7422 460.602 44.0156 460.695 44.2812C460.789 44.5469 460.914 44.7656 461.07 44.9375C461.305 44.6406 461.516 44.1875 461.703 43.5781C461.891 42.9531 462.047 42.25 462.172 41.4688C462.312 40.6719 462.43 39.8359 462.523 38.9609C462.617 38.0859 462.688 37.2422 462.734 36.4297C462.797 35.6016 462.836 34.8516 462.852 34.1797C462.883 33.4922 462.898 32.9531 462.898 32.5625Z" fill="#1B73F0"/>
<path d="M456.781 42.7109C456.781 43.1797 456.648 43.6641 456.383 44.1641C456.133 44.6641 455.805 45.125 455.398 45.5469C454.992 45.9531 454.523 46.2891 453.992 46.5547C453.477 46.8203 452.961 46.9531 452.445 46.9531C451.711 46.9531 451.078 46.8125 450.547 46.5312C450.016 46.2344 449.555 45.8438 449.164 45.3594C448.773 44.8594 448.453 44.2969 448.203 43.6719C447.969 43.0469 447.781 42.4062 447.641 41.75C447.5 41.0781 447.398 40.4141 447.336 39.7578C447.289 39.0859 447.266 38.4766 447.266 37.9297C447.266 37.4609 447.289 36.9062 447.336 36.2656C447.398 35.625 447.492 34.9609 447.617 34.2734C447.758 33.5859 447.945 32.9062 448.18 32.2344C448.414 31.5625 448.703 30.9609 449.047 30.4297C449.406 29.8984 449.828 29.4688 450.312 29.1406C450.812 28.8125 451.383 28.6484 452.023 28.6484C452.523 28.6484 452.969 28.75 453.359 28.9531C453.766 29.1562 454.102 29.4297 454.367 29.7734C454.648 30.1016 454.859 30.4844 455 30.9219C455.156 31.3594 455.234 31.8125 455.234 32.2812C455.234 32.8906 455.094 33.5547 454.812 34.2734C454.531 34.9922 454.164 35.6875 453.711 36.3594C453.273 37.0312 452.773 37.6406 452.211 38.1875C451.664 38.7188 451.117 39.125 450.57 39.4062C450.602 39.6875 450.664 40.1016 450.758 40.6484C450.852 41.1797 450.977 41.7109 451.133 42.2422C451.305 42.7734 451.5 43.2344 451.719 43.625C451.953 44.0156 452.227 44.2109 452.539 44.2109C452.695 44.2109 452.828 44.1641 452.938 44.0703C453.062 43.9766 453.172 43.8516 453.266 43.6953C453.359 43.5391 453.438 43.3672 453.5 43.1797C453.578 42.9922 453.648 42.8125 453.711 42.6406L453.852 42.3125C453.883 42.2656 453.898 42.2344 453.898 42.2188C453.914 42.2031 453.93 42.1797 453.945 42.1484C454.055 41.9453 454.156 41.7578 454.25 41.5859C454.359 41.4141 454.508 41.2656 454.695 41.1406H454.672C454.734 41.0781 454.797 41.0469 454.859 41.0469C454.938 41.0312 455.008 41.0234 455.07 41.0234C455.242 41.0234 455.43 41.0781 455.633 41.1875C455.836 41.2969 456.023 41.4375 456.195 41.6094C456.367 41.7656 456.508 41.9453 456.617 42.1484C456.727 42.3359 456.781 42.5234 456.781 42.7109ZM452.141 32.375C452.141 32.2188 452.133 32.0547 452.117 31.8828C452.102 31.7109 452.062 31.5625 452 31.4375C451.781 31.7031 451.586 32.0234 451.414 32.3984C451.258 32.7578 451.125 33.1406 451.016 33.5469C450.906 33.9375 450.812 34.3359 450.734 34.7422C450.672 35.1484 450.625 35.5234 450.594 35.8672C451 35.3828 451.359 34.8359 451.672 34.2266C451.984 33.6016 452.141 32.9844 452.141 32.375Z" fill="#1B73F0"/>
<path d="M444.078 46.4141C444.078 46.5859 444.039 46.7344 443.961 46.8594C443.883 46.9688 443.781 47.0547 443.656 47.1172C443.547 47.1797 443.422 47.2188 443.281 47.2344C443.156 47.2656 443.031 47.2812 442.906 47.2812C442.734 47.2812 442.531 47.2578 442.297 47.2109C442.078 47.1797 441.859 47.125 441.641 47.0469C441.422 46.9688 441.219 46.875 441.031 46.7656C440.859 46.6406 440.727 46.4922 440.633 46.3203C440.539 46.1641 440.453 45.875 440.375 45.4531C440.312 45.0156 440.258 44.5156 440.211 43.9531C440.164 43.375 440.125 42.7656 440.094 42.125C440.062 41.4688 440.031 40.8438 440 40.25C439.984 39.6562 439.969 39.125 439.953 38.6562C439.953 38.1719 439.953 37.8125 439.953 37.5781C439.953 36.4844 439.969 35.4297 440 34.4141C440.047 33.3828 440.094 32.3281 440.141 31.25C440.062 31.25 439.984 31.2578 439.906 31.2734C439.828 31.2891 439.75 31.2969 439.672 31.2969C439.469 31.3281 439.258 31.3516 439.039 31.3672C438.836 31.3828 438.625 31.3906 438.406 31.3906C438.141 31.3906 437.906 31.3438 437.703 31.25C437.5 31.1562 437.398 30.9453 437.398 30.6172C437.398 30.2266 437.484 29.9141 437.656 29.6797C437.828 29.4453 438.047 29.2656 438.312 29.1406C438.578 29 438.867 28.9062 439.18 28.8594C439.492 28.7969 439.797 28.75 440.094 28.7188C440.141 28.7188 440.172 28.7188 440.188 28.7188C440.203 28.7031 440.234 28.6953 440.281 28.6953C440.297 28.5078 440.312 28.2812 440.328 28.0156C440.344 27.7344 440.359 27.4297 440.375 27.1016C440.391 26.5859 440.414 26.0391 440.445 25.4609C440.477 24.8672 440.508 24.3047 440.539 23.7734C440.57 23.2266 440.609 22.75 440.656 22.3438C440.703 21.9219 440.75 21.625 440.797 21.4531C440.875 21.25 440.961 21.0859 441.055 20.9609C441.164 20.8359 441.359 20.7734 441.641 20.7734C442.266 20.7734 442.75 20.9766 443.094 21.3828C443.438 21.7891 443.609 22.2891 443.609 22.8828C443.609 23.5703 443.586 24.2578 443.539 24.9453C443.508 25.6328 443.477 26.3281 443.445 27.0312L443.375 28.2266C443.766 28.1797 444.156 28.1094 444.547 28.0156C444.922 27.9375 445.297 27.8672 445.672 27.8047C446.062 27.7422 446.438 27.7109 446.797 27.7109C447.109 27.7109 447.352 27.7969 447.523 27.9688C447.695 28.125 447.781 28.3594 447.781 28.6719C447.781 29.0156 447.719 29.3516 447.594 29.6797C447.469 30.0078 447.25 30.2578 446.938 30.4297H446.961C446.898 30.4609 446.711 30.5078 446.398 30.5703C446.086 30.6172 445.727 30.6641 445.32 30.7109C444.93 30.7578 444.539 30.8047 444.148 30.8516C443.773 30.8984 443.492 30.9297 443.305 30.9453H443.281C443.25 31.8203 443.227 32.6875 443.211 33.5469C443.195 34.3906 443.188 35.25 443.188 36.125C443.188 37.3281 443.219 38.6094 443.281 39.9688C443.359 41.3125 443.484 42.5938 443.656 43.8125L443.844 44.8672C443.906 45.1328 443.961 45.3984 444.008 45.6641C444.055 45.9141 444.078 46.1641 444.078 46.4141Z" fill="#1B73F0"/>
<path d="M437.656 46.6953C437.656 47.0078 437.578 47.2188 437.422 47.3281C437.266 47.4531 437.047 47.5156 436.766 47.5156C436.031 47.5156 435.5 47.3203 435.172 46.9297C434.859 46.5391 434.625 46.0234 434.469 45.3828C434.422 45.1641 434.375 44.9453 434.328 44.7266C434.281 44.4922 434.242 44.2656 434.211 44.0469C434.18 43.8438 434.148 43.7031 434.117 43.625C434.086 43.5469 434.055 43.3984 434.023 43.1797C433.836 43.6328 433.602 44.1094 433.32 44.6094C433.055 45.0938 432.742 45.5469 432.383 45.9688C432.023 46.375 431.617 46.7109 431.164 46.9766C430.727 47.2422 430.242 47.375 429.711 47.375C429.148 47.375 428.68 47.2422 428.305 46.9766C427.93 46.6953 427.633 46.3516 427.414 45.9453C427.211 45.5234 427.062 45.0625 426.969 44.5625C426.891 44.0625 426.852 43.5859 426.852 43.1328C426.852 42.0703 426.953 40.9219 427.156 39.6875C427.375 38.4375 427.672 37.1953 428.047 35.9609C428.422 34.7109 428.859 33.5156 429.359 32.375C429.859 31.2188 430.406 30.2109 431 29.3516V29.375L431.141 29.1641C431.312 28.9297 431.508 28.6797 431.727 28.4141C431.961 28.1328 432.234 27.9922 432.547 27.9922C432.844 27.9922 433.102 28.125 433.32 28.3906C433.539 28.6406 433.695 28.9062 433.789 29.1875C434.195 29.2656 434.523 29.3672 434.773 29.4922C435.023 29.6016 435.219 29.7422 435.359 29.9141C435.5 30.0859 435.594 30.2891 435.641 30.5234C435.688 30.7422 435.711 30.9844 435.711 31.25C435.711 31.3594 435.711 31.4766 435.711 31.6016C435.711 31.7266 435.703 31.8516 435.688 31.9766C435.672 32.1016 435.664 32.25 435.664 32.4219C435.664 32.5938 435.664 32.75 435.664 32.8906C435.664 33.0469 435.688 33.25 435.734 33.5C435.797 33.75 435.859 34.0078 435.922 34.2734L436.086 35.1406C436.164 35.5938 436.227 36.1094 436.273 36.6875C436.336 37.2656 436.406 37.8438 436.484 38.4219C436.547 39.0156 436.609 39.5938 436.672 40.1562C436.734 40.7031 436.797 41.2109 436.859 41.6797L437.422 45.1484L437.492 45.5469C437.523 45.75 437.555 45.9375 437.586 46.1094C437.633 46.2812 437.656 46.4766 437.656 46.6953ZM432.289 33.2188C432.289 33.1875 432.281 33.1406 432.266 33.0781C432.25 33 432.234 32.9219 432.219 32.8438C431.859 33.6094 431.539 34.4453 431.258 35.3516C430.992 36.2422 430.766 37.1562 430.578 38.0938C430.406 39.0156 430.273 39.9453 430.18 40.8828C430.102 41.8047 430.062 42.6797 430.062 43.5078C430.062 43.5859 430.062 43.6562 430.062 43.7188C430.062 43.7812 430.07 43.8438 430.086 43.9062V43.9297C430.461 43.3516 430.781 42.5938 431.047 41.6562C431.328 40.7031 431.562 39.7109 431.75 38.6797C431.938 37.6328 432.07 36.625 432.148 35.6562C432.242 34.6719 432.289 33.8594 432.289 33.2188Z" fill="#1B73F0"/>
<path d="M426.031 46.2734C426.031 46.4453 425.992 46.5938 425.914 46.7188C425.836 46.8281 425.734 46.9219 425.609 47C425.5 47.0625 425.375 47.1094 425.234 47.1406C425.109 47.1719 424.984 47.1875 424.859 47.1875C424.672 47.1875 424.469 47.1641 424.25 47.1172C424.031 47.0703 423.812 47.0078 423.594 46.9297C423.375 46.8359 423.172 46.7266 422.984 46.6016C422.812 46.4609 422.68 46.3047 422.586 46.1328C422.492 45.9609 422.422 45.75 422.375 45.5C422.344 45.2344 422.312 44.9688 422.281 44.7031C422.125 45.0781 421.938 45.4453 421.719 45.8047C421.516 46.1641 421.266 46.4844 420.969 46.7656C420.672 47.0312 420.336 47.2422 419.961 47.3984C419.602 47.5703 419.195 47.6562 418.742 47.6562C417.945 47.6562 417.297 47.4688 416.797 47.0938C416.312 46.7188 415.93 46.25 415.648 45.6875C415.383 45.1094 415.203 44.4844 415.109 43.8125C415.031 43.125 414.992 42.4688 414.992 41.8438C414.992 41.3281 415.016 40.7422 415.062 40.0859C415.109 39.4297 415.172 38.7578 415.25 38.0703C415.328 37.3828 415.422 36.7188 415.531 36.0781C415.641 35.4219 415.758 34.8438 415.883 34.3438C416.039 33.7656 416.227 33.1328 416.445 32.4453C416.68 31.7422 416.969 31.0938 417.312 30.5C417.672 29.8906 418.109 29.375 418.625 28.9531C419.141 28.5312 419.758 28.2969 420.477 28.25C420.43 26.9844 420.359 25.8203 420.266 24.7578C420.188 23.6797 420.102 22.5781 420.008 21.4531L419.773 18.8516L419.68 17.9141C419.648 17.6641 419.625 17.4141 419.609 17.1641C419.594 16.8984 419.586 16.6406 419.586 16.3906C419.586 16.0312 419.68 15.7812 419.867 15.6406C420.07 15.5 420.328 15.4297 420.641 15.4297C421.328 15.4297 421.852 15.5312 422.211 15.7344C422.57 15.9375 422.82 16.2109 422.961 16.5547C423.117 16.8984 423.203 17.3047 423.219 17.7734C423.234 18.2266 423.242 18.7188 423.242 19.25C423.242 19.5938 423.281 19.9844 423.359 20.4219L423.477 21.2891L423.664 23.6797C423.695 24.0547 423.727 24.4297 423.758 24.8047C423.789 25.1797 423.82 25.5547 423.852 25.9297L424.344 30.9688L425.281 40.3906L425.352 41.2578C425.414 41.8984 425.469 42.5625 425.516 43.25C425.578 43.9375 425.688 44.6172 425.844 45.2891C425.891 45.4609 425.93 45.625 425.961 45.7812C426.008 45.9375 426.031 46.1016 426.031 46.2734ZM420.57 32.5625C420.57 32.3906 420.562 32.2031 420.547 32C420.547 31.7812 420.547 31.5781 420.547 31.3906V30.7578C420.438 30.9141 420.297 31.1328 420.125 31.4141C419.953 31.6797 419.82 31.9219 419.727 32.1406C419.477 32.6875 419.25 33.3906 419.047 34.25C418.844 35.0938 418.664 35.9844 418.508 36.9219C418.367 37.8438 418.258 38.75 418.18 39.6406C418.102 40.5156 418.062 41.25 418.062 41.8438C418.062 42.0625 418.062 42.3125 418.062 42.5938C418.078 42.875 418.109 43.1641 418.156 43.4609C418.203 43.7422 418.273 44.0156 418.367 44.2812C418.461 44.5469 418.586 44.7656 418.742 44.9375C418.977 44.6406 419.188 44.1875 419.375 43.5781C419.562 42.9531 419.719 42.25 419.844 41.4688C419.984 40.6719 420.102 39.8359 420.195 38.9609C420.289 38.0859 420.359 37.2422 420.406 36.4297C420.469 35.6016 420.508 34.8516 420.523 34.1797C420.555 33.4922 420.57 32.9531 420.57 32.5625Z" fill="#1B73F0"/>
<path d="M405.664 40.9062C405.664 41.6562 405.656 42.3438 405.641 42.9688C405.641 43.5938 405.656 44.2812 405.688 45.0312L406.109 44.7266L406.367 44.5625C407.133 43.9531 407.797 43.2109 408.359 42.3359C408.938 41.4453 409.414 40.5 409.789 39.5C410.164 38.5 410.438 37.4766 410.609 36.4297C410.797 35.3672 410.891 34.3594 410.891 33.4062C410.891 33.2188 410.883 32.9609 410.867 32.6328C410.867 32.2891 410.836 31.9531 410.773 31.625C410.711 31.2969 410.617 31.0156 410.492 30.7812C410.367 30.5312 410.188 30.4062 409.953 30.4062C409.578 30.4062 409.195 30.6328 408.805 31.0859C408.414 31.5391 408.047 32.0781 407.703 32.7031C407.375 33.3281 407.078 33.9609 406.812 34.6016C406.547 35.2266 406.352 35.7188 406.227 36.0781C406.227 36.0938 406.219 36.1016 406.203 36.1016C406.203 36.1016 406.203 36.1094 406.203 36.125V36.1484C406.109 36.3672 406.008 36.6016 405.898 36.8516C405.805 37.1016 405.742 37.3359 405.711 37.5547C405.68 37.7734 405.656 38.0234 405.641 38.3047C405.625 38.5703 405.617 38.8516 405.617 39.1484C405.617 39.3047 405.617 39.4609 405.617 39.6172C405.633 39.7578 405.641 39.8906 405.641 40.0156C405.641 40.1875 405.641 40.3516 405.641 40.5078C405.656 40.6484 405.664 40.7812 405.664 40.9062ZM406.953 62.3281C406.953 62.6719 406.859 62.9062 406.672 63.0312C406.484 63.1562 406.234 63.2188 405.922 63.2188C405.547 63.2188 405.133 63.1562 404.68 63.0312C404.227 62.9219 403.867 62.7109 403.602 62.3984C403.523 62.2891 403.445 61.9688 403.367 61.4375C403.305 60.9062 403.242 60.2812 403.18 59.5625C403.117 58.8594 403.062 58.125 403.016 57.3594C402.969 56.6094 402.922 55.9453 402.875 55.3672L402.781 54.125C402.594 50.7812 402.5 47.4375 402.5 44.0938C402.5 42.1406 402.531 40.2266 402.594 38.3516C402.672 36.4609 402.75 34.5469 402.828 32.6094L402.922 30.1484C402.922 29.8984 402.922 29.6562 402.922 29.4219C402.938 29.1719 402.969 28.9297 403.016 28.6953C403.094 28.4922 403.188 28.3359 403.297 28.2266C403.422 28.1016 403.617 28.0391 403.883 28.0391C404.555 28.0391 405.047 28.2422 405.359 28.6484C405.672 29.0391 405.852 29.5234 405.898 30.1016C406.398 29.4141 406.992 28.8672 407.68 28.4609C408.383 28.0547 409.188 27.8516 410.094 27.8516C410.859 27.8516 411.5 28.0234 412.016 28.3672C412.547 28.7109 412.969 29.1562 413.281 29.7031C413.594 30.2344 413.812 30.8359 413.938 31.5078C414.078 32.1641 414.148 32.8125 414.148 33.4531C414.148 34.6875 414.039 35.9219 413.82 37.1562C413.602 38.375 413.258 39.5625 412.789 40.7188C412.336 41.8594 411.758 42.9453 411.055 43.9766C410.352 44.9922 409.523 45.8984 408.57 46.6953C408.445 46.8047 408.297 46.9219 408.125 47.0469C407.953 47.1719 407.773 47.2891 407.586 47.3984C407.398 47.5078 407.203 47.6016 407 47.6797C406.812 47.7578 406.641 47.7969 406.484 47.7969C406.312 47.7969 406.164 47.7578 406.039 47.6797C405.914 47.6016 405.805 47.5078 405.711 47.3984C405.742 48.4766 405.781 49.5938 405.828 50.75C405.891 51.9062 405.961 53.0625 406.039 54.2188C406.117 55.3906 406.211 56.5469 406.32 57.6875C406.445 58.8281 406.594 59.9297 406.766 60.9922C406.812 61.1953 406.852 61.4062 406.883 61.625C406.93 61.8594 406.953 62.0938 406.953 62.3281Z" fill="#1B73F0"/>
<path d="M399.734 31.5312C399.734 31.6875 399.719 31.8516 399.688 32.0234C399.656 32.1953 399.625 32.3516 399.594 32.4922C399.562 32.6641 399.531 32.8281 399.5 32.9844C399.469 33.125 399.453 33.2656 399.453 33.4062C399.453 34.8594 399.477 36.3203 399.523 37.7891C399.586 39.2422 399.742 40.7031 399.992 42.1719C400.07 42.7344 400.164 43.2812 400.273 43.8125C400.383 44.3438 400.508 44.8828 400.648 45.4297L400.695 45.5703V45.5234C400.742 45.6328 400.781 45.75 400.812 45.875C400.859 45.9844 400.883 46.1016 400.883 46.2266C400.883 46.3984 400.836 46.5391 400.742 46.6484C400.664 46.7578 400.562 46.8438 400.438 46.9062C400.312 46.9688 400.172 47.0078 400.016 47.0234C399.875 47.0391 399.742 47.0469 399.617 47.0469C399.102 47.0469 398.688 46.9922 398.375 46.8828C398.078 46.7578 397.836 46.5938 397.648 46.3906C397.461 46.1719 397.32 45.9141 397.227 45.6172C397.148 45.3203 397.078 44.9922 397.016 44.6328L396.945 44.2109C396.883 43.9922 396.844 43.7578 396.828 43.5078C396.812 43.3828 396.797 43.3281 396.781 43.3438C396.781 43.3438 396.773 43.2812 396.758 43.1562C396.539 43.5469 396.281 43.9688 395.984 44.4219C395.703 44.8594 395.375 45.2734 395 45.6641C394.641 46.0391 394.25 46.3594 393.828 46.625C393.406 46.875 392.953 47 392.469 47C391.797 47 391.273 46.7969 390.898 46.3906C390.539 45.9844 390.273 45.4922 390.102 44.9141C389.93 44.3203 389.828 43.7109 389.797 43.0859C389.766 42.4453 389.75 41.8906 389.75 41.4219C389.75 39.6406 389.805 37.875 389.914 36.125C390.039 34.375 390.172 32.6172 390.312 30.8516C390.312 30.8047 390.312 30.7422 390.312 30.6641C390.328 30.5859 390.336 30.5234 390.336 30.4766C390.352 30.2578 390.367 30.0547 390.383 29.8672C390.398 29.6797 390.438 29.5 390.5 29.3281V29.3516C390.562 29.1016 390.648 28.9219 390.758 28.8125C390.883 28.7031 391.07 28.6484 391.32 28.6484C391.555 28.6484 391.789 28.6953 392.023 28.7891C392.258 28.8672 392.469 28.9844 392.656 29.1406C392.844 29.2812 392.992 29.4531 393.102 29.6562C393.227 29.8594 393.289 30.0859 393.289 30.3359C393.289 30.4609 393.289 30.6094 393.289 30.7812C393.289 30.9531 393.281 31.1016 393.266 31.2266C393.266 31.3359 393.258 31.4766 393.242 31.6484C393.242 31.8047 393.242 31.9375 393.242 32.0469C393.117 33.5469 393.023 35.0391 392.961 36.5234C392.898 37.9922 392.867 39.4844 392.867 41C392.867 41.4219 392.867 41.8438 392.867 42.2656C392.883 42.6875 392.93 43.1094 393.008 43.5312C393.523 42.875 393.969 42.0391 394.344 41.0234C394.719 39.9922 395.031 38.9062 395.281 37.7656C395.547 36.6094 395.758 35.4688 395.914 34.3438C396.086 33.2031 396.211 32.1953 396.289 31.3203C396.289 31.2734 396.289 31.2188 396.289 31.1562C396.305 31.0938 396.312 31.0391 396.312 30.9922C396.328 30.8203 396.344 30.6562 396.359 30.5C396.375 30.3438 396.43 30.1953 396.523 30.0547C396.523 29.9141 396.531 29.7656 396.547 29.6094C396.562 29.4531 396.602 29.3125 396.664 29.1875C396.727 29.0469 396.812 28.9375 396.922 28.8594C397.047 28.7812 397.219 28.7422 397.438 28.7422C398.062 28.7422 398.555 28.9375 398.914 29.3281C399.273 29.7031 399.469 30.1875 399.5 30.7812C399.578 30.9062 399.633 31.0312 399.664 31.1562C399.711 31.2656 399.734 31.3906 399.734 31.5312Z" fill="#1B73F0"/>
<path d="M378.641 46.4141C378.641 46.5859 378.602 46.7344 378.523 46.8594C378.445 46.9688 378.344 47.0547 378.219 47.1172C378.109 47.1797 377.984 47.2188 377.844 47.2344C377.719 47.2656 377.594 47.2812 377.469 47.2812C377.297 47.2812 377.094 47.2578 376.859 47.2109C376.641 47.1797 376.422 47.125 376.203 47.0469C375.984 46.9688 375.781 46.875 375.594 46.7656C375.422 46.6406 375.289 46.4922 375.195 46.3203C375.102 46.1641 375.016 45.875 374.938 45.4531C374.875 45.0156 374.82 44.5156 374.773 43.9531C374.727 43.375 374.688 42.7656 374.656 42.125C374.625 41.4688 374.594 40.8438 374.562 40.25C374.547 39.6562 374.531 39.125 374.516 38.6562C374.516 38.1719 374.516 37.8125 374.516 37.5781C374.516 36.4844 374.531 35.4297 374.562 34.4141C374.609 33.3828 374.656 32.3281 374.703 31.25C374.625 31.25 374.547 31.2578 374.469 31.2734C374.391 31.2891 374.312 31.2969 374.234 31.2969C374.031 31.3281 373.82 31.3516 373.602 31.3672C373.398 31.3828 373.188 31.3906 372.969 31.3906C372.703 31.3906 372.469 31.3438 372.266 31.25C372.062 31.1562 371.961 30.9453 371.961 30.6172C371.961 30.2266 372.047 29.9141 372.219 29.6797C372.391 29.4453 372.609 29.2656 372.875 29.1406C373.141 29 373.43 28.9062 373.742 28.8594C374.055 28.7969 374.359 28.75 374.656 28.7188C374.703 28.7188 374.734 28.7188 374.75 28.7188C374.766 28.7031 374.797 28.6953 374.844 28.6953C374.859 28.5078 374.875 28.2812 374.891 28.0156C374.906 27.7344 374.922 27.4297 374.938 27.1016C374.953 26.5859 374.977 26.0391 375.008 25.4609C375.039 24.8672 375.07 24.3047 375.102 23.7734C375.133 23.2266 375.172 22.75 375.219 22.3438C375.266 21.9219 375.312 21.625 375.359 21.4531C375.438 21.25 375.523 21.0859 375.617 20.9609C375.727 20.8359 375.922 20.7734 376.203 20.7734C376.828 20.7734 377.312 20.9766 377.656 21.3828C378 21.7891 378.172 22.2891 378.172 22.8828C378.172 23.5703 378.148 24.2578 378.102 24.9453C378.07 25.6328 378.039 26.3281 378.008 27.0312L377.938 28.2266C378.328 28.1797 378.719 28.1094 379.109 28.0156C379.484 27.9375 379.859 27.8672 380.234 27.8047C380.625 27.7422 381 27.7109 381.359 27.7109C381.672 27.7109 381.914 27.7969 382.086 27.9688C382.258 28.125 382.344 28.3594 382.344 28.6719C382.344 29.0156 382.281 29.3516 382.156 29.6797C382.031 30.0078 381.812 30.2578 381.5 30.4297H381.523C381.461 30.4609 381.273 30.5078 380.961 30.5703C380.648 30.6172 380.289 30.6641 379.883 30.7109C379.492 30.7578 379.102 30.8047 378.711 30.8516C378.336 30.8984 378.055 30.9297 377.867 30.9453H377.844C377.812 31.8203 377.789 32.6875 377.773 33.5469C377.758 34.3906 377.75 35.25 377.75 36.125C377.75 37.3281 377.781 38.6094 377.844 39.9688C377.922 41.3125 378.047 42.5938 378.219 43.8125L378.406 44.8672C378.469 45.1328 378.523 45.3984 378.57 45.6641C378.617 45.9141 378.641 46.1641 378.641 46.4141Z" fill="#1B73F0"/>
<path d="M371.75 37.3906C371.75 38.75 371.633 40.1094 371.398 41.4688C371.18 42.8125 370.719 44.0859 370.016 45.2891C369.797 45.6484 369.547 46 369.266 46.3438C368.984 46.6719 368.672 46.9688 368.328 47.2344C368 47.5156 367.633 47.7344 367.227 47.8906C366.836 48.0625 366.422 48.1484 365.984 48.1484C365.297 48.1484 364.695 47.9844 364.18 47.6562C363.68 47.3438 363.242 46.9297 362.867 46.4141C362.508 45.8828 362.203 45.2891 361.953 44.6328C361.719 43.9609 361.531 43.2812 361.391 42.5938C361.266 41.8906 361.172 41.2109 361.109 40.5547C361.062 39.8984 361.039 39.3203 361.039 38.8203C361.039 38.2578 361.062 37.6406 361.109 36.9688C361.156 36.2969 361.234 35.6094 361.344 34.9062C361.469 34.2031 361.625 33.5078 361.812 32.8203C362.016 32.1328 362.273 31.4922 362.586 30.8984C362.898 30.2891 363.273 29.75 363.711 29.2812C364.148 28.7969 364.656 28.4141 365.234 28.1328V28.1562C365.734 27.8906 366.234 27.7578 366.734 27.7578C367.047 27.7578 367.289 27.8281 367.461 27.9688C367.633 28.0938 367.711 28.3125 367.695 28.625C368.555 28.7812 369.25 29.1953 369.781 29.8672C370.312 30.5391 370.719 31.3203 371 32.2109C371.297 33.1016 371.492 34.0156 371.586 34.9531C371.695 35.8906 371.75 36.7031 371.75 37.3906ZM366.453 31.5312C366.188 31.5312 365.938 31.4297 365.703 31.2266C365.406 31.6797 365.156 32.2031 364.953 32.7969C364.75 33.375 364.586 33.9766 364.461 34.6016C364.352 35.2109 364.273 35.8281 364.227 36.4531C364.18 37.0781 364.156 37.6641 364.156 38.2109C364.156 38.6641 364.18 39.25 364.227 39.9688C364.273 40.6719 364.359 41.3828 364.484 42.1016C364.625 42.8203 364.812 43.4922 365.047 44.1172C365.297 44.7422 365.617 45.2031 366.008 45.5C366.492 45.2188 366.891 44.7734 367.203 44.1641C367.531 43.5391 367.789 42.8594 367.977 42.125C368.164 41.3906 368.289 40.6484 368.352 39.8984C368.43 39.1484 368.469 38.5078 368.469 37.9766C368.469 37.5859 368.445 37.0781 368.398 36.4531C368.352 35.8281 368.273 35.1953 368.164 34.5547C368.055 33.8984 367.898 33.2891 367.695 32.7266C367.508 32.1641 367.266 31.7422 366.969 31.4609C366.828 31.5078 366.656 31.5312 366.453 31.5312Z" fill="#1B73F0"/>
<path d="M352.625 46.8828C352.625 47.2422 352.516 47.4766 352.297 47.5859C352.094 47.6953 351.844 47.75 351.547 47.75C351.281 47.75 351.016 47.7266 350.75 47.6797C350.5 47.6484 350.258 47.5781 350.023 47.4688C349.805 47.3594 349.609 47.2109 349.438 47.0234C349.281 46.8359 349.172 46.5938 349.109 46.2969C348.891 45.3594 348.766 44.4453 348.734 43.5547C348.703 42.6484 348.688 41.7188 348.688 40.7656V37.8828C348.688 36.5703 348.742 35.2109 348.852 33.8047C348.961 32.3828 349.078 31.0156 349.203 29.7031C349.203 29.6562 349.211 29.6016 349.227 29.5391C349.242 29.4766 349.25 29.4297 349.25 29.3984C349.266 29.2266 349.289 29.0391 349.32 28.8359C349.352 28.6328 349.398 28.4531 349.461 28.2969C349.539 28.125 349.641 27.9844 349.766 27.875C349.906 27.7656 350.086 27.7109 350.305 27.7109C350.555 27.7109 350.789 27.7656 351.008 27.875C351.242 27.9688 351.445 28.1016 351.617 28.2734C351.789 28.4297 351.922 28.625 352.016 28.8594C352.125 29.0938 352.18 29.3359 352.18 29.5859C352.18 29.8516 352.172 30.1484 352.156 30.4766C352.141 30.7891 352.117 31.0859 352.086 31.3672C352.086 31.4453 352.078 31.5312 352.062 31.625C352.062 31.7188 352.055 31.8047 352.039 31.8828C352.258 31.4453 352.508 30.9922 352.789 30.5234C353.07 30.0391 353.391 29.6016 353.75 29.2109C354.125 28.8047 354.531 28.4766 354.969 28.2266C355.422 27.9766 355.922 27.8516 356.469 27.8516C356.922 27.8516 357.297 27.9219 357.594 28.0625C357.891 28.2031 358.125 28.4062 358.297 28.6719C358.484 28.9219 358.609 29.2188 358.672 29.5625C358.75 29.9062 358.789 30.2734 358.789 30.6641C358.789 31.1953 358.773 31.7344 358.742 32.2812C358.711 32.8125 358.68 33.3438 358.648 33.875C358.602 34.4219 358.562 34.9609 358.531 35.4922C358.5 36.0234 358.484 36.5625 358.484 37.1094C358.484 37.7656 358.5 38.4453 358.531 39.1484C358.562 39.8359 358.609 40.5 358.672 41.1406C358.734 41.7656 358.805 42.3359 358.883 42.8516C358.961 43.3516 359.039 43.7422 359.117 44.0234C359.18 44.2578 359.242 44.5312 359.305 44.8438C359.383 45.1406 359.453 45.4531 359.516 45.7812C359.594 46.0938 359.656 46.3984 359.703 46.6953C359.75 46.9922 359.773 47.2578 359.773 47.4922C359.773 47.8359 359.633 48.0547 359.352 48.1484C359.086 48.2422 358.82 48.2891 358.555 48.2891C358.289 48.2891 357.984 48.2656 357.641 48.2188C357.312 48.1875 357.016 48.1016 356.75 47.9609C356.422 47.7266 356.203 47.3984 356.094 46.9766C356 46.5547 355.938 46.1406 355.906 45.7344L355.836 45.1016C355.789 44.7266 355.727 44.2344 355.648 43.625C355.57 43.0156 355.492 42.3438 355.414 41.6094C355.352 40.875 355.297 40.1172 355.25 39.3359C355.203 38.5391 355.18 37.7656 355.18 37.0156C355.18 36.3438 355.203 35.6953 355.25 35.0703C355.312 34.4453 355.375 33.8125 355.438 33.1719C355.469 32.8438 355.492 32.5781 355.508 32.375C355.523 32.1719 355.547 31.9062 355.578 31.5781C355.266 32.0781 354.953 32.6641 354.641 33.3359C354.328 34.0078 354.031 34.7109 353.75 35.4453C353.469 36.1641 353.211 36.8672 352.977 37.5547C352.758 38.2422 352.586 38.8438 352.461 39.3594L352.32 39.875C352.242 40.125 352.172 40.375 352.109 40.625C352.062 40.875 352.039 41.1094 352.039 41.3281C352.039 41.6094 352.055 41.9375 352.086 42.3125C352.117 42.6719 352.156 43.0156 352.203 43.3438C352.25 43.7344 352.305 44.1328 352.367 44.5391C352.367 44.5703 352.383 44.6719 352.414 44.8438C352.445 45.0156 352.477 45.2188 352.508 45.4531C352.539 45.6875 352.562 45.9375 352.578 46.2031C352.609 46.4531 352.625 46.6797 352.625 46.8828Z" fill="#1B73F0"/>
<path d="M340.625 42.7109C340.625 43.1797 340.492 43.6641 340.227 44.1641C339.977 44.6641 339.648 45.125 339.242 45.5469C338.836 45.9531 338.367 46.2891 337.836 46.5547C337.32 46.8203 336.805 46.9531 336.289 46.9531C335.555 46.9531 334.922 46.8125 334.391 46.5312C333.859 46.2344 333.398 45.8438 333.008 45.3594C332.617 44.8594 332.297 44.2969 332.047 43.6719C331.812 43.0469 331.625 42.4062 331.484 41.75C331.344 41.0781 331.242 40.4141 331.18 39.7578C331.133 39.0859 331.109 38.4766 331.109 37.9297C331.109 37.4609 331.133 36.9062 331.18 36.2656C331.242 35.625 331.336 34.9609 331.461 34.2734C331.602 33.5859 331.789 32.9062 332.023 32.2344C332.258 31.5625 332.547 30.9609 332.891 30.4297C333.25 29.8984 333.672 29.4688 334.156 29.1406C334.656 28.8125 335.227 28.6484 335.867 28.6484C336.367 28.6484 336.812 28.75 337.203 28.9531C337.609 29.1562 337.945 29.4297 338.211 29.7734C338.492 30.1016 338.703 30.4844 338.844 30.9219C339 31.3594 339.078 31.8125 339.078 32.2812C339.078 32.8906 338.938 33.5547 338.656 34.2734C338.375 34.9922 338.008 35.6875 337.555 36.3594C337.117 37.0312 336.617 37.6406 336.055 38.1875C335.508 38.7188 334.961 39.125 334.414 39.4062C334.445 39.6875 334.508 40.1016 334.602 40.6484C334.695 41.1797 334.82 41.7109 334.977 42.2422C335.148 42.7734 335.344 43.2344 335.562 43.625C335.797 44.0156 336.07 44.2109 336.383 44.2109C336.539 44.2109 336.672 44.1641 336.781 44.0703C336.906 43.9766 337.016 43.8516 337.109 43.6953C337.203 43.5391 337.281 43.3672 337.344 43.1797C337.422 42.9922 337.492 42.8125 337.555 42.6406L337.695 42.3125C337.727 42.2656 337.742 42.2344 337.742 42.2188C337.758 42.2031 337.773 42.1797 337.789 42.1484C337.898 41.9453 338 41.7578 338.094 41.5859C338.203 41.4141 338.352 41.2656 338.539 41.1406H338.516C338.578 41.0781 338.641 41.0469 338.703 41.0469C338.781 41.0312 338.852 41.0234 338.914 41.0234C339.086 41.0234 339.273 41.0781 339.477 41.1875C339.68 41.2969 339.867 41.4375 340.039 41.6094C340.211 41.7656 340.352 41.9453 340.461 42.1484C340.57 42.3359 340.625 42.5234 340.625 42.7109ZM335.984 32.375C335.984 32.2188 335.977 32.0547 335.961 31.8828C335.945 31.7109 335.906 31.5625 335.844 31.4375C335.625 31.7031 335.43 32.0234 335.258 32.3984C335.102 32.7578 334.969 33.1406 334.859 33.5469C334.75 33.9375 334.656 34.3359 334.578 34.7422C334.516 35.1484 334.469 35.5234 334.438 35.8672C334.844 35.3828 335.203 34.8359 335.516 34.2266C335.828 33.6016 335.984 32.9844 335.984 32.375Z" fill="#1B73F0"/>
<path d="M322.156 47.375C321.922 47.375 321.664 47.3438 321.383 47.2812C321.117 47.2188 320.859 47.1172 320.609 46.9766C320.375 46.8359 320.172 46.6641 320 46.4609C319.844 46.2422 319.766 45.9844 319.766 45.6875C319.766 45.25 319.781 44.8203 319.812 44.3984C319.859 43.9609 319.906 43.5312 319.953 43.1094V43.1328L320.094 41.5625C320.141 41 320.18 40.3828 320.211 39.7109C320.242 39.0391 320.266 38.3594 320.281 37.6719C320.312 36.9688 320.336 36.2812 320.352 35.6094C320.367 34.9375 320.375 34.3203 320.375 33.7578C320.375 33.4297 320.367 33.1016 320.352 32.7734C320.352 32.4297 320.352 32.0859 320.352 31.7422C320.336 31.4453 320.328 31.1172 320.328 30.7578C320.328 30.3828 320.328 30.0391 320.328 29.7266C320.328 29.3984 320.367 29.1328 320.445 28.9297C320.539 28.7109 320.789 28.6016 321.195 28.6016C321.555 28.6016 321.93 28.6953 322.32 28.8828C322.727 29.0703 323.008 29.3359 323.164 29.6797H323.141C323.219 29.8516 323.273 30.1328 323.305 30.5234C323.352 30.8984 323.383 31.2344 323.398 31.5312C323.664 31.125 323.961 30.6953 324.289 30.2422C324.633 29.7891 325 29.375 325.391 29C325.781 28.6094 326.195 28.2891 326.633 28.0391C327.07 27.7891 327.539 27.6641 328.039 27.6641C328.695 27.6641 329.195 27.8281 329.539 28.1562C329.883 28.4844 330.133 28.8984 330.289 29.3984C330.445 29.8828 330.531 30.4062 330.547 30.9688C330.562 31.5156 330.57 32.0156 330.57 32.4688V32.6562C330.57 32.8438 330.562 33.0312 330.547 33.2188C330.547 33.3906 330.516 33.5547 330.453 33.7109C330.406 33.8516 330.312 33.9688 330.172 34.0625C330.047 34.1562 329.867 34.2031 329.633 34.2031C329.383 34.2031 329.117 34.1719 328.836 34.1094C328.555 34.0312 328.289 33.9219 328.039 33.7812C327.805 33.6406 327.602 33.4688 327.43 33.2656C327.258 33.0469 327.164 32.7969 327.148 32.5156C327.148 32.3906 327.148 32.2656 327.148 32.1406C327.148 32.0156 327.156 31.8906 327.172 31.7656C327.172 31.6875 327.172 31.5938 327.172 31.4844C327.188 31.3594 327.195 31.2422 327.195 31.1328C326.695 31.6328 326.25 32.25 325.859 32.9844C325.484 33.7188 325.141 34.5 324.828 35.3281C324.531 36.1562 324.273 36.9922 324.055 37.8359C323.836 38.6641 323.648 39.4141 323.492 40.0859V40.1562C323.445 40.6406 323.414 41.1172 323.398 41.5859C323.383 42.0547 323.367 42.5391 323.352 43.0391C323.336 43.6016 323.312 44.1719 323.281 44.75C323.266 45.3281 323.227 45.8906 323.164 46.4375C323.133 46.7344 323.039 46.9609 322.883 47.1172C322.742 47.2891 322.5 47.375 322.156 47.375Z" fill="#1B73F0"/>
<path d="M318.453 46.6953C318.453 47.0078 318.375 47.2188 318.219 47.3281C318.062 47.4531 317.844 47.5156 317.562 47.5156C316.828 47.5156 316.297 47.3203 315.969 46.9297C315.656 46.5391 315.422 46.0234 315.266 45.3828C315.219 45.1641 315.172 44.9453 315.125 44.7266C315.078 44.4922 315.039 44.2656 315.008 44.0469C314.977 43.8438 314.945 43.7031 314.914 43.625C314.883 43.5469 314.852 43.3984 314.82 43.1797C314.633 43.6328 314.398 44.1094 314.117 44.6094C313.852 45.0938 313.539 45.5469 313.18 45.9688C312.82 46.375 312.414 46.7109 311.961 46.9766C311.523 47.2422 311.039 47.375 310.508 47.375C309.945 47.375 309.477 47.2422 309.102 46.9766C308.727 46.6953 308.43 46.3516 308.211 45.9453C308.008 45.5234 307.859 45.0625 307.766 44.5625C307.688 44.0625 307.648 43.5859 307.648 43.1328C307.648 42.0703 307.75 40.9219 307.953 39.6875C308.172 38.4375 308.469 37.1953 308.844 35.9609C309.219 34.7109 309.656 33.5156 310.156 32.375C310.656 31.2188 311.203 30.2109 311.797 29.3516V29.375L311.938 29.1641C312.109 28.9297 312.305 28.6797 312.523 28.4141C312.758 28.1328 313.031 27.9922 313.344 27.9922C313.641 27.9922 313.898 28.125 314.117 28.3906C314.336 28.6406 314.492 28.9062 314.586 29.1875C314.992 29.2656 315.32 29.3672 315.57 29.4922C315.82 29.6016 316.016 29.7422 316.156 29.9141C316.297 30.0859 316.391 30.2891 316.438 30.5234C316.484 30.7422 316.508 30.9844 316.508 31.25C316.508 31.3594 316.508 31.4766 316.508 31.6016C316.508 31.7266 316.5 31.8516 316.484 31.9766C316.469 32.1016 316.461 32.25 316.461 32.4219C316.461 32.5938 316.461 32.75 316.461 32.8906C316.461 33.0469 316.484 33.25 316.531 33.5C316.594 33.75 316.656 34.0078 316.719 34.2734L316.883 35.1406C316.961 35.5938 317.023 36.1094 317.07 36.6875C317.133 37.2656 317.203 37.8438 317.281 38.4219C317.344 39.0156 317.406 39.5938 317.469 40.1562C317.531 40.7031 317.594 41.2109 317.656 41.6797L318.219 45.1484L318.289 45.5469C318.32 45.75 318.352 45.9375 318.383 46.1094C318.43 46.2812 318.453 46.4766 318.453 46.6953ZM313.086 33.2188C313.086 33.1875 313.078 33.1406 313.062 33.0781C313.047 33 313.031 32.9219 313.016 32.8438C312.656 33.6094 312.336 34.4453 312.055 35.3516C311.789 36.2422 311.562 37.1562 311.375 38.0938C311.203 39.0156 311.07 39.9453 310.977 40.8828C310.898 41.8047 310.859 42.6797 310.859 43.5078C310.859 43.5859 310.859 43.6562 310.859 43.7188C310.859 43.7812 310.867 43.8438 310.883 43.9062V43.9297C311.258 43.3516 311.578 42.5938 311.844 41.6562C312.125 40.7031 312.359 39.7109 312.547 38.6797C312.734 37.6328 312.867 36.625 312.945 35.6562C313.039 34.6719 313.086 33.8594 313.086 33.2188Z" fill="#1B73F0"/>
<path d="M299.352 29.8203C299.352 30.0078 299.281 30.1641 299.141 30.2891C299.016 30.4141 298.859 30.5234 298.672 30.6172C298.484 30.6953 298.289 30.75 298.086 30.7812C297.898 30.8125 297.742 30.8281 297.617 30.8281C297.43 30.8281 297.25 30.8125 297.078 30.7812C296.906 30.7344 296.734 30.6875 296.562 30.6406C296.391 30.5938 296.227 30.5547 296.07 30.5234C295.914 30.4766 295.75 30.4531 295.578 30.4531C295.344 30.4531 295.109 30.4922 294.875 30.5703C294.641 30.6484 294.43 30.7578 294.242 30.8984C294.055 31.0391 293.898 31.2109 293.773 31.4141C293.664 31.6172 293.609 31.8438 293.609 32.0938C293.609 32.4688 293.688 32.8438 293.844 33.2188C294 33.5781 294.203 33.9453 294.453 34.3203C294.719 34.6953 295.016 35.0781 295.344 35.4688C295.688 35.8438 296.047 36.2266 296.422 36.6172C296.875 37.1172 297.328 37.625 297.781 38.1406C298.25 38.6562 298.664 39.1953 299.023 39.7578C299.398 40.3203 299.703 40.9141 299.938 41.5391C300.172 42.1641 300.289 42.8203 300.289 43.5078C300.289 44.1016 300.188 44.6328 299.984 45.1016C299.797 45.5703 299.523 45.9688 299.164 46.2969C298.82 46.625 298.398 46.875 297.898 47.0469C297.414 47.2344 296.883 47.3281 296.305 47.3281C296.148 47.3281 295.906 47.2969 295.578 47.2344C295.266 47.1719 294.906 47.0859 294.5 46.9766C294.094 46.8516 293.672 46.7188 293.234 46.5781C292.812 46.4375 292.422 46.2891 292.062 46.1328C291.719 45.9609 291.43 45.7969 291.195 45.6406C290.977 45.4688 290.867 45.3125 290.867 45.1719C290.867 44.9844 290.953 44.7969 291.125 44.6094C291.297 44.4062 291.5 44.2266 291.734 44.0703C291.969 43.8984 292.211 43.7578 292.461 43.6484C292.727 43.5391 292.945 43.4844 293.117 43.4844C293.352 43.4844 293.594 43.5391 293.844 43.6484C294.109 43.7578 294.375 43.8828 294.641 44.0234C294.938 44.1797 295.234 44.3203 295.531 44.4453C295.844 44.5703 296.164 44.6328 296.492 44.6328C296.742 44.6328 296.883 44.5469 296.914 44.375C296.961 44.2031 296.984 44.0078 296.984 43.7891C296.984 43.2422 296.891 42.7266 296.703 42.2422C296.516 41.7422 296.273 41.2578 295.977 40.7891C295.68 40.3203 295.336 39.8672 294.945 39.4297C294.555 38.9766 294.164 38.5312 293.773 38.0938C293.367 37.6562 292.969 37.2188 292.578 36.7812C292.203 36.3438 291.867 35.8984 291.57 35.4453C291.273 34.9766 291.031 34.5 290.844 34.0156C290.672 33.5312 290.586 33.0156 290.586 32.4688C290.586 31.7969 290.734 31.1953 291.031 30.6641C291.328 30.1172 291.711 29.6484 292.18 29.2578C292.664 28.8672 293.203 28.5703 293.797 28.3672C294.406 28.1484 295.016 28.0391 295.625 28.0391C295.828 28.0391 296.141 28.0859 296.562 28.1797C296.984 28.2578 297.398 28.375 297.805 28.5312C298.211 28.6875 298.57 28.875 298.883 29.0938C299.195 29.3125 299.352 29.5547 299.352 29.8203Z" fill="#1B73F0"/>
<path d="M290.328 42.7109C290.328 43.1797 290.195 43.6641 289.93 44.1641C289.68 44.6641 289.352 45.125 288.945 45.5469C288.539 45.9531 288.07 46.2891 287.539 46.5547C287.023 46.8203 286.508 46.9531 285.992 46.9531C285.258 46.9531 284.625 46.8125 284.094 46.5312C283.562 46.2344 283.102 45.8438 282.711 45.3594C282.32 44.8594 282 44.2969 281.75 43.6719C281.516 43.0469 281.328 42.4062 281.188 41.75C281.047 41.0781 280.945 40.4141 280.883 39.7578C280.836 39.0859 280.812 38.4766 280.812 37.9297C280.812 37.4609 280.836 36.9062 280.883 36.2656C280.945 35.625 281.039 34.9609 281.164 34.2734C281.305 33.5859 281.492 32.9062 281.727 32.2344C281.961 31.5625 282.25 30.9609 282.594 30.4297C282.953 29.8984 283.375 29.4688 283.859 29.1406C284.359 28.8125 284.93 28.6484 285.57 28.6484C286.07 28.6484 286.516 28.75 286.906 28.9531C287.312 29.1562 287.648 29.4297 287.914 29.7734C288.195 30.1016 288.406 30.4844 288.547 30.9219C288.703 31.3594 288.781 31.8125 288.781 32.2812C288.781 32.8906 288.641 33.5547 288.359 34.2734C288.078 34.9922 287.711 35.6875 287.258 36.3594C286.82 37.0312 286.32 37.6406 285.758 38.1875C285.211 38.7188 284.664 39.125 284.117 39.4062C284.148 39.6875 284.211 40.1016 284.305 40.6484C284.398 41.1797 284.523 41.7109 284.68 42.2422C284.852 42.7734 285.047 43.2344 285.266 43.625C285.5 44.0156 285.773 44.2109 286.086 44.2109C286.242 44.2109 286.375 44.1641 286.484 44.0703C286.609 43.9766 286.719 43.8516 286.812 43.6953C286.906 43.5391 286.984 43.3672 287.047 43.1797C287.125 42.9922 287.195 42.8125 287.258 42.6406L287.398 42.3125C287.43 42.2656 287.445 42.2344 287.445 42.2188C287.461 42.2031 287.477 42.1797 287.492 42.1484C287.602 41.9453 287.703 41.7578 287.797 41.5859C287.906 41.4141 288.055 41.2656 288.242 41.1406H288.219C288.281 41.0781 288.344 41.0469 288.406 41.0469C288.484 41.0312 288.555 41.0234 288.617 41.0234C288.789 41.0234 288.977 41.0781 289.18 41.1875C289.383 41.2969 289.57 41.4375 289.742 41.6094C289.914 41.7656 290.055 41.9453 290.164 42.1484C290.273 42.3359 290.328 42.5234 290.328 42.7109ZM285.688 32.375C285.688 32.2188 285.68 32.0547 285.664 31.8828C285.648 31.7109 285.609 31.5625 285.547 31.4375C285.328 31.7031 285.133 32.0234 284.961 32.3984C284.805 32.7578 284.672 33.1406 284.562 33.5469C284.453 33.9375 284.359 34.3359 284.281 34.7422C284.219 35.1484 284.172 35.5234 284.141 35.8672C284.547 35.3828 284.906 34.8359 285.219 34.2266C285.531 33.6016 285.688 32.9844 285.688 32.375Z" fill="#1B73F0"/>
<path d="M277.625 46.4141C277.625 46.5859 277.586 46.7344 277.508 46.8594C277.43 46.9688 277.328 47.0547 277.203 47.1172C277.094 47.1797 276.969 47.2188 276.828 47.2344C276.703 47.2656 276.578 47.2812 276.453 47.2812C276.281 47.2812 276.078 47.2578 275.844 47.2109C275.625 47.1797 275.406 47.125 275.188 47.0469C274.969 46.9688 274.766 46.875 274.578 46.7656C274.406 46.6406 274.273 46.4922 274.18 46.3203C274.086 46.1641 274 45.875 273.922 45.4531C273.859 45.0156 273.805 44.5156 273.758 43.9531C273.711 43.375 273.672 42.7656 273.641 42.125C273.609 41.4688 273.578 40.8438 273.547 40.25C273.531 39.6562 273.516 39.125 273.5 38.6562C273.5 38.1719 273.5 37.8125 273.5 37.5781C273.5 36.4844 273.516 35.4297 273.547 34.4141C273.594 33.3828 273.641 32.3281 273.688 31.25C273.609 31.25 273.531 31.2578 273.453 31.2734C273.375 31.2891 273.297 31.2969 273.219 31.2969C273.016 31.3281 272.805 31.3516 272.586 31.3672C272.383 31.3828 272.172 31.3906 271.953 31.3906C271.688 31.3906 271.453 31.3438 271.25 31.25C271.047 31.1562 270.945 30.9453 270.945 30.6172C270.945 30.2266 271.031 29.9141 271.203 29.6797C271.375 29.4453 271.594 29.2656 271.859 29.1406C272.125 29 272.414 28.9062 272.727 28.8594C273.039 28.7969 273.344 28.75 273.641 28.7188C273.688 28.7188 273.719 28.7188 273.734 28.7188C273.75 28.7031 273.781 28.6953 273.828 28.6953C273.844 28.5078 273.859 28.2812 273.875 28.0156C273.891 27.7344 273.906 27.4297 273.922 27.1016C273.938 26.5859 273.961 26.0391 273.992 25.4609C274.023 24.8672 274.055 24.3047 274.086 23.7734C274.117 23.2266 274.156 22.75 274.203 22.3438C274.25 21.9219 274.297 21.625 274.344 21.4531C274.422 21.25 274.508 21.0859 274.602 20.9609C274.711 20.8359 274.906 20.7734 275.188 20.7734C275.812 20.7734 276.297 20.9766 276.641 21.3828C276.984 21.7891 277.156 22.2891 277.156 22.8828C277.156 23.5703 277.133 24.2578 277.086 24.9453C277.055 25.6328 277.023 26.3281 276.992 27.0312L276.922 28.2266C277.312 28.1797 277.703 28.1094 278.094 28.0156C278.469 27.9375 278.844 27.8672 279.219 27.8047C279.609 27.7422 279.984 27.7109 280.344 27.7109C280.656 27.7109 280.898 27.7969 281.07 27.9688C281.242 28.125 281.328 28.3594 281.328 28.6719C281.328 29.0156 281.266 29.3516 281.141 29.6797C281.016 30.0078 280.797 30.2578 280.484 30.4297H280.508C280.445 30.4609 280.258 30.5078 279.945 30.5703C279.633 30.6172 279.273 30.6641 278.867 30.7109C278.477 30.7578 278.086 30.8047 277.695 30.8516C277.32 30.8984 277.039 30.9297 276.852 30.9453H276.828C276.797 31.8203 276.773 32.6875 276.758 33.5469C276.742 34.3906 276.734 35.25 276.734 36.125C276.734 37.3281 276.766 38.6094 276.828 39.9688C276.906 41.3125 277.031 42.5938 277.203 43.8125L277.391 44.8672C277.453 45.1328 277.508 45.3984 277.555 45.6641C277.602 45.9141 277.625 46.1641 277.625 46.4141Z" fill="#1B73F0"/>
<path d="M269.703 27.2891C269.703 27.5547 269.641 27.75 269.516 27.875C269.406 27.9844 269.195 28.0391 268.883 28.0391C268.742 28.0391 268.523 28.0234 268.227 27.9922C267.93 27.9453 267.625 27.8828 267.312 27.8047C267.016 27.7266 266.75 27.6172 266.516 27.4766C266.297 27.3359 266.188 27.1641 266.188 26.9609C266.188 26.8984 266.211 26.7266 266.258 26.4453C266.305 26.1484 266.359 25.8359 266.422 25.5078C266.5 25.1797 266.562 24.8828 266.609 24.6172C266.672 24.3516 266.719 24.2031 266.75 24.1719V24.1953C266.828 24.0703 266.922 23.9922 267.031 23.9609C267.141 23.9297 267.25 23.9141 267.359 23.9141C267.5 23.9141 267.68 23.9375 267.898 23.9844C268.133 24.0156 268.359 24.0703 268.578 24.1484C268.812 24.2109 269.023 24.2969 269.211 24.4062C269.398 24.5156 269.516 24.6328 269.562 24.7578C269.609 24.8828 269.633 25.0547 269.633 25.2734C269.648 25.4766 269.648 25.6641 269.633 25.8359C269.633 25.8984 269.625 25.9766 269.609 26.0703C269.609 26.1484 269.609 26.2109 269.609 26.2578C269.609 26.3359 269.609 26.4141 269.609 26.4922C269.625 26.5703 269.641 26.6484 269.656 26.7266C269.672 26.8047 269.68 26.8906 269.68 26.9844C269.695 27.0781 269.703 27.1797 269.703 27.2891ZM270.57 45.9688C270.57 46.3281 270.484 46.5859 270.312 46.7422C270.156 46.8828 269.898 46.9531 269.539 46.9531C269.352 46.9531 269.141 46.9297 268.906 46.8828C268.688 46.8359 268.469 46.7734 268.25 46.6953C268.031 46.6016 267.828 46.4922 267.641 46.3672C267.453 46.2422 267.312 46.1016 267.219 45.9453C267.156 45.8516 267.102 45.5625 267.055 45.0781C267.008 44.5938 266.969 43.9922 266.938 43.2734C266.922 42.5547 266.898 41.75 266.867 40.8594C266.852 39.9688 266.836 39.0703 266.82 38.1641C266.82 37.2578 266.82 36.375 266.82 35.5156C266.82 34.6562 266.82 33.9062 266.82 33.2656V31.4609C266.82 31.3047 266.82 31.1484 266.82 30.9922C266.836 30.8359 266.867 30.7031 266.914 30.5938C266.977 30.4688 267.062 30.3672 267.172 30.2891C267.297 30.2109 267.469 30.1719 267.688 30.1719C268.375 30.1719 268.875 30.3672 269.188 30.7578C269.516 31.1328 269.719 31.6406 269.797 32.2812C269.875 33.2344 269.93 34.1875 269.961 35.1406C270.008 36.0781 270.047 37.0312 270.078 38C270.109 38.875 270.133 39.7422 270.148 40.6016C270.18 41.4453 270.234 42.2891 270.312 43.1328C270.328 43.3047 270.344 43.4688 270.359 43.625C270.375 43.7812 270.398 43.9375 270.43 44.0938C270.461 44.4062 270.492 44.7188 270.523 45.0312C270.555 45.3281 270.57 45.6406 270.57 45.9688Z" fill="#1B73F0"/>
<path d="M264.617 29.8203C264.617 30.0078 264.547 30.1641 264.406 30.2891C264.281 30.4141 264.125 30.5234 263.938 30.6172C263.75 30.6953 263.555 30.75 263.352 30.7812C263.164 30.8125 263.008 30.8281 262.883 30.8281C262.695 30.8281 262.516 30.8125 262.344 30.7812C262.172 30.7344 262 30.6875 261.828 30.6406C261.656 30.5938 261.492 30.5547 261.336 30.5234C261.18 30.4766 261.016 30.4531 260.844 30.4531C260.609 30.4531 260.375 30.4922 260.141 30.5703C259.906 30.6484 259.695 30.7578 259.508 30.8984C259.32 31.0391 259.164 31.2109 259.039 31.4141C258.93 31.6172 258.875 31.8438 258.875 32.0938C258.875 32.4688 258.953 32.8438 259.109 33.2188C259.266 33.5781 259.469 33.9453 259.719 34.3203C259.984 34.6953 260.281 35.0781 260.609 35.4688C260.953 35.8438 261.312 36.2266 261.688 36.6172C262.141 37.1172 262.594 37.625 263.047 38.1406C263.516 38.6562 263.93 39.1953 264.289 39.7578C264.664 40.3203 264.969 40.9141 265.203 41.5391C265.438 42.1641 265.555 42.8203 265.555 43.5078C265.555 44.1016 265.453 44.6328 265.25 45.1016C265.062 45.5703 264.789 45.9688 264.43 46.2969C264.086 46.625 263.664 46.875 263.164 47.0469C262.68 47.2344 262.148 47.3281 261.57 47.3281C261.414 47.3281 261.172 47.2969 260.844 47.2344C260.531 47.1719 260.172 47.0859 259.766 46.9766C259.359 46.8516 258.938 46.7188 258.5 46.5781C258.078 46.4375 257.688 46.2891 257.328 46.1328C256.984 45.9609 256.695 45.7969 256.461 45.6406C256.242 45.4688 256.133 45.3125 256.133 45.1719C256.133 44.9844 256.219 44.7969 256.391 44.6094C256.562 44.4062 256.766 44.2266 257 44.0703C257.234 43.8984 257.477 43.7578 257.727 43.6484C257.992 43.5391 258.211 43.4844 258.383 43.4844C258.617 43.4844 258.859 43.5391 259.109 43.6484C259.375 43.7578 259.641 43.8828 259.906 44.0234C260.203 44.1797 260.5 44.3203 260.797 44.4453C261.109 44.5703 261.43 44.6328 261.758 44.6328C262.008 44.6328 262.148 44.5469 262.18 44.375C262.227 44.2031 262.25 44.0078 262.25 43.7891C262.25 43.2422 262.156 42.7266 261.969 42.2422C261.781 41.7422 261.539 41.2578 261.242 40.7891C260.945 40.3203 260.602 39.8672 260.211 39.4297C259.82 38.9766 259.43 38.5312 259.039 38.0938C258.633 37.6562 258.234 37.2188 257.844 36.7812C257.469 36.3438 257.133 35.8984 256.836 35.4453C256.539 34.9766 256.297 34.5 256.109 34.0156C255.938 33.5312 255.852 33.0156 255.852 32.4688C255.852 31.7969 256 31.1953 256.297 30.6641C256.594 30.1172 256.977 29.6484 257.445 29.2578C257.93 28.8672 258.469 28.5703 259.062 28.3672C259.672 28.1484 260.281 28.0391 260.891 28.0391C261.094 28.0391 261.406 28.0859 261.828 28.1797C262.25 28.2578 262.664 28.375 263.07 28.5312C263.477 28.6875 263.836 28.875 264.148 29.0938C264.461 29.3125 264.617 29.5547 264.617 29.8203Z" fill="#1B73F0"/>
<path d="M248.562 42.7109C248.562 43.1797 248.43 43.6641 248.164 44.1641C247.914 44.6641 247.586 45.125 247.18 45.5469C246.773 45.9531 246.305 46.2891 245.773 46.5547C245.258 46.8203 244.742 46.9531 244.227 46.9531C243.492 46.9531 242.859 46.8125 242.328 46.5312C241.797 46.2344 241.336 45.8438 240.945 45.3594C240.555 44.8594 240.234 44.2969 239.984 43.6719C239.75 43.0469 239.562 42.4062 239.422 41.75C239.281 41.0781 239.18 40.4141 239.117 39.7578C239.07 39.0859 239.047 38.4766 239.047 37.9297C239.047 37.4609 239.07 36.9062 239.117 36.2656C239.18 35.625 239.273 34.9609 239.398 34.2734C239.539 33.5859 239.727 32.9062 239.961 32.2344C240.195 31.5625 240.484 30.9609 240.828 30.4297C241.188 29.8984 241.609 29.4688 242.094 29.1406C242.594 28.8125 243.164 28.6484 243.805 28.6484C244.305 28.6484 244.75 28.75 245.141 28.9531C245.547 29.1562 245.883 29.4297 246.148 29.7734C246.43 30.1016 246.641 30.4844 246.781 30.9219C246.938 31.3594 247.016 31.8125 247.016 32.2812C247.016 32.8906 246.875 33.5547 246.594 34.2734C246.312 34.9922 245.945 35.6875 245.492 36.3594C245.055 37.0312 244.555 37.6406 243.992 38.1875C243.445 38.7188 242.898 39.125 242.352 39.4062C242.383 39.6875 242.445 40.1016 242.539 40.6484C242.633 41.1797 242.758 41.7109 242.914 42.2422C243.086 42.7734 243.281 43.2344 243.5 43.625C243.734 44.0156 244.008 44.2109 244.32 44.2109C244.477 44.2109 244.609 44.1641 244.719 44.0703C244.844 43.9766 244.953 43.8516 245.047 43.6953C245.141 43.5391 245.219 43.3672 245.281 43.1797C245.359 42.9922 245.43 42.8125 245.492 42.6406L245.633 42.3125C245.664 42.2656 245.68 42.2344 245.68 42.2188C245.695 42.2031 245.711 42.1797 245.727 42.1484C245.836 41.9453 245.938 41.7578 246.031 41.5859C246.141 41.4141 246.289 41.2656 246.477 41.1406H246.453C246.516 41.0781 246.578 41.0469 246.641 41.0469C246.719 41.0312 246.789 41.0234 246.852 41.0234C247.023 41.0234 247.211 41.0781 247.414 41.1875C247.617 41.2969 247.805 41.4375 247.977 41.6094C248.148 41.7656 248.289 41.9453 248.398 42.1484C248.508 42.3359 248.562 42.5234 248.562 42.7109ZM243.922 32.375C243.922 32.2188 243.914 32.0547 243.898 31.8828C243.883 31.7109 243.844 31.5625 243.781 31.4375C243.562 31.7031 243.367 32.0234 243.195 32.3984C243.039 32.7578 242.906 33.1406 242.797 33.5469C242.688 33.9375 242.594 34.3359 242.516 34.7422C242.453 35.1484 242.406 35.5234 242.375 35.8672C242.781 35.3828 243.141 34.8359 243.453 34.2266C243.766 33.6016 243.922 32.9844 243.922 32.375Z" fill="#1B73F0"/>
<path d="M237.383 29.8203C237.383 30.0078 237.312 30.1641 237.172 30.2891C237.047 30.4141 236.891 30.5234 236.703 30.6172C236.516 30.6953 236.32 30.75 236.117 30.7812C235.93 30.8125 235.773 30.8281 235.648 30.8281C235.461 30.8281 235.281 30.8125 235.109 30.7812C234.938 30.7344 234.766 30.6875 234.594 30.6406C234.422 30.5938 234.258 30.5547 234.102 30.5234C233.945 30.4766 233.781 30.4531 233.609 30.4531C233.375 30.4531 233.141 30.4922 232.906 30.5703C232.672 30.6484 232.461 30.7578 232.273 30.8984C232.086 31.0391 231.93 31.2109 231.805 31.4141C231.695 31.6172 231.641 31.8438 231.641 32.0938C231.641 32.4688 231.719 32.8438 231.875 33.2188C232.031 33.5781 232.234 33.9453 232.484 34.3203C232.75 34.6953 233.047 35.0781 233.375 35.4688C233.719 35.8438 234.078 36.2266 234.453 36.6172C234.906 37.1172 235.359 37.625 235.812 38.1406C236.281 38.6562 236.695 39.1953 237.055 39.7578C237.43 40.3203 237.734 40.9141 237.969 41.5391C238.203 42.1641 238.32 42.8203 238.32 43.5078C238.32 44.1016 238.219 44.6328 238.016 45.1016C237.828 45.5703 237.555 45.9688 237.195 46.2969C236.852 46.625 236.43 46.875 235.93 47.0469C235.445 47.2344 234.914 47.3281 234.336 47.3281C234.18 47.3281 233.938 47.2969 233.609 47.2344C233.297 47.1719 232.938 47.0859 232.531 46.9766C232.125 46.8516 231.703 46.7188 231.266 46.5781C230.844 46.4375 230.453 46.2891 230.094 46.1328C229.75 45.9609 229.461 45.7969 229.227 45.6406C229.008 45.4688 228.898 45.3125 228.898 45.1719C228.898 44.9844 228.984 44.7969 229.156 44.6094C229.328 44.4062 229.531 44.2266 229.766 44.0703C230 43.8984 230.242 43.7578 230.492 43.6484C230.758 43.5391 230.977 43.4844 231.148 43.4844C231.383 43.4844 231.625 43.5391 231.875 43.6484C232.141 43.7578 232.406 43.8828 232.672 44.0234C232.969 44.1797 233.266 44.3203 233.562 44.4453C233.875 44.5703 234.195 44.6328 234.523 44.6328C234.773 44.6328 234.914 44.5469 234.945 44.375C234.992 44.2031 235.016 44.0078 235.016 43.7891C235.016 43.2422 234.922 42.7266 234.734 42.2422C234.547 41.7422 234.305 41.2578 234.008 40.7891C233.711 40.3203 233.367 39.8672 232.977 39.4297C232.586 38.9766 232.195 38.5312 231.805 38.0938C231.398 37.6562 231 37.2188 230.609 36.7812C230.234 36.3438 229.898 35.8984 229.602 35.4453C229.305 34.9766 229.062 34.5 228.875 34.0156C228.703 33.5312 228.617 33.0156 228.617 32.4688C228.617 31.7969 228.766 31.1953 229.062 30.6641C229.359 30.1172 229.742 29.6484 230.211 29.2578C230.695 28.8672 231.234 28.5703 231.828 28.3672C232.438 28.1484 233.047 28.0391 233.656 28.0391C233.859 28.0391 234.172 28.0859 234.594 28.1797C235.016 28.2578 235.43 28.375 235.836 28.5312C236.242 28.6875 236.602 28.875 236.914 29.0938C237.227 29.3125 237.383 29.5547 237.383 29.8203Z" fill="#1B73F0"/>
<path d="M228.359 42.7109C228.359 43.1797 228.227 43.6641 227.961 44.1641C227.711 44.6641 227.383 45.125 226.977 45.5469C226.57 45.9531 226.102 46.2891 225.57 46.5547C225.055 46.8203 224.539 46.9531 224.023 46.9531C223.289 46.9531 222.656 46.8125 222.125 46.5312C221.594 46.2344 221.133 45.8438 220.742 45.3594C220.352 44.8594 220.031 44.2969 219.781 43.6719C219.547 43.0469 219.359 42.4062 219.219 41.75C219.078 41.0781 218.977 40.4141 218.914 39.7578C218.867 39.0859 218.844 38.4766 218.844 37.9297C218.844 37.4609 218.867 36.9062 218.914 36.2656C218.977 35.625 219.07 34.9609 219.195 34.2734C219.336 33.5859 219.523 32.9062 219.758 32.2344C219.992 31.5625 220.281 30.9609 220.625 30.4297C220.984 29.8984 221.406 29.4688 221.891 29.1406C222.391 28.8125 222.961 28.6484 223.602 28.6484C224.102 28.6484 224.547 28.75 224.938 28.9531C225.344 29.1562 225.68 29.4297 225.945 29.7734C226.227 30.1016 226.438 30.4844 226.578 30.9219C226.734 31.3594 226.812 31.8125 226.812 32.2812C226.812 32.8906 226.672 33.5547 226.391 34.2734C226.109 34.9922 225.742 35.6875 225.289 36.3594C224.852 37.0312 224.352 37.6406 223.789 38.1875C223.242 38.7188 222.695 39.125 222.148 39.4062C222.18 39.6875 222.242 40.1016 222.336 40.6484C222.43 41.1797 222.555 41.7109 222.711 42.2422C222.883 42.7734 223.078 43.2344 223.297 43.625C223.531 44.0156 223.805 44.2109 224.117 44.2109C224.273 44.2109 224.406 44.1641 224.516 44.0703C224.641 43.9766 224.75 43.8516 224.844 43.6953C224.938 43.5391 225.016 43.3672 225.078 43.1797C225.156 42.9922 225.227 42.8125 225.289 42.6406L225.43 42.3125C225.461 42.2656 225.477 42.2344 225.477 42.2188C225.492 42.2031 225.508 42.1797 225.523 42.1484C225.633 41.9453 225.734 41.7578 225.828 41.5859C225.938 41.4141 226.086 41.2656 226.273 41.1406H226.25C226.312 41.0781 226.375 41.0469 226.438 41.0469C226.516 41.0312 226.586 41.0234 226.648 41.0234C226.82 41.0234 227.008 41.0781 227.211 41.1875C227.414 41.2969 227.602 41.4375 227.773 41.6094C227.945 41.7656 228.086 41.9453 228.195 42.1484C228.305 42.3359 228.359 42.5234 228.359 42.7109ZM223.719 32.375C223.719 32.2188 223.711 32.0547 223.695 31.8828C223.68 31.7109 223.641 31.5625 223.578 31.4375C223.359 31.7031 223.164 32.0234 222.992 32.3984C222.836 32.7578 222.703 33.1406 222.594 33.5469C222.484 33.9375 222.391 34.3359 222.312 34.7422C222.25 35.1484 222.203 35.5234 222.172 35.8672C222.578 35.3828 222.938 34.8359 223.25 34.2266C223.562 33.6016 223.719 32.9844 223.719 32.375Z" fill="#1B73F0"/>
<path d="M217.273 45.7344C217.273 46.0469 217.172 46.2734 216.969 46.4141C216.766 46.5547 216.516 46.625 216.219 46.625C216.031 46.625 215.836 46.6094 215.633 46.5781C215.43 46.5312 215.234 46.4844 215.047 46.4375C214.719 46.3438 214.461 46.2266 214.273 46.0859C214.102 45.9453 213.969 45.7891 213.875 45.6172C213.781 45.4297 213.719 45.2266 213.688 45.0078C213.672 44.7891 213.656 44.5469 213.641 44.2812C213.641 44.2031 213.633 44.1328 213.617 44.0703C213.617 44.0078 213.617 43.9453 213.617 43.8828C213.57 42.9922 213.523 42.0781 213.477 41.1406C213.445 40.2031 213.43 39.2891 213.43 38.3984C213.43 37.9453 213.43 37.4922 213.43 37.0391C213.445 36.5859 213.461 36.1328 213.477 35.6797C213.492 35.2266 213.5 34.7812 213.5 34.3438C213.516 33.8906 213.523 33.4375 213.523 32.9844C213.523 32.8906 213.516 32.8047 213.5 32.7266C213.5 32.6328 213.492 32.5391 213.477 32.4453C213.07 33.0391 212.711 33.7031 212.398 34.4375C212.102 35.1562 211.836 35.9062 211.602 36.6875C211.367 37.4531 211.164 38.2266 210.992 39.0078C210.836 39.7734 210.703 40.5078 210.594 41.2109L210.523 41.7031C210.445 42.25 210.367 42.8125 210.289 43.3906C210.211 43.9531 210.172 44.5156 210.172 45.0781C210.172 45.3125 210.211 45.5703 210.289 45.8516C210.32 45.9766 210.344 46.1016 210.359 46.2266C210.391 46.3359 210.406 46.4766 210.406 46.6484C210.406 47.0234 210.312 47.2734 210.125 47.3984C209.938 47.5391 209.688 47.6094 209.375 47.6094C209.188 47.6094 208.977 47.5938 208.742 47.5625C208.523 47.5312 208.305 47.4766 208.086 47.3984C207.883 47.3359 207.688 47.25 207.5 47.1406C207.312 47.0312 207.164 46.8906 207.055 46.7188C206.961 46.5156 206.867 45.9766 206.773 45.1016C206.695 44.2266 206.617 43.1406 206.539 41.8438C206.477 40.5469 206.414 39.0938 206.352 37.4844C206.289 35.8594 206.227 34.1953 206.164 32.4922C206.117 30.7891 206.07 29.1016 206.023 27.4297C205.992 25.7578 205.961 24.2188 205.93 22.8125C205.914 21.4062 205.898 20.1875 205.883 19.1562C205.867 18.1094 205.859 17.375 205.859 16.9531C205.859 16.6406 205.898 16.3594 205.977 16.1094C206.07 15.8438 206.32 15.7109 206.727 15.7109C207.148 15.7109 207.547 15.8125 207.922 16.0156C208.297 16.2031 208.57 16.5 208.742 16.9062C208.773 16.9688 208.805 17.2266 208.836 17.6797C208.867 18.1172 208.898 18.6875 208.93 19.3906C208.961 20.0781 208.992 20.875 209.023 21.7812C209.055 22.6719 209.086 23.6016 209.117 24.5703C209.148 25.5234 209.18 26.4844 209.211 27.4531C209.242 28.4219 209.273 29.3281 209.305 30.1719L209.422 33.6406C209.609 33.1562 209.844 32.6484 210.125 32.1172C210.406 31.5859 210.727 31.1016 211.086 30.6641C211.461 30.2266 211.875 29.8672 212.328 29.5859C212.797 29.3047 213.312 29.1641 213.875 29.1641C214.562 29.1641 215.102 29.3438 215.492 29.7031C215.883 30.0625 216.172 30.5078 216.359 31.0391C216.562 31.5703 216.688 32.1406 216.734 32.75C216.781 33.3594 216.805 33.9141 216.805 34.4141C216.805 34.7266 216.797 35.0312 216.781 35.3281C216.781 35.625 216.773 35.9219 216.758 36.2188C216.742 36.5312 216.727 36.8438 216.711 37.1562C216.711 37.4531 216.711 37.7578 216.711 38.0703C216.711 39.1484 216.734 40.2578 216.781 41.3984C216.828 42.5234 216.945 43.6328 217.133 44.7266L217.18 45.0547C217.211 45.1484 217.234 45.2578 217.25 45.3828C217.266 45.5078 217.273 45.625 217.273 45.7344Z" fill="#1B73F0"/>
<path d="M201.922 46.4141C201.922 46.5859 201.883 46.7344 201.805 46.8594C201.727 46.9688 201.625 47.0547 201.5 47.1172C201.391 47.1797 201.266 47.2188 201.125 47.2344C201 47.2656 200.875 47.2812 200.75 47.2812C200.578 47.2812 200.375 47.2578 200.141 47.2109C199.922 47.1797 199.703 47.125 199.484 47.0469C199.266 46.9688 199.062 46.875 198.875 46.7656C198.703 46.6406 198.57 46.4922 198.477 46.3203C198.383 46.1641 198.297 45.875 198.219 45.4531C198.156 45.0156 198.102 44.5156 198.055 43.9531C198.008 43.375 197.969 42.7656 197.938 42.125C197.906 41.4688 197.875 40.8438 197.844 40.25C197.828 39.6562 197.812 39.125 197.797 38.6562C197.797 38.1719 197.797 37.8125 197.797 37.5781C197.797 36.4844 197.812 35.4297 197.844 34.4141C197.891 33.3828 197.938 32.3281 197.984 31.25C197.906 31.25 197.828 31.2578 197.75 31.2734C197.672 31.2891 197.594 31.2969 197.516 31.2969C197.312 31.3281 197.102 31.3516 196.883 31.3672C196.68 31.3828 196.469 31.3906 196.25 31.3906C195.984 31.3906 195.75 31.3438 195.547 31.25C195.344 31.1562 195.242 30.9453 195.242 30.6172C195.242 30.2266 195.328 29.9141 195.5 29.6797C195.672 29.4453 195.891 29.2656 196.156 29.1406C196.422 29 196.711 28.9062 197.023 28.8594C197.336 28.7969 197.641 28.75 197.938 28.7188C197.984 28.7188 198.016 28.7188 198.031 28.7188C198.047 28.7031 198.078 28.6953 198.125 28.6953C198.141 28.5078 198.156 28.2812 198.172 28.0156C198.188 27.7344 198.203 27.4297 198.219 27.1016C198.234 26.5859 198.258 26.0391 198.289 25.4609C198.32 24.8672 198.352 24.3047 198.383 23.7734C198.414 23.2266 198.453 22.75 198.5 22.3438C198.547 21.9219 198.594 21.625 198.641 21.4531C198.719 21.25 198.805 21.0859 198.898 20.9609C199.008 20.8359 199.203 20.7734 199.484 20.7734C200.109 20.7734 200.594 20.9766 200.938 21.3828C201.281 21.7891 201.453 22.2891 201.453 22.8828C201.453 23.5703 201.43 24.2578 201.383 24.9453C201.352 25.6328 201.32 26.3281 201.289 27.0312L201.219 28.2266C201.609 28.1797 202 28.1094 202.391 28.0156C202.766 27.9375 203.141 27.8672 203.516 27.8047C203.906 27.7422 204.281 27.7109 204.641 27.7109C204.953 27.7109 205.195 27.7969 205.367 27.9688C205.539 28.125 205.625 28.3594 205.625 28.6719C205.625 29.0156 205.562 29.3516 205.438 29.6797C205.312 30.0078 205.094 30.2578 204.781 30.4297H204.805C204.742 30.4609 204.555 30.5078 204.242 30.5703C203.93 30.6172 203.57 30.6641 203.164 30.7109C202.773 30.7578 202.383 30.8047 201.992 30.8516C201.617 30.8984 201.336 30.9297 201.148 30.9453H201.125C201.094 31.8203 201.07 32.6875 201.055 33.5469C201.039 34.3906 201.031 35.25 201.031 36.125C201.031 37.3281 201.062 38.6094 201.125 39.9688C201.203 41.3125 201.328 42.5938 201.5 43.8125L201.688 44.8672C201.75 45.1328 201.805 45.3984 201.852 45.6641C201.898 45.9141 201.922 46.1641 201.922 46.4141Z" fill="#1B73F0"/>
<path d="M189.594 17.8672C189.594 18.0391 189.516 18.1875 189.359 18.3125C189.219 18.4219 189.047 18.5156 188.844 18.5938C188.641 18.6562 188.438 18.7031 188.234 18.7344C188.031 18.7656 187.875 18.7812 187.766 18.7812C187.406 18.7812 187.07 18.7266 186.758 18.6172C186.445 18.4922 186.109 18.4219 185.75 18.4062C185.234 18.5469 184.773 18.8594 184.367 19.3438C183.961 19.8281 183.641 20.5312 183.406 21.4531C183.172 22.375 183.039 23.5312 183.008 24.9219C182.977 26.3125 183.078 27.9922 183.312 29.9609C184.297 29.7578 185.211 29.5859 186.055 29.4453C186.914 29.2891 187.578 29.2109 188.047 29.2109C188.422 29.2109 188.68 29.3125 188.82 29.5156C188.961 29.7188 189.031 29.9766 189.031 30.2891C189.031 30.6016 189 30.8906 188.938 31.1562C188.875 31.4219 188.711 31.6406 188.445 31.8125L183.547 32.5625C183.625 33.2188 183.688 33.8828 183.734 34.5547C183.797 35.2109 183.859 35.8594 183.922 36.5C184.172 38.5312 184.383 40.1953 184.555 41.4922C184.742 42.7891 184.891 43.8281 185 44.6094C185.125 45.375 185.219 45.9297 185.281 46.2734C185.359 46.6016 185.414 46.8281 185.445 46.9531C185.477 47.0625 185.492 47.1094 185.492 47.0938C185.508 47.0781 185.516 47.0938 185.516 47.1406C185.516 47.4688 185.414 47.6953 185.211 47.8203C185.008 47.9609 184.766 48.0312 184.484 48.0312C184.266 48.0312 184.031 48.0078 183.781 47.9609C183.547 47.9297 183.312 47.875 183.078 47.7969C182.844 47.7188 182.633 47.6094 182.445 47.4688C182.258 47.3281 182.125 47.1562 182.047 46.9531C181.922 45.8906 181.773 44.875 181.602 43.9062C181.43 42.9375 181.281 41.9297 181.156 40.8828C181.031 39.6484 180.891 38.3359 180.734 36.9453C180.594 35.5547 180.477 34.2266 180.383 32.9609C180.32 32.9766 180.258 32.9844 180.195 32.9844C180.133 32.9688 180.062 32.9609 179.984 32.9609C179.734 32.9609 179.523 32.9062 179.352 32.7969C179.195 32.6719 179.117 32.4531 179.117 32.1406C179.117 31.7812 179.203 31.4531 179.375 31.1562C179.562 30.8594 179.836 30.6641 180.195 30.5703C180.148 29.7109 180.094 28.7578 180.031 27.7109C179.969 26.6641 179.945 25.6016 179.961 24.5234C179.977 23.4297 180.062 22.375 180.219 21.3594C180.391 20.3281 180.688 19.4219 181.109 18.6406C181.531 17.8438 182.109 17.2031 182.844 16.7188C183.578 16.2344 184.523 15.9922 185.68 15.9922C185.914 15.9922 186.242 16.0312 186.664 16.1094C187.102 16.1875 187.539 16.3125 187.977 16.4844C188.414 16.6406 188.789 16.8359 189.102 17.0703C189.43 17.3047 189.594 17.5703 189.594 17.8672Z" fill="#1B73F0"/>
<path d="M178.578 37.3906C178.578 38.75 178.461 40.1094 178.227 41.4688C178.008 42.8125 177.547 44.0859 176.844 45.2891C176.625 45.6484 176.375 46 176.094 46.3438C175.812 46.6719 175.5 46.9688 175.156 47.2344C174.828 47.5156 174.461 47.7344 174.055 47.8906C173.664 48.0625 173.25 48.1484 172.812 48.1484C172.125 48.1484 171.523 47.9844 171.008 47.6562C170.508 47.3438 170.07 46.9297 169.695 46.4141C169.336 45.8828 169.031 45.2891 168.781 44.6328C168.547 43.9609 168.359 43.2812 168.219 42.5938C168.094 41.8906 168 41.2109 167.938 40.5547C167.891 39.8984 167.867 39.3203 167.867 38.8203C167.867 38.2578 167.891 37.6406 167.938 36.9688C167.984 36.2969 168.062 35.6094 168.172 34.9062C168.297 34.2031 168.453 33.5078 168.641 32.8203C168.844 32.1328 169.102 31.4922 169.414 30.8984C169.727 30.2891 170.102 29.75 170.539 29.2812C170.977 28.7969 171.484 28.4141 172.062 28.1328V28.1562C172.562 27.8906 173.062 27.7578 173.562 27.7578C173.875 27.7578 174.117 27.8281 174.289 27.9688C174.461 28.0938 174.539 28.3125 174.523 28.625C175.383 28.7812 176.078 29.1953 176.609 29.8672C177.141 30.5391 177.547 31.3203 177.828 32.2109C178.125 33.1016 178.32 34.0156 178.414 34.9531C178.523 35.8906 178.578 36.7031 178.578 37.3906ZM173.281 31.5312C173.016 31.5312 172.766 31.4297 172.531 31.2266C172.234 31.6797 171.984 32.2031 171.781 32.7969C171.578 33.375 171.414 33.9766 171.289 34.6016C171.18 35.2109 171.102 35.8281 171.055 36.4531C171.008 37.0781 170.984 37.6641 170.984 38.2109C170.984 38.6641 171.008 39.25 171.055 39.9688C171.102 40.6719 171.188 41.3828 171.312 42.1016C171.453 42.8203 171.641 43.4922 171.875 44.1172C172.125 44.7422 172.445 45.2031 172.836 45.5C173.32 45.2188 173.719 44.7734 174.031 44.1641C174.359 43.5391 174.617 42.8594 174.805 42.125C174.992 41.3906 175.117 40.6484 175.18 39.8984C175.258 39.1484 175.297 38.5078 175.297 37.9766C175.297 37.5859 175.273 37.0781 175.227 36.4531C175.18 35.8281 175.102 35.1953 174.992 34.5547C174.883 33.8984 174.727 33.2891 174.523 32.7266C174.336 32.1641 174.094 31.7422 173.797 31.4609C173.656 31.5078 173.484 31.5312 173.281 31.5312Z" fill="#1B73F0"/>
<path d="M157.156 46.4141C157.156 46.5859 157.117 46.7344 157.039 46.8594C156.961 46.9688 156.859 47.0547 156.734 47.1172C156.625 47.1797 156.5 47.2188 156.359 47.2344C156.234 47.2656 156.109 47.2812 155.984 47.2812C155.812 47.2812 155.609 47.2578 155.375 47.2109C155.156 47.1797 154.938 47.125 154.719 47.0469C154.5 46.9688 154.297 46.875 154.109 46.7656C153.938 46.6406 153.805 46.4922 153.711 46.3203C153.617 46.1641 153.531 45.875 153.453 45.4531C153.391 45.0156 153.336 44.5156 153.289 43.9531C153.242 43.375 153.203 42.7656 153.172 42.125C153.141 41.4688 153.109 40.8438 153.078 40.25C153.062 39.6562 153.047 39.125 153.031 38.6562C153.031 38.1719 153.031 37.8125 153.031 37.5781C153.031 36.4844 153.047 35.4297 153.078 34.4141C153.125 33.3828 153.172 32.3281 153.219 31.25C153.141 31.25 153.062 31.2578 152.984 31.2734C152.906 31.2891 152.828 31.2969 152.75 31.2969C152.547 31.3281 152.336 31.3516 152.117 31.3672C151.914 31.3828 151.703 31.3906 151.484 31.3906C151.219 31.3906 150.984 31.3438 150.781 31.25C150.578 31.1562 150.477 30.9453 150.477 30.6172C150.477 30.2266 150.562 29.9141 150.734 29.6797C150.906 29.4453 151.125 29.2656 151.391 29.1406C151.656 29 151.945 28.9062 152.258 28.8594C152.57 28.7969 152.875 28.75 153.172 28.7188C153.219 28.7188 153.25 28.7188 153.266 28.7188C153.281 28.7031 153.312 28.6953 153.359 28.6953C153.375 28.5078 153.391 28.2812 153.406 28.0156C153.422 27.7344 153.438 27.4297 153.453 27.1016C153.469 26.5859 153.492 26.0391 153.523 25.4609C153.555 24.8672 153.586 24.3047 153.617 23.7734C153.648 23.2266 153.688 22.75 153.734 22.3438C153.781 21.9219 153.828 21.625 153.875 21.4531C153.953 21.25 154.039 21.0859 154.133 20.9609C154.242 20.8359 154.438 20.7734 154.719 20.7734C155.344 20.7734 155.828 20.9766 156.172 21.3828C156.516 21.7891 156.688 22.2891 156.688 22.8828C156.688 23.5703 156.664 24.2578 156.617 24.9453C156.586 25.6328 156.555 26.3281 156.523 27.0312L156.453 28.2266C156.844 28.1797 157.234 28.1094 157.625 28.0156C158 27.9375 158.375 27.8672 158.75 27.8047C159.141 27.7422 159.516 27.7109 159.875 27.7109C160.188 27.7109 160.43 27.7969 160.602 27.9688C160.773 28.125 160.859 28.3594 160.859 28.6719C160.859 29.0156 160.797 29.3516 160.672 29.6797C160.547 30.0078 160.328 30.2578 160.016 30.4297H160.039C159.977 30.4609 159.789 30.5078 159.477 30.5703C159.164 30.6172 158.805 30.6641 158.398 30.7109C158.008 30.7578 157.617 30.8047 157.227 30.8516C156.852 30.8984 156.57 30.9297 156.383 30.9453H156.359C156.328 31.8203 156.305 32.6875 156.289 33.5469C156.273 34.3906 156.266 35.25 156.266 36.125C156.266 37.3281 156.297 38.6094 156.359 39.9688C156.438 41.3125 156.562 42.5938 156.734 43.8125L156.922 44.8672C156.984 45.1328 157.039 45.3984 157.086 45.6641C157.133 45.9141 157.156 46.1641 157.156 46.4141Z" fill="#1B73F0"/>
<path d="M149.867 29.8203C149.867 30.0078 149.797 30.1641 149.656 30.2891C149.531 30.4141 149.375 30.5234 149.188 30.6172C149 30.6953 148.805 30.75 148.602 30.7812C148.414 30.8125 148.258 30.8281 148.133 30.8281C147.945 30.8281 147.766 30.8125 147.594 30.7812C147.422 30.7344 147.25 30.6875 147.078 30.6406C146.906 30.5938 146.742 30.5547 146.586 30.5234C146.43 30.4766 146.266 30.4531 146.094 30.4531C145.859 30.4531 145.625 30.4922 145.391 30.5703C145.156 30.6484 144.945 30.7578 144.758 30.8984C144.57 31.0391 144.414 31.2109 144.289 31.4141C144.18 31.6172 144.125 31.8438 144.125 32.0938C144.125 32.4688 144.203 32.8438 144.359 33.2188C144.516 33.5781 144.719 33.9453 144.969 34.3203C145.234 34.6953 145.531 35.0781 145.859 35.4688C146.203 35.8438 146.562 36.2266 146.938 36.6172C147.391 37.1172 147.844 37.625 148.297 38.1406C148.766 38.6562 149.18 39.1953 149.539 39.7578C149.914 40.3203 150.219 40.9141 150.453 41.5391C150.688 42.1641 150.805 42.8203 150.805 43.5078C150.805 44.1016 150.703 44.6328 150.5 45.1016C150.312 45.5703 150.039 45.9688 149.68 46.2969C149.336 46.625 148.914 46.875 148.414 47.0469C147.93 47.2344 147.398 47.3281 146.82 47.3281C146.664 47.3281 146.422 47.2969 146.094 47.2344C145.781 47.1719 145.422 47.0859 145.016 46.9766C144.609 46.8516 144.188 46.7188 143.75 46.5781C143.328 46.4375 142.938 46.2891 142.578 46.1328C142.234 45.9609 141.945 45.7969 141.711 45.6406C141.492 45.4688 141.383 45.3125 141.383 45.1719C141.383 44.9844 141.469 44.7969 141.641 44.6094C141.812 44.4062 142.016 44.2266 142.25 44.0703C142.484 43.8984 142.727 43.7578 142.977 43.6484C143.242 43.5391 143.461 43.4844 143.633 43.4844C143.867 43.4844 144.109 43.5391 144.359 43.6484C144.625 43.7578 144.891 43.8828 145.156 44.0234C145.453 44.1797 145.75 44.3203 146.047 44.4453C146.359 44.5703 146.68 44.6328 147.008 44.6328C147.258 44.6328 147.398 44.5469 147.43 44.375C147.477 44.2031 147.5 44.0078 147.5 43.7891C147.5 43.2422 147.406 42.7266 147.219 42.2422C147.031 41.7422 146.789 41.2578 146.492 40.7891C146.195 40.3203 145.852 39.8672 145.461 39.4297C145.07 38.9766 144.68 38.5312 144.289 38.0938C143.883 37.6562 143.484 37.2188 143.094 36.7812C142.719 36.3438 142.383 35.8984 142.086 35.4453C141.789 34.9766 141.547 34.5 141.359 34.0156C141.188 33.5312 141.102 33.0156 141.102 32.4688C141.102 31.7969 141.25 31.1953 141.547 30.6641C141.844 30.1172 142.227 29.6484 142.695 29.2578C143.18 28.8672 143.719 28.5703 144.312 28.3672C144.922 28.1484 145.531 28.0391 146.141 28.0391C146.344 28.0391 146.656 28.0859 147.078 28.1797C147.5 28.2578 147.914 28.375 148.32 28.5312C148.727 28.6875 149.086 28.875 149.398 29.0938C149.711 29.3125 149.867 29.5547 149.867 29.8203Z" fill="#1B73F0"/>
<path d="M140.234 37.3906C140.234 38.75 140.117 40.1094 139.883 41.4688C139.664 42.8125 139.203 44.0859 138.5 45.2891C138.281 45.6484 138.031 46 137.75 46.3438C137.469 46.6719 137.156 46.9688 136.812 47.2344C136.484 47.5156 136.117 47.7344 135.711 47.8906C135.32 48.0625 134.906 48.1484 134.469 48.1484C133.781 48.1484 133.18 47.9844 132.664 47.6562C132.164 47.3438 131.727 46.9297 131.352 46.4141C130.992 45.8828 130.688 45.2891 130.438 44.6328C130.203 43.9609 130.016 43.2812 129.875 42.5938C129.75 41.8906 129.656 41.2109 129.594 40.5547C129.547 39.8984 129.523 39.3203 129.523 38.8203C129.523 38.2578 129.547 37.6406 129.594 36.9688C129.641 36.2969 129.719 35.6094 129.828 34.9062C129.953 34.2031 130.109 33.5078 130.297 32.8203C130.5 32.1328 130.758 31.4922 131.07 30.8984C131.383 30.2891 131.758 29.75 132.195 29.2812C132.633 28.7969 133.141 28.4141 133.719 28.1328V28.1562C134.219 27.8906 134.719 27.7578 135.219 27.7578C135.531 27.7578 135.773 27.8281 135.945 27.9688C136.117 28.0938 136.195 28.3125 136.18 28.625C137.039 28.7812 137.734 29.1953 138.266 29.8672C138.797 30.5391 139.203 31.3203 139.484 32.2109C139.781 33.1016 139.977 34.0156 140.07 34.9531C140.18 35.8906 140.234 36.7031 140.234 37.3906ZM134.938 31.5312C134.672 31.5312 134.422 31.4297 134.188 31.2266C133.891 31.6797 133.641 32.2031 133.438 32.7969C133.234 33.375 133.07 33.9766 132.945 34.6016C132.836 35.2109 132.758 35.8281 132.711 36.4531C132.664 37.0781 132.641 37.6641 132.641 38.2109C132.641 38.6641 132.664 39.25 132.711 39.9688C132.758 40.6719 132.844 41.3828 132.969 42.1016C133.109 42.8203 133.297 43.4922 133.531 44.1172C133.781 44.7422 134.102 45.2031 134.492 45.5C134.977 45.2188 135.375 44.7734 135.688 44.1641C136.016 43.5391 136.273 42.8594 136.461 42.125C136.648 41.3906 136.773 40.6484 136.836 39.8984C136.914 39.1484 136.953 38.5078 136.953 37.9766C136.953 37.5859 136.93 37.0781 136.883 36.4531C136.836 35.8281 136.758 35.1953 136.648 34.5547C136.539 33.8984 136.383 33.2891 136.18 32.7266C135.992 32.1641 135.75 31.7422 135.453 31.4609C135.312 31.5078 135.141 31.5312 134.938 31.5312Z" fill="#1B73F0"/>
<path d="M127.859 47.0469C127.859 47.3594 127.781 47.6094 127.625 47.7969C127.484 47.9844 127.234 48.0781 126.875 48.0781C126.688 48.0781 126.492 48.0547 126.289 48.0078C126.086 47.9766 125.891 47.9219 125.703 47.8438C125.312 47.7344 125 47.6328 124.766 47.5391C124.547 47.4453 124.375 47.3203 124.25 47.1641C124.141 47.0234 124.07 46.8359 124.039 46.6016C124.008 46.3672 123.984 46.0469 123.969 45.6406C123.844 42.4375 123.703 39.2656 123.547 36.125C123.406 32.9688 123.172 29.7969 122.844 26.6094C122.625 27.6875 122.414 28.7656 122.211 29.8438C122.008 30.9219 121.797 32.0156 121.578 33.125C121.359 34.2812 121.148 35.4609 120.945 36.6641C120.758 37.8672 120.453 39.0312 120.031 40.1562C119.859 40.6094 119.648 40.9688 119.398 41.2344C119.148 41.4844 118.766 41.6094 118.25 41.6094C117.875 41.6094 117.57 41.5469 117.336 41.4219C117.102 41.2812 116.875 41.0781 116.656 40.8125C116.453 40.5938 116.234 40.1719 116 39.5469C115.766 38.9219 115.516 38.1953 115.25 37.3672C115 36.5234 114.75 35.625 114.5 34.6719C114.25 33.7188 114.016 32.8047 113.797 31.9297C113.578 31.0391 113.383 30.2266 113.211 29.4922C113.039 28.7578 112.906 28.2031 112.812 27.8281V31.0156C112.812 33.0938 112.852 35.1641 112.93 37.2266C113.008 39.2891 113.141 41.3438 113.328 43.3906C113.375 43.8438 113.438 44.2969 113.516 44.75C113.609 45.2031 113.656 45.6562 113.656 46.1094C113.656 46.5156 113.516 46.7812 113.234 46.9062C112.969 47.0312 112.672 47.0938 112.344 47.0938C111.453 47.0938 110.766 46.9062 110.281 46.5312C109.812 46.1406 109.578 45.4844 109.578 44.5625C109.578 42.6719 109.531 40.7969 109.438 38.9375C109.344 37.0781 109.297 35.2031 109.297 33.3125C109.297 33.0469 109.297 32.5859 109.297 31.9297C109.312 31.2734 109.328 30.5 109.344 29.6094C109.359 28.7031 109.375 27.7266 109.391 26.6797C109.422 25.6172 109.453 24.5469 109.484 23.4688C109.516 22.3906 109.547 21.3438 109.578 20.3281C109.609 19.2969 109.641 18.375 109.672 17.5625C109.703 16.75 109.734 16.0781 109.766 15.5469C109.812 15 109.859 14.6719 109.906 14.5625C109.984 14.3438 110.07 14.2031 110.164 14.1406C110.273 14.0781 110.438 14.0469 110.656 14.0469C111.25 14.0469 111.742 14.1797 112.133 14.4453C112.539 14.6953 112.812 15.125 112.953 15.7344C113.172 16.0625 113.422 16.6641 113.703 17.5391C113.984 18.3984 114.281 19.4062 114.594 20.5625C114.906 21.7188 115.219 22.9688 115.531 24.3125C115.859 25.6406 116.164 26.9219 116.445 28.1562C116.742 29.3906 117.008 30.5234 117.242 31.5547C117.492 32.5859 117.688 33.375 117.828 33.9219C118.281 31.2344 118.742 28.5625 119.211 25.9062C119.68 23.25 120.125 20.5781 120.547 17.8906C120.625 17.4375 120.703 16.9922 120.781 16.5547C120.875 16.1172 120.922 15.6719 120.922 15.2188C120.922 14.9375 120.883 14.6797 120.805 14.4453C120.727 14.1953 120.688 13.9375 120.688 13.6719C120.688 13.3438 120.789 13.1484 120.992 13.0859C121.211 13.0078 121.453 12.9688 121.719 12.9688C121.969 12.9688 122.266 13.0078 122.609 13.0859C122.953 13.1641 123.281 13.2812 123.594 13.4375C123.922 13.5938 124.195 13.7891 124.414 14.0234C124.648 14.2578 124.766 14.5312 124.766 14.8438C124.766 15.3906 124.719 15.9688 124.625 16.5781C125.188 19.2188 125.656 21.8672 126.031 24.5234C126.406 27.1641 126.688 29.8281 126.875 32.5156C127.062 34.8281 127.211 37.125 127.32 39.4062C127.445 41.6875 127.594 43.9688 127.766 46.25C127.797 46.3906 127.82 46.5234 127.836 46.6484C127.852 46.7734 127.859 46.9062 127.859 47.0469Z" fill="#1B73F0"/>
</svg>
