<svg width="492" height="67" viewBox="0 0 492 67" fill="none" xmlns="http://www.w3.org/2000/svg">
<path d="M404.639 28.5471C422.492 38.5 450.716 38.3269 468.996 29.5618C474.116 27.0635 480.642 24.171 484.293 19.6252" stroke="#1B73F0" stroke-width="3" stroke-miterlimit="1.5" stroke-linecap="round"/>
<path d="M466.893 41.8645C466.989 41.8861 467.129 41.715 467.151 41.6186C468.997 39.7045 470.575 37.6293 472.25 35.5757C475.321 31.8108 478.103 27.9812 480.905 24.0553C482.043 22.5899 483.182 21.1244 484.342 19.5626C484.657 19.1768 484.3 18.7993 483.773 18.9301C481.68 19.6766 479.566 20.5195 477.472 21.266C471.881 23.1533 464.336 24.7057 459.122 20.811" stroke="#1B73F0" stroke-width="3" stroke-miterlimit="1.5" stroke-linecap="round"/>
<path d="M380.242 45.4688C380.242 45.3125 380.297 45.1953 380.406 45.1172C380.516 45.0234 380.648 44.9609 380.805 44.9297C380.977 44.8828 381.141 44.8594 381.297 44.8594C381.469 44.8594 381.617 44.8594 381.742 44.8594C381.898 44.8594 382.078 44.8672 382.281 44.8828C382.5 44.8828 382.703 44.9141 382.891 44.9766C383.078 45.0234 383.234 45.1094 383.359 45.2344C383.5 45.3438 383.57 45.5 383.57 45.7031C383.57 45.7812 383.562 45.9531 383.547 46.2188C383.547 46.4688 383.539 46.7422 383.523 47.0391C383.523 47.3359 383.516 47.6094 383.5 47.8594C383.5 48.0938 383.492 48.2188 383.477 48.2344C383.352 48.4062 383.188 48.5 382.984 48.5156C382.797 48.5469 382.617 48.5625 382.445 48.5625C381.961 48.5625 381.602 48.5391 381.367 48.4922C381.133 48.4453 380.961 48.3516 380.852 48.2109C380.742 48.0703 380.672 47.875 380.641 47.625C380.625 47.375 380.586 47.0469 380.523 46.6406C380.477 46.4531 380.414 46.2656 380.336 46.0781C380.273 45.8906 380.242 45.6875 380.242 45.4688Z" fill="#1B73F0"/>
<path d="M378.906 47.2734C378.906 47.4453 378.867 47.5938 378.789 47.7188C378.711 47.8281 378.609 47.9219 378.484 48C378.375 48.0625 378.25 48.1094 378.109 48.1406C377.984 48.1719 377.859 48.1875 377.734 48.1875C377.547 48.1875 377.344 48.1641 377.125 48.1172C376.906 48.0703 376.688 48.0078 376.469 47.9297C376.25 47.8359 376.047 47.7266 375.859 47.6016C375.688 47.4609 375.555 47.3047 375.461 47.1328C375.367 46.9609 375.297 46.75 375.25 46.5C375.219 46.2344 375.188 45.9688 375.156 45.7031C375 46.0781 374.812 46.4453 374.594 46.8047C374.391 47.1641 374.141 47.4844 373.844 47.7656C373.547 48.0312 373.211 48.2422 372.836 48.3984C372.477 48.5703 372.07 48.6562 371.617 48.6562C370.82 48.6562 370.172 48.4688 369.672 48.0938C369.188 47.7188 368.805 47.25 368.523 46.6875C368.258 46.1094 368.078 45.4844 367.984 44.8125C367.906 44.125 367.867 43.4688 367.867 42.8438C367.867 42.3281 367.891 41.7422 367.938 41.0859C367.984 40.4297 368.047 39.7578 368.125 39.0703C368.203 38.3828 368.297 37.7188 368.406 37.0781C368.516 36.4219 368.633 35.8438 368.758 35.3438C368.914 34.7656 369.102 34.1328 369.32 33.4453C369.555 32.7422 369.844 32.0938 370.188 31.5C370.547 30.8906 370.984 30.375 371.5 29.9531C372.016 29.5312 372.633 29.2969 373.352 29.25C373.305 27.9844 373.234 26.8203 373.141 25.7578C373.062 24.6797 372.977 23.5781 372.883 22.4531L372.648 19.8516L372.555 18.9141C372.523 18.6641 372.5 18.4141 372.484 18.1641C372.469 17.8984 372.461 17.6406 372.461 17.3906C372.461 17.0312 372.555 16.7812 372.742 16.6406C372.945 16.5 373.203 16.4297 373.516 16.4297C374.203 16.4297 374.727 16.5312 375.086 16.7344C375.445 16.9375 375.695 17.2109 375.836 17.5547C375.992 17.8984 376.078 18.3047 376.094 18.7734C376.109 19.2266 376.117 19.7188 376.117 20.25C376.117 20.5938 376.156 20.9844 376.234 21.4219L376.352 22.2891L376.539 24.6797C376.57 25.0547 376.602 25.4297 376.633 25.8047C376.664 26.1797 376.695 26.5547 376.727 26.9297L377.219 31.9688L378.156 41.3906L378.227 42.2578C378.289 42.8984 378.344 43.5625 378.391 44.25C378.453 44.9375 378.562 45.6172 378.719 46.2891C378.766 46.4609 378.805 46.625 378.836 46.7812C378.883 46.9375 378.906 47.1016 378.906 47.2734ZM373.445 33.5625C373.445 33.3906 373.438 33.2031 373.422 33C373.422 32.7812 373.422 32.5781 373.422 32.3906V31.7578C373.312 31.9141 373.172 32.1328 373 32.4141C372.828 32.6797 372.695 32.9219 372.602 33.1406C372.352 33.6875 372.125 34.3906 371.922 35.25C371.719 36.0938 371.539 36.9844 371.383 37.9219C371.242 38.8438 371.133 39.75 371.055 40.6406C370.977 41.5156 370.938 42.25 370.938 42.8438C370.938 43.0625 370.938 43.3125 370.938 43.5938C370.953 43.875 370.984 44.1641 371.031 44.4609C371.078 44.7422 371.148 45.0156 371.242 45.2812C371.336 45.5469 371.461 45.7656 371.617 45.9375C371.852 45.6406 372.062 45.1875 372.25 44.5781C372.438 43.9531 372.594 43.25 372.719 42.4688C372.859 41.6719 372.977 40.8359 373.07 39.9609C373.164 39.0859 373.234 38.2422 373.281 37.4297C373.344 36.6016 373.383 35.8516 373.398 35.1797C373.43 34.4922 373.445 33.9531 373.445 33.5625Z" fill="#1B73F0"/>
<path d="M367.328 43.7109C367.328 44.1797 367.195 44.6641 366.93 45.1641C366.68 45.6641 366.352 46.125 365.945 46.5469C365.539 46.9531 365.07 47.2891 364.539 47.5547C364.023 47.8203 363.508 47.9531 362.992 47.9531C362.258 47.9531 361.625 47.8125 361.094 47.5312C360.562 47.2344 360.102 46.8438 359.711 46.3594C359.32 45.8594 359 45.2969 358.75 44.6719C358.516 44.0469 358.328 43.4062 358.188 42.75C358.047 42.0781 357.945 41.4141 357.883 40.7578C357.836 40.0859 357.812 39.4766 357.812 38.9297C357.812 38.4609 357.836 37.9062 357.883 37.2656C357.945 36.625 358.039 35.9609 358.164 35.2734C358.305 34.5859 358.492 33.9062 358.727 33.2344C358.961 32.5625 359.25 31.9609 359.594 31.4297C359.953 30.8984 360.375 30.4688 360.859 30.1406C361.359 29.8125 361.93 29.6484 362.57 29.6484C363.07 29.6484 363.516 29.75 363.906 29.9531C364.312 30.1562 364.648 30.4297 364.914 30.7734C365.195 31.1016 365.406 31.4844 365.547 31.9219C365.703 32.3594 365.781 32.8125 365.781 33.2812C365.781 33.8906 365.641 34.5547 365.359 35.2734C365.078 35.9922 364.711 36.6875 364.258 37.3594C363.82 38.0312 363.32 38.6406 362.758 39.1875C362.211 39.7188 361.664 40.125 361.117 40.4062C361.148 40.6875 361.211 41.1016 361.305 41.6484C361.398 42.1797 361.523 42.7109 361.68 43.2422C361.852 43.7734 362.047 44.2344 362.266 44.625C362.5 45.0156 362.773 45.2109 363.086 45.2109C363.242 45.2109 363.375 45.1641 363.484 45.0703C363.609 44.9766 363.719 44.8516 363.812 44.6953C363.906 44.5391 363.984 44.3672 364.047 44.1797C364.125 43.9922 364.195 43.8125 364.258 43.6406L364.398 43.3125C364.43 43.2656 364.445 43.2344 364.445 43.2188C364.461 43.2031 364.477 43.1797 364.492 43.1484C364.602 42.9453 364.703 42.7578 364.797 42.5859C364.906 42.4141 365.055 42.2656 365.242 42.1406H365.219C365.281 42.0781 365.344 42.0469 365.406 42.0469C365.484 42.0312 365.555 42.0234 365.617 42.0234C365.789 42.0234 365.977 42.0781 366.18 42.1875C366.383 42.2969 366.57 42.4375 366.742 42.6094C366.914 42.7656 367.055 42.9453 367.164 43.1484C367.273 43.3359 367.328 43.5234 367.328 43.7109ZM362.688 33.375C362.688 33.2188 362.68 33.0547 362.664 32.8828C362.648 32.7109 362.609 32.5625 362.547 32.4375C362.328 32.7031 362.133 33.0234 361.961 33.3984C361.805 33.7578 361.672 34.1406 361.562 34.5469C361.453 34.9375 361.359 35.3359 361.281 35.7422C361.219 36.1484 361.172 36.5234 361.141 36.8672C361.547 36.3828 361.906 35.8359 362.219 35.2266C362.531 34.6016 362.688 33.9844 362.688 33.375Z" fill="#1B73F0"/>
<path d="M356.242 46.7344C356.242 47.0469 356.141 47.2734 355.938 47.4141C355.734 47.5547 355.484 47.625 355.188 47.625C355 47.625 354.805 47.6094 354.602 47.5781C354.398 47.5312 354.203 47.4844 354.016 47.4375C353.688 47.3438 353.43 47.2266 353.242 47.0859C353.07 46.9453 352.938 46.7891 352.844 46.6172C352.75 46.4297 352.688 46.2266 352.656 46.0078C352.641 45.7891 352.625 45.5469 352.609 45.2812C352.609 45.2031 352.602 45.1328 352.586 45.0703C352.586 45.0078 352.586 44.9453 352.586 44.8828C352.539 43.9922 352.492 43.0781 352.445 42.1406C352.414 41.2031 352.398 40.2891 352.398 39.3984C352.398 38.9453 352.398 38.4922 352.398 38.0391C352.414 37.5859 352.43 37.1328 352.445 36.6797C352.461 36.2266 352.469 35.7812 352.469 35.3438C352.484 34.8906 352.492 34.4375 352.492 33.9844C352.492 33.8906 352.484 33.8047 352.469 33.7266C352.469 33.6328 352.461 33.5391 352.445 33.4453C352.039 34.0391 351.68 34.7031 351.367 35.4375C351.07 36.1562 350.805 36.9062 350.57 37.6875C350.336 38.4531 350.133 39.2266 349.961 40.0078C349.805 40.7734 349.672 41.5078 349.562 42.2109L349.492 42.7031C349.414 43.25 349.336 43.8125 349.258 44.3906C349.18 44.9531 349.141 45.5156 349.141 46.0781C349.141 46.3125 349.18 46.5703 349.258 46.8516C349.289 46.9766 349.312 47.1016 349.328 47.2266C349.359 47.3359 349.375 47.4766 349.375 47.6484C349.375 48.0234 349.281 48.2734 349.094 48.3984C348.906 48.5391 348.656 48.6094 348.344 48.6094C348.156 48.6094 347.945 48.5938 347.711 48.5625C347.492 48.5312 347.273 48.4766 347.055 48.3984C346.852 48.3359 346.656 48.25 346.469 48.1406C346.281 48.0312 346.133 47.8906 346.023 47.7188C345.93 47.5156 345.836 46.9766 345.742 46.1016C345.664 45.2266 345.586 44.1406 345.508 42.8438C345.445 41.5469 345.383 40.0938 345.32 38.4844C345.258 36.8594 345.195 35.1953 345.133 33.4922C345.086 31.7891 345.039 30.1016 344.992 28.4297C344.961 26.7578 344.93 25.2188 344.898 23.8125C344.883 22.4062 344.867 21.1875 344.852 20.1562C344.836 19.1094 344.828 18.375 344.828 17.9531C344.828 17.6406 344.867 17.3594 344.945 17.1094C345.039 16.8438 345.289 16.7109 345.695 16.7109C346.117 16.7109 346.516 16.8125 346.891 17.0156C347.266 17.2031 347.539 17.5 347.711 17.9062C347.742 17.9688 347.773 18.2266 347.805 18.6797C347.836 19.1172 347.867 19.6875 347.898 20.3906C347.93 21.0781 347.961 21.875 347.992 22.7812C348.023 23.6719 348.055 24.6016 348.086 25.5703C348.117 26.5234 348.148 27.4844 348.18 28.4531C348.211 29.4219 348.242 30.3281 348.273 31.1719L348.391 34.6406C348.578 34.1562 348.812 33.6484 349.094 33.1172C349.375 32.5859 349.695 32.1016 350.055 31.6641C350.43 31.2266 350.844 30.8672 351.297 30.5859C351.766 30.3047 352.281 30.1641 352.844 30.1641C353.531 30.1641 354.07 30.3438 354.461 30.7031C354.852 31.0625 355.141 31.5078 355.328 32.0391C355.531 32.5703 355.656 33.1406 355.703 33.75C355.75 34.3594 355.773 34.9141 355.773 35.4141C355.773 35.7266 355.766 36.0312 355.75 36.3281C355.75 36.625 355.742 36.9219 355.727 37.2188C355.711 37.5312 355.695 37.8438 355.68 38.1562C355.68 38.4531 355.68 38.7578 355.68 39.0703C355.68 40.1484 355.703 41.2578 355.75 42.3984C355.797 43.5234 355.914 44.6328 356.102 45.7266L356.148 46.0547C356.18 46.1484 356.203 46.2578 356.219 46.3828C356.234 46.5078 356.242 46.625 356.242 46.7344Z" fill="#1B73F0"/>
<path d="M342.977 30.8203C342.977 31.0078 342.906 31.1641 342.766 31.2891C342.641 31.4141 342.484 31.5234 342.297 31.6172C342.109 31.6953 341.914 31.75 341.711 31.7812C341.523 31.8125 341.367 31.8281 341.242 31.8281C341.055 31.8281 340.875 31.8125 340.703 31.7812C340.531 31.7344 340.359 31.6875 340.188 31.6406C340.016 31.5938 339.852 31.5547 339.695 31.5234C339.539 31.4766 339.375 31.4531 339.203 31.4531C338.969 31.4531 338.734 31.4922 338.5 31.5703C338.266 31.6484 338.055 31.7578 337.867 31.8984C337.68 32.0391 337.523 32.2109 337.398 32.4141C337.289 32.6172 337.234 32.8438 337.234 33.0938C337.234 33.4688 337.312 33.8438 337.469 34.2188C337.625 34.5781 337.828 34.9453 338.078 35.3203C338.344 35.6953 338.641 36.0781 338.969 36.4688C339.312 36.8438 339.672 37.2266 340.047 37.6172C340.5 38.1172 340.953 38.625 341.406 39.1406C341.875 39.6562 342.289 40.1953 342.648 40.7578C343.023 41.3203 343.328 41.9141 343.562 42.5391C343.797 43.1641 343.914 43.8203 343.914 44.5078C343.914 45.1016 343.812 45.6328 343.609 46.1016C343.422 46.5703 343.148 46.9688 342.789 47.2969C342.445 47.625 342.023 47.875 341.523 48.0469C341.039 48.2344 340.508 48.3281 339.93 48.3281C339.773 48.3281 339.531 48.2969 339.203 48.2344C338.891 48.1719 338.531 48.0859 338.125 47.9766C337.719 47.8516 337.297 47.7188 336.859 47.5781C336.438 47.4375 336.047 47.2891 335.688 47.1328C335.344 46.9609 335.055 46.7969 334.82 46.6406C334.602 46.4688 334.492 46.3125 334.492 46.1719C334.492 45.9844 334.578 45.7969 334.75 45.6094C334.922 45.4062 335.125 45.2266 335.359 45.0703C335.594 44.8984 335.836 44.7578 336.086 44.6484C336.352 44.5391 336.57 44.4844 336.742 44.4844C336.977 44.4844 337.219 44.5391 337.469 44.6484C337.734 44.7578 338 44.8828 338.266 45.0234C338.562 45.1797 338.859 45.3203 339.156 45.4453C339.469 45.5703 339.789 45.6328 340.117 45.6328C340.367 45.6328 340.508 45.5469 340.539 45.375C340.586 45.2031 340.609 45.0078 340.609 44.7891C340.609 44.2422 340.516 43.7266 340.328 43.2422C340.141 42.7422 339.898 42.2578 339.602 41.7891C339.305 41.3203 338.961 40.8672 338.57 40.4297C338.18 39.9766 337.789 39.5312 337.398 39.0938C336.992 38.6562 336.594 38.2188 336.203 37.7812C335.828 37.3438 335.492 36.8984 335.195 36.4453C334.898 35.9766 334.656 35.5 334.469 35.0156C334.297 34.5312 334.211 34.0156 334.211 33.4688C334.211 32.7969 334.359 32.1953 334.656 31.6641C334.953 31.1172 335.336 30.6484 335.805 30.2578C336.289 29.8672 336.828 29.5703 337.422 29.3672C338.031 29.1484 338.641 29.0391 339.25 29.0391C339.453 29.0391 339.766 29.0859 340.188 29.1797C340.609 29.2578 341.023 29.375 341.43 29.5312C341.836 29.6875 342.195 29.875 342.508 30.0938C342.82 30.3125 342.977 30.5547 342.977 30.8203Z" fill="#1B73F0"/>
<path d="M332.078 28.2891C332.078 28.5547 332.016 28.75 331.891 28.875C331.781 28.9844 331.57 29.0391 331.258 29.0391C331.117 29.0391 330.898 29.0234 330.602 28.9922C330.305 28.9453 330 28.8828 329.688 28.8047C329.391 28.7266 329.125 28.6172 328.891 28.4766C328.672 28.3359 328.562 28.1641 328.562 27.9609C328.562 27.8984 328.586 27.7266 328.633 27.4453C328.68 27.1484 328.734 26.8359 328.797 26.5078C328.875 26.1797 328.938 25.8828 328.984 25.6172C329.047 25.3516 329.094 25.2031 329.125 25.1719V25.1953C329.203 25.0703 329.297 24.9922 329.406 24.9609C329.516 24.9297 329.625 24.9141 329.734 24.9141C329.875 24.9141 330.055 24.9375 330.273 24.9844C330.508 25.0156 330.734 25.0703 330.953 25.1484C331.188 25.2109 331.398 25.2969 331.586 25.4062C331.773 25.5156 331.891 25.6328 331.938 25.7578C331.984 25.8828 332.008 26.0547 332.008 26.2734C332.023 26.4766 332.023 26.6641 332.008 26.8359C332.008 26.8984 332 26.9766 331.984 27.0703C331.984 27.1484 331.984 27.2109 331.984 27.2578C331.984 27.3359 331.984 27.4141 331.984 27.4922C332 27.5703 332.016 27.6484 332.031 27.7266C332.047 27.8047 332.055 27.8906 332.055 27.9844C332.07 28.0781 332.078 28.1797 332.078 28.2891ZM332.945 46.9688C332.945 47.3281 332.859 47.5859 332.688 47.7422C332.531 47.8828 332.273 47.9531 331.914 47.9531C331.727 47.9531 331.516 47.9297 331.281 47.8828C331.062 47.8359 330.844 47.7734 330.625 47.6953C330.406 47.6016 330.203 47.4922 330.016 47.3672C329.828 47.2422 329.688 47.1016 329.594 46.9453C329.531 46.8516 329.477 46.5625 329.43 46.0781C329.383 45.5938 329.344 44.9922 329.312 44.2734C329.297 43.5547 329.273 42.75 329.242 41.8594C329.227 40.9688 329.211 40.0703 329.195 39.1641C329.195 38.2578 329.195 37.375 329.195 36.5156C329.195 35.6562 329.195 34.9062 329.195 34.2656V32.4609C329.195 32.3047 329.195 32.1484 329.195 31.9922C329.211 31.8359 329.242 31.7031 329.289 31.5938C329.352 31.4688 329.438 31.3672 329.547 31.2891C329.672 31.2109 329.844 31.1719 330.062 31.1719C330.75 31.1719 331.25 31.3672 331.562 31.7578C331.891 32.1328 332.094 32.6406 332.172 33.2812C332.25 34.2344 332.305 35.1875 332.336 36.1406C332.383 37.0781 332.422 38.0312 332.453 39C332.484 39.875 332.508 40.7422 332.523 41.6016C332.555 42.4453 332.609 43.2891 332.688 44.1328C332.703 44.3047 332.719 44.4688 332.734 44.625C332.75 44.7812 332.773 44.9375 332.805 45.0938C332.836 45.4062 332.867 45.7188 332.898 46.0312C332.93 46.3281 332.945 46.6406 332.945 46.9688Z" fill="#1B73F0"/>
<path d="M320.172 47.8828C320.172 48.2422 320.062 48.4766 319.844 48.5859C319.641 48.6953 319.391 48.75 319.094 48.75C318.828 48.75 318.562 48.7266 318.297 48.6797C318.047 48.6484 317.805 48.5781 317.57 48.4688C317.352 48.3594 317.156 48.2109 316.984 48.0234C316.828 47.8359 316.719 47.5938 316.656 47.2969C316.438 46.3594 316.312 45.4453 316.281 44.5547C316.25 43.6484 316.234 42.7188 316.234 41.7656V38.8828C316.234 37.5703 316.289 36.2109 316.398 34.8047C316.508 33.3828 316.625 32.0156 316.75 30.7031C316.75 30.6562 316.758 30.6016 316.773 30.5391C316.789 30.4766 316.797 30.4297 316.797 30.3984C316.812 30.2266 316.836 30.0391 316.867 29.8359C316.898 29.6328 316.945 29.4531 317.008 29.2969C317.086 29.125 317.188 28.9844 317.312 28.875C317.453 28.7656 317.633 28.7109 317.852 28.7109C318.102 28.7109 318.336 28.7656 318.555 28.875C318.789 28.9688 318.992 29.1016 319.164 29.2734C319.336 29.4297 319.469 29.625 319.562 29.8594C319.672 30.0938 319.727 30.3359 319.727 30.5859C319.727 30.8516 319.719 31.1484 319.703 31.4766C319.688 31.7891 319.664 32.0859 319.633 32.3672C319.633 32.4453 319.625 32.5312 319.609 32.625C319.609 32.7188 319.602 32.8047 319.586 32.8828C319.805 32.4453 320.055 31.9922 320.336 31.5234C320.617 31.0391 320.938 30.6016 321.297 30.2109C321.672 29.8047 322.078 29.4766 322.516 29.2266C322.969 28.9766 323.469 28.8516 324.016 28.8516C324.469 28.8516 324.844 28.9219 325.141 29.0625C325.438 29.2031 325.672 29.4062 325.844 29.6719C326.031 29.9219 326.156 30.2188 326.219 30.5625C326.297 30.9062 326.336 31.2734 326.336 31.6641C326.336 32.1953 326.32 32.7344 326.289 33.2812C326.258 33.8125 326.227 34.3438 326.195 34.875C326.148 35.4219 326.109 35.9609 326.078 36.4922C326.047 37.0234 326.031 37.5625 326.031 38.1094C326.031 38.7656 326.047 39.4453 326.078 40.1484C326.109 40.8359 326.156 41.5 326.219 42.1406C326.281 42.7656 326.352 43.3359 326.43 43.8516C326.508 44.3516 326.586 44.7422 326.664 45.0234C326.727 45.2578 326.789 45.5312 326.852 45.8438C326.93 46.1406 327 46.4531 327.062 46.7812C327.141 47.0938 327.203 47.3984 327.25 47.6953C327.297 47.9922 327.32 48.2578 327.32 48.4922C327.32 48.8359 327.18 49.0547 326.898 49.1484C326.633 49.2422 326.367 49.2891 326.102 49.2891C325.836 49.2891 325.531 49.2656 325.188 49.2188C324.859 49.1875 324.562 49.1016 324.297 48.9609C323.969 48.7266 323.75 48.3984 323.641 47.9766C323.547 47.5547 323.484 47.1406 323.453 46.7344L323.383 46.1016C323.336 45.7266 323.273 45.2344 323.195 44.625C323.117 44.0156 323.039 43.3438 322.961 42.6094C322.898 41.875 322.844 41.1172 322.797 40.3359C322.75 39.5391 322.727 38.7656 322.727 38.0156C322.727 37.3438 322.75 36.6953 322.797 36.0703C322.859 35.4453 322.922 34.8125 322.984 34.1719C323.016 33.8438 323.039 33.5781 323.055 33.375C323.07 33.1719 323.094 32.9062 323.125 32.5781C322.812 33.0781 322.5 33.6641 322.188 34.3359C321.875 35.0078 321.578 35.7109 321.297 36.4453C321.016 37.1641 320.758 37.8672 320.523 38.5547C320.305 39.2422 320.133 39.8438 320.008 40.3594L319.867 40.875C319.789 41.125 319.719 41.375 319.656 41.625C319.609 41.875 319.586 42.1094 319.586 42.3281C319.586 42.6094 319.602 42.9375 319.633 43.3125C319.664 43.6719 319.703 44.0156 319.75 44.3438C319.797 44.7344 319.852 45.1328 319.914 45.5391C319.914 45.5703 319.93 45.6719 319.961 45.8438C319.992 46.0156 320.023 46.2188 320.055 46.4531C320.086 46.6875 320.109 46.9375 320.125 47.2031C320.156 47.4531 320.172 47.6797 320.172 47.8828Z" fill="#1B73F0"/>
<path d="M314.312 46.9688C314.312 47.3281 314.227 47.5859 314.055 47.7422C313.883 47.8828 313.617 47.9531 313.258 47.9531C313.086 47.9531 312.883 47.9297 312.648 47.8828C312.43 47.8359 312.203 47.7734 311.969 47.6953C311.75 47.6016 311.547 47.4922 311.359 47.3672C311.172 47.2422 311.031 47.1016 310.938 46.9453C310.875 46.8516 310.82 46.5859 310.773 46.1484C310.742 45.7109 310.711 45.1562 310.68 44.4844C310.648 43.8125 310.625 43.0625 310.609 42.2344C310.594 41.4062 310.578 40.5703 310.562 39.7266C310.562 38.8672 310.562 38.0234 310.562 37.1953C310.562 36.3672 310.562 35.625 310.562 34.9688V33.1875C310.172 33.2188 309.758 33.25 309.32 33.2812C308.883 33.2969 308.438 33.3203 307.984 33.3516C307.547 33.3672 307.117 33.3906 306.695 33.4219C306.273 33.4531 305.891 33.4766 305.547 33.4922L304.07 33.5859C304.383 36.2734 304.648 38.5391 304.867 40.3828C305.102 42.2266 305.289 43.7578 305.43 44.9766C305.586 46.1797 305.703 47.125 305.781 47.8125C305.875 48.4844 305.938 48.9844 305.969 49.3125C306.016 49.6562 306.039 49.875 306.039 49.9688C306.055 50.0625 306.062 50.1406 306.062 50.2031C306.062 50.5312 305.961 50.7578 305.758 50.8828C305.555 51.0234 305.305 51.0938 305.008 51.0938C304.805 51.0938 304.578 51.0703 304.328 51.0234C304.078 50.9922 303.836 50.9375 303.602 50.8594C303.367 50.7812 303.156 50.6719 302.969 50.5312C302.781 50.3906 302.648 50.2188 302.57 50.0156C302.461 48.8125 302.328 47.5234 302.172 46.1484C302.031 44.7734 301.883 43.3906 301.727 42C301.57 40.5938 301.414 39.2031 301.258 37.8281C301.117 36.4531 301 35.1641 300.906 33.9609C300.844 33.9766 300.781 33.9844 300.719 33.9844C300.656 33.9688 300.586 33.9609 300.508 33.9609C300.273 33.9609 300.07 33.9062 299.898 33.7969C299.742 33.6719 299.664 33.4531 299.664 33.1406C299.664 32.7812 299.75 32.4531 299.922 32.1562C300.094 31.8594 300.359 31.6641 300.719 31.5703C300.672 30.7109 300.609 29.7578 300.531 28.7109C300.469 27.6484 300.445 26.5781 300.461 25.5C300.492 24.4219 300.594 23.375 300.766 22.3594C300.938 21.3281 301.234 20.4219 301.656 19.6406C302.078 18.8438 302.656 18.2031 303.391 17.7188C304.125 17.2344 305.07 16.9922 306.227 16.9922C306.445 16.9922 306.773 17.0312 307.211 17.1094C307.648 17.1875 308.078 17.3125 308.5 17.4844C308.938 17.6406 309.32 17.8359 309.648 18.0703C309.977 18.3047 310.141 18.5703 310.141 18.8672C310.141 19.0391 310.062 19.1875 309.906 19.3125C309.766 19.4219 309.594 19.5156 309.391 19.5938C309.188 19.6562 308.984 19.7031 308.781 19.7344C308.578 19.7656 308.422 19.7812 308.312 19.7812C307.953 19.7812 307.609 19.7266 307.281 19.6172C306.953 19.5078 306.625 19.4375 306.297 19.4062C305.781 19.5469 305.344 19.8281 304.984 20.25C304.641 20.6719 304.359 21.1875 304.141 21.7969C303.938 22.3906 303.789 23.0469 303.695 23.7656C303.602 24.4844 303.555 25.2031 303.555 25.9219L303.859 30.9609C304.109 30.9141 304.469 30.8672 304.938 30.8203C305.406 30.7578 305.922 30.7031 306.484 30.6562C307.062 30.5938 307.656 30.5391 308.266 30.4922C308.875 30.4297 309.453 30.3828 310 30.3516C310.562 30.3047 311.055 30.2734 311.477 30.2578C311.898 30.2266 312.203 30.2109 312.391 30.2109C312.75 30.2109 313 30.3125 313.141 30.5156C313.297 30.7188 313.375 30.9766 313.375 31.2891C313.375 33.3828 313.438 35.5156 313.562 37.6875C313.703 39.8594 313.859 42.0078 314.031 44.1328C314.047 44.3047 314.062 44.4688 314.078 44.625C314.094 44.7812 314.117 44.9375 314.148 45.0938C314.18 45.4062 314.211 45.7188 314.242 46.0312C314.289 46.3281 314.312 46.6406 314.312 46.9688ZM313.422 28.2891C313.422 28.5547 313.359 28.75 313.234 28.875C313.125 28.9844 312.922 29.0391 312.625 29.0391C312.484 29.0391 312.258 29.0234 311.945 28.9922C311.648 28.9453 311.344 28.8828 311.031 28.8047C310.734 28.7266 310.469 28.6172 310.234 28.4766C310.016 28.3359 309.906 28.1641 309.906 27.9609C309.906 27.8984 309.93 27.7266 309.977 27.4453C310.039 27.1484 310.102 26.8359 310.164 26.5078C310.227 26.1797 310.289 25.8828 310.352 25.6172C310.414 25.3516 310.461 25.2031 310.492 25.1719V25.1953C310.57 25.0703 310.656 24.9922 310.75 24.9609C310.859 24.9297 310.969 24.9141 311.078 24.9141C311.219 24.9141 311.398 24.9375 311.617 24.9844C311.852 25.0156 312.078 25.0703 312.297 25.1484C312.531 25.2109 312.742 25.2969 312.93 25.4062C313.117 25.5156 313.234 25.6328 313.281 25.7578C313.328 25.8828 313.352 26.0547 313.352 26.2734C313.367 26.4766 313.367 26.6641 313.352 26.8359C313.352 26.8984 313.344 26.9766 313.328 27.0703C313.328 27.1484 313.328 27.2109 313.328 27.2578C313.328 27.3359 313.328 27.4141 313.328 27.4922C313.344 27.5703 313.359 27.6484 313.375 27.7266C313.391 27.8047 313.398 27.8906 313.398 27.9844C313.414 28.0781 313.422 28.1797 313.422 28.2891Z" fill="#1B73F0"/>
<path d="M289.609 47.4141C289.609 47.5859 289.57 47.7344 289.492 47.8594C289.414 47.9688 289.312 48.0547 289.188 48.1172C289.078 48.1797 288.953 48.2188 288.812 48.2344C288.688 48.2656 288.562 48.2812 288.438 48.2812C288.266 48.2812 288.062 48.2578 287.828 48.2109C287.609 48.1797 287.391 48.125 287.172 48.0469C286.953 47.9688 286.75 47.875 286.562 47.7656C286.391 47.6406 286.258 47.4922 286.164 47.3203C286.07 47.1641 285.984 46.875 285.906 46.4531C285.844 46.0156 285.789 45.5156 285.742 44.9531C285.695 44.375 285.656 43.7656 285.625 43.125C285.594 42.4688 285.562 41.8438 285.531 41.25C285.516 40.6562 285.5 40.125 285.484 39.6562C285.484 39.1719 285.484 38.8125 285.484 38.5781C285.484 37.4844 285.5 36.4297 285.531 35.4141C285.578 34.3828 285.625 33.3281 285.672 32.25C285.594 32.25 285.516 32.2578 285.438 32.2734C285.359 32.2891 285.281 32.2969 285.203 32.2969C285 32.3281 284.789 32.3516 284.57 32.3672C284.367 32.3828 284.156 32.3906 283.938 32.3906C283.672 32.3906 283.438 32.3438 283.234 32.25C283.031 32.1562 282.93 31.9453 282.93 31.6172C282.93 31.2266 283.016 30.9141 283.188 30.6797C283.359 30.4453 283.578 30.2656 283.844 30.1406C284.109 30 284.398 29.9062 284.711 29.8594C285.023 29.7969 285.328 29.75 285.625 29.7188C285.672 29.7188 285.703 29.7188 285.719 29.7188C285.734 29.7031 285.766 29.6953 285.812 29.6953C285.828 29.5078 285.844 29.2812 285.859 29.0156C285.875 28.7344 285.891 28.4297 285.906 28.1016C285.922 27.5859 285.945 27.0391 285.977 26.4609C286.008 25.8672 286.039 25.3047 286.07 24.7734C286.102 24.2266 286.141 23.75 286.188 23.3438C286.234 22.9219 286.281 22.625 286.328 22.4531C286.406 22.25 286.492 22.0859 286.586 21.9609C286.695 21.8359 286.891 21.7734 287.172 21.7734C287.797 21.7734 288.281 21.9766 288.625 22.3828C288.969 22.7891 289.141 23.2891 289.141 23.8828C289.141 24.5703 289.117 25.2578 289.07 25.9453C289.039 26.6328 289.008 27.3281 288.977 28.0312L288.906 29.2266C289.297 29.1797 289.688 29.1094 290.078 29.0156C290.453 28.9375 290.828 28.8672 291.203 28.8047C291.594 28.7422 291.969 28.7109 292.328 28.7109C292.641 28.7109 292.883 28.7969 293.055 28.9688C293.227 29.125 293.312 29.3594 293.312 29.6719C293.312 30.0156 293.25 30.3516 293.125 30.6797C293 31.0078 292.781 31.2578 292.469 31.4297H292.492C292.43 31.4609 292.242 31.5078 291.93 31.5703C291.617 31.6172 291.258 31.6641 290.852 31.7109C290.461 31.7578 290.07 31.8047 289.68 31.8516C289.305 31.8984 289.023 31.9297 288.836 31.9453H288.812C288.781 32.8203 288.758 33.6875 288.742 34.5469C288.727 35.3906 288.719 36.25 288.719 37.125C288.719 38.3281 288.75 39.6094 288.812 40.9688C288.891 42.3125 289.016 43.5938 289.188 44.8125L289.375 45.8672C289.438 46.1328 289.492 46.3984 289.539 46.6641C289.586 46.9141 289.609 47.1641 289.609 47.4141Z" fill="#1B73F0"/>
<path d="M283.328 43.7109C283.328 44.1797 283.195 44.6641 282.93 45.1641C282.68 45.6641 282.352 46.125 281.945 46.5469C281.539 46.9531 281.07 47.2891 280.539 47.5547C280.023 47.8203 279.508 47.9531 278.992 47.9531C278.258 47.9531 277.625 47.8125 277.094 47.5312C276.562 47.2344 276.102 46.8438 275.711 46.3594C275.32 45.8594 275 45.2969 274.75 44.6719C274.516 44.0469 274.328 43.4062 274.188 42.75C274.047 42.0781 273.945 41.4141 273.883 40.7578C273.836 40.0859 273.812 39.4766 273.812 38.9297C273.812 38.4609 273.836 37.9062 273.883 37.2656C273.945 36.625 274.039 35.9609 274.164 35.2734C274.305 34.5859 274.492 33.9062 274.727 33.2344C274.961 32.5625 275.25 31.9609 275.594 31.4297C275.953 30.8984 276.375 30.4688 276.859 30.1406C277.359 29.8125 277.93 29.6484 278.57 29.6484C279.07 29.6484 279.516 29.75 279.906 29.9531C280.312 30.1562 280.648 30.4297 280.914 30.7734C281.195 31.1016 281.406 31.4844 281.547 31.9219C281.703 32.3594 281.781 32.8125 281.781 33.2812C281.781 33.8906 281.641 34.5547 281.359 35.2734C281.078 35.9922 280.711 36.6875 280.258 37.3594C279.82 38.0312 279.32 38.6406 278.758 39.1875C278.211 39.7188 277.664 40.125 277.117 40.4062C277.148 40.6875 277.211 41.1016 277.305 41.6484C277.398 42.1797 277.523 42.7109 277.68 43.2422C277.852 43.7734 278.047 44.2344 278.266 44.625C278.5 45.0156 278.773 45.2109 279.086 45.2109C279.242 45.2109 279.375 45.1641 279.484 45.0703C279.609 44.9766 279.719 44.8516 279.812 44.6953C279.906 44.5391 279.984 44.3672 280.047 44.1797C280.125 43.9922 280.195 43.8125 280.258 43.6406L280.398 43.3125C280.43 43.2656 280.445 43.2344 280.445 43.2188C280.461 43.2031 280.477 43.1797 280.492 43.1484C280.602 42.9453 280.703 42.7578 280.797 42.5859C280.906 42.4141 281.055 42.2656 281.242 42.1406H281.219C281.281 42.0781 281.344 42.0469 281.406 42.0469C281.484 42.0312 281.555 42.0234 281.617 42.0234C281.789 42.0234 281.977 42.0781 282.18 42.1875C282.383 42.2969 282.57 42.4375 282.742 42.6094C282.914 42.7656 283.055 42.9453 283.164 43.1484C283.273 43.3359 283.328 43.5234 283.328 43.7109ZM278.688 33.375C278.688 33.2188 278.68 33.0547 278.664 32.8828C278.648 32.7109 278.609 32.5625 278.547 32.4375C278.328 32.7031 278.133 33.0234 277.961 33.3984C277.805 33.7578 277.672 34.1406 277.562 34.5469C277.453 34.9375 277.359 35.3359 277.281 35.7422C277.219 36.1484 277.172 36.5234 277.141 36.8672C277.547 36.3828 277.906 35.8359 278.219 35.2266C278.531 34.6016 278.688 33.9844 278.688 33.375Z" fill="#1B73F0"/>
<path d="M273.625 42.1875C273.625 42.3438 273.578 42.5312 273.484 42.75C273.406 42.9531 273.297 43.1719 273.156 43.4062C273.031 43.625 272.891 43.8516 272.734 44.0859C272.578 44.3203 272.43 44.5312 272.289 44.7188L271.938 45.2109L271.586 45.8203L271.281 46.3828C271.297 46.6953 271.32 47.0312 271.352 47.3906C271.383 47.75 271.414 48.0938 271.445 48.4219C271.617 50.0312 271.766 51.6719 271.891 53.3438C272.031 55.0156 272.102 56.6562 272.102 58.2656C272.102 59.125 272.031 59.9922 271.891 60.8672C271.75 61.7578 271.484 62.5547 271.094 63.2578C270.719 63.9766 270.195 64.5625 269.523 65.0156C268.852 65.4688 267.992 65.6953 266.945 65.6953C266.227 65.6953 265.617 65.5625 265.117 65.2969C264.617 65.0312 264.211 64.6719 263.898 64.2188C263.602 63.7812 263.383 63.2656 263.242 62.6719C263.102 62.0781 263.031 61.4609 263.031 60.8203C263.031 59.5547 263.18 58.2734 263.477 56.9766C263.773 55.6797 264.156 54.3984 264.625 53.1328C265.109 51.8672 265.656 50.625 266.266 49.4062C266.875 48.2031 267.492 47.0469 268.117 45.9375C268.117 45.9062 268.117 45.875 268.117 45.8438C268.117 45.7969 268.109 45.7266 268.094 45.6328C267.891 46.0078 267.656 46.3984 267.391 46.8047C267.141 47.1953 266.852 47.5469 266.523 47.8594C266.211 48.1719 265.859 48.4297 265.469 48.6328C265.094 48.8359 264.672 48.9375 264.203 48.9375C263.547 48.9375 263 48.7812 262.562 48.4688C262.125 48.1562 261.773 47.7578 261.508 47.2734C261.258 46.7891 261.078 46.2578 260.969 45.6797C260.859 45.1016 260.805 44.5547 260.805 44.0391C260.805 43.4453 260.836 42.8594 260.898 42.2812C260.977 41.7031 261.062 41.1406 261.156 40.5938C261.312 39.7188 261.508 38.7734 261.742 37.7578C261.992 36.7266 262.297 35.7109 262.656 34.7109C263.016 33.6953 263.43 32.7422 263.898 31.8516C264.383 30.9609 264.945 30.2031 265.586 29.5781L265.773 29.4141C265.977 29.2109 266.211 29.0156 266.477 28.8281C266.742 28.625 267.016 28.5234 267.297 28.5234C267.469 28.5234 267.617 28.5703 267.742 28.6641C267.883 28.7578 268 28.8828 268.094 29.0391C268.188 29.1797 268.258 29.3359 268.305 29.5078C268.367 29.6797 268.398 29.8438 268.398 30C268.398 30.1875 268.328 30.3906 268.188 30.6094H268.234C269.188 30.6094 269.828 31.0469 270.156 31.9219C270.328 32.0781 270.453 32.2656 270.531 32.4844C270.625 32.7031 270.672 32.9375 270.672 33.1875C270.672 33.3125 270.664 33.4531 270.648 33.6094C270.633 33.75 270.609 33.8828 270.578 34.0078C270.547 34.1484 270.523 34.2812 270.508 34.4062C270.492 34.5312 270.484 34.6484 270.484 34.7578C270.484 35.1172 270.492 35.5625 270.508 36.0938C270.523 36.625 270.547 37.1797 270.578 37.7578C270.609 38.3359 270.641 38.9062 270.672 39.4688C270.719 40.0156 270.758 40.4922 270.789 40.8984C270.898 40.7578 271.023 40.6328 271.164 40.5234C271.32 40.4141 271.5 40.3594 271.703 40.3594C271.875 40.3594 272.07 40.4219 272.289 40.5469C272.523 40.6719 272.734 40.8281 272.922 41.0156C273.125 41.2031 273.289 41.4062 273.414 41.625C273.555 41.8281 273.625 42.0156 273.625 42.1875ZM267.18 32.5312C267.18 32.4375 267.18 32.3359 267.18 32.2266C267.195 32.1172 267.219 32 267.25 31.875L267.086 32.0859C266.961 32.2266 266.844 32.3594 266.734 32.4844C266.625 32.6094 266.523 32.7422 266.43 32.8828C266.023 33.4766 265.664 34.25 265.352 35.2031C265.055 36.1406 264.805 37.1328 264.602 38.1797C264.398 39.2109 264.242 40.2266 264.133 41.2266C264.039 42.2266 263.992 43.0859 263.992 43.8047C263.992 44.1641 264 44.5234 264.016 44.8828C264.031 45.2422 264.109 45.5938 264.25 45.9375C264.469 45.7031 264.648 45.4531 264.789 45.1875C264.93 44.9062 265.062 44.6172 265.188 44.3203C265.531 43.5547 265.828 42.6641 266.078 41.6484C266.328 40.6328 266.531 39.5859 266.688 38.5078C266.844 37.4297 266.961 36.375 267.039 35.3438C267.117 34.2969 267.164 33.3594 267.18 32.5312ZM268.961 57.5625C268.961 56.5 268.938 55.5 268.891 54.5625C268.844 53.6406 268.773 52.6484 268.68 51.5859C268.398 52.2578 268.109 52.9766 267.812 53.7422C267.531 54.5234 267.281 55.3047 267.062 56.0859C266.844 56.8828 266.664 57.6719 266.523 58.4531C266.383 59.2344 266.312 59.9766 266.312 60.6797V60.8438C266.312 61.2031 266.336 61.5859 266.383 61.9922C266.43 62.4141 266.578 62.7578 266.828 63.0234H267.086C267.398 63.0234 267.656 62.9141 267.859 62.6953C268.078 62.4922 268.258 62.2266 268.398 61.8984C268.539 61.5703 268.648 61.2031 268.727 60.7969C268.805 60.3906 268.859 59.9844 268.891 59.5781C268.922 59.1719 268.938 58.7891 268.938 58.4297C268.953 58.0703 268.961 57.7812 268.961 57.5625Z" fill="#1B73F0"/>
<path d="M245.266 48.375C245.031 48.375 244.773 48.3438 244.492 48.2812C244.227 48.2188 243.969 48.1172 243.719 47.9766C243.484 47.8359 243.281 47.6641 243.109 47.4609C242.953 47.2422 242.875 46.9844 242.875 46.6875C242.875 46.25 242.891 45.8203 242.922 45.3984C242.969 44.9609 243.016 44.5312 243.062 44.1094V44.1328L243.203 42.5625C243.25 42 243.289 41.3828 243.32 40.7109C243.352 40.0391 243.375 39.3594 243.391 38.6719C243.422 37.9688 243.445 37.2812 243.461 36.6094C243.477 35.9375 243.484 35.3203 243.484 34.7578C243.484 34.4297 243.477 34.1016 243.461 33.7734C243.461 33.4297 243.461 33.0859 243.461 32.7422C243.445 32.4453 243.438 32.1172 243.438 31.7578C243.438 31.3828 243.438 31.0391 243.438 30.7266C243.438 30.3984 243.477 30.1328 243.555 29.9297C243.648 29.7109 243.898 29.6016 244.305 29.6016C244.664 29.6016 245.039 29.6953 245.43 29.8828C245.836 30.0703 246.117 30.3359 246.273 30.6797H246.25C246.328 30.8516 246.383 31.1328 246.414 31.5234C246.461 31.8984 246.492 32.2344 246.508 32.5312C246.773 32.125 247.07 31.6953 247.398 31.2422C247.742 30.7891 248.109 30.375 248.5 30C248.891 29.6094 249.305 29.2891 249.742 29.0391C250.18 28.7891 250.648 28.6641 251.148 28.6641C251.805 28.6641 252.305 28.8281 252.648 29.1562C252.992 29.4844 253.242 29.8984 253.398 30.3984C253.555 30.8828 253.641 31.4062 253.656 31.9688C253.672 32.5156 253.68 33.0156 253.68 33.4688V33.6562C253.68 33.8438 253.672 34.0312 253.656 34.2188C253.656 34.3906 253.625 34.5547 253.562 34.7109C253.516 34.8516 253.422 34.9688 253.281 35.0625C253.156 35.1562 252.977 35.2031 252.742 35.2031C252.492 35.2031 252.227 35.1719 251.945 35.1094C251.664 35.0312 251.398 34.9219 251.148 34.7812C250.914 34.6406 250.711 34.4688 250.539 34.2656C250.367 34.0469 250.273 33.7969 250.258 33.5156C250.258 33.3906 250.258 33.2656 250.258 33.1406C250.258 33.0156 250.266 32.8906 250.281 32.7656C250.281 32.6875 250.281 32.5938 250.281 32.4844C250.297 32.3594 250.305 32.2422 250.305 32.1328C249.805 32.6328 249.359 33.25 248.969 33.9844C248.594 34.7188 248.25 35.5 247.938 36.3281C247.641 37.1562 247.383 37.9922 247.164 38.8359C246.945 39.6641 246.758 40.4141 246.602 41.0859V41.1562C246.555 41.6406 246.523 42.1172 246.508 42.5859C246.492 43.0547 246.477 43.5391 246.461 44.0391C246.445 44.6016 246.422 45.1719 246.391 45.75C246.375 46.3281 246.336 46.8906 246.273 47.4375C246.242 47.7344 246.148 47.9609 245.992 48.1172C245.852 48.2891 245.609 48.375 245.266 48.375Z" fill="#1B73F0"/>
<path d="M241.984 43.7109C241.984 44.1797 241.852 44.6641 241.586 45.1641C241.336 45.6641 241.008 46.125 240.602 46.5469C240.195 46.9531 239.727 47.2891 239.195 47.5547C238.68 47.8203 238.164 47.9531 237.648 47.9531C236.914 47.9531 236.281 47.8125 235.75 47.5312C235.219 47.2344 234.758 46.8438 234.367 46.3594C233.977 45.8594 233.656 45.2969 233.406 44.6719C233.172 44.0469 232.984 43.4062 232.844 42.75C232.703 42.0781 232.602 41.4141 232.539 40.7578C232.492 40.0859 232.469 39.4766 232.469 38.9297C232.469 38.4609 232.492 37.9062 232.539 37.2656C232.602 36.625 232.695 35.9609 232.82 35.2734C232.961 34.5859 233.148 33.9062 233.383 33.2344C233.617 32.5625 233.906 31.9609 234.25 31.4297C234.609 30.8984 235.031 30.4688 235.516 30.1406C236.016 29.8125 236.586 29.6484 237.227 29.6484C237.727 29.6484 238.172 29.75 238.562 29.9531C238.969 30.1562 239.305 30.4297 239.57 30.7734C239.852 31.1016 240.062 31.4844 240.203 31.9219C240.359 32.3594 240.438 32.8125 240.438 33.2812C240.438 33.8906 240.297 34.5547 240.016 35.2734C239.734 35.9922 239.367 36.6875 238.914 37.3594C238.477 38.0312 237.977 38.6406 237.414 39.1875C236.867 39.7188 236.32 40.125 235.773 40.4062C235.805 40.6875 235.867 41.1016 235.961 41.6484C236.055 42.1797 236.18 42.7109 236.336 43.2422C236.508 43.7734 236.703 44.2344 236.922 44.625C237.156 45.0156 237.43 45.2109 237.742 45.2109C237.898 45.2109 238.031 45.1641 238.141 45.0703C238.266 44.9766 238.375 44.8516 238.469 44.6953C238.562 44.5391 238.641 44.3672 238.703 44.1797C238.781 43.9922 238.852 43.8125 238.914 43.6406L239.055 43.3125C239.086 43.2656 239.102 43.2344 239.102 43.2188C239.117 43.2031 239.133 43.1797 239.148 43.1484C239.258 42.9453 239.359 42.7578 239.453 42.5859C239.562 42.4141 239.711 42.2656 239.898 42.1406H239.875C239.938 42.0781 240 42.0469 240.062 42.0469C240.141 42.0312 240.211 42.0234 240.273 42.0234C240.445 42.0234 240.633 42.0781 240.836 42.1875C241.039 42.2969 241.227 42.4375 241.398 42.6094C241.57 42.7656 241.711 42.9453 241.82 43.1484C241.93 43.3359 241.984 43.5234 241.984 43.7109ZM237.344 33.375C237.344 33.2188 237.336 33.0547 237.32 32.8828C237.305 32.7109 237.266 32.5625 237.203 32.4375C236.984 32.7031 236.789 33.0234 236.617 33.3984C236.461 33.7578 236.328 34.1406 236.219 34.5469C236.109 34.9375 236.016 35.3359 235.938 35.7422C235.875 36.1484 235.828 36.5234 235.797 36.8672C236.203 36.3828 236.562 35.8359 236.875 35.2266C237.188 34.6016 237.344 33.9844 237.344 33.375Z" fill="#1B73F0"/>
<path d="M231.109 31.0078C231.109 33.1641 230.938 35.2891 230.594 37.3828C230.266 39.4766 229.867 41.5625 229.398 43.6406C229.336 43.8438 229.297 44.0156 229.281 44.1562C229.188 44.6094 229.086 45.0781 228.977 45.5625C228.883 46.0312 228.727 46.5 228.508 46.9688C228.305 47.3594 228.023 47.7031 227.664 48C227.32 48.2812 226.938 48.4219 226.516 48.4219C226.344 48.4219 226.164 48.3828 225.977 48.3047C225.789 48.2266 225.586 48.125 225.367 48C225.055 47.7812 224.82 47.4844 224.664 47.1094C224.508 46.7188 224.375 46.3203 224.266 45.9141L224.219 45.75V45.7734C223.953 44.7578 223.727 43.7422 223.539 42.7266C223.367 41.7109 223.195 40.6875 223.023 39.6562C222.93 39.0156 222.836 38.3828 222.742 37.7578C222.648 37.1172 222.539 36.4844 222.414 35.8594L222.086 34.4766C222.008 34.1641 221.922 33.8281 221.828 33.4688C221.75 33.0938 221.672 32.7422 221.594 32.4141C221.516 32.0859 221.453 31.7969 221.406 31.5469C221.359 31.2812 221.336 31.1016 221.336 31.0078C221.336 30.7109 221.43 30.5156 221.617 30.4219C221.82 30.3125 222.047 30.2578 222.297 30.2578C222.797 30.2578 223.234 30.3672 223.609 30.5859C224 30.8047 224.281 31.1641 224.453 31.6641C224.547 31.9297 224.625 32.2109 224.688 32.5078C224.766 32.8047 224.828 33.1016 224.875 33.3984C225.141 34.4297 225.391 35.5234 225.625 36.6797C225.875 37.8203 226.086 38.9219 226.258 39.9844L226.469 41.1797C226.484 41.2578 226.492 41.3203 226.492 41.3672C226.492 41.4141 226.492 41.4531 226.492 41.4844C226.508 41.5156 226.516 41.5547 226.516 41.6016C226.531 41.6484 226.547 41.7188 226.562 41.8125C226.906 40.1562 227.195 38.5 227.43 36.8438C227.664 35.1719 227.781 33.4922 227.781 31.8047C227.781 31.4609 227.758 31.125 227.711 30.7969C227.68 30.4688 227.641 30.125 227.594 29.7656C227.547 29.4375 227.5 29.1016 227.453 28.7578C227.422 28.3984 227.406 28.0391 227.406 27.6797C227.406 27.3516 227.508 27.125 227.711 27C227.914 26.875 228.164 26.8125 228.461 26.8125C228.82 26.8125 229.148 26.8359 229.445 26.8828C229.742 26.9297 230 27.0234 230.219 27.1641C230.438 27.2891 230.617 27.4766 230.758 27.7266C230.898 27.9609 230.992 28.2734 231.039 28.6641C231.07 29.0234 231.086 29.4141 231.086 29.8359C231.102 30.2422 231.109 30.6328 231.109 31.0078Z" fill="#1B73F0"/>
<path d="M221.359 43.7109C221.359 44.1797 221.227 44.6641 220.961 45.1641C220.711 45.6641 220.383 46.125 219.977 46.5469C219.57 46.9531 219.102 47.2891 218.57 47.5547C218.055 47.8203 217.539 47.9531 217.023 47.9531C216.289 47.9531 215.656 47.8125 215.125 47.5312C214.594 47.2344 214.133 46.8438 213.742 46.3594C213.352 45.8594 213.031 45.2969 212.781 44.6719C212.547 44.0469 212.359 43.4062 212.219 42.75C212.078 42.0781 211.977 41.4141 211.914 40.7578C211.867 40.0859 211.844 39.4766 211.844 38.9297C211.844 38.4609 211.867 37.9062 211.914 37.2656C211.977 36.625 212.07 35.9609 212.195 35.2734C212.336 34.5859 212.523 33.9062 212.758 33.2344C212.992 32.5625 213.281 31.9609 213.625 31.4297C213.984 30.8984 214.406 30.4688 214.891 30.1406C215.391 29.8125 215.961 29.6484 216.602 29.6484C217.102 29.6484 217.547 29.75 217.938 29.9531C218.344 30.1562 218.68 30.4297 218.945 30.7734C219.227 31.1016 219.438 31.4844 219.578 31.9219C219.734 32.3594 219.812 32.8125 219.812 33.2812C219.812 33.8906 219.672 34.5547 219.391 35.2734C219.109 35.9922 218.742 36.6875 218.289 37.3594C217.852 38.0312 217.352 38.6406 216.789 39.1875C216.242 39.7188 215.695 40.125 215.148 40.4062C215.18 40.6875 215.242 41.1016 215.336 41.6484C215.43 42.1797 215.555 42.7109 215.711 43.2422C215.883 43.7734 216.078 44.2344 216.297 44.625C216.531 45.0156 216.805 45.2109 217.117 45.2109C217.273 45.2109 217.406 45.1641 217.516 45.0703C217.641 44.9766 217.75 44.8516 217.844 44.6953C217.938 44.5391 218.016 44.3672 218.078 44.1797C218.156 43.9922 218.227 43.8125 218.289 43.6406L218.43 43.3125C218.461 43.2656 218.477 43.2344 218.477 43.2188C218.492 43.2031 218.508 43.1797 218.523 43.1484C218.633 42.9453 218.734 42.7578 218.828 42.5859C218.938 42.4141 219.086 42.2656 219.273 42.1406H219.25C219.312 42.0781 219.375 42.0469 219.438 42.0469C219.516 42.0312 219.586 42.0234 219.648 42.0234C219.82 42.0234 220.008 42.0781 220.211 42.1875C220.414 42.2969 220.602 42.4375 220.773 42.6094C220.945 42.7656 221.086 42.9453 221.195 43.1484C221.305 43.3359 221.359 43.5234 221.359 43.7109ZM216.719 33.375C216.719 33.2188 216.711 33.0547 216.695 32.8828C216.68 32.7109 216.641 32.5625 216.578 32.4375C216.359 32.7031 216.164 33.0234 215.992 33.3984C215.836 33.7578 215.703 34.1406 215.594 34.5469C215.484 34.9375 215.391 35.3359 215.312 35.7422C215.25 36.1484 215.203 36.5234 215.172 36.8672C215.578 36.3828 215.938 35.8359 216.25 35.2266C216.562 34.6016 216.719 33.9844 216.719 33.375Z" fill="#1B73F0"/>
<path d="M203.359 47.8828C203.359 48.2422 203.25 48.4766 203.031 48.5859C202.828 48.6953 202.578 48.75 202.281 48.75C202.016 48.75 201.75 48.7266 201.484 48.6797C201.234 48.6484 200.992 48.5781 200.758 48.4688C200.539 48.3594 200.344 48.2109 200.172 48.0234C200.016 47.8359 199.906 47.5938 199.844 47.2969C199.625 46.3594 199.5 45.4453 199.469 44.5547C199.438 43.6484 199.422 42.7188 199.422 41.7656V38.8828C199.422 37.5703 199.477 36.2109 199.586 34.8047C199.695 33.3828 199.812 32.0156 199.938 30.7031C199.938 30.6562 199.945 30.6016 199.961 30.5391C199.977 30.4766 199.984 30.4297 199.984 30.3984C200 30.2266 200.023 30.0391 200.055 29.8359C200.086 29.6328 200.133 29.4531 200.195 29.2969C200.273 29.125 200.375 28.9844 200.5 28.875C200.641 28.7656 200.82 28.7109 201.039 28.7109C201.289 28.7109 201.523 28.7656 201.742 28.875C201.977 28.9688 202.18 29.1016 202.352 29.2734C202.523 29.4297 202.656 29.625 202.75 29.8594C202.859 30.0938 202.914 30.3359 202.914 30.5859C202.914 30.8516 202.906 31.1484 202.891 31.4766C202.875 31.7891 202.852 32.0859 202.82 32.3672C202.82 32.4453 202.812 32.5312 202.797 32.625C202.797 32.7188 202.789 32.8047 202.773 32.8828C202.992 32.4453 203.242 31.9922 203.523 31.5234C203.805 31.0391 204.125 30.6016 204.484 30.2109C204.859 29.8047 205.266 29.4766 205.703 29.2266C206.156 28.9766 206.656 28.8516 207.203 28.8516C207.656 28.8516 208.031 28.9219 208.328 29.0625C208.625 29.2031 208.859 29.4062 209.031 29.6719C209.219 29.9219 209.344 30.2188 209.406 30.5625C209.484 30.9062 209.523 31.2734 209.523 31.6641C209.523 32.1953 209.508 32.7344 209.477 33.2812C209.445 33.8125 209.414 34.3438 209.383 34.875C209.336 35.4219 209.297 35.9609 209.266 36.4922C209.234 37.0234 209.219 37.5625 209.219 38.1094C209.219 38.7656 209.234 39.4453 209.266 40.1484C209.297 40.8359 209.344 41.5 209.406 42.1406C209.469 42.7656 209.539 43.3359 209.617 43.8516C209.695 44.3516 209.773 44.7422 209.852 45.0234C209.914 45.2578 209.977 45.5312 210.039 45.8438C210.117 46.1406 210.188 46.4531 210.25 46.7812C210.328 47.0938 210.391 47.3984 210.438 47.6953C210.484 47.9922 210.508 48.2578 210.508 48.4922C210.508 48.8359 210.367 49.0547 210.086 49.1484C209.82 49.2422 209.555 49.2891 209.289 49.2891C209.023 49.2891 208.719 49.2656 208.375 49.2188C208.047 49.1875 207.75 49.1016 207.484 48.9609C207.156 48.7266 206.938 48.3984 206.828 47.9766C206.734 47.5547 206.672 47.1406 206.641 46.7344L206.57 46.1016C206.523 45.7266 206.461 45.2344 206.383 44.625C206.305 44.0156 206.227 43.3438 206.148 42.6094C206.086 41.875 206.031 41.1172 205.984 40.3359C205.938 39.5391 205.914 38.7656 205.914 38.0156C205.914 37.3438 205.938 36.6953 205.984 36.0703C206.047 35.4453 206.109 34.8125 206.172 34.1719C206.203 33.8438 206.227 33.5781 206.242 33.375C206.258 33.1719 206.281 32.9062 206.312 32.5781C206 33.0781 205.688 33.6641 205.375 34.3359C205.062 35.0078 204.766 35.7109 204.484 36.4453C204.203 37.1641 203.945 37.8672 203.711 38.5547C203.492 39.2422 203.32 39.8438 203.195 40.3594L203.055 40.875C202.977 41.125 202.906 41.375 202.844 41.625C202.797 41.875 202.773 42.1094 202.773 42.3281C202.773 42.6094 202.789 42.9375 202.82 43.3125C202.852 43.6719 202.891 44.0156 202.938 44.3438C202.984 44.7344 203.039 45.1328 203.102 45.5391C203.102 45.5703 203.117 45.6719 203.148 45.8438C203.18 46.0156 203.211 46.2188 203.242 46.4531C203.273 46.6875 203.297 46.9375 203.312 47.2031C203.344 47.4531 203.359 47.6797 203.359 47.8828Z" fill="#1B73F0"/>
<path d="M190.352 30.8203C190.352 31.0078 190.281 31.1641 190.141 31.2891C190.016 31.4141 189.859 31.5234 189.672 31.6172C189.484 31.6953 189.289 31.75 189.086 31.7812C188.898 31.8125 188.742 31.8281 188.617 31.8281C188.43 31.8281 188.25 31.8125 188.078 31.7812C187.906 31.7344 187.734 31.6875 187.562 31.6406C187.391 31.5938 187.227 31.5547 187.07 31.5234C186.914 31.4766 186.75 31.4531 186.578 31.4531C186.344 31.4531 186.109 31.4922 185.875 31.5703C185.641 31.6484 185.43 31.7578 185.242 31.8984C185.055 32.0391 184.898 32.2109 184.773 32.4141C184.664 32.6172 184.609 32.8438 184.609 33.0938C184.609 33.4688 184.688 33.8438 184.844 34.2188C185 34.5781 185.203 34.9453 185.453 35.3203C185.719 35.6953 186.016 36.0781 186.344 36.4688C186.688 36.8438 187.047 37.2266 187.422 37.6172C187.875 38.1172 188.328 38.625 188.781 39.1406C189.25 39.6562 189.664 40.1953 190.023 40.7578C190.398 41.3203 190.703 41.9141 190.938 42.5391C191.172 43.1641 191.289 43.8203 191.289 44.5078C191.289 45.1016 191.188 45.6328 190.984 46.1016C190.797 46.5703 190.523 46.9688 190.164 47.2969C189.82 47.625 189.398 47.875 188.898 48.0469C188.414 48.2344 187.883 48.3281 187.305 48.3281C187.148 48.3281 186.906 48.2969 186.578 48.2344C186.266 48.1719 185.906 48.0859 185.5 47.9766C185.094 47.8516 184.672 47.7188 184.234 47.5781C183.812 47.4375 183.422 47.2891 183.062 47.1328C182.719 46.9609 182.43 46.7969 182.195 46.6406C181.977 46.4688 181.867 46.3125 181.867 46.1719C181.867 45.9844 181.953 45.7969 182.125 45.6094C182.297 45.4062 182.5 45.2266 182.734 45.0703C182.969 44.8984 183.211 44.7578 183.461 44.6484C183.727 44.5391 183.945 44.4844 184.117 44.4844C184.352 44.4844 184.594 44.5391 184.844 44.6484C185.109 44.7578 185.375 44.8828 185.641 45.0234C185.938 45.1797 186.234 45.3203 186.531 45.4453C186.844 45.5703 187.164 45.6328 187.492 45.6328C187.742 45.6328 187.883 45.5469 187.914 45.375C187.961 45.2031 187.984 45.0078 187.984 44.7891C187.984 44.2422 187.891 43.7266 187.703 43.2422C187.516 42.7422 187.273 42.2578 186.977 41.7891C186.68 41.3203 186.336 40.8672 185.945 40.4297C185.555 39.9766 185.164 39.5312 184.773 39.0938C184.367 38.6562 183.969 38.2188 183.578 37.7812C183.203 37.3438 182.867 36.8984 182.57 36.4453C182.273 35.9766 182.031 35.5 181.844 35.0156C181.672 34.5312 181.586 34.0156 181.586 33.4688C181.586 32.7969 181.734 32.1953 182.031 31.6641C182.328 31.1172 182.711 30.6484 183.18 30.2578C183.664 29.8672 184.203 29.5703 184.797 29.3672C185.406 29.1484 186.016 29.0391 186.625 29.0391C186.828 29.0391 187.141 29.0859 187.562 29.1797C187.984 29.2578 188.398 29.375 188.805 29.5312C189.211 29.6875 189.57 29.875 189.883 30.0938C190.195 30.3125 190.352 30.5547 190.352 30.8203Z" fill="#1B73F0"/>
<path d="M181.328 43.7109C181.328 44.1797 181.195 44.6641 180.93 45.1641C180.68 45.6641 180.352 46.125 179.945 46.5469C179.539 46.9531 179.07 47.2891 178.539 47.5547C178.023 47.8203 177.508 47.9531 176.992 47.9531C176.258 47.9531 175.625 47.8125 175.094 47.5312C174.562 47.2344 174.102 46.8438 173.711 46.3594C173.32 45.8594 173 45.2969 172.75 44.6719C172.516 44.0469 172.328 43.4062 172.188 42.75C172.047 42.0781 171.945 41.4141 171.883 40.7578C171.836 40.0859 171.812 39.4766 171.812 38.9297C171.812 38.4609 171.836 37.9062 171.883 37.2656C171.945 36.625 172.039 35.9609 172.164 35.2734C172.305 34.5859 172.492 33.9062 172.727 33.2344C172.961 32.5625 173.25 31.9609 173.594 31.4297C173.953 30.8984 174.375 30.4688 174.859 30.1406C175.359 29.8125 175.93 29.6484 176.57 29.6484C177.07 29.6484 177.516 29.75 177.906 29.9531C178.312 30.1562 178.648 30.4297 178.914 30.7734C179.195 31.1016 179.406 31.4844 179.547 31.9219C179.703 32.3594 179.781 32.8125 179.781 33.2812C179.781 33.8906 179.641 34.5547 179.359 35.2734C179.078 35.9922 178.711 36.6875 178.258 37.3594C177.82 38.0312 177.32 38.6406 176.758 39.1875C176.211 39.7188 175.664 40.125 175.117 40.4062C175.148 40.6875 175.211 41.1016 175.305 41.6484C175.398 42.1797 175.523 42.7109 175.68 43.2422C175.852 43.7734 176.047 44.2344 176.266 44.625C176.5 45.0156 176.773 45.2109 177.086 45.2109C177.242 45.2109 177.375 45.1641 177.484 45.0703C177.609 44.9766 177.719 44.8516 177.812 44.6953C177.906 44.5391 177.984 44.3672 178.047 44.1797C178.125 43.9922 178.195 43.8125 178.258 43.6406L178.398 43.3125C178.43 43.2656 178.445 43.2344 178.445 43.2188C178.461 43.2031 178.477 43.1797 178.492 43.1484C178.602 42.9453 178.703 42.7578 178.797 42.5859C178.906 42.4141 179.055 42.2656 179.242 42.1406H179.219C179.281 42.0781 179.344 42.0469 179.406 42.0469C179.484 42.0312 179.555 42.0234 179.617 42.0234C179.789 42.0234 179.977 42.0781 180.18 42.1875C180.383 42.2969 180.57 42.4375 180.742 42.6094C180.914 42.7656 181.055 42.9453 181.164 43.1484C181.273 43.3359 181.328 43.5234 181.328 43.7109ZM176.688 33.375C176.688 33.2188 176.68 33.0547 176.664 32.8828C176.648 32.7109 176.609 32.5625 176.547 32.4375C176.328 32.7031 176.133 33.0234 175.961 33.3984C175.805 33.7578 175.672 34.1406 175.562 34.5469C175.453 34.9375 175.359 35.3359 175.281 35.7422C175.219 36.1484 175.172 36.5234 175.141 36.8672C175.547 36.3828 175.906 35.8359 176.219 35.2266C176.531 34.6016 176.688 33.9844 176.688 33.375Z" fill="#1B73F0"/>
<path d="M168.625 47.4141C168.625 47.5859 168.586 47.7344 168.508 47.8594C168.43 47.9688 168.328 48.0547 168.203 48.1172C168.094 48.1797 167.969 48.2188 167.828 48.2344C167.703 48.2656 167.578 48.2812 167.453 48.2812C167.281 48.2812 167.078 48.2578 166.844 48.2109C166.625 48.1797 166.406 48.125 166.188 48.0469C165.969 47.9688 165.766 47.875 165.578 47.7656C165.406 47.6406 165.273 47.4922 165.18 47.3203C165.086 47.1641 165 46.875 164.922 46.4531C164.859 46.0156 164.805 45.5156 164.758 44.9531C164.711 44.375 164.672 43.7656 164.641 43.125C164.609 42.4688 164.578 41.8438 164.547 41.25C164.531 40.6562 164.516 40.125 164.5 39.6562C164.5 39.1719 164.5 38.8125 164.5 38.5781C164.5 37.4844 164.516 36.4297 164.547 35.4141C164.594 34.3828 164.641 33.3281 164.688 32.25C164.609 32.25 164.531 32.2578 164.453 32.2734C164.375 32.2891 164.297 32.2969 164.219 32.2969C164.016 32.3281 163.805 32.3516 163.586 32.3672C163.383 32.3828 163.172 32.3906 162.953 32.3906C162.688 32.3906 162.453 32.3438 162.25 32.25C162.047 32.1562 161.945 31.9453 161.945 31.6172C161.945 31.2266 162.031 30.9141 162.203 30.6797C162.375 30.4453 162.594 30.2656 162.859 30.1406C163.125 30 163.414 29.9062 163.727 29.8594C164.039 29.7969 164.344 29.75 164.641 29.7188C164.688 29.7188 164.719 29.7188 164.734 29.7188C164.75 29.7031 164.781 29.6953 164.828 29.6953C164.844 29.5078 164.859 29.2812 164.875 29.0156C164.891 28.7344 164.906 28.4297 164.922 28.1016C164.938 27.5859 164.961 27.0391 164.992 26.4609C165.023 25.8672 165.055 25.3047 165.086 24.7734C165.117 24.2266 165.156 23.75 165.203 23.3438C165.25 22.9219 165.297 22.625 165.344 22.4531C165.422 22.25 165.508 22.0859 165.602 21.9609C165.711 21.8359 165.906 21.7734 166.188 21.7734C166.812 21.7734 167.297 21.9766 167.641 22.3828C167.984 22.7891 168.156 23.2891 168.156 23.8828C168.156 24.5703 168.133 25.2578 168.086 25.9453C168.055 26.6328 168.023 27.3281 167.992 28.0312L167.922 29.2266C168.312 29.1797 168.703 29.1094 169.094 29.0156C169.469 28.9375 169.844 28.8672 170.219 28.8047C170.609 28.7422 170.984 28.7109 171.344 28.7109C171.656 28.7109 171.898 28.7969 172.07 28.9688C172.242 29.125 172.328 29.3594 172.328 29.6719C172.328 30.0156 172.266 30.3516 172.141 30.6797C172.016 31.0078 171.797 31.2578 171.484 31.4297H171.508C171.445 31.4609 171.258 31.5078 170.945 31.5703C170.633 31.6172 170.273 31.6641 169.867 31.7109C169.477 31.7578 169.086 31.8047 168.695 31.8516C168.32 31.8984 168.039 31.9297 167.852 31.9453H167.828C167.797 32.8203 167.773 33.6875 167.758 34.5469C167.742 35.3906 167.734 36.25 167.734 37.125C167.734 38.3281 167.766 39.6094 167.828 40.9688C167.906 42.3125 168.031 43.5938 168.203 44.8125L168.391 45.8672C168.453 46.1328 168.508 46.3984 168.555 46.6641C168.602 46.9141 168.625 47.1641 168.625 47.4141Z" fill="#1B73F0"/>
<path d="M160.703 28.2891C160.703 28.5547 160.641 28.75 160.516 28.875C160.406 28.9844 160.195 29.0391 159.883 29.0391C159.742 29.0391 159.523 29.0234 159.227 28.9922C158.93 28.9453 158.625 28.8828 158.312 28.8047C158.016 28.7266 157.75 28.6172 157.516 28.4766C157.297 28.3359 157.188 28.1641 157.188 27.9609C157.188 27.8984 157.211 27.7266 157.258 27.4453C157.305 27.1484 157.359 26.8359 157.422 26.5078C157.5 26.1797 157.562 25.8828 157.609 25.6172C157.672 25.3516 157.719 25.2031 157.75 25.1719V25.1953C157.828 25.0703 157.922 24.9922 158.031 24.9609C158.141 24.9297 158.25 24.9141 158.359 24.9141C158.5 24.9141 158.68 24.9375 158.898 24.9844C159.133 25.0156 159.359 25.0703 159.578 25.1484C159.812 25.2109 160.023 25.2969 160.211 25.4062C160.398 25.5156 160.516 25.6328 160.562 25.7578C160.609 25.8828 160.633 26.0547 160.633 26.2734C160.648 26.4766 160.648 26.6641 160.633 26.8359C160.633 26.8984 160.625 26.9766 160.609 27.0703C160.609 27.1484 160.609 27.2109 160.609 27.2578C160.609 27.3359 160.609 27.4141 160.609 27.4922C160.625 27.5703 160.641 27.6484 160.656 27.7266C160.672 27.8047 160.68 27.8906 160.68 27.9844C160.695 28.0781 160.703 28.1797 160.703 28.2891ZM161.57 46.9688C161.57 47.3281 161.484 47.5859 161.312 47.7422C161.156 47.8828 160.898 47.9531 160.539 47.9531C160.352 47.9531 160.141 47.9297 159.906 47.8828C159.688 47.8359 159.469 47.7734 159.25 47.6953C159.031 47.6016 158.828 47.4922 158.641 47.3672C158.453 47.2422 158.312 47.1016 158.219 46.9453C158.156 46.8516 158.102 46.5625 158.055 46.0781C158.008 45.5938 157.969 44.9922 157.938 44.2734C157.922 43.5547 157.898 42.75 157.867 41.8594C157.852 40.9688 157.836 40.0703 157.82 39.1641C157.82 38.2578 157.82 37.375 157.82 36.5156C157.82 35.6562 157.82 34.9062 157.82 34.2656V32.4609C157.82 32.3047 157.82 32.1484 157.82 31.9922C157.836 31.8359 157.867 31.7031 157.914 31.5938C157.977 31.4688 158.062 31.3672 158.172 31.2891C158.297 31.2109 158.469 31.1719 158.688 31.1719C159.375 31.1719 159.875 31.3672 160.188 31.7578C160.516 32.1328 160.719 32.6406 160.797 33.2812C160.875 34.2344 160.93 35.1875 160.961 36.1406C161.008 37.0781 161.047 38.0312 161.078 39C161.109 39.875 161.133 40.7422 161.148 41.6016C161.18 42.4453 161.234 43.2891 161.312 44.1328C161.328 44.3047 161.344 44.4688 161.359 44.625C161.375 44.7812 161.398 44.9375 161.43 45.0938C161.461 45.4062 161.492 45.7188 161.523 46.0312C161.555 46.3281 161.57 46.6406 161.57 46.9688Z" fill="#1B73F0"/>
<path d="M155.617 30.8203C155.617 31.0078 155.547 31.1641 155.406 31.2891C155.281 31.4141 155.125 31.5234 154.938 31.6172C154.75 31.6953 154.555 31.75 154.352 31.7812C154.164 31.8125 154.008 31.8281 153.883 31.8281C153.695 31.8281 153.516 31.8125 153.344 31.7812C153.172 31.7344 153 31.6875 152.828 31.6406C152.656 31.5938 152.492 31.5547 152.336 31.5234C152.18 31.4766 152.016 31.4531 151.844 31.4531C151.609 31.4531 151.375 31.4922 151.141 31.5703C150.906 31.6484 150.695 31.7578 150.508 31.8984C150.32 32.0391 150.164 32.2109 150.039 32.4141C149.93 32.6172 149.875 32.8438 149.875 33.0938C149.875 33.4688 149.953 33.8438 150.109 34.2188C150.266 34.5781 150.469 34.9453 150.719 35.3203C150.984 35.6953 151.281 36.0781 151.609 36.4688C151.953 36.8438 152.312 37.2266 152.688 37.6172C153.141 38.1172 153.594 38.625 154.047 39.1406C154.516 39.6562 154.93 40.1953 155.289 40.7578C155.664 41.3203 155.969 41.9141 156.203 42.5391C156.438 43.1641 156.555 43.8203 156.555 44.5078C156.555 45.1016 156.453 45.6328 156.25 46.1016C156.062 46.5703 155.789 46.9688 155.43 47.2969C155.086 47.625 154.664 47.875 154.164 48.0469C153.68 48.2344 153.148 48.3281 152.57 48.3281C152.414 48.3281 152.172 48.2969 151.844 48.2344C151.531 48.1719 151.172 48.0859 150.766 47.9766C150.359 47.8516 149.938 47.7188 149.5 47.5781C149.078 47.4375 148.688 47.2891 148.328 47.1328C147.984 46.9609 147.695 46.7969 147.461 46.6406C147.242 46.4688 147.133 46.3125 147.133 46.1719C147.133 45.9844 147.219 45.7969 147.391 45.6094C147.562 45.4062 147.766 45.2266 148 45.0703C148.234 44.8984 148.477 44.7578 148.727 44.6484C148.992 44.5391 149.211 44.4844 149.383 44.4844C149.617 44.4844 149.859 44.5391 150.109 44.6484C150.375 44.7578 150.641 44.8828 150.906 45.0234C151.203 45.1797 151.5 45.3203 151.797 45.4453C152.109 45.5703 152.43 45.6328 152.758 45.6328C153.008 45.6328 153.148 45.5469 153.18 45.375C153.227 45.2031 153.25 45.0078 153.25 44.7891C153.25 44.2422 153.156 43.7266 152.969 43.2422C152.781 42.7422 152.539 42.2578 152.242 41.7891C151.945 41.3203 151.602 40.8672 151.211 40.4297C150.82 39.9766 150.43 39.5312 150.039 39.0938C149.633 38.6562 149.234 38.2188 148.844 37.7812C148.469 37.3438 148.133 36.8984 147.836 36.4453C147.539 35.9766 147.297 35.5 147.109 35.0156C146.938 34.5312 146.852 34.0156 146.852 33.4688C146.852 32.7969 147 32.1953 147.297 31.6641C147.594 31.1172 147.977 30.6484 148.445 30.2578C148.93 29.8672 149.469 29.5703 150.062 29.3672C150.672 29.1484 151.281 29.0391 151.891 29.0391C152.094 29.0391 152.406 29.0859 152.828 29.1797C153.25 29.2578 153.664 29.375 154.07 29.5312C154.477 29.6875 154.836 29.875 155.148 30.0938C155.461 30.3125 155.617 30.5547 155.617 30.8203Z" fill="#1B73F0"/>
<path d="M139.562 43.7109C139.562 44.1797 139.43 44.6641 139.164 45.1641C138.914 45.6641 138.586 46.125 138.18 46.5469C137.773 46.9531 137.305 47.2891 136.773 47.5547C136.258 47.8203 135.742 47.9531 135.227 47.9531C134.492 47.9531 133.859 47.8125 133.328 47.5312C132.797 47.2344 132.336 46.8438 131.945 46.3594C131.555 45.8594 131.234 45.2969 130.984 44.6719C130.75 44.0469 130.562 43.4062 130.422 42.75C130.281 42.0781 130.18 41.4141 130.117 40.7578C130.07 40.0859 130.047 39.4766 130.047 38.9297C130.047 38.4609 130.07 37.9062 130.117 37.2656C130.18 36.625 130.273 35.9609 130.398 35.2734C130.539 34.5859 130.727 33.9062 130.961 33.2344C131.195 32.5625 131.484 31.9609 131.828 31.4297C132.188 30.8984 132.609 30.4688 133.094 30.1406C133.594 29.8125 134.164 29.6484 134.805 29.6484C135.305 29.6484 135.75 29.75 136.141 29.9531C136.547 30.1562 136.883 30.4297 137.148 30.7734C137.43 31.1016 137.641 31.4844 137.781 31.9219C137.938 32.3594 138.016 32.8125 138.016 33.2812C138.016 33.8906 137.875 34.5547 137.594 35.2734C137.312 35.9922 136.945 36.6875 136.492 37.3594C136.055 38.0312 135.555 38.6406 134.992 39.1875C134.445 39.7188 133.898 40.125 133.352 40.4062C133.383 40.6875 133.445 41.1016 133.539 41.6484C133.633 42.1797 133.758 42.7109 133.914 43.2422C134.086 43.7734 134.281 44.2344 134.5 44.625C134.734 45.0156 135.008 45.2109 135.32 45.2109C135.477 45.2109 135.609 45.1641 135.719 45.0703C135.844 44.9766 135.953 44.8516 136.047 44.6953C136.141 44.5391 136.219 44.3672 136.281 44.1797C136.359 43.9922 136.43 43.8125 136.492 43.6406L136.633 43.3125C136.664 43.2656 136.68 43.2344 136.68 43.2188C136.695 43.2031 136.711 43.1797 136.727 43.1484C136.836 42.9453 136.938 42.7578 137.031 42.5859C137.141 42.4141 137.289 42.2656 137.477 42.1406H137.453C137.516 42.0781 137.578 42.0469 137.641 42.0469C137.719 42.0312 137.789 42.0234 137.852 42.0234C138.023 42.0234 138.211 42.0781 138.414 42.1875C138.617 42.2969 138.805 42.4375 138.977 42.6094C139.148 42.7656 139.289 42.9453 139.398 43.1484C139.508 43.3359 139.562 43.5234 139.562 43.7109ZM134.922 33.375C134.922 33.2188 134.914 33.0547 134.898 32.8828C134.883 32.7109 134.844 32.5625 134.781 32.4375C134.562 32.7031 134.367 33.0234 134.195 33.3984C134.039 33.7578 133.906 34.1406 133.797 34.5469C133.688 34.9375 133.594 35.3359 133.516 35.7422C133.453 36.1484 133.406 36.5234 133.375 36.8672C133.781 36.3828 134.141 35.8359 134.453 35.2266C134.766 34.6016 134.922 33.9844 134.922 33.375Z" fill="#1B73F0"/>
<path d="M128.383 30.8203C128.383 31.0078 128.312 31.1641 128.172 31.2891C128.047 31.4141 127.891 31.5234 127.703 31.6172C127.516 31.6953 127.32 31.75 127.117 31.7812C126.93 31.8125 126.773 31.8281 126.648 31.8281C126.461 31.8281 126.281 31.8125 126.109 31.7812C125.938 31.7344 125.766 31.6875 125.594 31.6406C125.422 31.5938 125.258 31.5547 125.102 31.5234C124.945 31.4766 124.781 31.4531 124.609 31.4531C124.375 31.4531 124.141 31.4922 123.906 31.5703C123.672 31.6484 123.461 31.7578 123.273 31.8984C123.086 32.0391 122.93 32.2109 122.805 32.4141C122.695 32.6172 122.641 32.8438 122.641 33.0938C122.641 33.4688 122.719 33.8438 122.875 34.2188C123.031 34.5781 123.234 34.9453 123.484 35.3203C123.75 35.6953 124.047 36.0781 124.375 36.4688C124.719 36.8438 125.078 37.2266 125.453 37.6172C125.906 38.1172 126.359 38.625 126.812 39.1406C127.281 39.6562 127.695 40.1953 128.055 40.7578C128.43 41.3203 128.734 41.9141 128.969 42.5391C129.203 43.1641 129.32 43.8203 129.32 44.5078C129.32 45.1016 129.219 45.6328 129.016 46.1016C128.828 46.5703 128.555 46.9688 128.195 47.2969C127.852 47.625 127.43 47.875 126.93 48.0469C126.445 48.2344 125.914 48.3281 125.336 48.3281C125.18 48.3281 124.938 48.2969 124.609 48.2344C124.297 48.1719 123.938 48.0859 123.531 47.9766C123.125 47.8516 122.703 47.7188 122.266 47.5781C121.844 47.4375 121.453 47.2891 121.094 47.1328C120.75 46.9609 120.461 46.7969 120.227 46.6406C120.008 46.4688 119.898 46.3125 119.898 46.1719C119.898 45.9844 119.984 45.7969 120.156 45.6094C120.328 45.4062 120.531 45.2266 120.766 45.0703C121 44.8984 121.242 44.7578 121.492 44.6484C121.758 44.5391 121.977 44.4844 122.148 44.4844C122.383 44.4844 122.625 44.5391 122.875 44.6484C123.141 44.7578 123.406 44.8828 123.672 45.0234C123.969 45.1797 124.266 45.3203 124.562 45.4453C124.875 45.5703 125.195 45.6328 125.523 45.6328C125.773 45.6328 125.914 45.5469 125.945 45.375C125.992 45.2031 126.016 45.0078 126.016 44.7891C126.016 44.2422 125.922 43.7266 125.734 43.2422C125.547 42.7422 125.305 42.2578 125.008 41.7891C124.711 41.3203 124.367 40.8672 123.977 40.4297C123.586 39.9766 123.195 39.5312 122.805 39.0938C122.398 38.6562 122 38.2188 121.609 37.7812C121.234 37.3438 120.898 36.8984 120.602 36.4453C120.305 35.9766 120.062 35.5 119.875 35.0156C119.703 34.5312 119.617 34.0156 119.617 33.4688C119.617 32.7969 119.766 32.1953 120.062 31.6641C120.359 31.1172 120.742 30.6484 121.211 30.2578C121.695 29.8672 122.234 29.5703 122.828 29.3672C123.438 29.1484 124.047 29.0391 124.656 29.0391C124.859 29.0391 125.172 29.0859 125.594 29.1797C126.016 29.2578 126.43 29.375 126.836 29.5312C127.242 29.6875 127.602 29.875 127.914 30.0938C128.227 30.3125 128.383 30.5547 128.383 30.8203Z" fill="#1B73F0"/>
<path d="M119.359 43.7109C119.359 44.1797 119.227 44.6641 118.961 45.1641C118.711 45.6641 118.383 46.125 117.977 46.5469C117.57 46.9531 117.102 47.2891 116.57 47.5547C116.055 47.8203 115.539 47.9531 115.023 47.9531C114.289 47.9531 113.656 47.8125 113.125 47.5312C112.594 47.2344 112.133 46.8438 111.742 46.3594C111.352 45.8594 111.031 45.2969 110.781 44.6719C110.547 44.0469 110.359 43.4062 110.219 42.75C110.078 42.0781 109.977 41.4141 109.914 40.7578C109.867 40.0859 109.844 39.4766 109.844 38.9297C109.844 38.4609 109.867 37.9062 109.914 37.2656C109.977 36.625 110.07 35.9609 110.195 35.2734C110.336 34.5859 110.523 33.9062 110.758 33.2344C110.992 32.5625 111.281 31.9609 111.625 31.4297C111.984 30.8984 112.406 30.4688 112.891 30.1406C113.391 29.8125 113.961 29.6484 114.602 29.6484C115.102 29.6484 115.547 29.75 115.938 29.9531C116.344 30.1562 116.68 30.4297 116.945 30.7734C117.227 31.1016 117.438 31.4844 117.578 31.9219C117.734 32.3594 117.812 32.8125 117.812 33.2812C117.812 33.8906 117.672 34.5547 117.391 35.2734C117.109 35.9922 116.742 36.6875 116.289 37.3594C115.852 38.0312 115.352 38.6406 114.789 39.1875C114.242 39.7188 113.695 40.125 113.148 40.4062C113.18 40.6875 113.242 41.1016 113.336 41.6484C113.43 42.1797 113.555 42.7109 113.711 43.2422C113.883 43.7734 114.078 44.2344 114.297 44.625C114.531 45.0156 114.805 45.2109 115.117 45.2109C115.273 45.2109 115.406 45.1641 115.516 45.0703C115.641 44.9766 115.75 44.8516 115.844 44.6953C115.938 44.5391 116.016 44.3672 116.078 44.1797C116.156 43.9922 116.227 43.8125 116.289 43.6406L116.43 43.3125C116.461 43.2656 116.477 43.2344 116.477 43.2188C116.492 43.2031 116.508 43.1797 116.523 43.1484C116.633 42.9453 116.734 42.7578 116.828 42.5859C116.938 42.4141 117.086 42.2656 117.273 42.1406H117.25C117.312 42.0781 117.375 42.0469 117.438 42.0469C117.516 42.0312 117.586 42.0234 117.648 42.0234C117.82 42.0234 118.008 42.0781 118.211 42.1875C118.414 42.2969 118.602 42.4375 118.773 42.6094C118.945 42.7656 119.086 42.9453 119.195 43.1484C119.305 43.3359 119.359 43.5234 119.359 43.7109ZM114.719 33.375C114.719 33.2188 114.711 33.0547 114.695 32.8828C114.68 32.7109 114.641 32.5625 114.578 32.4375C114.359 32.7031 114.164 33.0234 113.992 33.3984C113.836 33.7578 113.703 34.1406 113.594 34.5469C113.484 34.9375 113.391 35.3359 113.312 35.7422C113.25 36.1484 113.203 36.5234 113.172 36.8672C113.578 36.3828 113.938 35.8359 114.25 35.2266C114.562 34.6016 114.719 33.9844 114.719 33.375Z" fill="#1B73F0"/>
<path d="M108.273 46.7344C108.273 47.0469 108.172 47.2734 107.969 47.4141C107.766 47.5547 107.516 47.625 107.219 47.625C107.031 47.625 106.836 47.6094 106.633 47.5781C106.43 47.5312 106.234 47.4844 106.047 47.4375C105.719 47.3438 105.461 47.2266 105.273 47.0859C105.102 46.9453 104.969 46.7891 104.875 46.6172C104.781 46.4297 104.719 46.2266 104.688 46.0078C104.672 45.7891 104.656 45.5469 104.641 45.2812C104.641 45.2031 104.633 45.1328 104.617 45.0703C104.617 45.0078 104.617 44.9453 104.617 44.8828C104.57 43.9922 104.523 43.0781 104.477 42.1406C104.445 41.2031 104.43 40.2891 104.43 39.3984C104.43 38.9453 104.43 38.4922 104.43 38.0391C104.445 37.5859 104.461 37.1328 104.477 36.6797C104.492 36.2266 104.5 35.7812 104.5 35.3438C104.516 34.8906 104.523 34.4375 104.523 33.9844C104.523 33.8906 104.516 33.8047 104.5 33.7266C104.5 33.6328 104.492 33.5391 104.477 33.4453C104.07 34.0391 103.711 34.7031 103.398 35.4375C103.102 36.1562 102.836 36.9062 102.602 37.6875C102.367 38.4531 102.164 39.2266 101.992 40.0078C101.836 40.7734 101.703 41.5078 101.594 42.2109L101.523 42.7031C101.445 43.25 101.367 43.8125 101.289 44.3906C101.211 44.9531 101.172 45.5156 101.172 46.0781C101.172 46.3125 101.211 46.5703 101.289 46.8516C101.32 46.9766 101.344 47.1016 101.359 47.2266C101.391 47.3359 101.406 47.4766 101.406 47.6484C101.406 48.0234 101.312 48.2734 101.125 48.3984C100.938 48.5391 100.688 48.6094 100.375 48.6094C100.188 48.6094 99.9766 48.5938 99.7422 48.5625C99.5234 48.5312 99.3047 48.4766 99.0859 48.3984C98.8828 48.3359 98.6875 48.25 98.5 48.1406C98.3125 48.0312 98.1641 47.8906 98.0547 47.7188C97.9609 47.5156 97.8672 46.9766 97.7734 46.1016C97.6953 45.2266 97.6172 44.1406 97.5391 42.8438C97.4766 41.5469 97.4141 40.0938 97.3516 38.4844C97.2891 36.8594 97.2266 35.1953 97.1641 33.4922C97.1172 31.7891 97.0703 30.1016 97.0234 28.4297C96.9922 26.7578 96.9609 25.2188 96.9297 23.8125C96.9141 22.4062 96.8984 21.1875 96.8828 20.1562C96.8672 19.1094 96.8594 18.375 96.8594 17.9531C96.8594 17.6406 96.8984 17.3594 96.9766 17.1094C97.0703 16.8438 97.3203 16.7109 97.7266 16.7109C98.1484 16.7109 98.5469 16.8125 98.9219 17.0156C99.2969 17.2031 99.5703 17.5 99.7422 17.9062C99.7734 17.9688 99.8047 18.2266 99.8359 18.6797C99.8672 19.1172 99.8984 19.6875 99.9297 20.3906C99.9609 21.0781 99.9922 21.875 100.023 22.7812C100.055 23.6719 100.086 24.6016 100.117 25.5703C100.148 26.5234 100.18 27.4844 100.211 28.4531C100.242 29.4219 100.273 30.3281 100.305 31.1719L100.422 34.6406C100.609 34.1562 100.844 33.6484 101.125 33.1172C101.406 32.5859 101.727 32.1016 102.086 31.6641C102.461 31.2266 102.875 30.8672 103.328 30.5859C103.797 30.3047 104.312 30.1641 104.875 30.1641C105.562 30.1641 106.102 30.3438 106.492 30.7031C106.883 31.0625 107.172 31.5078 107.359 32.0391C107.562 32.5703 107.688 33.1406 107.734 33.75C107.781 34.3594 107.805 34.9141 107.805 35.4141C107.805 35.7266 107.797 36.0312 107.781 36.3281C107.781 36.625 107.773 36.9219 107.758 37.2188C107.742 37.5312 107.727 37.8438 107.711 38.1562C107.711 38.4531 107.711 38.7578 107.711 39.0703C107.711 40.1484 107.734 41.2578 107.781 42.3984C107.828 43.5234 107.945 44.6328 108.133 45.7266L108.18 46.0547C108.211 46.1484 108.234 46.2578 108.25 46.3828C108.266 46.5078 108.273 46.625 108.273 46.7344Z" fill="#1B73F0"/>
<path d="M92.9219 47.4141C92.9219 47.5859 92.8828 47.7344 92.8047 47.8594C92.7266 47.9688 92.625 48.0547 92.5 48.1172C92.3906 48.1797 92.2656 48.2188 92.125 48.2344C92 48.2656 91.875 48.2812 91.75 48.2812C91.5781 48.2812 91.375 48.2578 91.1406 48.2109C90.9219 48.1797 90.7031 48.125 90.4844 48.0469C90.2656 47.9688 90.0625 47.875 89.875 47.7656C89.7031 47.6406 89.5703 47.4922 89.4766 47.3203C89.3828 47.1641 89.2969 46.875 89.2188 46.4531C89.1562 46.0156 89.1016 45.5156 89.0547 44.9531C89.0078 44.375 88.9688 43.7656 88.9375 43.125C88.9062 42.4688 88.875 41.8438 88.8438 41.25C88.8281 40.6562 88.8125 40.125 88.7969 39.6562C88.7969 39.1719 88.7969 38.8125 88.7969 38.5781C88.7969 37.4844 88.8125 36.4297 88.8438 35.4141C88.8906 34.3828 88.9375 33.3281 88.9844 32.25C88.9062 32.25 88.8281 32.2578 88.75 32.2734C88.6719 32.2891 88.5938 32.2969 88.5156 32.2969C88.3125 32.3281 88.1016 32.3516 87.8828 32.3672C87.6797 32.3828 87.4688 32.3906 87.25 32.3906C86.9844 32.3906 86.75 32.3438 86.5469 32.25C86.3438 32.1562 86.2422 31.9453 86.2422 31.6172C86.2422 31.2266 86.3281 30.9141 86.5 30.6797C86.6719 30.4453 86.8906 30.2656 87.1562 30.1406C87.4219 30 87.7109 29.9062 88.0234 29.8594C88.3359 29.7969 88.6406 29.75 88.9375 29.7188C88.9844 29.7188 89.0156 29.7188 89.0312 29.7188C89.0469 29.7031 89.0781 29.6953 89.125 29.6953C89.1406 29.5078 89.1562 29.2812 89.1719 29.0156C89.1875 28.7344 89.2031 28.4297 89.2188 28.1016C89.2344 27.5859 89.2578 27.0391 89.2891 26.4609C89.3203 25.8672 89.3516 25.3047 89.3828 24.7734C89.4141 24.2266 89.4531 23.75 89.5 23.3438C89.5469 22.9219 89.5938 22.625 89.6406 22.4531C89.7188 22.25 89.8047 22.0859 89.8984 21.9609C90.0078 21.8359 90.2031 21.7734 90.4844 21.7734C91.1094 21.7734 91.5938 21.9766 91.9375 22.3828C92.2812 22.7891 92.4531 23.2891 92.4531 23.8828C92.4531 24.5703 92.4297 25.2578 92.3828 25.9453C92.3516 26.6328 92.3203 27.3281 92.2891 28.0312L92.2188 29.2266C92.6094 29.1797 93 29.1094 93.3906 29.0156C93.7656 28.9375 94.1406 28.8672 94.5156 28.8047C94.9062 28.7422 95.2812 28.7109 95.6406 28.7109C95.9531 28.7109 96.1953 28.7969 96.3672 28.9688C96.5391 29.125 96.625 29.3594 96.625 29.6719C96.625 30.0156 96.5625 30.3516 96.4375 30.6797C96.3125 31.0078 96.0938 31.2578 95.7812 31.4297H95.8047C95.7422 31.4609 95.5547 31.5078 95.2422 31.5703C94.9297 31.6172 94.5703 31.6641 94.1641 31.7109C93.7734 31.7578 93.3828 31.8047 92.9922 31.8516C92.6172 31.8984 92.3359 31.9297 92.1484 31.9453H92.125C92.0938 32.8203 92.0703 33.6875 92.0547 34.5469C92.0391 35.3906 92.0312 36.25 92.0312 37.125C92.0312 38.3281 92.0625 39.6094 92.125 40.9688C92.2031 42.3125 92.3281 43.5938 92.5 44.8125L92.6875 45.8672C92.75 46.1328 92.8047 46.3984 92.8516 46.6641C92.8984 46.9141 92.9219 47.1641 92.9219 47.4141Z" fill="#1B73F0"/>
<path d="M80.5938 18.8672C80.5938 19.0391 80.5156 19.1875 80.3594 19.3125C80.2188 19.4219 80.0469 19.5156 79.8438 19.5938C79.6406 19.6562 79.4375 19.7031 79.2344 19.7344C79.0312 19.7656 78.875 19.7812 78.7656 19.7812C78.4062 19.7812 78.0703 19.7266 77.7578 19.6172C77.4453 19.4922 77.1094 19.4219 76.75 19.4062C76.2344 19.5469 75.7734 19.8594 75.3672 20.3438C74.9609 20.8281 74.6406 21.5312 74.4062 22.4531C74.1719 23.375 74.0391 24.5312 74.0078 25.9219C73.9766 27.3125 74.0781 28.9922 74.3125 30.9609C75.2969 30.7578 76.2109 30.5859 77.0547 30.4453C77.9141 30.2891 78.5781 30.2109 79.0469 30.2109C79.4219 30.2109 79.6797 30.3125 79.8203 30.5156C79.9609 30.7188 80.0312 30.9766 80.0312 31.2891C80.0312 31.6016 80 31.8906 79.9375 32.1562C79.875 32.4219 79.7109 32.6406 79.4453 32.8125L74.5469 33.5625C74.625 34.2188 74.6875 34.8828 74.7344 35.5547C74.7969 36.2109 74.8594 36.8594 74.9219 37.5C75.1719 39.5312 75.3828 41.1953 75.5547 42.4922C75.7422 43.7891 75.8906 44.8281 76 45.6094C76.125 46.375 76.2188 46.9297 76.2812 47.2734C76.3594 47.6016 76.4141 47.8281 76.4453 47.9531C76.4766 48.0625 76.4922 48.1094 76.4922 48.0938C76.5078 48.0781 76.5156 48.0938 76.5156 48.1406C76.5156 48.4688 76.4141 48.6953 76.2109 48.8203C76.0078 48.9609 75.7656 49.0312 75.4844 49.0312C75.2656 49.0312 75.0312 49.0078 74.7812 48.9609C74.5469 48.9297 74.3125 48.875 74.0781 48.7969C73.8438 48.7188 73.6328 48.6094 73.4453 48.4688C73.2578 48.3281 73.125 48.1562 73.0469 47.9531C72.9219 46.8906 72.7734 45.875 72.6016 44.9062C72.4297 43.9375 72.2812 42.9297 72.1562 41.8828C72.0312 40.6484 71.8906 39.3359 71.7344 37.9453C71.5938 36.5547 71.4766 35.2266 71.3828 33.9609C71.3203 33.9766 71.2578 33.9844 71.1953 33.9844C71.1328 33.9688 71.0625 33.9609 70.9844 33.9609C70.7344 33.9609 70.5234 33.9062 70.3516 33.7969C70.1953 33.6719 70.1172 33.4531 70.1172 33.1406C70.1172 32.7812 70.2031 32.4531 70.375 32.1562C70.5625 31.8594 70.8359 31.6641 71.1953 31.5703C71.1484 30.7109 71.0938 29.7578 71.0312 28.7109C70.9688 27.6641 70.9453 26.6016 70.9609 25.5234C70.9766 24.4297 71.0625 23.375 71.2188 22.3594C71.3906 21.3281 71.6875 20.4219 72.1094 19.6406C72.5312 18.8438 73.1094 18.2031 73.8438 17.7188C74.5781 17.2344 75.5234 16.9922 76.6797 16.9922C76.9141 16.9922 77.2422 17.0312 77.6641 17.1094C78.1016 17.1875 78.5391 17.3125 78.9766 17.4844C79.4141 17.6406 79.7891 17.8359 80.1016 18.0703C80.4297 18.3047 80.5938 18.5703 80.5938 18.8672Z" fill="#1B73F0"/>
<path d="M69.5781 38.3906C69.5781 39.75 69.4609 41.1094 69.2266 42.4688C69.0078 43.8125 68.5469 45.0859 67.8438 46.2891C67.625 46.6484 67.375 47 67.0938 47.3438C66.8125 47.6719 66.5 47.9688 66.1562 48.2344C65.8281 48.5156 65.4609 48.7344 65.0547 48.8906C64.6641 49.0625 64.25 49.1484 63.8125 49.1484C63.125 49.1484 62.5234 48.9844 62.0078 48.6562C61.5078 48.3438 61.0703 47.9297 60.6953 47.4141C60.3359 46.8828 60.0312 46.2891 59.7812 45.6328C59.5469 44.9609 59.3594 44.2812 59.2188 43.5938C59.0938 42.8906 59 42.2109 58.9375 41.5547C58.8906 40.8984 58.8672 40.3203 58.8672 39.8203C58.8672 39.2578 58.8906 38.6406 58.9375 37.9688C58.9844 37.2969 59.0625 36.6094 59.1719 35.9062C59.2969 35.2031 59.4531 34.5078 59.6406 33.8203C59.8438 33.1328 60.1016 32.4922 60.4141 31.8984C60.7266 31.2891 61.1016 30.75 61.5391 30.2812C61.9766 29.7969 62.4844 29.4141 63.0625 29.1328V29.1562C63.5625 28.8906 64.0625 28.7578 64.5625 28.7578C64.875 28.7578 65.1172 28.8281 65.2891 28.9688C65.4609 29.0938 65.5391 29.3125 65.5234 29.625C66.3828 29.7812 67.0781 30.1953 67.6094 30.8672C68.1406 31.5391 68.5469 32.3203 68.8281 33.2109C69.125 34.1016 69.3203 35.0156 69.4141 35.9531C69.5234 36.8906 69.5781 37.7031 69.5781 38.3906ZM64.2812 32.5312C64.0156 32.5312 63.7656 32.4297 63.5312 32.2266C63.2344 32.6797 62.9844 33.2031 62.7812 33.7969C62.5781 34.375 62.4141 34.9766 62.2891 35.6016C62.1797 36.2109 62.1016 36.8281 62.0547 37.4531C62.0078 38.0781 61.9844 38.6641 61.9844 39.2109C61.9844 39.6641 62.0078 40.25 62.0547 40.9688C62.1016 41.6719 62.1875 42.3828 62.3125 43.1016C62.4531 43.8203 62.6406 44.4922 62.875 45.1172C63.125 45.7422 63.4453 46.2031 63.8359 46.5C64.3203 46.2188 64.7188 45.7734 65.0312 45.1641C65.3594 44.5391 65.6172 43.8594 65.8047 43.125C65.9922 42.3906 66.1172 41.6484 66.1797 40.8984C66.2578 40.1484 66.2969 39.5078 66.2969 38.9766C66.2969 38.5859 66.2734 38.0781 66.2266 37.4531C66.1797 36.8281 66.1016 36.1953 65.9922 35.5547C65.8828 34.8984 65.7266 34.2891 65.5234 33.7266C65.3359 33.1641 65.0938 32.7422 64.7969 32.4609C64.6562 32.5078 64.4844 32.5312 64.2812 32.5312Z" fill="#1B73F0"/>
<path d="M48.1562 47.4141C48.1562 47.5859 48.1172 47.7344 48.0391 47.8594C47.9609 47.9688 47.8594 48.0547 47.7344 48.1172C47.625 48.1797 47.5 48.2188 47.3594 48.2344C47.2344 48.2656 47.1094 48.2812 46.9844 48.2812C46.8125 48.2812 46.6094 48.2578 46.375 48.2109C46.1562 48.1797 45.9375 48.125 45.7188 48.0469C45.5 47.9688 45.2969 47.875 45.1094 47.7656C44.9375 47.6406 44.8047 47.4922 44.7109 47.3203C44.6172 47.1641 44.5312 46.875 44.4531 46.4531C44.3906 46.0156 44.3359 45.5156 44.2891 44.9531C44.2422 44.375 44.2031 43.7656 44.1719 43.125C44.1406 42.4688 44.1094 41.8438 44.0781 41.25C44.0625 40.6562 44.0469 40.125 44.0312 39.6562C44.0312 39.1719 44.0312 38.8125 44.0312 38.5781C44.0312 37.4844 44.0469 36.4297 44.0781 35.4141C44.125 34.3828 44.1719 33.3281 44.2188 32.25C44.1406 32.25 44.0625 32.2578 43.9844 32.2734C43.9062 32.2891 43.8281 32.2969 43.75 32.2969C43.5469 32.3281 43.3359 32.3516 43.1172 32.3672C42.9141 32.3828 42.7031 32.3906 42.4844 32.3906C42.2188 32.3906 41.9844 32.3438 41.7812 32.25C41.5781 32.1562 41.4766 31.9453 41.4766 31.6172C41.4766 31.2266 41.5625 30.9141 41.7344 30.6797C41.9062 30.4453 42.125 30.2656 42.3906 30.1406C42.6562 30 42.9453 29.9062 43.2578 29.8594C43.5703 29.7969 43.875 29.75 44.1719 29.7188C44.2188 29.7188 44.25 29.7188 44.2656 29.7188C44.2812 29.7031 44.3125 29.6953 44.3594 29.6953C44.375 29.5078 44.3906 29.2812 44.4062 29.0156C44.4219 28.7344 44.4375 28.4297 44.4531 28.1016C44.4688 27.5859 44.4922 27.0391 44.5234 26.4609C44.5547 25.8672 44.5859 25.3047 44.6172 24.7734C44.6484 24.2266 44.6875 23.75 44.7344 23.3438C44.7812 22.9219 44.8281 22.625 44.875 22.4531C44.9531 22.25 45.0391 22.0859 45.1328 21.9609C45.2422 21.8359 45.4375 21.7734 45.7188 21.7734C46.3438 21.7734 46.8281 21.9766 47.1719 22.3828C47.5156 22.7891 47.6875 23.2891 47.6875 23.8828C47.6875 24.5703 47.6641 25.2578 47.6172 25.9453C47.5859 26.6328 47.5547 27.3281 47.5234 28.0312L47.4531 29.2266C47.8438 29.1797 48.2344 29.1094 48.625 29.0156C49 28.9375 49.375 28.8672 49.75 28.8047C50.1406 28.7422 50.5156 28.7109 50.875 28.7109C51.1875 28.7109 51.4297 28.7969 51.6016 28.9688C51.7734 29.125 51.8594 29.3594 51.8594 29.6719C51.8594 30.0156 51.7969 30.3516 51.6719 30.6797C51.5469 31.0078 51.3281 31.2578 51.0156 31.4297H51.0391C50.9766 31.4609 50.7891 31.5078 50.4766 31.5703C50.1641 31.6172 49.8047 31.6641 49.3984 31.7109C49.0078 31.7578 48.6172 31.8047 48.2266 31.8516C47.8516 31.8984 47.5703 31.9297 47.3828 31.9453H47.3594C47.3281 32.8203 47.3047 33.6875 47.2891 34.5469C47.2734 35.3906 47.2656 36.25 47.2656 37.125C47.2656 38.3281 47.2969 39.6094 47.3594 40.9688C47.4375 42.3125 47.5625 43.5938 47.7344 44.8125L47.9219 45.8672C47.9844 46.1328 48.0391 46.3984 48.0859 46.6641C48.1328 46.9141 48.1562 47.1641 48.1562 47.4141Z" fill="#1B73F0"/>
<path d="M40.8672 30.8203C40.8672 31.0078 40.7969 31.1641 40.6562 31.2891C40.5312 31.4141 40.375 31.5234 40.1875 31.6172C40 31.6953 39.8047 31.75 39.6016 31.7812C39.4141 31.8125 39.2578 31.8281 39.1328 31.8281C38.9453 31.8281 38.7656 31.8125 38.5938 31.7812C38.4219 31.7344 38.25 31.6875 38.0781 31.6406C37.9062 31.5938 37.7422 31.5547 37.5859 31.5234C37.4297 31.4766 37.2656 31.4531 37.0938 31.4531C36.8594 31.4531 36.625 31.4922 36.3906 31.5703C36.1562 31.6484 35.9453 31.7578 35.7578 31.8984C35.5703 32.0391 35.4141 32.2109 35.2891 32.4141C35.1797 32.6172 35.125 32.8438 35.125 33.0938C35.125 33.4688 35.2031 33.8438 35.3594 34.2188C35.5156 34.5781 35.7188 34.9453 35.9688 35.3203C36.2344 35.6953 36.5312 36.0781 36.8594 36.4688C37.2031 36.8438 37.5625 37.2266 37.9375 37.6172C38.3906 38.1172 38.8438 38.625 39.2969 39.1406C39.7656 39.6562 40.1797 40.1953 40.5391 40.7578C40.9141 41.3203 41.2188 41.9141 41.4531 42.5391C41.6875 43.1641 41.8047 43.8203 41.8047 44.5078C41.8047 45.1016 41.7031 45.6328 41.5 46.1016C41.3125 46.5703 41.0391 46.9688 40.6797 47.2969C40.3359 47.625 39.9141 47.875 39.4141 48.0469C38.9297 48.2344 38.3984 48.3281 37.8203 48.3281C37.6641 48.3281 37.4219 48.2969 37.0938 48.2344C36.7812 48.1719 36.4219 48.0859 36.0156 47.9766C35.6094 47.8516 35.1875 47.7188 34.75 47.5781C34.3281 47.4375 33.9375 47.2891 33.5781 47.1328C33.2344 46.9609 32.9453 46.7969 32.7109 46.6406C32.4922 46.4688 32.3828 46.3125 32.3828 46.1719C32.3828 45.9844 32.4688 45.7969 32.6406 45.6094C32.8125 45.4062 33.0156 45.2266 33.25 45.0703C33.4844 44.8984 33.7266 44.7578 33.9766 44.6484C34.2422 44.5391 34.4609 44.4844 34.6328 44.4844C34.8672 44.4844 35.1094 44.5391 35.3594 44.6484C35.625 44.7578 35.8906 44.8828 36.1562 45.0234C36.4531 45.1797 36.75 45.3203 37.0469 45.4453C37.3594 45.5703 37.6797 45.6328 38.0078 45.6328C38.2578 45.6328 38.3984 45.5469 38.4297 45.375C38.4766 45.2031 38.5 45.0078 38.5 44.7891C38.5 44.2422 38.4062 43.7266 38.2188 43.2422C38.0312 42.7422 37.7891 42.2578 37.4922 41.7891C37.1953 41.3203 36.8516 40.8672 36.4609 40.4297C36.0703 39.9766 35.6797 39.5312 35.2891 39.0938C34.8828 38.6562 34.4844 38.2188 34.0938 37.7812C33.7188 37.3438 33.3828 36.8984 33.0859 36.4453C32.7891 35.9766 32.5469 35.5 32.3594 35.0156C32.1875 34.5312 32.1016 34.0156 32.1016 33.4688C32.1016 32.7969 32.25 32.1953 32.5469 31.6641C32.8438 31.1172 33.2266 30.6484 33.6953 30.2578C34.1797 29.8672 34.7188 29.5703 35.3125 29.3672C35.9219 29.1484 36.5312 29.0391 37.1406 29.0391C37.3438 29.0391 37.6562 29.0859 38.0781 29.1797C38.5 29.2578 38.9141 29.375 39.3203 29.5312C39.7266 29.6875 40.0859 29.875 40.3984 30.0938C40.7109 30.3125 40.8672 30.5547 40.8672 30.8203Z" fill="#1B73F0"/>
<path d="M31.2344 38.3906C31.2344 39.75 31.1172 41.1094 30.8828 42.4688C30.6641 43.8125 30.2031 45.0859 29.5 46.2891C29.2812 46.6484 29.0312 47 28.75 47.3438C28.4688 47.6719 28.1562 47.9688 27.8125 48.2344C27.4844 48.5156 27.1172 48.7344 26.7109 48.8906C26.3203 49.0625 25.9062 49.1484 25.4688 49.1484C24.7812 49.1484 24.1797 48.9844 23.6641 48.6562C23.1641 48.3438 22.7266 47.9297 22.3516 47.4141C21.9922 46.8828 21.6875 46.2891 21.4375 45.6328C21.2031 44.9609 21.0156 44.2812 20.875 43.5938C20.75 42.8906 20.6562 42.2109 20.5938 41.5547C20.5469 40.8984 20.5234 40.3203 20.5234 39.8203C20.5234 39.2578 20.5469 38.6406 20.5938 37.9688C20.6406 37.2969 20.7188 36.6094 20.8281 35.9062C20.9531 35.2031 21.1094 34.5078 21.2969 33.8203C21.5 33.1328 21.7578 32.4922 22.0703 31.8984C22.3828 31.2891 22.7578 30.75 23.1953 30.2812C23.6328 29.7969 24.1406 29.4141 24.7188 29.1328V29.1562C25.2188 28.8906 25.7188 28.7578 26.2188 28.7578C26.5312 28.7578 26.7734 28.8281 26.9453 28.9688C27.1172 29.0938 27.1953 29.3125 27.1797 29.625C28.0391 29.7812 28.7344 30.1953 29.2656 30.8672C29.7969 31.5391 30.2031 32.3203 30.4844 33.2109C30.7812 34.1016 30.9766 35.0156 31.0703 35.9531C31.1797 36.8906 31.2344 37.7031 31.2344 38.3906ZM25.9375 32.5312C25.6719 32.5312 25.4219 32.4297 25.1875 32.2266C24.8906 32.6797 24.6406 33.2031 24.4375 33.7969C24.2344 34.375 24.0703 34.9766 23.9453 35.6016C23.8359 36.2109 23.7578 36.8281 23.7109 37.4531C23.6641 38.0781 23.6406 38.6641 23.6406 39.2109C23.6406 39.6641 23.6641 40.25 23.7109 40.9688C23.7578 41.6719 23.8438 42.3828 23.9688 43.1016C24.1094 43.8203 24.2969 44.4922 24.5312 45.1172C24.7812 45.7422 25.1016 46.2031 25.4922 46.5C25.9766 46.2188 26.375 45.7734 26.6875 45.1641C27.0156 44.5391 27.2734 43.8594 27.4609 43.125C27.6484 42.3906 27.7734 41.6484 27.8359 40.8984C27.9141 40.1484 27.9531 39.5078 27.9531 38.9766C27.9531 38.5859 27.9297 38.0781 27.8828 37.4531C27.8359 36.8281 27.7578 36.1953 27.6484 35.5547C27.5391 34.8984 27.3828 34.2891 27.1797 33.7266C26.9922 33.1641 26.75 32.7422 26.4531 32.4609C26.3125 32.5078 26.1406 32.5312 25.9375 32.5312Z" fill="#1B73F0"/>
<path d="M18.8594 48.0469C18.8594 48.3594 18.7812 48.6094 18.625 48.7969C18.4844 48.9844 18.2344 49.0781 17.875 49.0781C17.6875 49.0781 17.4922 49.0547 17.2891 49.0078C17.0859 48.9766 16.8906 48.9219 16.7031 48.8438C16.3125 48.7344 16 48.6328 15.7656 48.5391C15.5469 48.4453 15.375 48.3203 15.25 48.1641C15.1406 48.0234 15.0703 47.8359 15.0391 47.6016C15.0078 47.3672 14.9844 47.0469 14.9688 46.6406C14.8438 43.4375 14.7031 40.2656 14.5469 37.125C14.4062 33.9688 14.1719 30.7969 13.8438 27.6094C13.625 28.6875 13.4141 29.7656 13.2109 30.8438C13.0078 31.9219 12.7969 33.0156 12.5781 34.125C12.3594 35.2812 12.1484 36.4609 11.9453 37.6641C11.7578 38.8672 11.4531 40.0312 11.0312 41.1562C10.8594 41.6094 10.6484 41.9688 10.3984 42.2344C10.1484 42.4844 9.76562 42.6094 9.25 42.6094C8.875 42.6094 8.57031 42.5469 8.33594 42.4219C8.10156 42.2812 7.875 42.0781 7.65625 41.8125C7.45312 41.5938 7.23438 41.1719 7 40.5469C6.76562 39.9219 6.51562 39.1953 6.25 38.3672C6 37.5234 5.75 36.625 5.5 35.6719C5.25 34.7188 5.01562 33.8047 4.79688 32.9297C4.57812 32.0391 4.38281 31.2266 4.21094 30.4922C4.03906 29.7578 3.90625 29.2031 3.8125 28.8281V32.0156C3.8125 34.0938 3.85156 36.1641 3.92969 38.2266C4.00781 40.2891 4.14062 42.3438 4.32812 44.3906C4.375 44.8438 4.4375 45.2969 4.51562 45.75C4.60938 46.2031 4.65625 46.6562 4.65625 47.1094C4.65625 47.5156 4.51562 47.7812 4.23438 47.9062C3.96875 48.0312 3.67188 48.0938 3.34375 48.0938C2.45312 48.0938 1.76562 47.9062 1.28125 47.5312C0.8125 47.1406 0.578125 46.4844 0.578125 45.5625C0.578125 43.6719 0.53125 41.7969 0.4375 39.9375C0.34375 38.0781 0.296875 36.2031 0.296875 34.3125C0.296875 34.0469 0.296875 33.5859 0.296875 32.9297C0.3125 32.2734 0.328125 31.5 0.34375 30.6094C0.359375 29.7031 0.375 28.7266 0.390625 27.6797C0.421875 26.6172 0.453125 25.5469 0.484375 24.4688C0.515625 23.3906 0.546875 22.3438 0.578125 21.3281C0.609375 20.2969 0.640625 19.375 0.671875 18.5625C0.703125 17.75 0.734375 17.0781 0.765625 16.5469C0.8125 16 0.859375 15.6719 0.90625 15.5625C0.984375 15.3438 1.07031 15.2031 1.16406 15.1406C1.27344 15.0781 1.4375 15.0469 1.65625 15.0469C2.25 15.0469 2.74219 15.1797 3.13281 15.4453C3.53906 15.6953 3.8125 16.125 3.95312 16.7344C4.17188 17.0625 4.42188 17.6641 4.70312 18.5391C4.98438 19.3984 5.28125 20.4062 5.59375 21.5625C5.90625 22.7188 6.21875 23.9688 6.53125 25.3125C6.85938 26.6406 7.16406 27.9219 7.44531 29.1562C7.74219 30.3906 8.00781 31.5234 8.24219 32.5547C8.49219 33.5859 8.6875 34.375 8.82812 34.9219C9.28125 32.2344 9.74219 29.5625 10.2109 26.9062C10.6797 24.25 11.125 21.5781 11.5469 18.8906C11.625 18.4375 11.7031 17.9922 11.7812 17.5547C11.875 17.1172 11.9219 16.6719 11.9219 16.2188C11.9219 15.9375 11.8828 15.6797 11.8047 15.4453C11.7266 15.1953 11.6875 14.9375 11.6875 14.6719C11.6875 14.3438 11.7891 14.1484 11.9922 14.0859C12.2109 14.0078 12.4531 13.9688 12.7188 13.9688C12.9688 13.9688 13.2656 14.0078 13.6094 14.0859C13.9531 14.1641 14.2812 14.2812 14.5938 14.4375C14.9219 14.5938 15.1953 14.7891 15.4141 15.0234C15.6484 15.2578 15.7656 15.5312 15.7656 15.8438C15.7656 16.3906 15.7188 16.9688 15.625 17.5781C16.1875 20.2188 16.6562 22.8672 17.0312 25.5234C17.4062 28.1641 17.6875 30.8281 17.875 33.5156C18.0625 35.8281 18.2109 38.125 18.3203 40.4062C18.4453 42.6875 18.5938 44.9688 18.7656 47.25C18.7969 47.3906 18.8203 47.5234 18.8359 47.6484C18.8516 47.7734 18.8594 47.9062 18.8594 48.0469Z" fill="#1B73F0"/>
</svg>
